<svg xmlns="http://www.w3.org/2000/svg" width="38" height="38" viewBox="0 0 38 38">
  <g id="noun_Settings_735233" transform="translate(-14.5 -15.5)">
    <path id="Path_4" data-name="Path 4" d="M51.644,31.572,49.2,30.5a3.345,3.345,0,0,1-1.755-1.788h0a3.345,3.345,0,0,1,0-2.5l.974-2.473a1.07,1.07,0,0,0-.118-1.375l-2.676-2.676a1.07,1.07,0,0,0-1.375-.118l-2.467,1.017a3.345,3.345,0,0,1-2.5,0h0a3.345,3.345,0,0,1-1.788-1.755l-1.07-2.441a1.07,1.07,0,0,0-1.07-.888H31.605a1.07,1.07,0,0,0-1.07.888l-1.07,2.441a3.345,3.345,0,0,1-4.282,1.777L22.742,19.6a1.07,1.07,0,0,0-1.375.118l-2.676,2.676a1.07,1.07,0,0,0-.118,1.375l1.012,2.446a3.345,3.345,0,0,1,0,2.515h0a3.345,3.345,0,0,1-1.755,1.777l-2.441,1.07a1.07,1.07,0,0,0-.888,1.07v3.746a1.07,1.07,0,0,0,.888,1.07l2.441,1.07a3.345,3.345,0,0,1,1.755,1.788h0a3.345,3.345,0,0,1,0,2.5l-.985,2.43a1.07,1.07,0,0,0,.118,1.375l2.676,2.676a1.07,1.07,0,0,0,1.375.118l2.446-1.012a3.345,3.345,0,0,1,2.5,0h0a3.345,3.345,0,0,1,1.788,1.755l1.07,2.441a1.07,1.07,0,0,0,1.07.888h3.746a1.07,1.07,0,0,0,1.07-.888l1.07-2.441a3.345,3.345,0,0,1,1.793-1.761h0a3.345,3.345,0,0,1,2.5,0l2.473.974a1.07,1.07,0,0,0,1.375-.118l2.676-2.676a1.07,1.07,0,0,0,.118-1.375l-1.054-2.43a3.345,3.345,0,0,1,0-2.515h0a3.345,3.345,0,0,1,1.755-1.777l2.441-1.07a1.07,1.07,0,0,0,.888-1.07V32.605A1.07,1.07,0,0,0,51.644,31.572ZM33.5,43.5a9,9,0,1,1,9-9,9,9,0,0,1-9,9Z" transform="translate(0 0)" fill="#a1a1a5"/>
  </g>
</svg>
