<?xml version="1.0" encoding="utf-8"?>
<!-- Generator: Adobe Illustrator 26.5.0, SVG Export Plug-In . SVG Version: 6.00 Build 0)  -->
<svg version="1.1" id="Layer_3" xmlns="http://www.w3.org/2000/svg" xmlns:xlink="http://www.w3.org/1999/xlink" x="0px" y="0px"
	 viewBox="0 0 219.1 170.4" style="enable-background:new 0 0 219.1 170.4;" xml:space="preserve">
<style type="text/css">
	.st0{fill:#FFFFFF;stroke:#5E6062;stroke-width:2;stroke-miterlimit:10;}
	.st1{fill:#5E6062;}
</style>
<path class="st0" d="M218.1,1v160.4c0,4.4-3.6,8-8,8H9c-4.4,0-8-3.6-8-8V1H218.1z"/>
<g>
	<path class="st1" d="M35.7,48c1.8,0,3.1,0.4,4.1,1.3s1.4,2.3,1.4,4.1c0,1-0.1,1.8-0.3,2.6c-0.2,0.7-0.5,1.4-1,1.9
		c-0.4,0.5-1,0.9-1.7,1.2s-1.5,0.4-2.5,0.4h-3.9V48H35.7z M35.8,58.1c0.2,0,0.4,0,0.6,0c0.3,0,0.5-0.1,0.8-0.2
		c0.3-0.1,0.6-0.2,0.9-0.4c0.3-0.2,0.5-0.5,0.8-0.8c0.2-0.3,0.4-0.7,0.6-1.2s0.2-1.1,0.2-1.8c0-0.7-0.1-1.3-0.2-1.8s-0.4-1-0.7-1.4
		c-0.3-0.4-0.7-0.7-1.2-0.9c-0.5-0.2-1.1-0.3-1.8-0.3h-2.6v8.9H35.8z"/>
	<path class="st1" d="M42.6,53.6c0.2-0.5,0.4-1,0.8-1.4c0.3-0.4,0.8-0.7,1.3-0.9s1.1-0.3,1.7-0.3c0.7,0,1.2,0.1,1.7,0.3
		s0.9,0.5,1.3,0.9c0.3,0.4,0.6,0.8,0.8,1.4c0.2,0.5,0.3,1.1,0.3,1.7s-0.1,1.2-0.3,1.7c-0.2,0.5-0.4,1-0.8,1.4
		c-0.3,0.4-0.8,0.7-1.3,0.9c-0.5,0.2-1.1,0.3-1.7,0.3c-0.7,0-1.2-0.1-1.7-0.3c-0.5-0.2-0.9-0.5-1.3-0.9c-0.3-0.4-0.6-0.8-0.8-1.4
		c-0.2-0.5-0.3-1.1-0.3-1.7S42.5,54.1,42.6,53.6z M44,56.6c0.1,0.4,0.3,0.7,0.6,1c0.2,0.3,0.5,0.5,0.8,0.6c0.3,0.1,0.6,0.2,1,0.2
		c0.4,0,0.7-0.1,1-0.2c0.3-0.1,0.6-0.3,0.8-0.6c0.2-0.3,0.4-0.6,0.6-1c0.1-0.4,0.2-0.8,0.2-1.3s-0.1-0.9-0.2-1.3s-0.3-0.7-0.6-1
		c-0.2-0.3-0.5-0.5-0.8-0.6c-0.3-0.1-0.6-0.2-1-0.2c-0.4,0-0.7,0.1-1,0.2c-0.3,0.1-0.6,0.3-0.8,0.6c-0.2,0.3-0.4,0.6-0.6,1
		s-0.2,0.8-0.2,1.3S43.9,56.2,44,56.6z"/>
	<path class="st1" d="M57.9,58.9c-0.6,0.5-1.4,0.7-2.3,0.7c-0.7,0-1.2-0.1-1.7-0.3c-0.5-0.2-0.9-0.5-1.2-0.9
		C52.3,58,52,57.5,51.9,57c-0.2-0.5-0.3-1.1-0.3-1.7c0-0.6,0.1-1.2,0.3-1.7c0.2-0.5,0.5-1,0.8-1.4c0.3-0.4,0.8-0.7,1.2-0.9
		s1-0.3,1.6-0.3c0.7,0,1.3,0.2,1.8,0.5c0.5,0.3,0.9,0.7,1.2,1.2c0.3,0.5,0.5,1,0.6,1.5c0.1,0.6,0.2,1.1,0.1,1.6H53
		c0,0.4,0,0.7,0.1,1c0.1,0.3,0.3,0.6,0.5,0.9c0.2,0.3,0.5,0.5,0.8,0.6s0.7,0.2,1.2,0.2c0.6,0,1-0.1,1.4-0.4c0.4-0.3,0.6-0.7,0.7-1.2
		h1.3C58.9,57.7,58.5,58.4,57.9,58.9z M57.6,53.6c-0.1-0.3-0.3-0.5-0.5-0.7s-0.5-0.4-0.7-0.5c-0.3-0.1-0.6-0.2-0.9-0.2
		c-0.4,0-0.7,0.1-1,0.2c-0.3,0.1-0.5,0.3-0.7,0.5c-0.2,0.2-0.4,0.5-0.5,0.7c-0.1,0.3-0.2,0.6-0.2,0.9h4.8
		C57.7,54.2,57.7,53.9,57.6,53.6z"/>
	<path class="st1" d="M61.7,57.6c0.1,0.2,0.3,0.4,0.5,0.5s0.4,0.2,0.7,0.3s0.5,0.1,0.8,0.1c0.2,0,0.4,0,0.7,0c0.2,0,0.5-0.1,0.6-0.2
		s0.4-0.2,0.5-0.4c0.1-0.2,0.2-0.4,0.2-0.6c0-0.4-0.1-0.6-0.4-0.8c-0.3-0.2-0.6-0.3-1-0.4c-0.4-0.1-0.8-0.2-1.3-0.3
		c-0.5-0.1-0.9-0.2-1.3-0.4c-0.4-0.2-0.7-0.4-1-0.7c-0.3-0.3-0.4-0.7-0.4-1.2c0-0.4,0.1-0.8,0.3-1.1c0.2-0.3,0.4-0.5,0.7-0.7
		c0.3-0.2,0.6-0.3,1-0.4c0.4-0.1,0.7-0.1,1.1-0.1c0.5,0,0.9,0,1.3,0.1c0.4,0.1,0.7,0.2,1,0.4c0.3,0.2,0.5,0.5,0.7,0.8
		c0.2,0.3,0.3,0.8,0.3,1.3h-1.4c0-0.3-0.1-0.5-0.2-0.7c-0.1-0.2-0.3-0.3-0.4-0.4c-0.2-0.1-0.4-0.2-0.6-0.2c-0.2,0-0.4-0.1-0.7-0.1
		c-0.2,0-0.4,0-0.6,0c-0.2,0-0.4,0.1-0.6,0.2c-0.2,0.1-0.3,0.2-0.4,0.3c-0.1,0.1-0.2,0.3-0.2,0.5c0,0.2,0.1,0.4,0.2,0.6
		c0.2,0.2,0.4,0.3,0.6,0.4c0.3,0.1,0.5,0.2,0.9,0.3s0.6,0.1,1,0.2c0.3,0.1,0.7,0.2,1,0.3c0.3,0.1,0.6,0.2,0.9,0.4
		c0.3,0.2,0.5,0.4,0.6,0.7c0.2,0.3,0.2,0.6,0.2,1c0,0.5-0.1,0.9-0.3,1.2S66.3,58.8,66,59c-0.3,0.2-0.7,0.3-1.1,0.4s-0.8,0.1-1.3,0.1
		c-0.5,0-0.9,0-1.3-0.1c-0.4-0.1-0.8-0.3-1.1-0.5s-0.6-0.5-0.8-0.9c-0.2-0.4-0.3-0.8-0.3-1.3h1.4C61.5,57.1,61.5,57.4,61.7,57.6z"/>
	<path class="st1" d="M69.9,51.1v1.3h0c0.6-1,1.5-1.5,2.7-1.5c0.5,0,1,0.1,1.4,0.2c0.4,0.1,0.7,0.4,0.9,0.6c0.2,0.3,0.4,0.6,0.5,1
		s0.1,0.8,0.1,1.2v5.4h-1.4v-5.6c0-0.5-0.1-0.9-0.4-1.2c-0.3-0.3-0.7-0.4-1.2-0.4c-0.4,0-0.8,0.1-1.1,0.2c-0.3,0.1-0.6,0.3-0.8,0.5
		c-0.2,0.2-0.4,0.5-0.5,0.8C70,54,70,54.4,70,54.7v4.7h-1.4v-8.3H69.9z"/>
	<path class="st1" d="M79.6,48v1.8c0,0.3,0,0.6-0.1,0.9c-0.1,0.3-0.2,0.5-0.3,0.7s-0.3,0.4-0.5,0.5c-0.2,0.1-0.5,0.2-0.8,0.2v-0.8
		c0.2,0,0.3,0,0.4-0.1c0.1-0.1,0.2-0.2,0.3-0.4c0.1-0.1,0.1-0.3,0.2-0.5c0-0.2,0-0.4,0-0.6h-0.9V48H79.6z"/>
	<path class="st1" d="M85.2,51.1v1.2h-1.6v5.1c0,0.2,0,0.3,0,0.4c0,0.1,0.1,0.2,0.2,0.2c0.1,0.1,0.2,0.1,0.3,0.1s0.3,0,0.5,0h0.6
		v1.2h-1c-0.4,0-0.7,0-0.9-0.1c-0.3,0-0.5-0.1-0.6-0.3s-0.3-0.3-0.3-0.5c-0.1-0.2-0.1-0.5-0.1-0.9v-5.3h-1.4v-1.2h1.4v-2.5h1.4v2.5
		H85.2z"/>
	<path class="st1" d="M94.7,51.1v1.2H93v5.1c0,0.2,0,0.3,0,0.4c0,0.1,0.1,0.2,0.2,0.2c0.1,0.1,0.2,0.1,0.3,0.1s0.3,0,0.5,0h0.6v1.2
		h-1c-0.4,0-0.7,0-0.9-0.1c-0.3,0-0.5-0.1-0.6-0.3s-0.3-0.3-0.3-0.5c-0.1-0.2-0.1-0.5-0.1-0.9v-5.3h-1.4v-1.2h1.4v-2.5H93v2.5H94.7z
		"/>
	<path class="st1" d="M97.6,48v4.4h0c0.1-0.3,0.3-0.5,0.4-0.6c0.2-0.2,0.4-0.3,0.6-0.4c0.2-0.1,0.5-0.2,0.8-0.2
		c0.3-0.1,0.5-0.1,0.8-0.1c0.5,0,1,0.1,1.4,0.2c0.4,0.1,0.7,0.4,0.9,0.6c0.2,0.3,0.4,0.6,0.5,1s0.1,0.8,0.1,1.2v5.4h-1.4v-5.6
		c0-0.5-0.1-0.9-0.4-1.2c-0.3-0.3-0.7-0.4-1.2-0.4c-0.4,0-0.8,0.1-1.1,0.2c-0.3,0.1-0.6,0.3-0.8,0.5c-0.2,0.2-0.4,0.5-0.5,0.8
		c-0.1,0.3-0.2,0.7-0.2,1v4.7h-1.4V48H97.6z"/>
	<path class="st1" d="M111,58.9c-0.6,0.5-1.4,0.7-2.3,0.7c-0.7,0-1.2-0.1-1.7-0.3c-0.5-0.2-0.9-0.5-1.2-0.9
		c-0.3-0.4-0.6-0.8-0.7-1.4c-0.2-0.5-0.3-1.1-0.3-1.7c0-0.6,0.1-1.2,0.3-1.7c0.2-0.5,0.5-1,0.8-1.4c0.3-0.4,0.8-0.7,1.2-0.9
		s1-0.3,1.6-0.3c0.7,0,1.3,0.2,1.8,0.5c0.5,0.3,0.9,0.7,1.2,1.2c0.3,0.5,0.5,1,0.6,1.5c0.1,0.6,0.2,1.1,0.1,1.6h-6.2
		c0,0.4,0,0.7,0.1,1c0.1,0.3,0.3,0.6,0.5,0.9c0.2,0.3,0.5,0.5,0.8,0.6s0.7,0.2,1.2,0.2c0.6,0,1-0.1,1.4-0.4c0.4-0.3,0.6-0.7,0.7-1.2
		h1.3C112,57.7,111.6,58.4,111,58.9z M110.6,53.6c-0.1-0.3-0.3-0.5-0.5-0.7s-0.5-0.4-0.7-0.5c-0.3-0.1-0.6-0.2-0.9-0.2
		c-0.4,0-0.7,0.1-1,0.2c-0.3,0.1-0.5,0.3-0.7,0.5c-0.2,0.2-0.4,0.5-0.5,0.7c-0.1,0.3-0.2,0.6-0.2,0.9h4.8
		C110.8,54.2,110.7,53.9,110.6,53.6z"/>
	<path class="st1" d="M119.5,51.1v1.1h0c0.2-0.5,0.6-0.8,1.1-1c0.5-0.2,1-0.3,1.6-0.3c0.6,0,1.2,0.1,1.7,0.4c0.5,0.2,0.9,0.6,1.2,1
		c0.3,0.4,0.6,0.9,0.7,1.4s0.2,1.1,0.2,1.7c0,0.6-0.1,1.1-0.2,1.7c-0.2,0.5-0.4,1-0.7,1.4c-0.3,0.4-0.7,0.7-1.2,0.9
		c-0.5,0.2-1,0.3-1.7,0.3c-0.2,0-0.4,0-0.7-0.1c-0.3,0-0.5-0.1-0.7-0.2c-0.2-0.1-0.5-0.2-0.7-0.4s-0.4-0.4-0.6-0.6h0v4.3h-1.4V51.1
		H119.5z M124.4,54.1c-0.1-0.4-0.3-0.7-0.5-1c-0.2-0.3-0.5-0.5-0.8-0.7c-0.3-0.2-0.7-0.3-1.1-0.3c-0.5,0-0.8,0.1-1.2,0.3
		c-0.3,0.2-0.6,0.4-0.8,0.7c-0.2,0.3-0.3,0.6-0.4,1c-0.1,0.4-0.1,0.8-0.1,1.1c0,0.4,0,0.8,0.1,1.2c0.1,0.4,0.2,0.7,0.5,1
		c0.2,0.3,0.5,0.5,0.8,0.7c0.3,0.2,0.7,0.3,1.2,0.3c0.5,0,0.9-0.1,1.2-0.3c0.3-0.2,0.6-0.4,0.8-0.7c0.2-0.3,0.3-0.6,0.4-1
		c0.1-0.4,0.1-0.8,0.1-1.2C124.6,54.8,124.5,54.4,124.4,54.1z"/>
	<path class="st1" d="M127.4,53.6c0.2-0.5,0.4-1,0.8-1.4c0.3-0.4,0.8-0.7,1.3-0.9c0.5-0.2,1.1-0.3,1.7-0.3c0.7,0,1.2,0.1,1.7,0.3
		s0.9,0.5,1.3,0.9c0.3,0.4,0.6,0.8,0.8,1.4c0.2,0.5,0.3,1.1,0.3,1.7s-0.1,1.2-0.3,1.7c-0.2,0.5-0.4,1-0.8,1.4
		c-0.3,0.4-0.8,0.7-1.3,0.9c-0.5,0.2-1.1,0.3-1.7,0.3c-0.7,0-1.2-0.1-1.7-0.3c-0.5-0.2-0.9-0.5-1.3-0.9c-0.3-0.4-0.6-0.8-0.8-1.4
		c-0.2-0.5-0.3-1.1-0.3-1.7S127.3,54.1,127.4,53.6z M128.8,56.6c0.1,0.4,0.3,0.7,0.6,1c0.2,0.3,0.5,0.5,0.8,0.6s0.6,0.2,1,0.2
		c0.4,0,0.7-0.1,1-0.2s0.6-0.3,0.8-0.6s0.4-0.6,0.6-1c0.1-0.4,0.2-0.8,0.2-1.3s-0.1-0.9-0.2-1.3c-0.1-0.4-0.3-0.7-0.6-1
		c-0.2-0.3-0.5-0.5-0.8-0.6c-0.3-0.1-0.6-0.2-1-0.2c-0.4,0-0.7,0.1-1,0.2c-0.3,0.1-0.6,0.3-0.8,0.6c-0.2,0.3-0.4,0.6-0.6,1
		s-0.2,0.8-0.2,1.3S128.7,56.2,128.8,56.6z"/>
	<path class="st1" d="M143.6,59.4l-1.7-6.6h0l-1.7,6.6h-1.5l-2.7-8.3h1.5l1.9,6.8h0l1.7-6.8h1.5l1.7,6.8h0l1.9-6.8h1.4l-2.6,8.3
		H143.6z"/>
	<path class="st1" d="M154.8,58.9c-0.6,0.5-1.4,0.7-2.3,0.7c-0.7,0-1.2-0.1-1.7-0.3s-0.9-0.5-1.2-0.9c-0.3-0.4-0.6-0.8-0.7-1.4
		c-0.2-0.5-0.3-1.1-0.3-1.7c0-0.6,0.1-1.2,0.3-1.7c0.2-0.5,0.5-1,0.8-1.4c0.3-0.4,0.8-0.7,1.2-0.9s1-0.3,1.6-0.3
		c0.7,0,1.3,0.2,1.8,0.5c0.5,0.3,0.9,0.7,1.2,1.2c0.3,0.5,0.5,1,0.6,1.5c0.1,0.6,0.2,1.1,0.1,1.6h-6.2c0,0.4,0,0.7,0.1,1
		c0.1,0.3,0.3,0.6,0.5,0.9c0.2,0.3,0.5,0.5,0.8,0.6s0.7,0.2,1.2,0.2c0.6,0,1-0.1,1.4-0.4c0.4-0.3,0.6-0.7,0.7-1.2h1.3
		C155.8,57.7,155.4,58.4,154.8,58.9z M154.5,53.6c-0.1-0.3-0.3-0.5-0.5-0.7s-0.5-0.4-0.7-0.5c-0.3-0.1-0.6-0.2-0.9-0.2
		c-0.4,0-0.7,0.1-1,0.2c-0.3,0.1-0.5,0.3-0.7,0.5c-0.2,0.2-0.4,0.5-0.5,0.7c-0.1,0.3-0.2,0.6-0.2,0.9h4.8
		C154.7,54.2,154.6,53.9,154.5,53.6z"/>
	<path class="st1" d="M158.8,51.1v1.7h0c0.3-0.7,0.7-1.2,1.2-1.5c0.5-0.3,1.1-0.5,1.8-0.4v1.4c-0.5,0-1,0.1-1.4,0.2
		c-0.4,0.1-0.7,0.4-0.9,0.7s-0.4,0.6-0.5,1c-0.1,0.4-0.2,0.9-0.2,1.4v3.7h-1.4v-8.3H158.8z"/>
	<path class="st1" d="M167.1,53.6c0.2-0.5,0.4-1,0.8-1.4c0.3-0.4,0.8-0.7,1.3-0.9c0.5-0.2,1.1-0.3,1.7-0.3c0.7,0,1.2,0.1,1.7,0.3
		s0.9,0.5,1.3,0.9c0.3,0.4,0.6,0.8,0.8,1.4c0.2,0.5,0.3,1.1,0.3,1.7s-0.1,1.2-0.3,1.7c-0.2,0.5-0.4,1-0.8,1.4
		c-0.3,0.4-0.8,0.7-1.3,0.9c-0.5,0.2-1.1,0.3-1.7,0.3c-0.7,0-1.2-0.1-1.7-0.3c-0.5-0.2-0.9-0.5-1.3-0.9c-0.3-0.4-0.6-0.8-0.8-1.4
		c-0.2-0.5-0.3-1.1-0.3-1.7S166.9,54.1,167.1,53.6z M168.5,56.6c0.1,0.4,0.3,0.7,0.6,1c0.2,0.3,0.5,0.5,0.8,0.6s0.6,0.2,1,0.2
		c0.4,0,0.7-0.1,1-0.2s0.6-0.3,0.8-0.6s0.4-0.6,0.6-1c0.1-0.4,0.2-0.8,0.2-1.3s-0.1-0.9-0.2-1.3c-0.1-0.4-0.3-0.7-0.6-1
		c-0.2-0.3-0.5-0.5-0.8-0.6c-0.3-0.1-0.6-0.2-1-0.2c-0.4,0-0.7,0.1-1,0.2c-0.3,0.1-0.6,0.3-0.8,0.6c-0.2,0.3-0.4,0.6-0.6,1
		s-0.2,0.8-0.2,1.3S168.4,56.2,168.5,56.6z"/>
	<path class="st1" d="M175.7,52.3v-1.2h1.4v-1.2c0-0.7,0.2-1.2,0.6-1.5c0.4-0.3,1-0.5,1.7-0.5c0.1,0,0.3,0,0.4,0
		c0.2,0,0.3,0.1,0.4,0.1v1.2c-0.1,0-0.2-0.1-0.4-0.1s-0.3,0-0.4,0c-0.3,0-0.6,0.1-0.8,0.2s-0.3,0.4-0.3,0.7v1.2h1.6v1.2h-1.6v7.1
		H177v-7.1H175.7z"/>
	<path class="st1" d="M33,70.3v1.1h0c0.2-0.5,0.6-0.8,1.1-1s1-0.3,1.6-0.3c0.6,0,1.2,0.1,1.7,0.4c0.5,0.2,0.9,0.6,1.2,1
		c0.3,0.4,0.6,0.9,0.7,1.4c0.2,0.5,0.2,1.1,0.2,1.7c0,0.6-0.1,1.1-0.2,1.7c-0.2,0.5-0.4,1-0.7,1.4c-0.3,0.4-0.7,0.7-1.2,0.9
		c-0.5,0.2-1,0.3-1.7,0.3c-0.2,0-0.4,0-0.7-0.1c-0.3,0-0.5-0.1-0.7-0.2c-0.2-0.1-0.5-0.2-0.7-0.4c-0.2-0.2-0.4-0.4-0.6-0.6h0v4.3
		h-1.4V70.3H33z M37.9,73.3c-0.1-0.4-0.3-0.7-0.5-1c-0.2-0.3-0.5-0.5-0.8-0.7c-0.3-0.2-0.7-0.3-1.1-0.3c-0.5,0-0.8,0.1-1.2,0.3
		c-0.3,0.2-0.6,0.4-0.8,0.7s-0.3,0.6-0.4,1c-0.1,0.4-0.1,0.8-0.1,1.1c0,0.4,0,0.8,0.1,1.2c0.1,0.4,0.2,0.7,0.5,1
		c0.2,0.3,0.5,0.5,0.8,0.7c0.3,0.2,0.7,0.3,1.2,0.3c0.5,0,0.9-0.1,1.2-0.3c0.3-0.2,0.6-0.4,0.8-0.7c0.2-0.3,0.3-0.6,0.4-1
		c0.1-0.4,0.1-0.8,0.1-1.2C38,74,38,73.6,37.9,73.3z"/>
	<path class="st1" d="M48.4,78.6c-0.2,0.1-0.6,0.2-1,0.2c-0.4,0-0.6-0.1-0.8-0.3s-0.3-0.5-0.3-1c-0.4,0.4-0.8,0.8-1.3,1
		s-1,0.3-1.6,0.3c-0.4,0-0.7,0-1.1-0.1c-0.3-0.1-0.6-0.2-0.9-0.4c-0.2-0.2-0.4-0.4-0.6-0.7s-0.2-0.6-0.2-1.1c0-0.5,0.1-0.9,0.2-1.2
		c0.2-0.3,0.4-0.5,0.6-0.7c0.3-0.2,0.6-0.3,0.9-0.4c0.3-0.1,0.7-0.2,1-0.2c0.4-0.1,0.7-0.1,1.1-0.2c0.3,0,0.6-0.1,0.9-0.2
		c0.3-0.1,0.5-0.2,0.6-0.3c0.1-0.1,0.2-0.3,0.2-0.6c0-0.3-0.1-0.5-0.2-0.7c-0.1-0.2-0.3-0.3-0.4-0.4c-0.2-0.1-0.4-0.2-0.6-0.2
		c-0.2,0-0.4,0-0.6,0c-0.6,0-1.1,0.1-1.4,0.3c-0.4,0.2-0.6,0.6-0.6,1.2h-1.4c0-0.5,0.1-0.9,0.3-1.3c0.2-0.4,0.4-0.6,0.8-0.9
		c0.3-0.2,0.7-0.4,1.1-0.5c0.4-0.1,0.9-0.1,1.3-0.1c0.4,0,0.7,0,1.1,0.1c0.4,0.1,0.7,0.2,1,0.3c0.3,0.2,0.5,0.4,0.7,0.7
		c0.2,0.3,0.3,0.7,0.3,1.2v4.2c0,0.3,0,0.6,0.1,0.7c0,0.1,0.2,0.2,0.4,0.2c0.1,0,0.3,0,0.4-0.1V78.6z M46.2,74.3
		c-0.2,0.1-0.4,0.2-0.7,0.3c-0.3,0.1-0.6,0.1-0.9,0.1c-0.3,0-0.6,0.1-0.9,0.1c-0.3,0-0.6,0.1-0.8,0.2c-0.2,0.1-0.4,0.3-0.6,0.5
		c-0.2,0.2-0.2,0.5-0.2,0.8c0,0.2,0,0.4,0.1,0.6s0.2,0.3,0.4,0.4c0.1,0.1,0.3,0.2,0.5,0.2c0.2,0,0.4,0.1,0.6,0.1
		c0.4,0,0.8-0.1,1.2-0.2s0.6-0.3,0.8-0.5s0.4-0.4,0.4-0.6s0.1-0.4,0.1-0.6V74.3z"/>
	<path class="st1" d="M50.9,70.3v1.7h0c0.3-0.7,0.7-1.2,1.2-1.5c0.5-0.3,1.1-0.5,1.8-0.4v1.4c-0.5,0-1,0.1-1.4,0.2
		c-0.4,0.1-0.7,0.4-0.9,0.7c-0.2,0.3-0.4,0.6-0.5,1C51,73.9,51,74.4,51,74.9v3.7h-1.4v-8.3H50.9z"/>
	<path class="st1" d="M60.7,78.6v-1.1h0c-0.2,0.5-0.6,0.8-1.1,1c-0.5,0.2-1,0.3-1.6,0.3c-0.6,0-1.2-0.1-1.7-0.4
		c-0.5-0.2-0.9-0.5-1.2-0.9c-0.3-0.4-0.6-0.9-0.7-1.4c-0.2-0.5-0.2-1.1-0.2-1.7c0-0.6,0.1-1.1,0.2-1.7c0.2-0.5,0.4-1,0.7-1.4
		c0.3-0.4,0.7-0.7,1.2-0.9c0.5-0.2,1-0.3,1.7-0.3c0.2,0,0.4,0,0.7,0.1c0.2,0,0.5,0.1,0.7,0.2c0.2,0.1,0.5,0.2,0.7,0.4
		c0.2,0.2,0.4,0.4,0.6,0.6h0v-4.3h1.4v11.4H60.7z M55.8,75.7c0.1,0.4,0.3,0.7,0.5,1s0.5,0.5,0.8,0.7c0.3,0.2,0.7,0.3,1.1,0.3
		c0.5,0,0.8-0.1,1.2-0.3c0.3-0.2,0.6-0.4,0.8-0.7c0.2-0.3,0.3-0.6,0.4-1c0.1-0.4,0.1-0.8,0.1-1.1c0-0.4,0-0.8-0.1-1.2
		c-0.1-0.4-0.2-0.7-0.5-1c-0.2-0.3-0.5-0.5-0.8-0.7s-0.7-0.3-1.2-0.3c-0.5,0-0.8,0.1-1.2,0.3c-0.3,0.2-0.6,0.4-0.8,0.7
		c-0.2,0.3-0.3,0.6-0.4,1c-0.1,0.4-0.1,0.8-0.1,1.2C55.7,74.9,55.7,75.3,55.8,75.7z"/>
	<path class="st1" d="M64,72.8c0.2-0.5,0.4-1,0.8-1.4c0.3-0.4,0.8-0.7,1.3-0.9s1.1-0.3,1.7-0.3c0.7,0,1.2,0.1,1.7,0.3
		s0.9,0.5,1.3,0.9c0.3,0.4,0.6,0.8,0.8,1.4c0.2,0.5,0.3,1.1,0.3,1.7s-0.1,1.2-0.3,1.7c-0.2,0.5-0.4,1-0.8,1.4
		c-0.3,0.4-0.8,0.7-1.3,0.9c-0.5,0.2-1.1,0.3-1.7,0.3c-0.7,0-1.2-0.1-1.7-0.3c-0.5-0.2-0.9-0.5-1.3-0.9c-0.3-0.4-0.6-0.8-0.8-1.4
		c-0.2-0.5-0.3-1.1-0.3-1.7S63.8,73.3,64,72.8z M65.4,75.8c0.1,0.4,0.3,0.7,0.6,1c0.2,0.3,0.5,0.5,0.8,0.6c0.3,0.1,0.6,0.2,1,0.2
		c0.4,0,0.7-0.1,1-0.2c0.3-0.1,0.6-0.3,0.8-0.6c0.2-0.3,0.4-0.6,0.6-1c0.1-0.4,0.2-0.8,0.2-1.3s-0.1-0.9-0.2-1.3s-0.3-0.7-0.6-1
		c-0.2-0.3-0.5-0.5-0.8-0.6c-0.3-0.1-0.6-0.2-1-0.2c-0.4,0-0.7,0.1-1,0.2c-0.3,0.1-0.6,0.3-0.8,0.6c-0.2,0.3-0.4,0.6-0.6,1
		s-0.2,0.8-0.2,1.3S65.2,75.4,65.4,75.8z"/>
	<path class="st1" d="M74.6,70.3v1.3h0c0.6-1,1.5-1.5,2.7-1.5c0.5,0,1,0.1,1.4,0.2c0.4,0.1,0.7,0.4,0.9,0.6c0.2,0.3,0.4,0.6,0.5,1
		s0.1,0.8,0.1,1.2v5.4h-1.4V73c0-0.5-0.1-0.9-0.4-1.2c-0.3-0.3-0.7-0.4-1.2-0.4c-0.4,0-0.8,0.1-1.1,0.2c-0.3,0.1-0.6,0.3-0.8,0.5
		c-0.2,0.2-0.4,0.5-0.5,0.8c-0.1,0.3-0.2,0.7-0.2,1v4.7h-1.4v-8.3H74.6z"/>
	<path class="st1" d="M92.3,78.6v-1.3h0c-0.3,0.5-0.7,0.9-1.1,1.1c-0.4,0.2-1,0.4-1.6,0.4c-0.5,0-1-0.1-1.4-0.2
		c-0.4-0.1-0.7-0.3-0.9-0.6c-0.2-0.3-0.4-0.6-0.5-1c-0.1-0.4-0.1-0.8-0.1-1.2v-5.4h1.4v5.6c0,0.5,0.1,0.9,0.4,1.2
		c0.3,0.3,0.7,0.4,1.2,0.4c0.4,0,0.8-0.1,1.1-0.2c0.3-0.1,0.6-0.3,0.8-0.5c0.2-0.2,0.4-0.5,0.5-0.8s0.2-0.7,0.2-1v-4.7h1.4v8.3H92.3
		z"/>
	<path class="st1" d="M96.9,70.3v1.3h0c0.6-1,1.5-1.5,2.7-1.5c0.5,0,1,0.1,1.4,0.2c0.4,0.1,0.7,0.4,0.9,0.6c0.2,0.3,0.4,0.6,0.5,1
		s0.1,0.8,0.1,1.2v5.4h-1.4V73c0-0.5-0.1-0.9-0.4-1.2c-0.3-0.3-0.7-0.4-1.2-0.4c-0.4,0-0.8,0.1-1.1,0.2c-0.3,0.1-0.6,0.3-0.8,0.5
		c-0.2,0.2-0.4,0.5-0.5,0.8c-0.1,0.3-0.2,0.7-0.2,1v4.7h-1.4v-8.3H96.9z"/>
	<path class="st1" d="M110.5,78.6v-1.1h0c-0.2,0.5-0.6,0.8-1.1,1c-0.5,0.2-1,0.3-1.6,0.3c-0.6,0-1.2-0.1-1.7-0.4
		c-0.5-0.2-0.9-0.5-1.2-0.9c-0.3-0.4-0.6-0.9-0.7-1.4c-0.2-0.5-0.2-1.1-0.2-1.7c0-0.6,0.1-1.1,0.2-1.7c0.2-0.5,0.4-1,0.7-1.4
		c0.3-0.4,0.7-0.7,1.2-0.9c0.5-0.2,1-0.3,1.7-0.3c0.2,0,0.4,0,0.7,0.1c0.2,0,0.5,0.1,0.7,0.2c0.2,0.1,0.5,0.2,0.7,0.4
		c0.2,0.2,0.4,0.4,0.6,0.6h0v-4.3h1.4v11.4H110.5z M105.6,75.7c0.1,0.4,0.3,0.7,0.5,1s0.5,0.5,0.8,0.7c0.3,0.2,0.7,0.3,1.1,0.3
		c0.5,0,0.8-0.1,1.2-0.3c0.3-0.2,0.6-0.4,0.8-0.7c0.2-0.3,0.3-0.6,0.4-1c0.1-0.4,0.1-0.8,0.1-1.1c0-0.4,0-0.8-0.1-1.2
		c-0.1-0.4-0.2-0.7-0.5-1c-0.2-0.3-0.5-0.5-0.8-0.7s-0.7-0.3-1.2-0.3c-0.5,0-0.8,0.1-1.2,0.3c-0.3,0.2-0.6,0.4-0.8,0.7
		c-0.2,0.3-0.3,0.6-0.4,1c-0.1,0.4-0.1,0.8-0.1,1.2C105.5,74.9,105.5,75.3,105.6,75.7z"/>
	<path class="st1" d="M119.8,78.1c-0.6,0.5-1.4,0.7-2.3,0.7c-0.7,0-1.2-0.1-1.7-0.3s-0.9-0.5-1.2-0.9c-0.3-0.4-0.6-0.8-0.7-1.4
		c-0.2-0.5-0.3-1.1-0.3-1.7c0-0.6,0.1-1.2,0.3-1.7c0.2-0.5,0.5-1,0.8-1.4c0.3-0.4,0.8-0.7,1.2-0.9s1-0.3,1.6-0.3
		c0.7,0,1.3,0.2,1.8,0.5c0.5,0.3,0.9,0.7,1.2,1.2c0.3,0.5,0.5,1,0.6,1.5c0.1,0.6,0.2,1.1,0.1,1.6H115c0,0.4,0,0.7,0.1,1
		c0.1,0.3,0.3,0.6,0.5,0.9c0.2,0.3,0.5,0.5,0.8,0.6s0.7,0.2,1.2,0.2c0.6,0,1-0.1,1.4-0.4c0.4-0.3,0.6-0.7,0.7-1.2h1.3
		C120.9,76.9,120.5,77.6,119.8,78.1z M119.5,72.8c-0.1-0.3-0.3-0.5-0.5-0.7s-0.5-0.4-0.7-0.5c-0.3-0.1-0.6-0.2-0.9-0.2
		c-0.4,0-0.7,0.1-1,0.2c-0.3,0.1-0.5,0.3-0.7,0.5c-0.2,0.2-0.4,0.5-0.5,0.7c-0.1,0.3-0.2,0.6-0.2,0.9h4.8
		C119.7,73.4,119.6,73.1,119.5,72.8z"/>
	<path class="st1" d="M123.8,70.3v1.7h0c0.3-0.7,0.7-1.2,1.2-1.5c0.5-0.3,1.1-0.5,1.8-0.4v1.4c-0.5,0-1,0.1-1.4,0.2
		c-0.4,0.1-0.7,0.4-0.9,0.7s-0.4,0.6-0.5,1c-0.1,0.4-0.2,0.9-0.2,1.4v3.7h-1.4v-8.3H123.8z"/>
	<path class="st1" d="M129.2,70.3v1.2h0c0.6-0.9,1.5-1.4,2.7-1.4c0.5,0,1,0.1,1.4,0.3s0.7,0.6,0.9,1.1c0.3-0.4,0.6-0.8,1.1-1
		c0.5-0.2,1-0.4,1.5-0.4c0.4,0,0.8,0,1.1,0.1c0.3,0.1,0.6,0.2,0.9,0.4c0.2,0.2,0.4,0.4,0.6,0.7c0.1,0.3,0.2,0.7,0.2,1.1v6.1h-1.4
		v-5.4c0-0.3,0-0.5-0.1-0.7c0-0.2-0.1-0.4-0.2-0.6c-0.1-0.2-0.3-0.3-0.5-0.4c-0.2-0.1-0.5-0.1-0.8-0.1c-0.7,0-1.2,0.2-1.6,0.6
		s-0.6,0.9-0.6,1.5v5.2H133v-5.4c0-0.3,0-0.5-0.1-0.7c0-0.2-0.1-0.4-0.2-0.6c-0.1-0.2-0.3-0.3-0.5-0.4c-0.2-0.1-0.5-0.1-0.8-0.1
		c-0.4,0-0.7,0.1-1,0.2c-0.3,0.2-0.5,0.4-0.7,0.6c-0.2,0.2-0.3,0.5-0.4,0.7c-0.1,0.2-0.1,0.4-0.1,0.6v5.2h-1.4v-8.3H129.2z"/>
	<path class="st1" d="M141.6,68.8v-1.7h1.4v1.7H141.6z M143,70.3v8.3h-1.4v-8.3H143z"/>
	<path class="st1" d="M146.4,70.3v1.3h0c0.6-1,1.5-1.5,2.7-1.5c0.5,0,1,0.1,1.4,0.2c0.4,0.1,0.7,0.4,0.9,0.6c0.2,0.3,0.4,0.6,0.5,1
		c0.1,0.4,0.1,0.8,0.1,1.2v5.4h-1.4V73c0-0.5-0.1-0.9-0.4-1.2c-0.3-0.3-0.7-0.4-1.2-0.4c-0.4,0-0.8,0.1-1.1,0.2
		c-0.3,0.1-0.6,0.3-0.8,0.5c-0.2,0.2-0.4,0.5-0.5,0.8c-0.1,0.3-0.2,0.7-0.2,1v4.7h-1.4v-8.3H146.4z"/>
	<path class="st1" d="M159.9,78.1c-0.6,0.5-1.4,0.7-2.3,0.7c-0.7,0-1.2-0.1-1.7-0.3s-0.9-0.5-1.2-0.9c-0.3-0.4-0.6-0.8-0.7-1.4
		c-0.2-0.5-0.3-1.1-0.3-1.7c0-0.6,0.1-1.2,0.3-1.7c0.2-0.5,0.5-1,0.8-1.4c0.3-0.4,0.8-0.7,1.2-0.9s1-0.3,1.6-0.3
		c0.7,0,1.3,0.2,1.8,0.5c0.5,0.3,0.9,0.7,1.2,1.2c0.3,0.5,0.5,1,0.6,1.5c0.1,0.6,0.2,1.1,0.1,1.6H155c0,0.4,0,0.7,0.1,1
		c0.1,0.3,0.3,0.6,0.5,0.9c0.2,0.3,0.5,0.5,0.8,0.6s0.7,0.2,1.2,0.2c0.6,0,1-0.1,1.4-0.4c0.4-0.3,0.6-0.7,0.7-1.2h1.3
		C160.9,76.9,160.5,77.6,159.9,78.1z M159.5,72.8c-0.1-0.3-0.3-0.5-0.5-0.7s-0.5-0.4-0.7-0.5c-0.3-0.1-0.6-0.2-0.9-0.2
		c-0.4,0-0.7,0.1-1,0.2c-0.3,0.1-0.5,0.3-0.7,0.5c-0.2,0.2-0.4,0.5-0.5,0.7c-0.1,0.3-0.2,0.6-0.2,0.9h4.8
		C159.7,73.4,159.7,73.1,159.5,72.8z"/>
	<path class="st1" d="M170.6,70.3v1.2h-1.6v5.1c0,0.2,0,0.3,0,0.4c0,0.1,0.1,0.2,0.2,0.2c0.1,0.1,0.2,0.1,0.3,0.1c0.1,0,0.3,0,0.5,0
		h0.6v1.2h-1c-0.4,0-0.7,0-0.9-0.1c-0.3,0-0.5-0.1-0.6-0.3s-0.3-0.3-0.3-0.5c-0.1-0.2-0.1-0.5-0.1-0.9v-5.3h-1.4v-1.2h1.4v-2.5h1.4
		v2.5H170.6z"/>
	<path class="st1" d="M173.4,67.2v4.4h0c0.1-0.3,0.3-0.5,0.4-0.6c0.2-0.2,0.4-0.3,0.6-0.4c0.2-0.1,0.5-0.2,0.8-0.2
		c0.3-0.1,0.5-0.1,0.8-0.1c0.5,0,1,0.1,1.4,0.2c0.4,0.1,0.7,0.4,0.9,0.6c0.2,0.3,0.4,0.6,0.5,1c0.1,0.4,0.1,0.8,0.1,1.2v5.4h-1.4V73
		c0-0.5-0.1-0.9-0.4-1.2c-0.3-0.3-0.7-0.4-1.2-0.4c-0.4,0-0.8,0.1-1.1,0.2c-0.3,0.1-0.6,0.3-0.8,0.5c-0.2,0.2-0.4,0.5-0.5,0.8
		c-0.1,0.3-0.2,0.7-0.2,1v4.7h-1.4V67.2H173.4z"/>
	<path class="st1" d="M186.8,78.1c-0.6,0.5-1.4,0.7-2.3,0.7c-0.7,0-1.2-0.1-1.7-0.3s-0.9-0.5-1.2-0.9c-0.3-0.4-0.6-0.8-0.7-1.4
		c-0.2-0.5-0.3-1.1-0.3-1.7c0-0.6,0.1-1.2,0.3-1.7c0.2-0.5,0.5-1,0.8-1.4c0.3-0.4,0.8-0.7,1.2-0.9s1-0.3,1.6-0.3
		c0.7,0,1.3,0.2,1.8,0.5c0.5,0.3,0.9,0.7,1.2,1.2c0.3,0.5,0.5,1,0.6,1.5c0.1,0.6,0.2,1.1,0.1,1.6H182c0,0.4,0,0.7,0.1,1
		c0.1,0.3,0.3,0.6,0.5,0.9c0.2,0.3,0.5,0.5,0.8,0.6s0.7,0.2,1.2,0.2c0.6,0,1-0.1,1.4-0.4c0.4-0.3,0.6-0.7,0.7-1.2h1.3
		C187.9,76.9,187.5,77.6,186.8,78.1z M186.5,72.8c-0.1-0.3-0.3-0.5-0.5-0.7s-0.5-0.4-0.7-0.5c-0.3-0.1-0.6-0.2-0.9-0.2
		c-0.4,0-0.7,0.1-1,0.2c-0.3,0.1-0.5,0.3-0.7,0.5c-0.2,0.2-0.4,0.5-0.5,0.7c-0.1,0.3-0.2,0.6-0.2,0.9h4.8
		C186.7,73.4,186.6,73.1,186.5,72.8z"/>
	<path class="st1" d="M31.7,88v-1.7H33V88H31.7z M33,89.5v8.3h-1.4v-8.3H33z"/>
	<path class="st1" d="M36.4,89.5v1.3h0c0.6-1,1.5-1.5,2.7-1.5c0.5,0,1,0.1,1.4,0.2c0.4,0.1,0.7,0.4,0.9,0.6c0.2,0.3,0.4,0.6,0.5,1
		s0.1,0.8,0.1,1.2v5.4h-1.4v-5.6c0-0.5-0.1-0.9-0.4-1.2c-0.3-0.3-0.7-0.4-1.2-0.4c-0.4,0-0.8,0.1-1.1,0.2c-0.3,0.1-0.6,0.3-0.8,0.5
		c-0.2,0.2-0.4,0.5-0.5,0.8c-0.1,0.3-0.2,0.7-0.2,1v4.7h-1.4v-8.3H36.4z"/>
	<path class="st1" d="M45.1,96c0.1,0.2,0.3,0.4,0.5,0.5s0.4,0.2,0.7,0.3s0.5,0.1,0.8,0.1c0.2,0,0.4,0,0.7,0c0.2,0,0.5-0.1,0.6-0.2
		s0.4-0.2,0.5-0.4c0.1-0.2,0.2-0.4,0.2-0.6c0-0.4-0.1-0.6-0.4-0.8c-0.3-0.2-0.6-0.3-1-0.4c-0.4-0.1-0.8-0.2-1.3-0.3
		c-0.5-0.1-0.9-0.2-1.3-0.4c-0.4-0.2-0.7-0.4-1-0.7c-0.3-0.3-0.4-0.7-0.4-1.2c0-0.4,0.1-0.8,0.3-1.1c0.2-0.3,0.4-0.5,0.7-0.7
		c0.3-0.2,0.6-0.3,1-0.4c0.4-0.1,0.7-0.1,1.1-0.1c0.5,0,0.9,0,1.3,0.1c0.4,0.1,0.7,0.2,1,0.4c0.3,0.2,0.5,0.5,0.7,0.8
		c0.2,0.3,0.3,0.8,0.3,1.3h-1.4c0-0.3-0.1-0.5-0.2-0.7c-0.1-0.2-0.3-0.3-0.4-0.4c-0.2-0.1-0.4-0.2-0.6-0.2c-0.2,0-0.4-0.1-0.7-0.1
		c-0.2,0-0.4,0-0.6,0c-0.2,0-0.4,0.1-0.6,0.2c-0.2,0.1-0.3,0.2-0.4,0.3c-0.1,0.1-0.2,0.3-0.2,0.5c0,0.2,0.1,0.4,0.2,0.6
		c0.2,0.2,0.4,0.3,0.6,0.4c0.3,0.1,0.5,0.2,0.9,0.3s0.6,0.1,1,0.2c0.3,0.1,0.7,0.2,1,0.3c0.3,0.1,0.6,0.2,0.9,0.4
		c0.3,0.2,0.5,0.4,0.6,0.7c0.2,0.3,0.2,0.6,0.2,1c0,0.5-0.1,0.9-0.3,1.2s-0.5,0.6-0.8,0.8c-0.3,0.2-0.7,0.3-1.1,0.4S47.4,98,47,98
		c-0.5,0-0.9,0-1.3-0.1c-0.4-0.1-0.8-0.3-1.1-0.5s-0.6-0.5-0.8-0.9c-0.2-0.4-0.3-0.8-0.3-1.3h1.4C44.9,95.5,44.9,95.8,45.1,96z"/>
	<path class="st1" d="M55.6,89.5v1.2h-1.6v5.1c0,0.2,0,0.3,0,0.4c0,0.1,0.1,0.2,0.2,0.2c0.1,0.1,0.2,0.1,0.3,0.1s0.3,0,0.5,0h0.6
		v1.2h-1c-0.4,0-0.7,0-0.9-0.1c-0.3,0-0.5-0.1-0.6-0.3s-0.3-0.3-0.3-0.5c-0.1-0.2-0.1-0.5-0.1-0.9v-5.3h-1.4v-1.2h1.4v-2.5h1.4v2.5
		H55.6z"/>
	<path class="st1" d="M57.1,88v-1.7h1.4V88H57.1z M58.5,89.5v8.3h-1.4v-8.3H58.5z"/>
	<path class="st1" d="M64.2,89.5v1.2h-1.6v5.1c0,0.2,0,0.3,0,0.4c0,0.1,0.1,0.2,0.2,0.2c0.1,0.1,0.2,0.1,0.3,0.1s0.3,0,0.5,0h0.6
		v1.2h-1c-0.4,0-0.7,0-0.9-0.1c-0.3,0-0.5-0.1-0.6-0.3s-0.3-0.3-0.3-0.5c-0.1-0.2-0.1-0.5-0.1-0.9v-5.3h-1.4v-1.2h1.4v-2.5h1.4v2.5
		H64.2z"/>
	<path class="st1" d="M71.2,97.8v-1.3h0c-0.3,0.5-0.7,0.9-1.1,1.1c-0.4,0.2-1,0.4-1.6,0.4c-0.5,0-1-0.1-1.4-0.2
		c-0.4-0.1-0.7-0.3-0.9-0.6c-0.2-0.3-0.4-0.6-0.5-1c-0.1-0.4-0.1-0.8-0.1-1.2v-5.4H67v5.6c0,0.5,0.1,0.9,0.4,1.2
		c0.3,0.3,0.7,0.4,1.2,0.4c0.4,0,0.8-0.1,1.1-0.2c0.3-0.1,0.6-0.3,0.8-0.5c0.2-0.2,0.4-0.5,0.5-0.8s0.2-0.7,0.2-1v-4.7h1.4v8.3H71.2
		z"/>
	<path class="st1" d="M78.1,89.5v1.2h-1.6v5.1c0,0.2,0,0.3,0,0.4c0,0.1,0.1,0.2,0.2,0.2c0.1,0.1,0.2,0.1,0.3,0.1s0.3,0,0.5,0h0.6
		v1.2h-1c-0.4,0-0.7,0-0.9-0.1c-0.3,0-0.5-0.1-0.6-0.3s-0.3-0.3-0.3-0.5c-0.1-0.2-0.1-0.5-0.1-0.9v-5.3h-1.4v-1.2h1.4v-2.5h1.4v2.5
		H78.1z"/>
	<path class="st1" d="M79.7,88v-1.7H81V88H79.7z M81,89.5v8.3h-1.4v-8.3H81z"/>
	<path class="st1" d="M82.9,92c0.2-0.5,0.4-1,0.8-1.4c0.3-0.4,0.8-0.7,1.3-0.9s1.1-0.3,1.7-0.3c0.7,0,1.2,0.1,1.7,0.3
		s0.9,0.5,1.3,0.9c0.3,0.4,0.6,0.8,0.8,1.4c0.2,0.5,0.3,1.1,0.3,1.7s-0.1,1.2-0.3,1.7c-0.2,0.5-0.4,1-0.8,1.4
		c-0.3,0.4-0.8,0.7-1.3,0.9c-0.5,0.2-1.1,0.3-1.7,0.3c-0.7,0-1.2-0.1-1.7-0.3c-0.5-0.2-0.9-0.5-1.3-0.9c-0.3-0.4-0.6-0.8-0.8-1.4
		c-0.2-0.5-0.3-1.1-0.3-1.7S82.8,92.5,82.9,92z M84.3,95c0.1,0.4,0.3,0.7,0.6,1c0.2,0.3,0.5,0.5,0.8,0.6c0.3,0.1,0.6,0.2,1,0.2
		c0.4,0,0.7-0.1,1-0.2c0.3-0.1,0.6-0.3,0.8-0.6c0.2-0.3,0.4-0.6,0.6-1c0.1-0.4,0.2-0.8,0.2-1.3s-0.1-0.9-0.2-1.3s-0.3-0.7-0.6-1
		c-0.2-0.3-0.5-0.5-0.8-0.6c-0.3-0.1-0.6-0.2-1-0.2c-0.4,0-0.7,0.1-1,0.2c-0.3,0.1-0.6,0.3-0.8,0.6c-0.2,0.3-0.4,0.6-0.6,1
		s-0.2,0.8-0.2,1.3S84.2,94.6,84.3,95z"/>
	<path class="st1" d="M93.6,89.5v1.3h0c0.6-1,1.5-1.5,2.7-1.5c0.5,0,1,0.1,1.4,0.2c0.4,0.1,0.7,0.4,0.9,0.6c0.2,0.3,0.4,0.6,0.5,1
		s0.1,0.8,0.1,1.2v5.4h-1.4v-5.6c0-0.5-0.1-0.9-0.4-1.2c-0.3-0.3-0.7-0.4-1.2-0.4c-0.4,0-0.8,0.1-1.1,0.2c-0.3,0.1-0.6,0.3-0.8,0.5
		c-0.2,0.2-0.4,0.5-0.5,0.8c-0.1,0.3-0.2,0.7-0.2,1v4.7h-1.4v-8.3H93.6z"/>
	<path class="st1" d="M102.3,96c0.1,0.2,0.3,0.4,0.5,0.5s0.4,0.2,0.7,0.3s0.5,0.1,0.8,0.1c0.2,0,0.4,0,0.7,0c0.2,0,0.5-0.1,0.6-0.2
		s0.4-0.2,0.5-0.4c0.1-0.2,0.2-0.4,0.2-0.6c0-0.4-0.1-0.6-0.4-0.8c-0.3-0.2-0.6-0.3-1-0.4c-0.4-0.1-0.8-0.2-1.3-0.3
		c-0.5-0.1-0.9-0.2-1.3-0.4c-0.4-0.2-0.7-0.4-1-0.7c-0.3-0.3-0.4-0.7-0.4-1.2c0-0.4,0.1-0.8,0.3-1.1c0.2-0.3,0.4-0.5,0.7-0.7
		c0.3-0.2,0.6-0.3,1-0.4c0.4-0.1,0.7-0.1,1.1-0.1c0.5,0,0.9,0,1.3,0.1c0.4,0.1,0.7,0.2,1,0.4c0.3,0.2,0.5,0.5,0.7,0.8
		c0.2,0.3,0.3,0.8,0.3,1.3H106c0-0.3-0.1-0.5-0.2-0.7c-0.1-0.2-0.3-0.3-0.4-0.4c-0.2-0.1-0.4-0.2-0.6-0.2c-0.2,0-0.4-0.1-0.7-0.1
		c-0.2,0-0.4,0-0.6,0c-0.2,0-0.4,0.1-0.6,0.2c-0.2,0.1-0.3,0.2-0.4,0.3c-0.1,0.1-0.2,0.3-0.2,0.5c0,0.2,0.1,0.4,0.2,0.6
		c0.2,0.2,0.4,0.3,0.6,0.4c0.3,0.1,0.5,0.2,0.9,0.3s0.6,0.1,1,0.2c0.3,0.1,0.7,0.2,1,0.3c0.3,0.1,0.6,0.2,0.9,0.4
		c0.3,0.2,0.5,0.4,0.6,0.7c0.2,0.3,0.2,0.6,0.2,1c0,0.5-0.1,0.9-0.3,1.2s-0.5,0.6-0.8,0.8c-0.3,0.2-0.7,0.3-1.1,0.4
		s-0.8,0.1-1.3,0.1c-0.5,0-0.9,0-1.3-0.1c-0.4-0.1-0.8-0.3-1.1-0.5s-0.6-0.5-0.8-0.9c-0.2-0.4-0.3-0.8-0.3-1.3h1.4
		C102.1,95.5,102.1,95.8,102.3,96z"/>
	<path class="st1" d="M118.9,86.4c1.2,0,2,0.3,2.6,0.9c0.6,0.6,0.9,1.4,0.9,2.5s-0.3,1.9-0.9,2.5c-0.6,0.6-1.5,0.9-2.6,0.9h-3.5v4.7
		h-1.5V86.4H118.9z M118.4,91.9c0.9,0,1.5-0.2,1.9-0.5c0.4-0.4,0.6-0.9,0.6-1.6s-0.2-1.2-0.6-1.6c-0.4-0.4-1-0.5-1.9-0.5h-3v4.2
		H118.4z"/>
	<path class="st1" d="M124,89.8c0.2-0.7,0.6-1.4,1-1.9c0.5-0.6,1-1,1.7-1.3c0.7-0.3,1.5-0.5,2.4-0.5c0.9,0,1.7,0.2,2.4,0.5
		c0.7,0.3,1.3,0.8,1.7,1.3c0.5,0.6,0.8,1.2,1,1.9c0.2,0.7,0.3,1.5,0.3,2.2s-0.1,1.5-0.3,2.2c-0.2,0.7-0.6,1.4-1,1.9s-1,1-1.7,1.3
		s-1.5,0.5-2.4,0.5c-0.9,0-1.7-0.2-2.4-0.5s-1.3-0.8-1.7-1.3c-0.5-0.6-0.8-1.2-1-1.9c-0.2-0.7-0.3-1.5-0.3-2.2S123.7,90.6,124,89.8z
		 M125.4,93.8c0.1,0.6,0.4,1.1,0.7,1.5c0.3,0.4,0.7,0.8,1.2,1.1c0.5,0.3,1.1,0.4,1.8,0.4s1.3-0.1,1.8-0.4c0.5-0.3,0.9-0.6,1.2-1.1
		c0.3-0.4,0.6-1,0.7-1.5c0.1-0.6,0.2-1.1,0.2-1.7c0-0.6-0.1-1.1-0.2-1.7s-0.4-1.1-0.7-1.5c-0.3-0.4-0.7-0.8-1.2-1.1
		c-0.5-0.3-1.1-0.4-1.8-0.4s-1.3,0.1-1.8,0.4c-0.5,0.3-0.9,0.6-1.2,1.1c-0.3,0.4-0.6,1-0.7,1.5s-0.2,1.1-0.2,1.7
		C125.1,92.7,125.2,93.2,125.4,93.8z"/>
	<path class="st1" d="M135.2,87.7v-1.3h9.1v1.3h-3.8v10.1H139V87.7H135.2z"/>
	<path class="st1" d="M153.6,97c-0.8,0.7-1.9,1.1-3.3,1.1c-1.5,0-2.6-0.3-3.4-1c-0.8-0.7-1.2-1.8-1.2-3.3v-7.3h1.5v7.3
		c0,1,0.3,1.8,0.8,2.3c0.5,0.5,1.3,0.8,2.4,0.8c1,0,1.7-0.3,2.2-0.8c0.5-0.5,0.8-1.3,0.8-2.3v-7.3h1.5v7.3
		C154.7,95.1,154.3,96.2,153.6,97z"/>
	<path class="st1" d="M162.9,87.9c-0.5-0.4-1.2-0.6-1.9-0.6c-0.3,0-0.6,0-0.9,0.1s-0.6,0.2-0.8,0.3s-0.4,0.3-0.6,0.6
		c-0.1,0.3-0.2,0.6-0.2,0.9c0,0.4,0.1,0.6,0.3,0.9s0.5,0.4,0.8,0.5c0.3,0.1,0.7,0.3,1.2,0.3c0.4,0.1,0.9,0.2,1.3,0.3
		c0.5,0.1,0.9,0.2,1.3,0.4s0.8,0.3,1.2,0.6c0.3,0.2,0.6,0.6,0.8,0.9s0.3,0.8,0.3,1.4c0,0.6-0.1,1.1-0.4,1.6c-0.3,0.4-0.6,0.8-1,1.1
		c-0.4,0.3-0.9,0.5-1.4,0.6c-0.5,0.1-1.1,0.2-1.6,0.2c-0.6,0-1.2-0.1-1.8-0.2c-0.6-0.2-1.1-0.4-1.5-0.7c-0.4-0.3-0.8-0.7-1-1.2
		c-0.3-0.5-0.4-1.1-0.4-1.8h1.4c0,0.5,0.1,0.9,0.3,1.2s0.4,0.6,0.7,0.9s0.7,0.4,1.1,0.5c0.4,0.1,0.8,0.2,1.2,0.2c0.3,0,0.7,0,1-0.1
		s0.7-0.2,0.9-0.3c0.3-0.2,0.5-0.4,0.7-0.6s0.3-0.6,0.3-1c0-0.4-0.1-0.7-0.3-1c-0.2-0.2-0.5-0.4-0.8-0.6s-0.7-0.3-1.2-0.4
		c-0.4-0.1-0.9-0.2-1.3-0.3c-0.5-0.1-0.9-0.2-1.3-0.4s-0.8-0.3-1.2-0.5c-0.3-0.2-0.6-0.5-0.8-0.8s-0.3-0.8-0.3-1.3
		c0-0.6,0.1-1.1,0.4-1.5c0.2-0.4,0.5-0.8,0.9-1c0.4-0.3,0.8-0.5,1.3-0.6c0.5-0.1,1-0.2,1.5-0.2c0.6,0,1.1,0.1,1.6,0.2
		c0.5,0.1,0.9,0.4,1.3,0.7c0.4,0.3,0.7,0.7,0.9,1.1c0.2,0.5,0.3,1,0.4,1.6h-1.4C163.7,88.9,163.4,88.3,162.9,87.9z"/>
	<path class="st1" d="M31.7,107.2v-1.7H33v1.7H31.7z M33,108.7v8.3h-1.4v-8.3H33z"/>
	<path class="st1" d="M36.2,115.2c0.1,0.2,0.3,0.4,0.5,0.5s0.4,0.2,0.7,0.3s0.5,0.1,0.8,0.1c0.2,0,0.4,0,0.7,0
		c0.2,0,0.5-0.1,0.6-0.2s0.4-0.2,0.5-0.4c0.1-0.2,0.2-0.4,0.2-0.6c0-0.4-0.1-0.6-0.4-0.8c-0.3-0.2-0.6-0.3-1-0.4
		c-0.4-0.1-0.8-0.2-1.3-0.3c-0.5-0.1-0.9-0.2-1.3-0.4c-0.4-0.2-0.7-0.4-1-0.7c-0.3-0.3-0.4-0.7-0.4-1.2c0-0.4,0.1-0.8,0.3-1.1
		c0.2-0.3,0.4-0.5,0.7-0.7c0.3-0.2,0.6-0.3,1-0.4c0.4-0.1,0.7-0.1,1.1-0.1c0.5,0,0.9,0,1.3,0.1c0.4,0.1,0.7,0.2,1,0.4
		c0.3,0.2,0.5,0.5,0.7,0.8c0.2,0.3,0.3,0.8,0.3,1.3h-1.4c0-0.3-0.1-0.5-0.2-0.7c-0.1-0.2-0.3-0.3-0.4-0.4c-0.2-0.1-0.4-0.2-0.6-0.2
		c-0.2,0-0.4-0.1-0.7-0.1c-0.2,0-0.4,0-0.6,0c-0.2,0-0.4,0.1-0.6,0.2c-0.2,0.1-0.3,0.2-0.4,0.3c-0.1,0.1-0.2,0.3-0.2,0.5
		c0,0.2,0.1,0.4,0.2,0.6c0.2,0.2,0.4,0.3,0.6,0.4c0.3,0.1,0.5,0.2,0.9,0.3s0.6,0.1,1,0.2c0.3,0.1,0.7,0.2,1,0.3
		c0.3,0.1,0.6,0.2,0.9,0.4c0.3,0.2,0.5,0.4,0.6,0.7c0.2,0.3,0.2,0.6,0.2,1c0,0.5-0.1,0.9-0.3,1.2s-0.5,0.6-0.8,0.8
		c-0.3,0.2-0.7,0.3-1.1,0.4s-0.8,0.1-1.3,0.1c-0.5,0-0.9,0-1.3-0.1c-0.4-0.1-0.8-0.3-1.1-0.5s-0.6-0.5-0.8-0.9
		c-0.2-0.4-0.3-0.8-0.3-1.3H36C36,114.7,36,115,36.2,115.2z"/>
	<path class="st1" d="M48.6,115.2c0.1,0.2,0.3,0.4,0.5,0.5s0.4,0.2,0.7,0.3s0.5,0.1,0.8,0.1c0.2,0,0.4,0,0.7,0
		c0.2,0,0.5-0.1,0.6-0.2s0.4-0.2,0.5-0.4c0.1-0.2,0.2-0.4,0.2-0.6c0-0.4-0.1-0.6-0.4-0.8c-0.3-0.2-0.6-0.3-1-0.4
		c-0.4-0.1-0.8-0.2-1.3-0.3c-0.5-0.1-0.9-0.2-1.3-0.4c-0.4-0.2-0.7-0.4-1-0.7c-0.3-0.3-0.4-0.7-0.4-1.2c0-0.4,0.1-0.8,0.3-1.1
		c0.2-0.3,0.4-0.5,0.7-0.7c0.3-0.2,0.6-0.3,1-0.4c0.4-0.1,0.7-0.1,1.1-0.1c0.5,0,0.9,0,1.3,0.1c0.4,0.1,0.7,0.2,1,0.4
		c0.3,0.2,0.5,0.5,0.7,0.8c0.2,0.3,0.3,0.8,0.3,1.3h-1.4c0-0.3-0.1-0.5-0.2-0.7c-0.1-0.2-0.3-0.3-0.4-0.4c-0.2-0.1-0.4-0.2-0.6-0.2
		c-0.2,0-0.4-0.1-0.7-0.1c-0.2,0-0.4,0-0.6,0c-0.2,0-0.4,0.1-0.6,0.2c-0.2,0.1-0.3,0.2-0.4,0.3c-0.1,0.1-0.2,0.3-0.2,0.5
		c0,0.2,0.1,0.4,0.2,0.6c0.2,0.2,0.4,0.3,0.6,0.4c0.3,0.1,0.5,0.2,0.9,0.3s0.6,0.1,1,0.2c0.3,0.1,0.7,0.2,1,0.3
		c0.3,0.1,0.6,0.2,0.9,0.4c0.3,0.2,0.5,0.4,0.6,0.7c0.2,0.3,0.2,0.6,0.2,1c0,0.5-0.1,0.9-0.3,1.2s-0.5,0.6-0.8,0.8
		c-0.3,0.2-0.7,0.3-1.1,0.4s-0.8,0.1-1.3,0.1c-0.5,0-0.9,0-1.3-0.1c-0.4-0.1-0.8-0.3-1.1-0.5s-0.6-0.5-0.8-0.9
		c-0.2-0.4-0.3-0.8-0.3-1.3h1.4C48.4,114.7,48.5,115,48.6,115.2z"/>
	<path class="st1" d="M62.3,117l-1.7-6.6h0L59,117h-1.5l-2.7-8.3h1.5l1.9,6.8h0l1.7-6.8h1.5l1.7,6.8h0l1.9-6.8h1.4l-2.6,8.3H62.3z"
		/>
	<path class="st1" d="M67.5,111.2c0.2-0.5,0.4-1,0.8-1.4c0.3-0.4,0.8-0.7,1.3-0.9s1.1-0.3,1.7-0.3c0.7,0,1.2,0.1,1.7,0.3
		s0.9,0.5,1.3,0.9c0.3,0.4,0.6,0.8,0.8,1.4c0.2,0.5,0.3,1.1,0.3,1.7s-0.1,1.2-0.3,1.7c-0.2,0.5-0.4,1-0.8,1.4
		c-0.3,0.4-0.8,0.7-1.3,0.9c-0.5,0.2-1.1,0.3-1.7,0.3c-0.7,0-1.2-0.1-1.7-0.3c-0.5-0.2-0.9-0.5-1.3-0.9c-0.3-0.4-0.6-0.8-0.8-1.4
		c-0.2-0.5-0.3-1.1-0.3-1.7S67.3,111.7,67.5,111.2z M68.9,114.2c0.1,0.4,0.3,0.7,0.6,1c0.2,0.3,0.5,0.5,0.8,0.6
		c0.3,0.1,0.6,0.2,1,0.2c0.4,0,0.7-0.1,1-0.2c0.3-0.1,0.6-0.3,0.8-0.6c0.2-0.3,0.4-0.6,0.6-1c0.1-0.4,0.2-0.8,0.2-1.3
		s-0.1-0.9-0.2-1.3s-0.3-0.7-0.6-1c-0.2-0.3-0.5-0.5-0.8-0.6c-0.3-0.1-0.6-0.2-1-0.2c-0.4,0-0.7,0.1-1,0.2c-0.3,0.1-0.6,0.3-0.8,0.6
		c-0.2,0.3-0.4,0.6-0.6,1s-0.2,0.8-0.2,1.3S68.8,113.8,68.9,114.2z"/>
	<path class="st1" d="M78.1,108.7v1.7h0c0.3-0.7,0.7-1.2,1.2-1.5c0.5-0.3,1.1-0.5,1.8-0.4v1.4c-0.5,0-1,0.1-1.4,0.2
		c-0.4,0.1-0.7,0.4-0.9,0.7c-0.2,0.3-0.4,0.6-0.5,1c-0.1,0.4-0.2,0.9-0.2,1.4v3.7h-1.4v-8.3H78.1z"/>
	<path class="st1" d="M83.8,108.7v1.3h0c0.6-1,1.5-1.5,2.7-1.5c0.5,0,1,0.1,1.4,0.2c0.4,0.1,0.7,0.4,0.9,0.6c0.2,0.3,0.4,0.6,0.5,1
		s0.1,0.8,0.1,1.2v5.4H88v-5.6c0-0.5-0.1-0.9-0.4-1.2c-0.3-0.3-0.7-0.4-1.2-0.4c-0.4,0-0.8,0.1-1.1,0.2c-0.3,0.1-0.6,0.3-0.8,0.5
		c-0.2,0.2-0.4,0.5-0.5,0.8c-0.1,0.3-0.2,0.7-0.2,1v4.7h-1.4v-8.3H83.8z"/>
	<path class="st1" d="M99.4,108.7v1.2h-1.6v5.1c0,0.2,0,0.3,0,0.4c0,0.1,0.1,0.2,0.2,0.2c0.1,0.1,0.2,0.1,0.3,0.1s0.3,0,0.5,0h0.6
		v1.2h-1c-0.4,0-0.7,0-0.9-0.1c-0.3,0-0.5-0.1-0.6-0.3s-0.3-0.3-0.3-0.5c-0.1-0.2-0.1-0.5-0.1-0.9v-5.3H95v-1.2h1.4v-2.5h1.4v2.5
		H99.4z"/>
	<path class="st1" d="M100.7,111.2c0.2-0.5,0.4-1,0.8-1.4c0.3-0.4,0.8-0.7,1.3-0.9s1.1-0.3,1.7-0.3c0.7,0,1.2,0.1,1.7,0.3
		s0.9,0.5,1.3,0.9c0.3,0.4,0.6,0.8,0.8,1.4c0.2,0.5,0.3,1.1,0.3,1.7s-0.1,1.2-0.3,1.7c-0.2,0.5-0.4,1-0.8,1.4
		c-0.3,0.4-0.8,0.7-1.3,0.9c-0.5,0.2-1.1,0.3-1.7,0.3c-0.7,0-1.2-0.1-1.7-0.3c-0.5-0.2-0.9-0.5-1.3-0.9c-0.3-0.4-0.6-0.8-0.8-1.4
		c-0.2-0.5-0.3-1.1-0.3-1.7S100.5,111.7,100.7,111.2z M102.1,114.2c0.1,0.4,0.3,0.7,0.6,1c0.2,0.3,0.5,0.5,0.8,0.6
		c0.3,0.1,0.6,0.2,1,0.2c0.4,0,0.7-0.1,1-0.2c0.3-0.1,0.6-0.3,0.8-0.6c0.2-0.3,0.4-0.6,0.6-1c0.1-0.4,0.2-0.8,0.2-1.3
		s-0.1-0.9-0.2-1.3s-0.3-0.7-0.6-1c-0.2-0.3-0.5-0.5-0.8-0.6c-0.3-0.1-0.6-0.2-1-0.2c-0.4,0-0.7,0.1-1,0.2c-0.3,0.1-0.6,0.3-0.8,0.6
		c-0.2,0.3-0.4,0.6-0.6,1s-0.2,0.8-0.2,1.3S101.9,113.8,102.1,114.2z"/>
	<path class="st1" d="M115.9,108.7v1.1h0c0.2-0.5,0.6-0.8,1.1-1c0.5-0.2,1-0.3,1.6-0.3c0.6,0,1.2,0.1,1.7,0.4c0.5,0.2,0.9,0.6,1.2,1
		c0.3,0.4,0.6,0.9,0.7,1.4s0.2,1.1,0.2,1.7c0,0.6-0.1,1.1-0.2,1.7c-0.2,0.5-0.4,1-0.7,1.4c-0.3,0.4-0.7,0.7-1.2,0.9
		c-0.5,0.2-1,0.3-1.7,0.3c-0.2,0-0.4,0-0.7-0.1c-0.3,0-0.5-0.1-0.7-0.2c-0.2-0.1-0.5-0.2-0.7-0.4s-0.4-0.4-0.6-0.6h0v4.3h-1.4v-11.4
		H115.9z M120.8,111.7c-0.1-0.4-0.3-0.7-0.5-1c-0.2-0.3-0.5-0.5-0.8-0.7c-0.3-0.2-0.7-0.3-1.1-0.3c-0.5,0-0.8,0.1-1.2,0.3
		c-0.3,0.2-0.6,0.4-0.8,0.7c-0.2,0.3-0.3,0.6-0.4,1c-0.1,0.4-0.1,0.8-0.1,1.1c0,0.4,0,0.8,0.1,1.2c0.1,0.4,0.2,0.7,0.5,1
		c0.2,0.3,0.5,0.5,0.8,0.7c0.3,0.2,0.7,0.3,1.2,0.3c0.5,0,0.9-0.1,1.2-0.3c0.3-0.2,0.6-0.4,0.8-0.7c0.2-0.3,0.3-0.6,0.4-1
		c0.1-0.4,0.1-0.8,0.1-1.2C121,112.4,120.9,112,120.8,111.7z"/>
	<path class="st1" d="M125.2,108.7v1.7h0c0.3-0.7,0.7-1.2,1.2-1.5c0.5-0.3,1.1-0.5,1.8-0.4v1.4c-0.5,0-1,0.1-1.4,0.2
		c-0.4,0.1-0.7,0.4-0.9,0.7s-0.4,0.6-0.5,1c-0.1,0.4-0.2,0.9-0.2,1.4v3.7H124v-8.3H125.2z"/>
	<path class="st1" d="M128.9,111.2c0.2-0.5,0.4-1,0.8-1.4c0.3-0.4,0.8-0.7,1.3-0.9c0.5-0.2,1.1-0.3,1.7-0.3c0.7,0,1.2,0.1,1.7,0.3
		s0.9,0.5,1.3,0.9c0.3,0.4,0.6,0.8,0.8,1.4c0.2,0.5,0.3,1.1,0.3,1.7s-0.1,1.2-0.3,1.7c-0.2,0.5-0.4,1-0.8,1.4
		c-0.3,0.4-0.8,0.7-1.3,0.9c-0.5,0.2-1.1,0.3-1.7,0.3c-0.7,0-1.2-0.1-1.7-0.3c-0.5-0.2-0.9-0.5-1.3-0.9c-0.3-0.4-0.6-0.8-0.8-1.4
		c-0.2-0.5-0.3-1.1-0.3-1.7S128.7,111.7,128.9,111.2z M130.2,114.2c0.1,0.4,0.3,0.7,0.6,1c0.2,0.3,0.5,0.5,0.8,0.6s0.6,0.2,1,0.2
		c0.4,0,0.7-0.1,1-0.2s0.6-0.3,0.8-0.6s0.4-0.6,0.6-1c0.1-0.4,0.2-0.8,0.2-1.3s-0.1-0.9-0.2-1.3c-0.1-0.4-0.3-0.7-0.6-1
		c-0.2-0.3-0.5-0.5-0.8-0.6c-0.3-0.1-0.6-0.2-1-0.2c-0.4,0-0.7,0.1-1,0.2c-0.3,0.1-0.6,0.3-0.8,0.6c-0.2,0.3-0.4,0.6-0.6,1
		s-0.2,0.8-0.2,1.3S130.1,113.8,130.2,114.2z"/>
	<path class="st1" d="M141.8,108.7v1.2h-1.6v5.1c0,0.2,0,0.3,0,0.4c0,0.1,0.1,0.2,0.2,0.2c0.1,0.1,0.2,0.1,0.3,0.1
		c0.1,0,0.3,0,0.5,0h0.6v1.2h-1c-0.4,0-0.7,0-0.9-0.1c-0.3,0-0.5-0.1-0.6-0.3s-0.3-0.3-0.3-0.5c-0.1-0.2-0.1-0.5-0.1-0.9v-5.3h-1.4
		v-1.2h1.4v-2.5h1.4v2.5H141.8z"/>
	<path class="st1" d="M149.1,116.5c-0.6,0.5-1.4,0.7-2.3,0.7c-0.7,0-1.2-0.1-1.7-0.3s-0.9-0.5-1.2-0.9c-0.3-0.4-0.6-0.8-0.7-1.4
		c-0.2-0.5-0.3-1.1-0.3-1.7c0-0.6,0.1-1.2,0.3-1.7c0.2-0.5,0.5-1,0.8-1.4c0.3-0.4,0.8-0.7,1.2-0.9s1-0.3,1.6-0.3
		c0.7,0,1.3,0.2,1.8,0.5c0.5,0.3,0.9,0.7,1.2,1.2c0.3,0.5,0.5,1,0.6,1.5c0.1,0.6,0.2,1.1,0.1,1.6h-6.2c0,0.4,0,0.7,0.1,1
		c0.1,0.3,0.3,0.6,0.5,0.9c0.2,0.3,0.5,0.5,0.8,0.6s0.7,0.2,1.2,0.2c0.6,0,1-0.1,1.4-0.4c0.4-0.3,0.6-0.7,0.7-1.2h1.3
		C150.1,115.3,149.7,116,149.1,116.5z M148.8,111.2c-0.1-0.3-0.3-0.5-0.5-0.7s-0.5-0.4-0.7-0.5c-0.3-0.1-0.6-0.2-0.9-0.2
		c-0.4,0-0.7,0.1-1,0.2c-0.3,0.1-0.5,0.3-0.7,0.5c-0.2,0.2-0.4,0.5-0.5,0.7c-0.1,0.3-0.2,0.6-0.2,0.9h4.8
		C149,111.8,148.9,111.5,148.8,111.2z"/>
	<path class="st1" d="M156.8,110.2c-0.3-0.3-0.8-0.4-1.4-0.4c-0.5,0-0.9,0.1-1.2,0.3c-0.3,0.2-0.6,0.4-0.8,0.7
		c-0.2,0.3-0.3,0.6-0.4,1c-0.1,0.4-0.1,0.8-0.1,1.2c0,0.4,0,0.8,0.1,1.1c0.1,0.4,0.2,0.7,0.4,1c0.2,0.3,0.4,0.5,0.8,0.7
		c0.3,0.2,0.7,0.3,1.1,0.3c0.7,0,1.2-0.2,1.6-0.5s0.6-0.8,0.7-1.5h1.4c-0.1,1-0.5,1.8-1.1,2.4s-1.4,0.8-2.5,0.8
		c-0.6,0-1.2-0.1-1.7-0.3c-0.5-0.2-0.9-0.5-1.2-0.9c-0.3-0.4-0.6-0.8-0.7-1.3c-0.2-0.5-0.2-1.1-0.2-1.7c0-0.6,0.1-1.2,0.2-1.7
		c0.2-0.5,0.4-1,0.7-1.4c0.3-0.4,0.7-0.7,1.2-0.9c0.5-0.2,1.1-0.3,1.7-0.3c0.5,0,0.9,0.1,1.3,0.2c0.4,0.1,0.8,0.3,1.1,0.5
		s0.6,0.5,0.8,0.9c0.2,0.4,0.3,0.8,0.4,1.3h-1.4C157.4,110.9,157.1,110.5,156.8,110.2z"/>
	<path class="st1" d="M164,108.7v1.2h-1.6v5.1c0,0.2,0,0.3,0,0.4c0,0.1,0.1,0.2,0.2,0.2c0.1,0.1,0.2,0.1,0.3,0.1c0.1,0,0.3,0,0.5,0
		h0.6v1.2h-1c-0.4,0-0.7,0-0.9-0.1c-0.3,0-0.5-0.1-0.6-0.3s-0.3-0.3-0.3-0.5c-0.1-0.2-0.1-0.5-0.1-0.9v-5.3h-1.4v-1.2h1.4v-2.5h1.4
		v2.5H164z"/>
	<path class="st1" d="M165.6,107.6c0.2-0.5,0.4-0.9,0.7-1.2c0.3-0.3,0.7-0.6,1.1-0.8c0.4-0.2,0.9-0.3,1.5-0.3c0.5,0,1,0.1,1.4,0.2
		c0.4,0.1,0.8,0.4,1.1,0.6c0.3,0.3,0.5,0.6,0.7,1s0.2,0.8,0.2,1.4c0,0.3,0,0.6-0.1,0.9s-0.2,0.5-0.3,0.7s-0.3,0.4-0.4,0.6
		c-0.2,0.2-0.3,0.4-0.5,0.5c-0.2,0.2-0.3,0.3-0.5,0.5c-0.2,0.2-0.3,0.3-0.4,0.5c-0.1,0.2-0.2,0.4-0.3,0.6s-0.1,0.5-0.1,0.7v0.6h-1.4
		v-0.8c0-0.4,0.1-0.8,0.2-1.1c0.1-0.3,0.3-0.6,0.5-0.8c0.2-0.2,0.4-0.5,0.7-0.7s0.4-0.4,0.6-0.7s0.4-0.5,0.5-0.8
		c0.1-0.3,0.2-0.6,0.1-1c0-0.6-0.2-1-0.6-1.4s-0.8-0.5-1.4-0.5c-0.4,0-0.7,0.1-1,0.2c-0.3,0.1-0.5,0.3-0.7,0.6
		c-0.2,0.2-0.3,0.5-0.4,0.8c-0.1,0.3-0.1,0.7-0.1,1h-1.4C165.3,108.6,165.4,108.1,165.6,107.6z M169.7,115.2v1.8H168v-1.8H169.7z"/>
</g>
</svg>
