<?xml version="1.0" encoding="utf-8"?>
<!-- Generator: Adobe Illustrator 25.0.0, SVG Export Plug-In . SVG Version: 6.00 Build 0)  -->
<svg version="1.1" id="Layer_1" xmlns="http://www.w3.org/2000/svg" xmlns:xlink="http://www.w3.org/1999/xlink" x="0px" y="0px"
	 viewBox="0 0 512 512" style="enable-background:new 0 0 512 512;" xml:space="preserve">
<style type="text/css">
	.st0{fill:#FFFFFF;}
</style>
<path class="st0" d="M256,0C114.6,0,0,114.6,0,256s114.6,256,256,256s256-114.6,256-256S397.4,0,256,0z M256,464
	c-114.7,0-208-93.3-208-208S141.3,48,256,48s208,93.3,208,208S370.7,464,256,464z M256,336c-18,0-32,14-32,32s13.1,32,32,32
	c17.1,0,32-14,32-32S273.1,336,256,336z M289.1,128H238c-39,0-70,31-70,70c0,13,11,24,24,24s24-11,24-24c0-12,9.1-22,21.1-22h51.1
	c12.9,0,23.8,10,23.8,22c0,8-4,14.1-11,18.1L244,251c-8,5-12,13-12,21v16c0,13,11,24,24,24s24-11,24-24v-2l45.1-28
	c21-13,34-36,34-60C360,159,329,128,289.1,128z"/>
</svg>
