<?xml version="1.0" encoding="utf-8"?>
<!-- Generator: Adobe Illustrator 26.5.0, SVG Export Plug-In . SVG Version: 6.00 Build 0)  -->
<svg version="1.1" id="Layer_3" xmlns="http://www.w3.org/2000/svg" xmlns:xlink="http://www.w3.org/1999/xlink" x="0px" y="0px"
	 viewBox="0 0 222.6 173.9" style="enable-background:new 0 0 222.6 173.9;" xml:space="preserve">
<style type="text/css">
	.st0{fill:#FFFFFF;stroke:#5E6062;stroke-width:2;stroke-miterlimit:10;}
	.st1{stroke:#5E6062;stroke-width:2;stroke-miterlimit:10;}
	.st2{fill:#FFFFFF;}
	.st3{fill:#5E6062;}
</style>
<path class="st0" d="M221.6,1v160.4c0,4.4-3.6,8-8,8H12.5c-4.4,0-8-3.6-8-8V1H221.6z"/>
<g>
	<circle class="st1" cx="20.8" cy="153.1" r="19.8"/>
	<g>
		<path class="st2" d="M27.5,156.7c0,3.1-2.4,5.9-7.5,5.9c-2.5,0-5.2-0.7-6.9-2l1.6-3.2c1.4,1,3.3,1.6,5.2,1.6
			c2.1,0,3.4-0.9,3.4-2.3c0-1.4-1-2.2-3.4-2.2h-1.9v-2.8l3.7-4.2h-7.7V144h12.7v2.7l-4.1,4.7C25.8,152,27.5,154,27.5,156.7z"/>
	</g>
</g>
<g>
	<path class="st3" d="M96.6,78.4c-0.6-0.4-1.3-0.6-2.1-0.6c-0.7,0-1.3,0.1-1.8,0.4c-0.5,0.3-0.9,0.6-1.2,1s-0.5,0.9-0.7,1.5
		c-0.1,0.6-0.2,1.1-0.2,1.7c0,0.7,0.1,1.3,0.2,1.8c0.1,0.6,0.4,1.1,0.7,1.5c0.3,0.4,0.7,0.8,1.2,1c0.5,0.3,1.1,0.4,1.8,0.4
		c0.5,0,0.9-0.1,1.3-0.2c0.4-0.2,0.7-0.4,1-0.7c0.3-0.3,0.5-0.6,0.7-1s0.3-0.8,0.3-1.3h1.5c-0.1,1.4-0.6,2.6-1.5,3.4
		c-0.8,0.8-2,1.2-3.5,1.2c-0.9,0-1.7-0.2-2.3-0.5c-0.7-0.3-1.2-0.7-1.6-1.3c-0.4-0.5-0.8-1.2-1-1.9c-0.2-0.7-0.3-1.5-0.3-2.3
		s0.1-1.6,0.4-2.3c0.2-0.7,0.6-1.4,1-1.9c0.5-0.5,1-1,1.7-1.3c0.7-0.3,1.5-0.5,2.3-0.5c0.6,0,1.2,0.1,1.7,0.2c0.5,0.2,1,0.4,1.4,0.7
		s0.8,0.7,1,1.2s0.5,1,0.5,1.6h-1.5C97.6,79.4,97.2,78.8,96.6,78.4z"/>
	<path class="st3" d="M102.5,76.8v11.4h-1.4V76.8H102.5z"/>
	<path class="st3" d="M104.7,78.4v-1.7h1.4v1.7H104.7z M106,79.9v8.3h-1.4v-8.3H106z"/>
	<path class="st3" d="M109.4,79.9v1.2h0c0.6-0.9,1.5-1.4,2.7-1.4c0.5,0,1,0.1,1.4,0.3c0.4,0.2,0.7,0.6,0.9,1.1
		c0.3-0.4,0.6-0.8,1.1-1c0.5-0.2,1-0.4,1.5-0.4c0.4,0,0.8,0,1.1,0.1s0.6,0.2,0.9,0.4c0.2,0.2,0.4,0.4,0.6,0.7s0.2,0.7,0.2,1.1v6.1
		h-1.4v-5.4c0-0.3,0-0.5-0.1-0.7c0-0.2-0.1-0.4-0.2-0.6c-0.1-0.2-0.3-0.3-0.5-0.4s-0.5-0.1-0.8-0.1c-0.7,0-1.2,0.2-1.6,0.6
		c-0.4,0.4-0.6,0.9-0.6,1.5v5.2h-1.4v-5.4c0-0.3,0-0.5-0.1-0.7c0-0.2-0.1-0.4-0.2-0.6c-0.1-0.2-0.3-0.3-0.5-0.4
		c-0.2-0.1-0.5-0.1-0.8-0.1c-0.4,0-0.7,0.1-1,0.2c-0.3,0.2-0.5,0.4-0.7,0.6c-0.2,0.2-0.3,0.5-0.4,0.7s-0.1,0.4-0.1,0.6v5.2h-1.4
		v-8.3H109.4z"/>
	<path class="st3" d="M129.1,88.2c-0.2,0.1-0.6,0.2-1,0.2c-0.4,0-0.6-0.1-0.8-0.3s-0.3-0.5-0.3-1c-0.4,0.4-0.8,0.8-1.3,1
		s-1,0.3-1.6,0.3c-0.4,0-0.7,0-1.1-0.1s-0.6-0.2-0.9-0.4c-0.2-0.2-0.4-0.4-0.6-0.7c-0.1-0.3-0.2-0.6-0.2-1.1c0-0.5,0.1-0.9,0.2-1.2
		c0.2-0.3,0.4-0.5,0.6-0.7c0.3-0.2,0.6-0.3,0.9-0.4c0.3-0.1,0.7-0.2,1-0.2c0.4-0.1,0.7-0.1,1.1-0.2s0.6-0.1,0.9-0.2
		c0.3-0.1,0.5-0.2,0.6-0.3c0.1-0.1,0.2-0.3,0.2-0.6c0-0.3-0.1-0.5-0.2-0.7c-0.1-0.2-0.3-0.3-0.4-0.4c-0.2-0.1-0.4-0.2-0.6-0.2
		s-0.4,0-0.6,0c-0.6,0-1.1,0.1-1.4,0.3c-0.4,0.2-0.6,0.6-0.6,1.2h-1.4c0-0.5,0.1-0.9,0.3-1.3c0.2-0.4,0.4-0.6,0.8-0.9
		c0.3-0.2,0.7-0.4,1.1-0.5c0.4-0.1,0.9-0.1,1.3-0.1c0.4,0,0.7,0,1.1,0.1c0.4,0.1,0.7,0.2,1,0.3c0.3,0.2,0.5,0.4,0.7,0.7
		c0.2,0.3,0.3,0.7,0.3,1.2v4.2c0,0.3,0,0.6,0.1,0.7c0,0.1,0.2,0.2,0.4,0.2c0.1,0,0.3,0,0.4-0.1V88.2z M126.9,83.9
		c-0.2,0.1-0.4,0.2-0.7,0.3c-0.3,0.1-0.6,0.1-0.9,0.1c-0.3,0-0.6,0.1-0.9,0.1c-0.3,0-0.6,0.1-0.8,0.2c-0.2,0.1-0.4,0.3-0.6,0.5
		c-0.2,0.2-0.2,0.5-0.2,0.8c0,0.2,0,0.4,0.1,0.6s0.2,0.3,0.4,0.4s0.3,0.2,0.5,0.2c0.2,0,0.4,0.1,0.6,0.1c0.4,0,0.8-0.1,1.2-0.2
		c0.3-0.1,0.6-0.3,0.8-0.5s0.4-0.4,0.4-0.6c0.1-0.2,0.1-0.4,0.1-0.6V83.9z"/>
	<path class="st3" d="M129.7,79.9h1.7l2,2.9l2.1-2.9h1.6l-2.8,3.8l3.2,4.5h-1.7l-2.3-3.4l-2.3,3.4h-1.6l3.1-4.4L129.7,79.9z"/>
</g>
</svg>
