<?xml version="1.0" encoding="utf-8"?>
<!-- Generator: Adobe Illustrator 26.5.0, SVG Export Plug-In . SVG Version: 6.00 Build 0)  -->
<svg version="1.1" id="Layer_3" xmlns="http://www.w3.org/2000/svg" xmlns:xlink="http://www.w3.org/1999/xlink" x="0px" y="0px"
	 viewBox="0 0 222.6 173.9" style="enable-background:new 0 0 222.6 173.9;" xml:space="preserve">
<style type="text/css">
	.st0{fill:#FFFFFF;stroke:#5E6062;stroke-width:2;stroke-miterlimit:10;}
	.st1{stroke:#5E6062;stroke-width:2;stroke-miterlimit:10;}
	.st2{fill:#FFFFFF;}
	.st3{fill:#5E6062;}
</style>
<path class="st0" d="M221.6,1v160.4c0,4.4-3.6,8-8,8H12.5c-4.4,0-8-3.6-8-8V1H221.6z"/>
<g>
	<circle class="st1" cx="20.8" cy="153.1" r="19.8"/>
	<g>
		<path class="st2" d="M27.7,158.8v3.4H13.9v-2.7l7-6.6c1.6-1.5,1.9-2.5,1.9-3.4c0-1.4-1-2.3-2.9-2.3c-1.6,0-2.9,0.6-3.8,1.8l-3.1-2
			c1.4-2.1,4-3.4,7.2-3.4c4.1,0,6.8,2.1,6.8,5.4c0,1.8-0.5,3.4-3,5.7l-4.2,4H27.7z"/>
	</g>
</g>
<g>
	<path class="st3" d="M72.6,76.8c1.1,0,1.9,0.3,2.6,0.8s0.9,1.3,0.9,2.2c0,0.7-0.2,1.3-0.5,1.8c-0.3,0.5-0.8,0.9-1.5,1.1v0
		c0.3,0.1,0.6,0.2,0.8,0.3s0.4,0.3,0.5,0.5c0.1,0.2,0.2,0.4,0.3,0.7s0.1,0.5,0.1,0.8c0,0.3,0,0.6,0,0.8c0,0.3,0,0.6,0.1,0.8
		c0,0.3,0.1,0.5,0.2,0.8c0.1,0.3,0.2,0.5,0.4,0.7h-1.7c-0.1-0.1-0.2-0.3-0.2-0.5c0-0.2-0.1-0.4-0.1-0.7c0-0.2,0-0.5,0-0.8
		s0-0.6-0.1-0.8c0-0.3-0.1-0.5-0.2-0.8c-0.1-0.2-0.2-0.5-0.3-0.7s-0.3-0.3-0.5-0.4c-0.2-0.1-0.5-0.2-0.9-0.2h-3.7v4.9h-1.5V76.8
		H72.6z M72.9,82c0.3-0.1,0.6-0.2,0.8-0.3c0.2-0.2,0.4-0.4,0.6-0.6c0.1-0.3,0.2-0.6,0.2-1c0-0.6-0.2-1-0.5-1.4
		c-0.3-0.4-0.8-0.5-1.6-0.5h-3.8v4h3.2C72.2,82,72.6,82,72.9,82z"/>
	<path class="st3" d="M78,78.4v-1.7h1.4v1.7H78z M79.4,79.9v8.3H78v-8.3H79.4z"/>
	<path class="st3" d="M82.5,86.4c0.1,0.2,0.3,0.4,0.5,0.5c0.2,0.1,0.4,0.2,0.7,0.3c0.3,0.1,0.5,0.1,0.8,0.1c0.2,0,0.4,0,0.7,0
		c0.2,0,0.5-0.1,0.6-0.2c0.2-0.1,0.4-0.2,0.5-0.4c0.1-0.2,0.2-0.4,0.2-0.6c0-0.4-0.1-0.6-0.4-0.8s-0.6-0.3-1-0.4
		c-0.4-0.1-0.8-0.2-1.3-0.3c-0.5-0.1-0.9-0.2-1.3-0.4c-0.4-0.2-0.7-0.4-1-0.7c-0.3-0.3-0.4-0.7-0.4-1.2c0-0.4,0.1-0.8,0.3-1.1
		c0.2-0.3,0.4-0.5,0.7-0.7c0.3-0.2,0.6-0.3,1-0.4s0.7-0.1,1.1-0.1c0.5,0,0.9,0,1.3,0.1s0.7,0.2,1,0.4c0.3,0.2,0.5,0.5,0.7,0.8
		c0.2,0.3,0.3,0.8,0.3,1.3h-1.4c0-0.3-0.1-0.5-0.2-0.7c-0.1-0.2-0.3-0.3-0.4-0.4S85.2,81.1,85,81c-0.2,0-0.4-0.1-0.7-0.1
		c-0.2,0-0.4,0-0.6,0s-0.4,0.1-0.6,0.2s-0.3,0.2-0.4,0.3c-0.1,0.1-0.2,0.3-0.2,0.5c0,0.2,0.1,0.4,0.2,0.6c0.2,0.2,0.4,0.3,0.6,0.4
		c0.3,0.1,0.5,0.2,0.9,0.3c0.3,0.1,0.6,0.1,1,0.2c0.3,0.1,0.7,0.2,1,0.3s0.6,0.2,0.9,0.4s0.5,0.4,0.6,0.7c0.2,0.3,0.2,0.6,0.2,1
		c0,0.5-0.1,0.9-0.3,1.2c-0.2,0.3-0.5,0.6-0.8,0.8c-0.3,0.2-0.7,0.3-1.1,0.4c-0.4,0.1-0.8,0.1-1.3,0.1c-0.5,0-0.9,0-1.3-0.1
		c-0.4-0.1-0.8-0.3-1.1-0.5c-0.3-0.2-0.6-0.5-0.8-0.9c-0.2-0.4-0.3-0.8-0.3-1.3h1.4C82.3,85.9,82.4,86.2,82.5,86.4z"/>
	<path class="st3" d="M89.6,78.4v-1.7h1.4v1.7H89.6z M90.9,79.9v8.3h-1.4v-8.3H90.9z"/>
	<path class="st3" d="M94.3,79.9v1.3h0c0.6-1,1.5-1.5,2.7-1.5c0.5,0,1,0.1,1.4,0.2s0.7,0.4,0.9,0.6s0.4,0.6,0.5,1s0.1,0.8,0.1,1.2
		v5.4h-1.4v-5.6c0-0.5-0.1-0.9-0.4-1.2c-0.3-0.3-0.7-0.4-1.2-0.4c-0.4,0-0.8,0.1-1.1,0.2s-0.6,0.3-0.8,0.5c-0.2,0.2-0.4,0.5-0.5,0.8
		c-0.1,0.3-0.2,0.7-0.2,1v4.7H93v-8.3H94.3z"/>
	<path class="st3" d="M108.1,90.5c-0.6,0.7-1.6,1-2.9,1c-0.4,0-0.8,0-1.2-0.1c-0.4-0.1-0.8-0.2-1.1-0.4c-0.3-0.2-0.6-0.4-0.8-0.8
		c-0.2-0.3-0.3-0.7-0.4-1.1h1.4c0,0.2,0.1,0.5,0.2,0.6c0.1,0.2,0.3,0.3,0.5,0.4s0.4,0.2,0.7,0.2c0.2,0,0.5,0.1,0.7,0.1
		c0.4,0,0.8-0.1,1.1-0.2c0.3-0.2,0.6-0.4,0.8-0.6c0.2-0.3,0.3-0.6,0.4-1c0.1-0.4,0.1-0.8,0.1-1.3v-0.5h0c-0.2,0.5-0.6,0.9-1.1,1.1
		c-0.5,0.2-1,0.4-1.5,0.4c-0.6,0-1.2-0.1-1.6-0.3c-0.5-0.2-0.8-0.5-1.2-0.9c-0.3-0.4-0.5-0.8-0.7-1.3c-0.2-0.5-0.2-1-0.2-1.6
		c0-0.5,0.1-1,0.2-1.5c0.1-0.5,0.3-1,0.6-1.4c0.3-0.4,0.7-0.8,1.2-1c0.5-0.3,1.1-0.4,1.8-0.4c0.5,0,1,0.1,1.4,0.3s0.8,0.6,1,1h0
		v-1.2h1.3v7.6C109.1,88.9,108.7,89.9,108.1,90.5z M106.4,86.8c0.3-0.2,0.6-0.4,0.8-0.7c0.2-0.3,0.3-0.6,0.4-1
		c0.1-0.4,0.1-0.8,0.1-1.2c0-0.4,0-0.7-0.1-1.1c-0.1-0.4-0.2-0.7-0.4-1c-0.2-0.3-0.4-0.5-0.7-0.7c-0.3-0.2-0.7-0.3-1.1-0.3
		c-0.4,0-0.8,0.1-1.1,0.2c-0.3,0.2-0.6,0.4-0.8,0.7s-0.3,0.6-0.4,1c-0.1,0.4-0.1,0.7-0.1,1.1c0,0.4,0,0.7,0.1,1.1
		c0.1,0.4,0.2,0.7,0.4,1c0.2,0.3,0.4,0.5,0.7,0.7c0.3,0.2,0.7,0.3,1.1,0.3C105.7,87.1,106.1,87,106.4,86.8z"/>
	<path class="st3" d="M120.6,76.8l4.5,11.4h-1.7l-1.2-3.4h-4.8l-1.3,3.4h-1.6l4.4-11.4H120.6z M121.6,83.5l-1.9-5.3h0l-1.9,5.3
		H121.6z"/>
	<path class="st3" d="M130.9,81.4c-0.3-0.3-0.8-0.4-1.4-0.4c-0.5,0-0.9,0.1-1.2,0.3c-0.3,0.2-0.6,0.4-0.8,0.7
		c-0.2,0.3-0.3,0.6-0.4,1c-0.1,0.4-0.1,0.8-0.1,1.2c0,0.4,0,0.8,0.1,1.1c0.1,0.4,0.2,0.7,0.4,1c0.2,0.3,0.4,0.5,0.8,0.7
		c0.3,0.2,0.7,0.3,1.1,0.3c0.7,0,1.2-0.2,1.6-0.5c0.4-0.4,0.6-0.8,0.7-1.5h1.4c-0.1,1-0.5,1.8-1.1,2.4c-0.6,0.6-1.4,0.8-2.5,0.8
		c-0.6,0-1.2-0.1-1.7-0.3c-0.5-0.2-0.9-0.5-1.2-0.9c-0.3-0.4-0.6-0.8-0.7-1.3c-0.2-0.5-0.2-1.1-0.2-1.7c0-0.6,0.1-1.2,0.2-1.7
		c0.2-0.5,0.4-1,0.7-1.4c0.3-0.4,0.7-0.7,1.2-0.9c0.5-0.2,1.1-0.3,1.7-0.3c0.5,0,0.9,0.1,1.3,0.2c0.4,0.1,0.8,0.3,1.1,0.5
		c0.3,0.2,0.6,0.5,0.8,0.9c0.2,0.4,0.3,0.8,0.4,1.3h-1.4C131.4,82.1,131.2,81.7,130.9,81.4z"/>
	<path class="st3" d="M138.1,79.9v1.2h-1.6v5.1c0,0.2,0,0.3,0,0.4c0,0.1,0.1,0.2,0.2,0.2c0.1,0.1,0.2,0.1,0.3,0.1c0.1,0,0.3,0,0.5,0
		h0.6v1.2h-1c-0.4,0-0.7,0-0.9-0.1c-0.3,0-0.5-0.1-0.6-0.3c-0.2-0.1-0.3-0.3-0.3-0.5c-0.1-0.2-0.1-0.5-0.1-0.9v-5.3h-1.4v-1.2h1.4
		v-2.5h1.4v2.5H138.1z"/>
	<path class="st3" d="M139.6,78.4v-1.7h1.4v1.7H139.6z M141,79.9v8.3h-1.4v-8.3H141z"/>
	<path class="st3" d="M142.9,82.4c0.2-0.5,0.4-1,0.8-1.4s0.8-0.7,1.3-0.9c0.5-0.2,1.1-0.3,1.7-0.3c0.7,0,1.2,0.1,1.7,0.3
		s0.9,0.5,1.3,0.9c0.3,0.4,0.6,0.8,0.8,1.4s0.3,1.1,0.3,1.7s-0.1,1.2-0.3,1.7s-0.4,1-0.8,1.4c-0.3,0.4-0.8,0.7-1.3,0.9
		c-0.5,0.2-1.1,0.3-1.7,0.3c-0.7,0-1.2-0.1-1.7-0.3c-0.5-0.2-0.9-0.5-1.3-0.9c-0.3-0.4-0.6-0.8-0.8-1.4c-0.2-0.5-0.3-1.1-0.3-1.7
		S142.7,82.9,142.9,82.4z M144.3,85.4c0.1,0.4,0.3,0.7,0.6,1c0.2,0.3,0.5,0.5,0.8,0.6s0.6,0.2,1,0.2s0.7-0.1,1-0.2s0.6-0.3,0.8-0.6
		c0.2-0.3,0.4-0.6,0.6-1c0.1-0.4,0.2-0.8,0.2-1.3s-0.1-0.9-0.2-1.3c-0.1-0.4-0.3-0.7-0.6-1c-0.2-0.3-0.5-0.5-0.8-0.6s-0.6-0.2-1-0.2
		s-0.7,0.1-1,0.2s-0.6,0.3-0.8,0.6s-0.4,0.6-0.6,1c-0.1,0.4-0.2,0.8-0.2,1.3S144.2,85,144.3,85.4z"/>
	<path class="st3" d="M153.6,79.9v1.3h0c0.6-1,1.5-1.5,2.7-1.5c0.5,0,1,0.1,1.4,0.2s0.7,0.4,0.9,0.6s0.4,0.6,0.5,1s0.1,0.8,0.1,1.2
		v5.4h-1.4v-5.6c0-0.5-0.1-0.9-0.4-1.2c-0.3-0.3-0.7-0.4-1.2-0.4c-0.4,0-0.8,0.1-1.1,0.2s-0.6,0.3-0.8,0.5c-0.2,0.2-0.4,0.5-0.5,0.8
		c-0.1,0.3-0.2,0.7-0.2,1v4.7h-1.4v-8.3H153.6z"/>
</g>
</svg>
