<?xml version="1.0" encoding="utf-8"?>
<!-- Generator: Adobe Illustrator 26.5.0, SVG Export Plug-In . SVG Version: 6.00 Build 0)  -->
<svg version="1.1" id="Layer_3" xmlns="http://www.w3.org/2000/svg" xmlns:xlink="http://www.w3.org/1999/xlink" x="0px" y="0px"
	 viewBox="0 0 674.9 679.1" style="enable-background:new 0 0 674.9 679.1;" xml:space="preserve">
<style type="text/css">
	.st0{fill:#D0D2D3;}
	.st1{fill:#5E6062;}
	.st2{fill:none;stroke:#D0D2D3;stroke-width:38;stroke-linecap:round;stroke-linejoin:round;stroke-miterlimit:10;}
	.st3{fill:none;stroke:#5E6062;stroke-miterlimit:10;}
	.st4{fill:none;stroke:#000000;stroke-width:2;stroke-miterlimit:10;}
	.st5{stroke:#5E6062;stroke-width:2;stroke-miterlimit:10;}
	.st6{fill:#FFFFFF;}
</style>
<g>
	<path class="st0" d="M622.9,609.9H480.2c-8.7,0-16.1-6.1-17.9-14.5l-79.2-374.6L177.8,600.3c-3.2,5.9-9.4,9.6-16.1,9.6H33.7
		c-10.1,0-18.3-8.2-18.3-18.3c0-10.1,8.2-18.3,18.3-18.3h117l223.8-413.8c3.7-6.8,11.1-10.5,18.7-9.4c7.6,1.1,13.7,6.8,15.3,14.3
		l86.5,408.9h127.8c10.1,0,18.3,8.2,18.3,18.3C641.2,601.7,633,609.9,622.9,609.9z"/>
</g>
<g>
	<path class="st1" d="M245.6,408.8c0.4-0.7,0.8-1.4,1.4-1.9c0.5-0.6,1.1-1,1.7-1.3c0.6-0.3,1.3-0.4,2.1-0.4c0.7,0,1.5,0.2,2.3,0.7
		c1.1,0.6,1.9,1.4,2.4,2.4c0.5,1,0.6,2.2,0.2,3.4l0,0c0.4-0.5,0.8-0.9,1.2-1.2s0.9-0.4,1.3-0.5s1,0,1.5,0.1c0.5,0.1,1,0.3,1.6,0.6
		c0.3,0.1,0.7,0.3,1.1,0.5c0.4,0.2,0.9,0.4,1.3,0.6c0.5,0.2,0.9,0.3,1.4,0.4c0.4,0.1,0.8,0.1,1.1,0.1l-1,1.9c-0.2,0-0.5,0-0.7-0.1
		c-0.3-0.1-0.5-0.2-0.8-0.3c-0.3-0.1-0.5-0.2-0.8-0.3s-0.5-0.2-0.7-0.3c-0.6-0.3-1.3-0.6-1.9-0.8c-0.7-0.3-1.3-0.4-1.9-0.4
		c-0.6,0-1.2,0.1-1.7,0.4c-0.5,0.3-1,0.8-1.4,1.7l-3.4,6.4l7.8,4.2l-0.9,1.7l-17.6-9.4L245.6,408.8z M253.9,413.4
		c0.3-0.5,0.5-1,0.5-1.6c0.1-0.5,0.1-1.1,0-1.6c-0.1-0.5-0.3-1-0.6-1.4c-0.3-0.4-0.7-0.8-1.3-1.1c-1.1-0.6-2.1-0.7-3.1-0.4
		c-1,0.3-1.8,1.1-2.5,2.4l-3.4,6.3l6.9,3.7L253.9,413.4z"/>
	<path class="st1" d="M250.8,399.1l2.5,1.3l-0.8,1.6l-2.5-1.3L250.8,399.1z M255.7,401.7l12.7,6.8l-0.8,1.6l-12.7-6.8L255.7,401.7z"
		/>
	<path class="st1" d="M263.7,392.8c-0.5,0-0.9,0.1-1.3,0.3c-0.4,0.2-0.7,0.4-1.1,0.8c-0.3,0.3-0.6,0.7-0.8,1.2
		c-0.2,0.3-0.3,0.7-0.5,1.1c-0.1,0.4-0.2,0.8-0.2,1.2c0,0.4,0.1,0.7,0.3,1.1c0.2,0.3,0.5,0.6,0.9,0.8c0.3,0.2,0.7,0.3,1,0.2
		c0.3,0,0.7-0.2,1-0.3c0.3-0.2,0.6-0.4,0.9-0.6c0.3-0.3,0.5-0.5,0.7-0.7l1.6-1.8c0.3-0.4,0.7-0.8,1.1-1.1c0.4-0.3,0.8-0.6,1.3-0.8
		c0.5-0.2,1-0.3,1.5-0.3c0.5,0,1.1,0.2,1.6,0.5c0.7,0.4,1.2,0.8,1.5,1.4c0.3,0.6,0.5,1.2,0.5,1.8c0,0.6,0,1.3-0.2,2
		c-0.2,0.7-0.5,1.3-0.8,1.9c-0.8,1.5-1.8,2.5-3,3.1c-1.2,0.5-2.6,0.5-4.3-0.2l0.8-1.6c1.1,0.5,2.1,0.5,3,0.1
		c0.9-0.4,1.6-1.1,2.2-2.2c0.2-0.4,0.4-0.8,0.5-1.2c0.1-0.4,0.2-0.9,0.2-1.3c0-0.5-0.1-0.9-0.3-1.3c-0.2-0.4-0.5-0.7-0.9-0.9
		c-0.4-0.2-0.7-0.3-1.1-0.3c-0.3,0-0.7,0.1-1,0.3c-0.3,0.2-0.6,0.4-0.9,0.7c-0.3,0.3-0.6,0.6-0.8,0.9l-1.5,1.8
		c-0.4,0.4-0.8,0.8-1.2,1.2c-0.4,0.3-0.8,0.6-1.2,0.8c-0.4,0.2-0.9,0.3-1.3,0.2s-1-0.2-1.5-0.5c-0.6-0.3-1.1-0.8-1.4-1.3
		c-0.3-0.5-0.5-1.1-0.5-1.7c0-0.6,0-1.2,0.2-1.9c0.2-0.6,0.4-1.2,0.7-1.8c0.3-0.6,0.7-1.2,1.2-1.7c0.5-0.5,1-0.8,1.5-1
		c0.6-0.2,1.2-0.3,1.8-0.3c0.6,0,1.3,0.2,2,0.5l-0.8,1.6C264.6,392.9,264.1,392.8,263.7,392.8z"/>
	<path class="st1" d="M259.6,382.7l2.5,1.3l-0.8,1.6l-2.5-1.3L259.6,382.7z M264.5,385.3l12.7,6.8l-0.8,1.6l-12.7-6.8L264.5,385.3z"
		/>
	<path class="st1" d="M266.9,380.8l2.2,1.2l0,0c-0.6-0.7-1-1.6-1-2.6c-0.1-1,0.1-2,0.6-2.9c0.5-0.9,1-1.6,1.5-2
		c0.6-0.5,1.1-0.8,1.7-0.9c0.6-0.1,1.3-0.1,2,0.1c0.7,0.2,1.4,0.5,2.2,0.9l8.2,4.4l-0.8,1.6l-7.9-4.3c-0.5-0.3-1.1-0.5-1.6-0.7
		c-0.5-0.2-1-0.2-1.5-0.1c-0.5,0.1-0.9,0.2-1.4,0.6c-0.4,0.3-0.8,0.8-1.1,1.4c-0.3,0.6-0.5,1.2-0.6,1.8c0,0.6,0,1.2,0.3,1.7
		c0.2,0.5,0.5,1.1,1,1.5c0.4,0.5,1,0.9,1.6,1.2l7.4,4l-0.8,1.6l-12.7-6.8L266.9,380.8z"/>
	<path class="st1" d="M293,366.3c0.6,0.6,1.1,1.3,1.4,2c0.3,0.7,0.4,1.5,0.3,2.4c-0.1,0.9-0.4,1.8-1,2.9c-0.3,0.6-0.8,1.2-1.2,1.8
		c-0.5,0.5-1,1-1.6,1.3c-0.6,0.3-1.2,0.5-1.8,0.6s-1.3-0.1-2-0.4l0.8-1.6c0.5,0.2,1,0.2,1.5,0.2c0.4-0.1,0.9-0.2,1.2-0.4
		c0.4-0.2,0.7-0.5,1-0.9c0.3-0.4,0.6-0.8,0.8-1.2c0.8-1.4,0.9-2.7,0.4-3.8c-0.5-1.1-1.5-2-3-2.9l-1.7-0.9l0,0c0.6,0.8,0.9,1.7,1,2.6
		c0.1,1-0.1,1.9-0.6,2.8c-0.5,1-1.2,1.8-1.9,2.3c-0.7,0.5-1.5,0.9-2.4,1c-0.8,0.2-1.7,0.1-2.6-0.1c-0.9-0.2-1.8-0.6-2.7-1
		c-0.9-0.5-1.6-1-2.3-1.7c-0.6-0.7-1.1-1.4-1.5-2.2c-0.3-0.8-0.5-1.6-0.4-2.5c0-0.9,0.3-1.8,0.8-2.7c0.3-0.5,0.6-0.9,0.9-1.2
		c0.4-0.3,0.7-0.6,1.2-0.9s0.9-0.4,1.3-0.5c0.5-0.1,0.9-0.1,1.3-0.1l0,0l-2.2-1.2l0.8-1.6l11.7,6.3
		C291.6,365.1,292.4,365.6,293,366.3z M287.7,368c0-0.7-0.2-1.3-0.4-1.9c-0.3-0.6-0.7-1.1-1.2-1.6c-0.5-0.5-1.1-0.9-1.7-1.3
		c-0.6-0.3-1.3-0.6-2-0.8c-0.7-0.2-1.4-0.3-2.1-0.2c-0.7,0.1-1.3,0.3-1.9,0.6s-1.1,0.9-1.5,1.6c-0.4,0.7-0.6,1.5-0.6,2.1
		c0,0.7,0.2,1.3,0.5,2c0.3,0.6,0.7,1.2,1.3,1.7c0.5,0.5,1.2,0.9,1.8,1.3c0.6,0.3,1.3,0.6,2,0.8c0.7,0.2,1.4,0.2,2,0.1
		c0.7-0.1,1.3-0.3,1.8-0.7c0.6-0.4,1-0.9,1.4-1.6C287.6,369.3,287.7,368.7,287.7,368z"/>
	<path class="st1" d="M283.3,338.5l21.3,2.5l-1,1.8l-6.6-0.8l-4.3,8l4.3,5.1l-1,1.8l-13.8-16.5L283.3,338.5z M295.3,341.9l-10.9-1.4
		l7.1,8.4L295.3,341.9z"/>
	<path class="st1" d="M298.5,326.1c-0.9,0.3-1.6,0.9-2.1,2c-0.4,0.7-0.6,1.5-0.6,2.2c0,0.7,0.2,1.4,0.5,2.1c0.3,0.6,0.7,1.2,1.3,1.8
		c0.5,0.5,1.2,1,1.8,1.3c0.7,0.4,1.4,0.6,2.1,0.8c0.8,0.2,1.5,0.2,2.2,0.1c0.7-0.1,1.4-0.3,2-0.7c0.6-0.4,1.1-1,1.5-1.7
		c0.3-0.5,0.4-1,0.5-1.5c0-0.5,0-1-0.1-1.5c-0.1-0.5-0.4-1-0.7-1.4c-0.3-0.5-0.7-0.8-1.2-1.2l0.8-1.6c1.4,1,2.3,2.3,2.7,3.6
		c0.4,1.4,0.2,2.8-0.6,4.2c-0.5,1-1.2,1.7-1.9,2.3s-1.6,0.9-2.5,1.1c-0.9,0.2-1.8,0.2-2.8,0c-1-0.2-1.9-0.5-2.8-1
		c-0.9-0.5-1.7-1.1-2.4-1.8c-0.7-0.7-1.2-1.5-1.5-2.3c-0.3-0.8-0.5-1.7-0.4-2.7c0-0.9,0.3-1.9,0.8-2.9c0.7-1.4,1.7-2.3,2.9-2.9
		c1.2-0.6,2.6-0.5,4.2,0.1l-0.8,1.6C300.3,325.8,299.3,325.8,298.5,326.1z"/>
	<path class="st1" d="M302.1,315.1l1.3,0.7l-1.4,2.6l8.6,4.6c0.5,0.3,0.9,0.4,1.3,0.4c0.4,0,0.7-0.2,1-0.8c0.2-0.4,0.5-0.9,0.6-1.4
		l1.3,0.7c-0.1,0.2-0.2,0.5-0.3,0.7s-0.2,0.5-0.3,0.7c-0.6,1-1.1,1.7-1.8,1.8s-1.5,0-2.6-0.6l-8.7-4.7l-1.2,2.2l-1.3-0.7l1.2-2.2
		l-3.8-2.1l0.8-1.6l3.8,2.1L302.1,315.1z"/>
	<path class="st1" d="M299.3,308.6l2.5,1.3l-0.8,1.6l-2.5-1.3L299.3,308.6z M304.2,311.3l12.7,6.8l-0.8,1.6l-12.7-6.8L304.2,311.3z"
		/>
	<path class="st1" d="M310.2,300.4c0.8-0.6,1.6-0.9,2.5-1.1c0.9-0.2,1.8-0.2,2.8,0c1,0.2,1.9,0.5,2.8,1c0.9,0.5,1.7,1.1,2.4,1.8
		c0.7,0.7,1.2,1.5,1.5,2.3s0.5,1.7,0.4,2.7c0,0.9-0.3,1.9-0.9,2.9s-1.2,1.7-1.9,2.3c-0.8,0.6-1.6,0.9-2.5,1.1s-1.8,0.2-2.8,0
		c-1-0.2-1.9-0.5-2.8-1c-0.9-0.5-1.7-1.1-2.4-1.8c-0.7-0.7-1.2-1.5-1.5-2.3c-0.3-0.8-0.5-1.7-0.4-2.7c0-0.9,0.3-1.9,0.8-2.9
		S309.5,301,310.2,300.4z M309,305.6c0,0.7,0.2,1.4,0.5,2.1c0.3,0.6,0.7,1.2,1.3,1.8s1.2,1,1.8,1.3c0.7,0.4,1.4,0.6,2.1,0.8
		c0.8,0.2,1.5,0.2,2.2,0.1c0.7-0.1,1.4-0.3,2-0.7c0.6-0.4,1.1-1,1.5-1.7s0.6-1.5,0.6-2.2c0-0.7-0.2-1.4-0.5-2.1
		c-0.3-0.6-0.7-1.2-1.3-1.8c-0.5-0.5-1.2-1-1.8-1.3c-0.7-0.4-1.4-0.6-2.1-0.8c-0.8-0.2-1.5-0.2-2.2-0.1c-0.7,0.1-1.4,0.3-2,0.7
		c-0.6,0.4-1.1,1-1.5,1.7S309,304.9,309,305.6z"/>
	<path class="st1" d="M314,293l2.2,1.2l0,0c-0.6-0.7-1-1.6-1-2.6c-0.1-1,0.1-2,0.6-2.9c0.5-0.9,1-1.6,1.5-2c0.6-0.5,1.1-0.8,1.7-0.9
		c0.6-0.1,1.3-0.1,2,0.1c0.7,0.2,1.4,0.5,2.2,0.9l8.2,4.4l-0.8,1.6l-7.9-4.3c-0.5-0.3-1.1-0.5-1.6-0.7c-0.5-0.2-1-0.2-1.5-0.1
		c-0.5,0.1-0.9,0.2-1.4,0.6c-0.4,0.3-0.8,0.8-1.1,1.4c-0.3,0.6-0.5,1.2-0.6,1.8c0,0.6,0,1.2,0.3,1.7c0.2,0.5,0.5,1.1,1,1.5
		c0.4,0.5,1,0.9,1.6,1.2l7.4,4l-0.8,1.6l-12.7-6.8L314,293z"/>
</g>
<line class="st2" x1="634.1" y1="607.3" x2="634.1" y2="576.1"/>
<line class="st3" x1="44.4" y1="568.2" x2="148.5" y2="568.2"/>
<line class="st3" x1="506.7" y1="568.2" x2="610.8" y2="568.2"/>
<line class="st3" x1="293.9" y1="280.3" x2="227.6" y2="404.1"/>
<line class="st3" x1="445.6" y1="270.3" x2="474.2" y2="407.8"/>
<line class="st3" x1="349.7" y1="117.9" x2="435.8" y2="117.9"/>
<polyline class="st4" points="558.8,560.9 558.8,502.5 634.1,502.5 "/>
<polyline class="st4" points="95.1,560.9 95.1,502.5 19.8,502.5 "/>
<polyline class="st4" points="8.3,83.6 392.7,83.6 392.7,110.5 "/>
<ellipse class="st0" cx="25.2" cy="591.6" rx="23.8" ry="23.8"/>
<g>
	<path class="st1" d="M509.3,580.8c0.8,0,1.6,0.1,2.3,0.3c0.7,0.2,1.4,0.5,1.9,0.9c0.5,0.4,1,1,1.3,1.6c0.3,0.7,0.5,1.4,0.5,2.3
		c0,1.3-0.3,2.4-1,3.3c-0.7,0.9-1.6,1.5-2.9,1.8v0.1c0.7,0.1,1.2,0.3,1.6,0.5c0.4,0.3,0.8,0.6,1,1c0.3,0.4,0.5,0.8,0.6,1.4
		c0.1,0.5,0.2,1.1,0.2,1.7c0,0.3,0,0.7,0.1,1.2s0.1,1,0.1,1.5c0.1,0.5,0.1,1,0.3,1.4c0.1,0.4,0.3,0.8,0.5,1h-2.1
		c-0.1-0.2-0.2-0.4-0.3-0.7s-0.1-0.6-0.1-0.8c0-0.3-0.1-0.6-0.1-0.9s0-0.5-0.1-0.7c0-0.7-0.1-1.4-0.2-2.1c-0.1-0.7-0.3-1.3-0.5-1.9
		s-0.7-1-1.2-1.3s-1.2-0.5-2.1-0.4H502v8.9h-1.9v-20H509.3z M509.1,590.3c0.6,0,1.1-0.1,1.7-0.3s1-0.4,1.4-0.8
		c0.4-0.3,0.7-0.7,0.9-1.2c0.2-0.5,0.3-1,0.3-1.6c0-1.2-0.4-2.2-1.1-2.9c-0.7-0.7-1.8-1.1-3.2-1.1H502v7.9H509.1z"/>
	<path class="st1" d="M519.7,596c0.2,0.7,0.5,1.3,0.9,1.8c0.4,0.5,0.9,1,1.5,1.3c0.6,0.4,1.3,0.5,2.2,0.5c1.3,0,2.3-0.3,3-1
		s1.2-1.6,1.5-2.7h1.8c-0.4,1.6-1.1,2.9-2.1,3.8c-1,0.9-2.4,1.3-4.2,1.3c-1.1,0-2.1-0.2-3-0.6c-0.8-0.4-1.5-1-2-1.7
		c-0.5-0.7-0.9-1.5-1.2-2.4s-0.4-1.9-0.4-2.9c0-1,0.1-1.9,0.4-2.8c0.3-0.9,0.6-1.7,1.2-2.4c0.5-0.7,1.2-1.3,2-1.7
		c0.8-0.4,1.8-0.7,3-0.7c1.2,0,2.1,0.2,3,0.7c0.8,0.5,1.5,1.1,2,1.8c0.5,0.8,0.9,1.6,1.1,2.6c0.2,1,0.3,2,0.3,3h-11.1
		C519.5,594.7,519.6,595.4,519.7,596z M528.5,590.7c-0.2-0.6-0.5-1.2-0.9-1.6c-0.4-0.5-0.9-0.9-1.4-1.1c-0.6-0.3-1.2-0.4-1.9-0.4
		c-0.7,0-1.4,0.1-1.9,0.4c-0.6,0.3-1,0.7-1.4,1.1c-0.4,0.5-0.7,1-0.9,1.7c-0.2,0.6-0.4,1.3-0.5,1.9h9.4
		C528.8,591.9,528.7,591.3,528.5,590.7z"/>
	<path class="st1" d="M541.3,589.2c-0.2-0.4-0.5-0.7-0.8-1s-0.7-0.5-1.2-0.6c-0.4-0.1-0.9-0.2-1.4-0.2c-0.4,0-0.8,0-1.2,0.1
		c-0.4,0.1-0.8,0.2-1.1,0.4s-0.6,0.5-0.8,0.8c-0.2,0.3-0.3,0.7-0.3,1.2c0,0.4,0.1,0.7,0.3,1c0.2,0.3,0.4,0.5,0.7,0.7s0.6,0.3,1,0.5
		c0.4,0.1,0.7,0.2,1,0.3l2.4,0.5c0.5,0.1,1,0.2,1.5,0.4c0.5,0.2,0.9,0.5,1.3,0.8s0.7,0.7,0.9,1.2c0.2,0.5,0.4,1,0.4,1.7
		c0,0.8-0.2,1.5-0.5,2c-0.4,0.6-0.8,1-1.4,1.3c-0.6,0.3-1.2,0.6-1.9,0.7s-1.4,0.2-2,0.2c-1.7,0-3.1-0.4-4.1-1.2s-1.7-2.1-1.8-3.9
		h1.8c0.1,1.2,0.5,2.1,1.3,2.7c0.8,0.6,1.8,0.9,3,0.9c0.4,0,0.9,0,1.3-0.1c0.5-0.1,0.9-0.3,1.3-0.5c0.4-0.2,0.7-0.5,1-0.9
		c0.3-0.3,0.4-0.8,0.4-1.3c0-0.4-0.1-0.8-0.3-1.1c-0.2-0.3-0.4-0.5-0.7-0.7c-0.3-0.2-0.6-0.4-1-0.5c-0.4-0.1-0.8-0.2-1.2-0.3
		l-2.3-0.5c-0.6-0.1-1.1-0.3-1.6-0.5s-0.9-0.4-1.3-0.7c-0.4-0.3-0.6-0.6-0.9-1.1s-0.3-0.9-0.3-1.6c0-0.7,0.2-1.4,0.5-1.9
		c0.3-0.5,0.8-0.9,1.3-1.3c0.5-0.3,1.1-0.5,1.8-0.7c0.6-0.1,1.3-0.2,1.9-0.2c0.7,0,1.4,0.1,2,0.3c0.6,0.2,1.2,0.5,1.7,0.9
		c0.5,0.4,0.9,0.9,1.1,1.5c0.3,0.6,0.4,1.3,0.5,2h-1.8C541.6,590.1,541.5,589.6,541.3,589.2z"/>
	<path class="st1" d="M555.5,586.6c0.8,0.4,1.6,1,2.1,1.7c0.6,0.7,1,1.5,1.3,2.4s0.4,1.9,0.4,3c0,1-0.1,2-0.4,3
		c-0.3,0.9-0.7,1.7-1.3,2.4c-0.6,0.7-1.3,1.2-2.1,1.6s-1.8,0.6-2.9,0.6c-1.1,0-2.1-0.2-2.9-0.6c-0.8-0.4-1.6-0.9-2.1-1.6
		c-0.6-0.7-1-1.5-1.3-2.4c-0.3-0.9-0.4-1.9-0.4-3c0-1,0.1-2,0.4-3c0.3-0.9,0.7-1.7,1.3-2.4c0.6-0.7,1.3-1.2,2.1-1.7
		c0.8-0.4,1.8-0.6,2.9-0.6C553.6,586,554.6,586.2,555.5,586.6z M550.3,588c-0.6,0.4-1.2,0.8-1.6,1.4c-0.4,0.6-0.7,1.2-1,2
		c-0.2,0.7-0.3,1.5-0.3,2.3s0.1,1.5,0.3,2.3c0.2,0.7,0.5,1.4,1,2c0.4,0.6,0.9,1,1.6,1.4c0.6,0.4,1.4,0.5,2.2,0.5s1.6-0.2,2.2-0.5
		s1.2-0.8,1.6-1.4c0.4-0.6,0.7-1.2,1-2c0.2-0.7,0.3-1.5,0.3-2.3s-0.1-1.5-0.3-2.3c-0.2-0.7-0.5-1.4-1-2c-0.4-0.6-0.9-1-1.6-1.4
		s-1.4-0.5-2.2-0.5S551,587.6,550.3,588z"/>
	<path class="st1" d="M563.8,580.8v20H562v-20H563.8z"/>
	<path class="st1" d="M577.3,600.8v-2.6h-0.1c-0.5,1-1.1,1.7-2,2.2c-0.9,0.5-1.9,0.8-3,0.8c-0.9,0-1.7-0.1-2.3-0.4
		c-0.6-0.3-1.2-0.6-1.6-1.1c-0.4-0.5-0.7-1-0.9-1.7c-0.2-0.7-0.3-1.4-0.3-2.3v-9.4h1.8v9.4c0,1.3,0.3,2.3,0.9,3s1.6,1,3,1
		c0.8,0,1.4-0.2,2-0.5c0.5-0.3,1-0.8,1.3-1.3c0.4-0.5,0.6-1.2,0.8-1.9s0.3-1.4,0.3-2.1v-7.6h1.8v14.4H577.3z"/>
	<path class="st1" d="M588,586.4v1.5H585v9.7c0,0.6,0.1,1,0.2,1.4c0.2,0.3,0.6,0.5,1.2,0.5c0.5,0,1,0,1.5-0.1v1.5
		c-0.3,0-0.5,0-0.8,0c-0.3,0-0.5,0-0.8,0c-1.2,0-2-0.2-2.5-0.7c-0.5-0.5-0.7-1.3-0.7-2.5v-9.9h-2.5v-1.5h2.5V582h1.8v4.3H588z"/>
	<path class="st1" d="M592.3,580.8v2.8h-1.8v-2.8H592.3z M592.3,586.4v14.4h-1.8v-14.4H592.3z"/>
	<path class="st1" d="M604.7,586.6c0.8,0.4,1.6,1,2.1,1.7c0.6,0.7,1,1.5,1.3,2.4s0.4,1.9,0.4,3c0,1-0.1,2-0.4,3
		c-0.3,0.9-0.7,1.7-1.3,2.4c-0.6,0.7-1.3,1.2-2.1,1.6s-1.8,0.6-2.9,0.6c-1.1,0-2.1-0.2-2.9-0.6c-0.8-0.4-1.6-0.9-2.1-1.6
		c-0.6-0.7-1-1.5-1.3-2.4c-0.3-0.9-0.4-1.9-0.4-3c0-1,0.1-2,0.4-3c0.3-0.9,0.7-1.7,1.3-2.4c0.6-0.7,1.3-1.2,2.1-1.7
		c0.8-0.4,1.8-0.6,2.9-0.6C602.9,586,603.9,586.2,604.7,586.6z M599.6,588c-0.6,0.4-1.2,0.8-1.6,1.4c-0.4,0.6-0.7,1.2-1,2
		c-0.2,0.7-0.3,1.5-0.3,2.3s0.1,1.5,0.3,2.3c0.2,0.7,0.5,1.4,1,2c0.4,0.6,0.9,1,1.6,1.4c0.6,0.4,1.4,0.5,2.2,0.5s1.6-0.2,2.2-0.5
		s1.2-0.8,1.6-1.4c0.4-0.6,0.7-1.2,1-2c0.2-0.7,0.3-1.5,0.3-2.3s-0.1-1.5-0.3-2.3c-0.2-0.7-0.5-1.4-1-2c-0.4-0.6-0.9-1-1.6-1.4
		s-1.4-0.5-2.2-0.5S600.2,587.6,599.6,588z"/>
	<path class="st1" d="M613,586.4v2.5h0.1c0.3-0.9,0.9-1.6,1.8-2.1c0.9-0.5,1.8-0.8,2.8-0.8c1,0,1.9,0.1,2.5,0.4
		c0.7,0.3,1.2,0.6,1.6,1.1c0.4,0.5,0.7,1.1,0.9,1.8c0.2,0.7,0.3,1.5,0.3,2.3v9.3h-1.8v-9c0-0.6-0.1-1.2-0.2-1.7
		c-0.1-0.5-0.3-1-0.6-1.4c-0.3-0.4-0.7-0.7-1.1-0.9c-0.5-0.2-1.1-0.3-1.8-0.3c-0.7,0-1.3,0.1-1.9,0.4s-1,0.6-1.4,1
		c-0.4,0.4-0.7,1-0.9,1.6c-0.2,0.6-0.3,1.3-0.3,2v8.4h-1.8v-14.4H613z"/>
</g>
<g>
	<path class="st1" d="M53.9,580.8v1.6H42v7.2h11.1v1.6H42v7.9h12v1.6H40.1v-20H53.9z"/>
	<path class="st1" d="M55.2,586.4h2.2l4.1,5.5l4-5.5h2.2l-5.2,6.9l5.6,7.5h-2.2l-4.5-6.1l-4.5,6.1h-2.2l5.6-7.5L55.2,586.4z"/>
	<path class="st1" d="M71.5,586.4v2.7h0.1c0.4-1,1.1-1.8,2-2.3c0.9-0.6,2-0.8,3.2-0.8c1.1,0,2.1,0.2,2.9,0.6c0.8,0.4,1.5,1,2,1.7
		c0.5,0.7,0.9,1.5,1.2,2.4c0.3,0.9,0.4,1.9,0.4,2.9s-0.1,2-0.4,2.9c-0.3,0.9-0.7,1.7-1.2,2.4c-0.5,0.7-1.2,1.3-2,1.7
		s-1.8,0.6-2.9,0.6c-0.5,0-1-0.1-1.6-0.2c-0.5-0.1-1-0.3-1.5-0.6c-0.4-0.3-0.8-0.6-1.2-1c-0.3-0.4-0.6-0.8-0.8-1.4h-0.1v8.1h-1.8
		v-19.8H71.5z M81.2,591.4c-0.2-0.7-0.5-1.4-0.8-2c-0.4-0.6-0.9-1-1.5-1.4c-0.6-0.4-1.3-0.5-2.2-0.5c-1,0-1.8,0.2-2.4,0.5
		c-0.7,0.3-1.2,0.8-1.6,1.3c-0.4,0.6-0.7,1.2-0.8,2c-0.2,0.7-0.2,1.5-0.2,2.4c0,0.7,0.1,1.5,0.3,2.2c0.2,0.7,0.5,1.4,0.9,2
		c0.4,0.6,0.9,1.1,1.6,1.4c0.6,0.4,1.4,0.5,2.4,0.5c0.8,0,1.6-0.2,2.2-0.5c0.6-0.4,1.1-0.8,1.5-1.4c0.4-0.6,0.7-1.2,0.8-2
		c0.2-0.7,0.3-1.5,0.3-2.2C81.4,592.9,81.3,592.1,81.2,591.4z"/>
	<path class="st1" d="M95,586.6c0.8,0.4,1.6,1,2.1,1.7c0.6,0.7,1,1.5,1.3,2.4c0.3,0.9,0.4,1.9,0.4,3c0,1-0.1,2-0.4,3
		c-0.3,0.9-0.7,1.7-1.3,2.4c-0.6,0.7-1.3,1.2-2.1,1.6c-0.8,0.4-1.8,0.6-2.9,0.6c-1.1,0-2.1-0.2-2.9-0.6c-0.8-0.4-1.6-0.9-2.1-1.6
		s-1-1.5-1.3-2.4c-0.3-0.9-0.4-1.9-0.4-3c0-1,0.1-2,0.4-3c0.3-0.9,0.7-1.7,1.3-2.4s1.3-1.2,2.1-1.7c0.8-0.4,1.8-0.6,2.9-0.6
		C93.1,586,94.1,586.2,95,586.6z M89.8,588c-0.6,0.4-1.2,0.8-1.6,1.4c-0.4,0.6-0.7,1.2-1,2c-0.2,0.7-0.3,1.5-0.3,2.3
		s0.1,1.5,0.3,2.3c0.2,0.7,0.5,1.4,1,2c0.4,0.6,0.9,1,1.6,1.4s1.4,0.5,2.2,0.5c0.8,0,1.6-0.2,2.2-0.5c0.6-0.4,1.2-0.8,1.6-1.4
		c0.4-0.6,0.7-1.2,1-2s0.3-1.5,0.3-2.3s-0.1-1.5-0.3-2.3s-0.5-1.4-1-2c-0.4-0.6-0.9-1-1.6-1.4c-0.6-0.4-1.4-0.5-2.2-0.5
		C91.2,587.4,90.5,587.6,89.8,588z"/>
	<path class="st1" d="M109.8,589.2c-0.2-0.4-0.5-0.7-0.8-1c-0.3-0.3-0.7-0.5-1.2-0.6c-0.4-0.1-0.9-0.2-1.4-0.2c-0.4,0-0.8,0-1.2,0.1
		s-0.8,0.2-1.1,0.4s-0.6,0.5-0.8,0.8c-0.2,0.3-0.3,0.7-0.3,1.2c0,0.4,0.1,0.7,0.3,1c0.2,0.3,0.4,0.5,0.7,0.7c0.3,0.2,0.6,0.3,1,0.5
		c0.4,0.1,0.7,0.2,1,0.3l2.4,0.5c0.5,0.1,1,0.2,1.5,0.4c0.5,0.2,0.9,0.5,1.3,0.8c0.4,0.3,0.7,0.7,0.9,1.2c0.2,0.5,0.4,1,0.4,1.7
		c0,0.8-0.2,1.5-0.5,2s-0.8,1-1.4,1.3c-0.6,0.3-1.2,0.6-1.9,0.7c-0.7,0.1-1.4,0.2-2,0.2c-1.7,0-3.1-0.4-4.1-1.2s-1.7-2.1-1.8-3.9
		h1.8c0.1,1.2,0.5,2.1,1.3,2.7c0.8,0.6,1.8,0.9,3,0.9c0.4,0,0.9,0,1.3-0.1c0.5-0.1,0.9-0.3,1.3-0.5c0.4-0.2,0.7-0.5,1-0.9
		c0.3-0.3,0.4-0.8,0.4-1.3c0-0.4-0.1-0.8-0.3-1.1s-0.4-0.5-0.7-0.7c-0.3-0.2-0.6-0.4-1-0.5c-0.4-0.1-0.8-0.2-1.2-0.3l-2.3-0.5
		c-0.6-0.1-1.1-0.3-1.6-0.5c-0.5-0.2-0.9-0.4-1.3-0.7c-0.4-0.3-0.6-0.6-0.9-1.1c-0.2-0.4-0.3-0.9-0.3-1.6c0-0.7,0.2-1.4,0.5-1.9
		s0.8-0.9,1.3-1.3c0.5-0.3,1.1-0.5,1.8-0.7c0.6-0.1,1.3-0.2,1.9-0.2c0.7,0,1.4,0.1,2,0.3c0.6,0.2,1.2,0.5,1.7,0.9
		c0.5,0.4,0.9,0.9,1.1,1.5c0.3,0.6,0.4,1.3,0.5,2h-1.8C110.1,590.1,110,589.6,109.8,589.2z"/>
	<path class="st1" d="M116.8,580.8v2.8H115v-2.8H116.8z M116.8,586.4v14.4H115v-14.4H116.8z"/>
	<path class="st1" d="M125.9,586.4v1.5H123v9.7c0,0.6,0.1,1,0.2,1.4c0.2,0.3,0.6,0.5,1.2,0.5c0.5,0,1,0,1.5-0.1v1.5
		c-0.3,0-0.5,0-0.8,0c-0.3,0-0.5,0-0.8,0c-1.2,0-2-0.2-2.5-0.7c-0.5-0.5-0.7-1.3-0.7-2.5v-9.9h-2.5v-1.5h2.5V582h1.8v4.3H125.9z"/>
	<path class="st1" d="M130.2,580.8v2.8h-1.8v-2.8H130.2z M130.2,586.4v14.4h-1.8v-14.4H130.2z"/>
	<path class="st1" d="M142.7,586.6c0.8,0.4,1.6,1,2.1,1.7c0.6,0.7,1,1.5,1.3,2.4c0.3,0.9,0.4,1.9,0.4,3c0,1-0.1,2-0.4,3
		c-0.3,0.9-0.7,1.7-1.3,2.4c-0.6,0.7-1.3,1.2-2.1,1.6c-0.8,0.4-1.8,0.6-2.9,0.6c-1.1,0-2.1-0.2-2.9-0.6c-0.8-0.4-1.6-0.9-2.1-1.6
		s-1-1.5-1.3-2.4c-0.3-0.9-0.4-1.9-0.4-3c0-1,0.1-2,0.4-3c0.3-0.9,0.7-1.7,1.3-2.4s1.3-1.2,2.1-1.7c0.8-0.4,1.8-0.6,2.9-0.6
		C140.8,586,141.8,586.2,142.7,586.6z M137.5,588c-0.6,0.4-1.2,0.8-1.6,1.4c-0.4,0.6-0.7,1.2-1,2c-0.2,0.7-0.3,1.5-0.3,2.3
		s0.1,1.5,0.3,2.3c0.2,0.7,0.5,1.4,1,2c0.4,0.6,0.9,1,1.6,1.4s1.4,0.5,2.2,0.5c0.8,0,1.6-0.2,2.2-0.5c0.6-0.4,1.2-0.8,1.6-1.4
		c0.4-0.6,0.7-1.2,1-2s0.3-1.5,0.3-2.3s-0.1-1.5-0.3-2.3s-0.5-1.4-1-2c-0.4-0.6-0.9-1-1.6-1.4c-0.6-0.4-1.4-0.5-2.2-0.5
		C138.9,587.4,138.1,587.6,137.5,588z"/>
	<path class="st1" d="M150.9,586.4v2.5h0.1c0.3-0.9,0.9-1.6,1.8-2.1c0.9-0.5,1.8-0.8,2.8-0.8c1,0,1.9,0.1,2.5,0.4
		c0.7,0.3,1.2,0.6,1.6,1.1c0.4,0.5,0.7,1.1,0.9,1.8c0.2,0.7,0.3,1.5,0.3,2.3v9.3h-1.8v-9c0-0.6-0.1-1.2-0.2-1.7
		c-0.1-0.5-0.3-1-0.6-1.4c-0.3-0.4-0.7-0.7-1.1-0.9c-0.5-0.2-1.1-0.3-1.8-0.3c-0.7,0-1.3,0.1-1.9,0.4c-0.6,0.3-1,0.6-1.4,1
		c-0.4,0.4-0.7,1-0.9,1.6c-0.2,0.6-0.3,1.3-0.4,2v8.4h-1.8v-14.4H150.9z"/>
</g>
<g>
	<path class="st1" d="M434.3,311.9l-1.6,0.3l-2.2-10.5l-7.1,1.5l2,9.4l-1.6,0.3l-2-9.4l-9.3,2l-0.4-1.9l19.6-4.2L434.3,311.9z"/>
	<path class="st1" d="M427.1,315.9c0.7,0.2,1.2,0.5,1.7,0.9c0.5,0.4,0.9,0.9,1.2,1.6c0.3,0.6,0.6,1.4,0.8,2.2
		c0.1,0.6,0.2,1.3,0.2,1.9s-0.1,1.2-0.3,1.8c-0.2,0.6-0.6,1.1-1.1,1.5s-1.3,0.8-2.2,1l-7.5,1.6c-0.7,0.1-1,0.6-0.8,1.2
		c0,0.2,0.1,0.4,0.2,0.5l-1.5,0.3c-0.1-0.2-0.1-0.4-0.2-0.5c-0.1-0.2-0.1-0.3-0.2-0.6c-0.1-0.4-0.1-0.8,0-1.1
		c0.1-0.3,0.2-0.5,0.4-0.7c0.2-0.2,0.4-0.3,0.7-0.5c0.3-0.1,0.6-0.2,1-0.3l0-0.1c-0.5-0.2-1-0.4-1.4-0.7c-0.4-0.2-0.8-0.5-1.1-0.9
		c-0.3-0.3-0.6-0.8-0.8-1.2s-0.4-1.1-0.6-1.8c-0.1-0.7-0.2-1.3-0.2-1.9c0-0.6,0.2-1.2,0.4-1.7c0.2-0.5,0.6-0.9,1.1-1.3
		c0.5-0.4,1.1-0.6,1.8-0.8c1-0.2,1.8-0.2,2.5,0.2c0.6,0.3,1.2,0.8,1.6,1.5c0.4,0.7,0.8,1.4,1.1,2.3c0.3,0.9,0.6,1.8,0.9,2.7
		c0.1,0.4,0.2,0.7,0.3,0.9c0.1,0.3,0.3,0.5,0.4,0.6s0.4,0.3,0.7,0.3c0.3,0.1,0.6,0,1,0c0.6-0.1,1-0.3,1.4-0.6c0.3-0.3,0.6-0.6,0.7-1
		c0.1-0.4,0.2-0.8,0.2-1.3c0-0.5-0.1-1-0.2-1.5c-0.2-1.1-0.7-1.9-1.4-2.5c-0.7-0.6-1.6-0.8-2.7-0.6l-0.4-1.7
		C425.7,315.7,426.5,315.7,427.1,315.9z M424.8,325.4c-0.2-0.1-0.4-0.2-0.6-0.5c-0.2-0.3-0.3-0.6-0.4-0.8c-0.3-0.7-0.6-1.4-0.8-2.2
		s-0.6-1.4-0.9-2c-0.3-0.6-0.7-1.1-1.2-1.4c-0.5-0.3-1-0.4-1.7-0.3c-0.4,0.1-0.8,0.3-1.1,0.5c-0.3,0.2-0.5,0.5-0.7,0.9
		c-0.2,0.3-0.3,0.7-0.3,1.1c0,0.4,0,0.8,0.1,1.2c0.1,0.7,0.4,1.3,0.7,1.8c0.3,0.6,0.7,1,1.2,1.4c0.5,0.4,1,0.6,1.6,0.8
		c0.6,0.1,1.3,0.1,1.9,0L424.8,325.4L424.8,325.4z"/>
	<path class="st1" d="M438.1,329.8l-19.6,4.2l-0.4-1.7l19.6-4.2L438.1,329.8z"/>
	<path class="st1" d="M439.2,334.9l-19.6,4.2l-0.4-1.7l19.6-4.2L439.2,334.9z"/>
	<path class="st1" d="M434.8,341.1l-14.1,3l-0.4-1.7l14.1-3L434.8,341.1z M440.2,340l-2.8,0.6l-0.4-1.7l2.8-0.6L440.2,340z"/>
	<path class="st1" d="M435.9,346.1l-2.4,0.5l0,0.1c0.9,0.1,1.7,0.6,2.4,1.3s1.2,1.6,1.4,2.6c0.2,1,0.3,1.8,0.1,2.6
		c-0.1,0.7-0.4,1.3-0.7,1.8s-0.9,0.9-1.5,1.2c-0.6,0.3-1.4,0.6-2.2,0.7l-9.1,1.9l-0.4-1.7l8.8-1.9c0.6-0.1,1.2-0.3,1.6-0.5
		c0.5-0.2,0.9-0.5,1.2-0.9c0.3-0.4,0.5-0.8,0.7-1.3c0.1-0.5,0.1-1.1,0-1.8c-0.1-0.7-0.4-1.3-0.8-1.8s-0.8-0.9-1.3-1.2
		c-0.5-0.3-1.1-0.5-1.7-0.5c-0.6-0.1-1.3-0.1-2,0.1l-8.2,1.8l-0.4-1.7l14.1-3L435.9,346.1z"/>
	<path class="st1" d="M425.3,374.1c-0.9,0-1.7-0.3-2.4-0.6c-0.7-0.4-1.3-0.9-1.8-1.6c-0.5-0.7-0.8-1.7-1.1-2.8
		c-0.2-0.7-0.2-1.4-0.2-2.1c0-0.7,0.1-1.4,0.4-2c0.2-0.6,0.6-1.2,1-1.6c0.5-0.5,1.1-0.8,1.8-1l0.4,1.7c-0.5,0.2-0.9,0.5-1.2,0.8
		c-0.3,0.3-0.5,0.7-0.7,1.1c-0.1,0.4-0.2,0.9-0.2,1.3c0,0.5,0,1,0.1,1.4c0.3,1.6,1,2.7,2.1,3.2s2.5,0.6,4.2,0.2l1.9-0.4l0-0.1
		c-1-0.2-1.8-0.7-2.5-1.3c-0.7-0.7-1.2-1.5-1.4-2.6c-0.2-1.1-0.3-2.1-0.1-3c0.2-0.9,0.6-1.7,1.1-2.3c0.5-0.7,1.2-1.2,2.1-1.6
		c0.8-0.4,1.8-0.7,2.8-1c1-0.2,1.9-0.3,2.8-0.2c0.9,0.1,1.8,0.3,2.5,0.7c0.8,0.4,1.4,1,2,1.7c0.5,0.7,0.9,1.6,1.1,2.6
		c0.1,0.5,0.1,1,0.1,1.5s-0.2,1-0.3,1.4c-0.2,0.4-0.4,0.8-0.7,1.2c-0.3,0.4-0.6,0.7-0.9,0.9l0,0.1l2.4-0.5l0.4,1.7l-13,2.8
		C427.2,374.1,426.2,374.2,425.3,374.1z M428.3,369.4c0.4,0.5,1,0.9,1.6,1.2c0.6,0.3,1.3,0.4,2,0.5c0.7,0,1.4,0,2.1-0.2
		c0.7-0.1,1.4-0.4,2-0.7s1.2-0.7,1.7-1.2c0.5-0.5,0.8-1.1,1.1-1.7s0.2-1.4,0.1-2.2c-0.2-0.8-0.5-1.5-1-2c-0.5-0.5-1-0.9-1.6-1.2
		s-1.3-0.4-2.1-0.4s-1.5,0-2.2,0.2c-0.7,0.2-1.4,0.4-2,0.7c-0.6,0.3-1.2,0.7-1.6,1.2s-0.8,1.1-1,1.7c-0.2,0.7-0.2,1.4,0,2.2
		C427.5,368.2,427.8,368.9,428.3,369.4z"/>
	<path class="st1" d="M450.7,389l-17.9,11.8l-0.4-2l5.6-3.7l-1.9-8.9l-6.6-1.1l-0.4-2l21.2,3.7L450.7,389z M439.4,394.2l9.2-5.9
		l-10.9-1.8L439.4,394.2z"/>
	<path class="st1" d="M447.1,408.3c0.5-0.8,0.6-1.7,0.3-2.9c-0.2-0.8-0.5-1.5-1-2.1c-0.5-0.5-1-1-1.7-1.3c-0.7-0.3-1.4-0.5-2.1-0.5
		c-0.8-0.1-1.5,0-2.3,0.2c-0.7,0.2-1.5,0.4-2.1,0.8c-0.7,0.4-1.3,0.8-1.7,1.3c-0.5,0.5-0.8,1.1-1,1.8c-0.2,0.7-0.2,1.5-0.1,2.3
		c0.1,0.5,0.3,1,0.6,1.4c0.3,0.4,0.7,0.8,1.1,1.1c0.4,0.3,0.9,0.5,1.5,0.6c0.5,0.1,1.1,0.2,1.7,0.1l0.4,1.7c-1.8,0.1-3.2-0.2-4.4-1
		c-1.2-0.8-1.9-2-2.3-3.6c-0.2-1.1-0.2-2.1,0-3c0.2-0.9,0.6-1.7,1.2-2.4c0.6-0.7,1.3-1.3,2.1-1.8c0.8-0.5,1.8-0.8,2.8-1.1
		c1-0.2,2-0.3,3-0.2c1,0.1,1.8,0.4,2.6,0.8c0.8,0.4,1.5,1,2.1,1.8c0.6,0.7,1,1.7,1.2,2.7c0.3,1.5,0.2,2.9-0.4,4.1
		c-0.6,1.2-1.7,2.1-3.2,2.7l-0.4-1.7C445.9,409.7,446.6,409.1,447.1,408.3z"/>
	<path class="st1" d="M451.4,419.1l-1.5,0.3l-0.6-2.9l-9.5,2c-0.6,0.1-1,0.3-1.3,0.5c-0.3,0.2-0.4,0.7-0.3,1.3
		c0.1,0.5,0.2,1,0.4,1.5l-1.5,0.3c-0.1-0.3-0.1-0.5-0.2-0.8c-0.1-0.3-0.1-0.5-0.2-0.8c-0.2-1.2-0.2-2,0.2-2.6
		c0.3-0.6,1.1-0.9,2.3-1.2l9.7-2.1l-0.5-2.5l1.5-0.3l0.5,2.5l4.2-0.9l0.4,1.7l-4.2,0.9L451.4,419.1z"/>
	<path class="st1" d="M452.3,423.3l-14.1,3l-0.4-1.7l14.1-3L452.3,423.3z M457.8,422.2l-2.8,0.6l-0.4-1.7l2.8-0.6L457.8,422.2z"/>
	<path class="st1" d="M454.7,435.5c-0.2,0.9-0.6,1.7-1.2,2.4c-0.6,0.7-1.3,1.3-2.1,1.8c-0.8,0.5-1.8,0.8-2.8,1.1c-1,0.2-2,0.3-3,0.2
		c-1-0.1-1.8-0.4-2.6-0.8c-0.8-0.4-1.5-1-2-1.8c-0.6-0.7-1-1.7-1.2-2.7c-0.2-1.1-0.2-2.1,0-3c0.2-0.9,0.6-1.7,1.2-2.4
		c0.6-0.7,1.3-1.3,2.1-1.8c0.8-0.5,1.8-0.8,2.8-1.1c1-0.2,2-0.3,3-0.2c1,0.1,1.8,0.4,2.6,0.8c0.8,0.4,1.5,1,2.1,1.8s1,1.7,1.2,2.7
		S455,434.6,454.7,435.5z M452.3,430.8c-0.5-0.5-1-1-1.7-1.3c-0.7-0.3-1.4-0.5-2.1-0.5s-1.5,0-2.3,0.2c-0.7,0.2-1.5,0.4-2.1,0.8
		c-0.7,0.4-1.3,0.8-1.7,1.3c-0.5,0.5-0.8,1.1-1,1.8c-0.2,0.7-0.2,1.5-0.1,2.3c0.2,0.8,0.5,1.5,1,2.1c0.5,0.5,1,1,1.7,1.3
		c0.7,0.3,1.4,0.5,2.1,0.5c0.8,0.1,1.5,0,2.3-0.2c0.7-0.2,1.5-0.4,2.1-0.8c0.7-0.4,1.3-0.8,1.7-1.3c0.5-0.5,0.8-1.1,1-1.8
		c0.2-0.7,0.2-1.5,0.1-2.3S452.8,431.3,452.3,430.8z"/>
	<path class="st1" d="M456.7,443.5l-2.4,0.5l0,0.1c0.9,0.1,1.7,0.6,2.4,1.3c0.7,0.7,1.2,1.6,1.4,2.6c0.2,1,0.3,1.8,0.1,2.6
		c-0.1,0.7-0.4,1.3-0.7,1.8c-0.4,0.5-0.9,0.9-1.5,1.2c-0.6,0.3-1.4,0.6-2.2,0.7l-9.1,1.9l-0.4-1.7l8.8-1.9c0.6-0.1,1.2-0.3,1.6-0.5
		c0.5-0.2,0.9-0.5,1.2-0.9s0.5-0.8,0.7-1.3c0.1-0.5,0.1-1.1,0-1.8c-0.1-0.7-0.4-1.3-0.8-1.8s-0.8-0.9-1.3-1.2
		c-0.5-0.3-1.1-0.5-1.7-0.5s-1.3-0.1-2,0.1l-8.2,1.8l-0.4-1.7l14.1-3L456.7,443.5z"/>
</g>
<line class="st4" x1="255.1" y1="339.1" x2="19" y2="339.1"/>
<line class="st4" x1="467.2" y1="339.1" x2="655.3" y2="339.1"/>
<g>
	<path class="st1" d="M367.8,129.7c-0.4-0.6-0.8-1.1-1.4-1.5c-0.6-0.4-1.2-0.7-1.8-0.9c-0.7-0.2-1.4-0.3-2.1-0.3
		c-1.3,0-2.5,0.3-3.4,0.8c-1,0.5-1.7,1.2-2.3,2s-1.1,1.8-1.3,2.8c-0.3,1-0.4,2.1-0.4,3.2c0,1.1,0.1,2.2,0.4,3.2
		c0.3,1.1,0.7,2,1.3,2.8s1.4,1.5,2.3,2s2.1,0.8,3.4,0.8c0.9,0,1.8-0.2,2.5-0.5c0.7-0.3,1.4-0.8,1.9-1.4c0.5-0.6,1-1.3,1.3-2
		c0.3-0.8,0.6-1.6,0.6-2.5h1.9c-0.1,1.2-0.4,2.3-0.9,3.3c-0.4,1-1,1.8-1.7,2.5c-0.7,0.7-1.5,1.2-2.5,1.6c-1,0.4-2,0.6-3.2,0.6
		c-1.6,0-2.9-0.3-4.1-0.9s-2.2-1.3-3-2.3c-0.8-1-1.4-2.1-1.8-3.3c-0.4-1.3-0.6-2.6-0.6-3.9c0-1.4,0.2-2.7,0.6-3.9
		c0.4-1.3,1-2.4,1.8-3.3c0.8-1,1.8-1.7,3-2.3c1.2-0.6,2.6-0.9,4.1-0.9c1,0,1.9,0.1,2.8,0.4c0.9,0.3,1.7,0.7,2.5,1.2
		c0.7,0.6,1.4,1.2,1.8,2c0.5,0.8,0.8,1.7,0.9,2.8h-1.9C368.5,131,368.2,130.3,367.8,129.7z"/>
	<path class="st1" d="M375.2,125.7v20h-1.8v-20H375.2z"/>
	<path class="st1" d="M380.4,125.7v2.8h-1.8v-2.8H380.4z M380.4,131.3v14.4h-1.8v-14.4H380.4z"/>
	<path class="st1" d="M385.4,131.3v2.4h0.1c0.5-0.9,1.1-1.6,1.8-2.1c0.8-0.5,1.7-0.8,2.9-0.8c1,0,1.8,0.2,2.6,0.7
		c0.8,0.5,1.3,1.2,1.6,2.1c0.4-1,1.1-1.7,1.9-2.1c0.8-0.5,1.7-0.7,2.7-0.7c3.2,0,4.8,1.7,4.8,5.1v9.8H402V136c0-1.2-0.3-2.1-0.8-2.7
		s-1.4-0.9-2.7-0.9c-0.8,0-1.4,0.1-1.9,0.4c-0.5,0.3-0.9,0.7-1.2,1.2c-0.3,0.5-0.5,1-0.6,1.7c-0.1,0.6-0.2,1.3-0.2,1.9v8.2h-1.8
		v-9.8c0-0.5-0.1-0.9-0.2-1.4c-0.1-0.4-0.3-0.8-0.5-1.1c-0.2-0.3-0.5-0.6-0.9-0.8c-0.4-0.2-0.9-0.3-1.4-0.3c-0.7,0-1.4,0.1-1.9,0.4
		c-0.6,0.3-1,0.6-1.3,1.1s-0.6,1-0.8,1.7c-0.2,0.6-0.3,1.3-0.3,2.1v8.1h-1.8v-14.4H385.4z"/>
	<path class="st1" d="M407.5,133.5c0.3-0.6,0.7-1.1,1.2-1.5c0.5-0.4,1.1-0.7,1.8-0.9c0.7-0.2,1.5-0.3,2.3-0.3c0.6,0,1.3,0.1,1.9,0.2
		c0.6,0.1,1.2,0.4,1.7,0.7c0.5,0.3,0.9,0.8,1.2,1.4c0.3,0.6,0.5,1.4,0.5,2.4v7.7c0,0.7,0.3,1.1,1,1.1c0.2,0,0.4,0,0.6-0.1v1.5
		c-0.2,0-0.4,0.1-0.5,0.1c-0.2,0-0.4,0-0.6,0c-0.4,0-0.8-0.1-1.1-0.2c-0.3-0.1-0.5-0.3-0.6-0.5c-0.1-0.2-0.2-0.5-0.3-0.8
		s-0.1-0.6-0.1-1h-0.1c-0.3,0.5-0.6,0.9-1,1.2c-0.3,0.4-0.7,0.7-1.1,0.9c-0.4,0.2-0.9,0.4-1.4,0.6c-0.5,0.1-1.1,0.2-1.8,0.2
		c-0.7,0-1.3-0.1-1.9-0.2c-0.6-0.2-1.1-0.4-1.5-0.8c-0.4-0.3-0.8-0.8-1-1.3c-0.3-0.5-0.4-1.2-0.4-1.9c0-1,0.2-1.8,0.7-2.4
		c0.4-0.6,1-1,1.8-1.3c0.7-0.3,1.6-0.5,2.5-0.6c0.9-0.1,1.9-0.2,2.8-0.4c0.4,0,0.7-0.1,1-0.1c0.3-0.1,0.5-0.2,0.7-0.3
		c0.2-0.1,0.3-0.3,0.4-0.6s0.2-0.6,0.2-1c0-0.6-0.1-1.1-0.3-1.5c-0.2-0.4-0.5-0.7-0.8-0.9c-0.3-0.2-0.7-0.4-1.2-0.5
		c-0.5-0.1-0.9-0.1-1.5-0.1c-1.1,0-2,0.3-2.7,0.8c-0.7,0.5-1.1,1.4-1.1,2.6h-1.8C407,134.8,407.2,134.1,407.5,133.5z M416.3,137.8
		c-0.1,0.2-0.3,0.4-0.6,0.4c-0.3,0.1-0.6,0.2-0.8,0.2c-0.7,0.1-1.5,0.2-2.3,0.4c-0.8,0.1-1.5,0.3-2.2,0.5c-0.7,0.2-1.2,0.5-1.6,0.9
		c-0.4,0.4-0.6,0.9-0.6,1.6c0,0.4,0.1,0.8,0.3,1.2c0.2,0.3,0.4,0.6,0.7,0.9s0.6,0.4,1,0.6c0.4,0.1,0.8,0.2,1.2,0.2
		c0.7,0,1.3-0.1,1.9-0.3c0.6-0.2,1.2-0.5,1.6-0.9s0.8-0.9,1.1-1.4c0.3-0.6,0.4-1.2,0.4-1.9L416.3,137.8L416.3,137.8z"/>
	<path class="st1" d="M420.4,131.3h2.2l4.1,5.5l4-5.5h2.2l-5.2,6.9l5.6,7.5h-2.2l-4.5-6.1l-4.5,6.1H420l5.6-7.5L420.4,131.3z"/>
</g>
<g>
	<circle class="st5" cx="641.2" cy="502.5" r="31.4"/>
	<g>
		<path class="st6" d="M652.3,507.9c0,5.1-3.7,9.5-11.9,9.5c-4,0-8.2-1.1-10.9-3.1l2.6-5.1c2.2,1.6,5.2,2.6,8.2,2.6
			c3.3,0,5.4-1.4,5.4-3.7c0-2.3-1.5-3.7-6.7-3.7h-7.3l1.5-16.2h17.5v5.3h-12l-0.5,5.5h2.3C648.9,499,652.3,502.8,652.3,507.9z"/>
	</g>
</g>
<g>
	<circle class="st5" cx="641.2" cy="339.1" r="31.4"/>
	<g>
		<path class="st6" d="M655,347.4h-4.7v6h-6.5v-6h-15.5v-4.5l13.5-18.2h7L636.3,342h7.7v-5.4h6.3v5.4h4.7V347.4z"/>
	</g>
</g>
<g>
	<circle class="st5" cx="32.9" cy="83.6" r="31.4"/>
	<g>
		<path class="st6" d="M43.5,89.2c0,4.8-3.7,9.3-11.9,9.3c-4,0-8.2-1.1-10.9-3.1l2.6-5.1c2.2,1.6,5.2,2.6,8.2,2.6
			c3.3,0,5.4-1.4,5.4-3.7c0-2.2-1.6-3.5-5.4-3.5h-3v-4.4l5.9-6.7H22.1v-5.3h20.1v4.3l-6.5,7.4C40.9,81.8,43.5,85,43.5,89.2z"/>
	</g>
</g>
<g>
	<circle class="st5" cx="32.9" cy="339.1" r="31.4"/>
	<g>
		<path class="st6" d="M43.8,348v5.4H22.1v-4.3l11.1-10.5c2.5-2.4,3-3.9,3-5.3c0-2.3-1.6-3.6-4.6-3.6c-2.5,0-4.6,0.9-5.9,2.9
			l-4.8-3.1c2.2-3.2,6.2-5.3,11.4-5.3c6.4,0,10.7,3.3,10.7,8.5c0,2.8-0.8,5.3-4.8,9.1l-6.6,6.2H43.8z"/>
	</g>
</g>
<g>
	<circle class="st5" cx="32.9" cy="502.5" r="31.4"/>
	<g>
		<path class="st6" d="M37.5,488.2v28.7h-6.6v-23.4h-5.7v-5.3H37.5z"/>
	</g>
</g>
</svg>
