<?xml version="1.0" encoding="UTF-8" standalone="no"?>
<svg
   xmlns:dc="http://purl.org/dc/elements/1.1/"
   xmlns:cc="http://creativecommons.org/ns#"
   xmlns:rdf="http://www.w3.org/1999/02/22-rdf-syntax-ns#"
   xmlns:svg="http://www.w3.org/2000/svg"
   xmlns="http://www.w3.org/2000/svg"
   xmlns:sodipodi="http://sodipodi.sourceforge.net/DTD/sodipodi-0.dtd"
   xmlns:inkscape="http://www.inkscape.org/namespaces/inkscape"
   version="1.1"
   x="0px"
   y="0px"
   viewBox="0 0 1103 920.99997"
   xml:space="preserve"
   id="svg156"
   sodipodi:docname="OPX_Comp_Ch 04_Med01.svg"
   width="1103"
   height="921"
   inkscape:version="1.0.2 (e86c870879, 2021-01-15, custom)"><metadata
   id="metadata162"><rdf:RDF><cc:Work
       rdf:about=""><dc:format>image/svg+xml</dc:format><dc:type
         rdf:resource="http://purl.org/dc/dcmitype/StillImage" /><dc:title></dc:title></cc:Work></rdf:RDF></metadata><defs
   id="defs160" /><sodipodi:namedview
   pagecolor="#ffffff"
   bordercolor="#666666"
   borderopacity="1"
   objecttolerance="10"
   gridtolerance="10"
   guidetolerance="10"
   inkscape:pageopacity="0"
   inkscape:pageshadow="2"
   inkscape:window-width="1920"
   inkscape:window-height="1017"
   id="namedview158"
   showgrid="false"
   inkscape:zoom="0.94469628"
   inkscape:cx="551.5"
   inkscape:cy="128.05846"
   inkscape:window-x="-8"
   inkscape:window-y="-8"
   inkscape:window-maximized="1"
   inkscape:current-layer="svg156" />
<style
   type="text/css"
   id="style2">
	.st0{fill:#FFFFFF;}
	.st1{fill:none;stroke:#000000;stroke-width:4;stroke-linecap:round;stroke-linejoin:round;stroke-miterlimit:10;}
	.st2{fill:none;stroke:#000000;stroke-width:4;stroke-miterlimit:10;}
	.st3{fill:none;stroke:#827F7F;stroke-miterlimit:10;}
	.st4{fill:none;stroke:#001A36;stroke-width:2;stroke-miterlimit:10;}
</style>

<g
   id="Layer_1"
   transform="translate(0,27.2)">
	<g
   id="g31">
		<path
   d="m 15.5,430.4 -4.4,-6.2 c -0.5,0.1 -1,0.1 -1.5,0.1 H 4.5 v 6.1 h -2 v -19.2 h 7.2 c 2.4,0 4.4,0.6 5.8,1.8 1.4,1.2 2.1,2.8 2.1,4.8 0,1.5 -0.4,2.8 -1.1,3.8 -0.8,1 -1.8,1.8 -3.2,2.2 l 4.7,6.6 z m -1.6,-9.1 c 1,-0.8 1.5,-2 1.5,-3.5 0,-1.6 -0.5,-2.7 -1.5,-3.6 -1,-0.8 -2.5,-1.2 -4.4,-1.2 H 4.4 v 9.6 h 5.1 c 2,0 3.4,-0.4 4.4,-1.3 z"
   id="path7" />
		<path
   d="m 21.8,412.4 c -0.3,-0.3 -0.4,-0.6 -0.4,-1 0,-0.4 0.1,-0.7 0.4,-1 0.3,-0.3 0.6,-0.4 1,-0.4 0.4,0 0.7,0.1 1,0.4 0.3,0.3 0.4,0.6 0.4,0.9 0,0.4 -0.1,0.7 -0.4,1 -0.3,0.3 -0.6,0.4 -1,0.4 -0.4,0.1 -0.7,0 -1,-0.3 z m 0,3.6 h 1.9 v 14.4 h -1.9 z"
   id="path9" />
		<path
   d="m 29.7,430 c -1.1,-0.3 -1.9,-0.8 -2.5,-1.3 l 0.9,-1.5 c 0.6,0.5 1.4,0.9 2.3,1.2 0.9,0.3 1.9,0.5 2.8,0.5 1.3,0 2.3,-0.2 2.9,-0.6 0.6,-0.4 0.9,-1 0.9,-1.7 0,-0.5 -0.2,-0.9 -0.5,-1.2 -0.3,-0.3 -0.8,-0.5 -1.3,-0.7 -0.5,-0.2 -1.2,-0.3 -2.1,-0.5 -1.2,-0.2 -2.1,-0.4 -2.8,-0.7 -0.7,-0.2 -1.3,-0.6 -1.8,-1.2 -0.5,-0.5 -0.8,-1.3 -0.8,-2.3 0,-1.2 0.5,-2.2 1.5,-3 1,-0.8 2.4,-1.2 4.2,-1.2 0.9,0 1.9,0.1 2.8,0.4 0.9,0.2 1.7,0.6 2.3,1 l -0.8,1.6 c -1.2,-0.8 -2.6,-1.2 -4.2,-1.2 -1.2,0 -2.2,0.2 -2.8,0.7 -0.6,0.4 -0.9,1 -0.9,1.7 0,0.5 0.2,1 0.5,1.3 0.4,0.3 0.8,0.6 1.3,0.7 0.5,0.2 1.3,0.3 2.2,0.5 1.2,0.2 2.1,0.4 2.8,0.7 0.7,0.2 1.3,0.6 1.8,1.1 0.5,0.5 0.7,1.3 0.7,2.2 0,1.3 -0.5,2.3 -1.6,3 -1.1,0.7 -2.5,1.1 -4.4,1.1 -1.2,0 -2.3,-0.2 -3.4,-0.6 z"
   id="path11" />
		<path
   d="m 42.6,412.4 c -0.3,-0.3 -0.4,-0.6 -0.4,-1 0,-0.4 0.1,-0.7 0.4,-1 0.3,-0.3 0.6,-0.4 1,-0.4 0.4,0 0.7,0.1 1,0.4 0.3,0.3 0.4,0.6 0.4,0.9 0,0.4 -0.1,0.7 -0.4,1 -0.3,0.3 -0.6,0.4 -1,0.4 -0.4,0 -0.8,0 -1,-0.3 z m 0,3.6 h 1.9 v 14.4 h -1.9 z"
   id="path13" />
		<path
   d="m 61.6,417.5 c 1.1,1.1 1.6,2.6 1.6,4.6 v 8.4 h -1.9 v -8.2 c 0,-1.5 -0.4,-2.6 -1.1,-3.4 -0.7,-0.8 -1.8,-1.2 -3.2,-1.2 -1.6,0 -2.8,0.5 -3.7,1.4 -0.9,0.9 -1.4,2.2 -1.4,3.8 v 7.6 H 50 V 416 h 1.9 v 2.7 c 0.5,-0.9 1.3,-1.6 2.2,-2 0.9,-0.5 2,-0.7 3.3,-0.7 1.7,-0.1 3.1,0.4 4.2,1.5 z"
   id="path15" />
		<path
   d="m 81.9,416 v 12.7 c 0,2.4 -0.6,4.3 -1.8,5.4 -1.2,1.2 -3,1.8 -5.4,1.8 -1.3,0 -2.6,-0.2 -3.8,-0.6 -1.2,-0.4 -2.2,-0.9 -2.9,-1.6 l 1,-1.5 c 0.7,0.6 1.5,1.1 2.5,1.5 1,0.3 2,0.5 3.1,0.5 1.8,0 3.2,-0.4 4,-1.3 0.8,-0.9 1.3,-2.2 1.3,-4 v -1.8 c -0.6,0.9 -1.4,1.6 -2.4,2.1 -1,0.5 -2.1,0.7 -3.2,0.7 -1.4,0 -2.6,-0.3 -3.7,-0.9 -1.1,-0.6 -2,-1.4 -2.6,-2.5 -0.6,-1.1 -0.9,-2.3 -0.9,-3.6 0,-1.4 0.3,-2.6 0.9,-3.6 0.6,-1.1 1.5,-1.9 2.6,-2.5 1.1,-0.6 2.3,-0.9 3.7,-0.9 1.2,0 2.3,0.2 3.3,0.7 1,0.5 1.8,1.2 2.4,2.1 V 416 Z m -4.5,11.5 c 0.8,-0.4 1.5,-1.1 2,-1.9 0.5,-0.8 0.7,-1.7 0.7,-2.7 0,-1 -0.2,-1.9 -0.7,-2.7 -0.5,-0.8 -1.1,-1.4 -1.9,-1.9 -0.8,-0.4 -1.8,-0.7 -2.8,-0.7 -1,0 -2,0.2 -2.8,0.7 -0.8,0.4 -1.5,1.1 -1.9,1.9 -0.5,0.8 -0.7,1.7 -0.7,2.7 0,1 0.2,1.9 0.7,2.7 0.5,0.8 1.1,1.4 1.9,1.9 0.8,0.5 1.8,0.7 2.8,0.7 1,0 1.8,-0.3 2.7,-0.7 z"
   id="path17" />
		<path
   d="M 107,425.3 H 96.3 l -2.3,5.1 h -2.1 l 8.8,-19.2 h 2 l 8.8,19.2 h -2.1 z m -0.8,-1.7 -4.6,-10.3 -4.6,10.3 z"
   id="path19" />
		<path
   d="m 116.2,429.6 c -1.1,-0.6 -2,-1.5 -2.6,-2.6 -0.6,-1.1 -1,-2.4 -1,-3.8 0,-1.4 0.3,-2.7 1,-3.8 0.6,-1.1 1.5,-2 2.6,-2.6 1.1,-0.6 2.4,-0.9 3.8,-0.9 1.2,0 2.4,0.2 3.3,0.7 1,0.5 1.7,1.2 2.3,2.1 l -1.5,1 c -0.5,-0.7 -1.1,-1.2 -1.8,-1.6 -0.7,-0.4 -1.5,-0.5 -2.4,-0.5 -1,0 -2,0.2 -2.8,0.7 -0.8,0.5 -1.5,1.1 -1.9,2 -0.5,0.9 -0.7,1.8 -0.7,2.9 0,1.1 0.2,2.1 0.7,2.9 0.5,0.8 1.1,1.5 1.9,2 0.8,0.5 1.8,0.7 2.8,0.7 0.9,0 1.7,-0.2 2.4,-0.5 0.7,-0.3 1.3,-0.9 1.8,-1.6 l 1.5,1 c -0.6,0.9 -1.3,1.6 -2.3,2.1 -1,0.5 -2.1,0.7 -3.3,0.7 -1.4,0.1 -2.7,-0.3 -3.8,-0.9 z"
   id="path21" />
		<path
   d="m 137.2,429.5 c -0.4,0.3 -0.8,0.6 -1.4,0.8 -0.5,0.2 -1.1,0.3 -1.7,0.3 -1.4,0 -2.4,-0.4 -3.1,-1.1 -0.7,-0.7 -1.1,-1.8 -1.1,-3.1 v -8.7 h -2.6 V 416 h 2.6 v -3.2 h 1.9 v 3.2 h 4.4 v 1.6 h -4.4 v 8.6 c 0,0.9 0.2,1.5 0.6,2 0.4,0.4 1,0.7 1.8,0.7 0.4,0 0.8,-0.1 1.2,-0.2 0.4,-0.1 0.7,-0.3 1,-0.5 z"
   id="path23" />
		<path
   d="m 140.7,412.4 c -0.3,-0.3 -0.4,-0.6 -0.4,-1 0,-0.4 0.1,-0.7 0.4,-1 0.3,-0.3 0.6,-0.4 1,-0.4 0.4,0 0.7,0.1 1,0.4 0.3,0.3 0.4,0.6 0.4,0.9 0,0.4 -0.1,0.7 -0.4,1 -0.3,0.3 -0.6,0.4 -1,0.4 -0.4,0 -0.7,0 -1,-0.3 z m 0,3.6 h 1.9 v 14.4 h -1.9 z"
   id="path25" />
		<path
   d="m 150.2,429.6 c -1.1,-0.6 -2,-1.5 -2.6,-2.6 -0.6,-1.1 -1,-2.4 -1,-3.8 0,-1.4 0.3,-2.7 1,-3.8 0.6,-1.1 1.5,-2 2.6,-2.6 1.1,-0.6 2.4,-0.9 3.8,-0.9 1.4,0 2.6,0.3 3.8,0.9 1.1,0.6 2,1.5 2.6,2.6 0.6,1.1 0.9,2.4 0.9,3.8 0,1.4 -0.3,2.7 -0.9,3.8 -0.6,1.1 -1.5,2 -2.6,2.6 -1.1,0.6 -2.4,0.9 -3.8,0.9 -1.4,0.1 -2.6,-0.3 -3.8,-0.9 z m 6.6,-1.5 c 0.8,-0.5 1.4,-1.1 1.9,-2 0.5,-0.9 0.7,-1.8 0.7,-2.9 0,-1.1 -0.2,-2.1 -0.7,-2.9 -0.5,-0.9 -1.1,-1.5 -1.9,-2 -0.8,-0.5 -1.7,-0.7 -2.8,-0.7 -1,0 -1.9,0.2 -2.8,0.7 -0.8,0.5 -1.5,1.1 -1.9,2 -0.5,0.9 -0.7,1.8 -0.7,2.9 0,1.1 0.2,2.1 0.7,2.9 0.5,0.9 1.1,1.5 1.9,2 0.8,0.5 1.7,0.7 2.8,0.7 1,0 1.9,-0.2 2.8,-0.7 z"
   id="path27" />
		<path
   d="m 176.9,417.5 c 1.1,1.1 1.6,2.6 1.6,4.6 v 8.4 h -1.9 v -8.2 c 0,-1.5 -0.4,-2.6 -1.1,-3.4 -0.7,-0.8 -1.8,-1.2 -3.2,-1.2 -1.6,0 -2.8,0.5 -3.7,1.4 -0.9,0.9 -1.4,2.2 -1.4,3.8 v 7.6 h -1.9 V 416 h 1.9 v 2.7 c 0.5,-0.9 1.3,-1.6 2.2,-2 0.9,-0.5 2,-0.7 3.3,-0.7 1.7,-0.1 3.2,0.4 4.2,1.5 z"
   id="path29" />
	</g>
	<g
   id="g53">
		<path
   d="M 18,841.2 V 843 H 4.4 v -19.2 h 13.2 v 1.8 H 6.5 v 6.8 h 9.9 v 1.7 H 6.5 v 7.1 z"
   id="path33" />
		<path
   d="m 31.1,843 -4.6,-6 -4.6,6 h -2.1 l 5.7,-7.4 -5.4,-7 h 2.2 l 4.3,5.6 4.3,-5.6 H 33 l -5.4,7 5.8,7.4 z"
   id="path35" />
		<path
   d="m 47.7,829.3 c 1.1,0.6 2,1.5 2.6,2.6 0.6,1.1 0.9,2.4 0.9,3.8 0,1.4 -0.3,2.7 -0.9,3.8 -0.6,1.1 -1.5,2 -2.6,2.6 -1.1,0.6 -2.3,0.9 -3.7,0.9 -1.2,0 -2.2,-0.2 -3.2,-0.7 -0.9,-0.5 -1.7,-1.2 -2.3,-2.1 v 8 h -1.9 v -19.7 h 1.9 v 2.9 c 0.6,-0.9 1.4,-1.7 2.3,-2.2 1,-0.5 2,-0.8 3.2,-0.8 1.3,0 2.6,0.3 3.7,0.9 z m -1.1,11.4 c 0.8,-0.5 1.5,-1.1 1.9,-2 0.5,-0.9 0.7,-1.8 0.7,-2.9 0,-1.1 -0.2,-2.1 -0.7,-2.9 -0.5,-0.9 -1.1,-1.5 -1.9,-2 -0.8,-0.5 -1.7,-0.7 -2.7,-0.7 -1,0 -1.9,0.2 -2.8,0.7 -0.8,0.5 -1.5,1.1 -1.9,2 -0.5,0.9 -0.7,1.8 -0.7,2.9 0,1.1 0.2,2.1 0.7,2.9 0.5,0.9 1.1,1.5 1.9,2 0.8,0.5 1.7,0.7 2.8,0.7 1,0 1.9,-0.3 2.7,-0.7 z"
   id="path37" />
		<path
   d="m 57.3,842.2 c -1.1,-0.6 -2,-1.5 -2.6,-2.6 -0.6,-1.1 -1,-2.4 -1,-3.8 0,-1.4 0.3,-2.7 1,-3.8 0.6,-1.1 1.5,-2 2.6,-2.6 1.1,-0.6 2.4,-0.9 3.8,-0.9 1.4,0 2.6,0.3 3.8,0.9 1.1,0.6 2,1.5 2.6,2.6 0.6,1.1 0.9,2.4 0.9,3.8 0,1.4 -0.3,2.7 -0.9,3.8 -0.6,1.1 -1.5,2 -2.6,2.6 -1.1,0.6 -2.4,0.9 -3.8,0.9 -1.5,0 -2.7,-0.3 -3.8,-0.9 z m 6.5,-1.5 c 0.8,-0.5 1.4,-1.1 1.9,-2 0.5,-0.9 0.7,-1.8 0.7,-2.9 0,-1.1 -0.2,-2.1 -0.7,-2.9 -0.5,-0.9 -1.1,-1.5 -1.9,-2 -0.8,-0.5 -1.7,-0.7 -2.8,-0.7 -1,0 -1.9,0.2 -2.8,0.7 -0.8,0.5 -1.5,1.1 -1.9,2 -0.5,0.9 -0.7,1.8 -0.7,2.9 0,1.1 0.2,2.1 0.7,2.9 0.5,0.9 1.1,1.5 1.9,2 0.8,0.5 1.7,0.7 2.8,0.7 1.1,0 2,-0.3 2.8,-0.7 z"
   id="path39" />
		<path
   d="m 72.8,842.6 c -1.1,-0.3 -1.9,-0.8 -2.5,-1.3 l 0.9,-1.5 c 0.6,0.5 1.4,0.9 2.3,1.2 0.9,0.3 1.9,0.5 2.8,0.5 1.3,0 2.3,-0.2 2.9,-0.6 0.6,-0.4 0.9,-1 0.9,-1.7 0,-0.5 -0.2,-0.9 -0.5,-1.2 -0.3,-0.3 -0.8,-0.5 -1.3,-0.7 -0.5,-0.2 -1.2,-0.3 -2.1,-0.5 -1.2,-0.2 -2.1,-0.4 -2.8,-0.7 -0.7,-0.3 -1.3,-0.6 -1.8,-1.2 -0.5,-0.5 -0.8,-1.3 -0.8,-2.3 0,-1.2 0.5,-2.2 1.5,-3 1,-0.8 2.4,-1.2 4.2,-1.2 0.9,0 1.9,0.1 2.8,0.4 0.9,0.2 1.7,0.6 2.3,1 l -0.8,1.6 c -1.2,-0.8 -2.6,-1.2 -4.2,-1.2 -1.2,0 -2.2,0.2 -2.8,0.7 -0.6,0.4 -0.9,1 -0.9,1.7 0,0.5 0.2,1 0.5,1.3 0.4,0.3 0.8,0.6 1.3,0.7 0.5,0.2 1.3,0.3 2.2,0.5 1.2,0.2 2.1,0.4 2.8,0.7 0.7,0.2 1.3,0.6 1.8,1.1 0.5,0.5 0.7,1.3 0.7,2.2 0,1.3 -0.5,2.3 -1.6,3 -1.1,0.7 -2.5,1.1 -4.4,1.1 -1.2,-0.1 -2.3,-0.3 -3.4,-0.6 z"
   id="path41" />
		<path
   d="m 85.7,825 c -0.3,-0.3 -0.4,-0.6 -0.4,-1 0,-0.4 0.1,-0.7 0.4,-1 0.3,-0.3 0.6,-0.4 1,-0.4 0.4,0 0.7,0.1 1,0.4 0.3,0.3 0.4,0.6 0.4,0.9 0,0.4 -0.1,0.7 -0.4,1 -0.3,0.3 -0.6,0.4 -1,0.4 -0.4,0 -0.7,-0.1 -1,-0.3 z m 0,3.5 h 1.9 V 843 h -1.9 z"
   id="path43" />
		<path
   d="m 100.7,842.1 c -0.4,0.3 -0.8,0.6 -1.4,0.8 -0.5,0.2 -1.1,0.3 -1.7,0.3 -1.4,0 -2.4,-0.4 -3.1,-1.1 -0.7,-0.7 -1.1,-1.8 -1.1,-3.1 v -8.7 h -2.6 v -1.6 h 2.6 v -3.2 h 1.9 v 3.2 h 4.4 v 1.6 h -4.4 v 8.6 c 0,0.9 0.2,1.5 0.6,2 0.4,0.4 1,0.7 1.8,0.7 0.4,0 0.8,-0.1 1.2,-0.2 0.4,-0.1 0.7,-0.3 1,-0.5 z"
   id="path45" />
		<path
   d="m 104.2,825 c -0.3,-0.3 -0.4,-0.6 -0.4,-1 0,-0.4 0.1,-0.7 0.4,-1 0.3,-0.3 0.6,-0.4 1,-0.4 0.4,0 0.7,0.1 1,0.4 0.3,0.3 0.4,0.6 0.4,0.9 0,0.4 -0.1,0.7 -0.4,1 -0.3,0.3 -0.6,0.4 -1,0.4 -0.4,0 -0.7,-0.1 -1,-0.3 z m 0,3.5 h 1.9 V 843 h -1.9 z"
   id="path47" />
		<path
   d="m 113.7,842.2 c -1.1,-0.6 -2,-1.5 -2.6,-2.6 -0.6,-1.1 -1,-2.4 -1,-3.8 0,-1.4 0.3,-2.7 1,-3.8 0.6,-1.1 1.5,-2 2.6,-2.6 1.1,-0.6 2.4,-0.9 3.8,-0.9 1.4,0 2.6,0.3 3.8,0.9 1.1,0.6 2,1.5 2.6,2.6 0.6,1.1 0.9,2.4 0.9,3.8 0,1.4 -0.3,2.7 -0.9,3.8 -0.6,1.1 -1.5,2 -2.6,2.6 -1.1,0.6 -2.4,0.9 -3.8,0.9 -1.4,0 -2.7,-0.3 -3.8,-0.9 z m 6.5,-1.5 c 0.8,-0.5 1.4,-1.1 1.9,-2 0.5,-0.9 0.7,-1.8 0.7,-2.9 0,-1.1 -0.2,-2.1 -0.7,-2.9 -0.5,-0.9 -1.1,-1.5 -1.9,-2 -0.8,-0.5 -1.7,-0.7 -2.8,-0.7 -1,0 -1.9,0.2 -2.8,0.7 -0.8,0.5 -1.5,1.1 -1.9,2 -0.5,0.9 -0.7,1.8 -0.7,2.9 0,1.1 0.2,2.1 0.7,2.9 0.5,0.9 1.1,1.5 1.9,2 0.8,0.5 1.7,0.7 2.8,0.7 1.1,0 2,-0.3 2.8,-0.7 z"
   id="path49" />
		<path
   d="m 140.4,830 c 1.1,1.1 1.6,2.6 1.6,4.6 v 8.4 h -1.9 v -8.2 c 0,-1.5 -0.4,-2.6 -1.1,-3.4 -0.7,-0.8 -1.8,-1.2 -3.2,-1.2 -1.6,0 -2.8,0.5 -3.7,1.4 -0.9,0.9 -1.4,2.2 -1.4,3.8 v 7.6 h -1.9 v -14.4 h 1.9 v 2.7 c 0.5,-0.9 1.3,-1.6 2.2,-2 0.9,-0.5 2,-0.7 3.3,-0.7 1.7,-0.2 3.1,0.4 4.2,1.4 z"
   id="path51" />
	</g>
	<g
   id="g67">
		<path
   d="m 975,22.1 c -1.5,-0.8 -2.7,-2 -3.6,-3.5 -0.9,-1.5 -1.3,-3.2 -1.3,-5 0,-1.8 0.4,-3.5 1.3,-5 0.9,-1.5 2.1,-2.7 3.6,-3.5 1.5,-0.8 3.3,-1.3 5.2,-1.3 1.4,0 2.7,0.2 3.9,0.7 1.2,0.5 2.2,1.2 3.1,2.1 l -1.3,1.3 c -1.5,-1.5 -3.4,-2.3 -5.7,-2.3 -1.5,0 -2.9,0.3 -4.1,1 -1.2,0.7 -2.2,1.6 -2.9,2.9 -0.7,1.2 -1.1,2.6 -1.1,4.1 0,1.5 0.4,2.9 1.1,4.1 0.7,1.2 1.7,2.2 2.9,2.9 1.2,0.7 2.6,1 4.1,1 2.3,0 4.2,-0.8 5.7,-2.3 l 1.3,1.3 c -0.8,0.9 -1.9,1.6 -3.1,2.1 -1.2,0.5 -2.5,0.7 -4,0.7 -1.9,-0.1 -3.6,-0.5 -5.1,-1.3 z"
   id="path55" />
		<path
   d="m 991.1,2.8 h 1.9 v 20.3 h -1.9 z"
   id="path57" />
		<path
   d="m 998.4,5.2 c -0.3,-0.3 -0.4,-0.6 -0.4,-1 0,-0.4 0.1,-0.7 0.4,-1 0.3,-0.3 0.6,-0.4 1,-0.4 0.4,0 0.7,0.1 1,0.4 0.3,0.3 0.4,0.6 0.4,0.9 0,0.4 -0.1,0.7 -0.4,1 -0.3,0.3 -0.6,0.4 -1,0.4 -0.4,0.1 -0.7,0 -1,-0.3 z m 0,3.5 h 1.9 v 14.4 h -1.9 z"
   id="path59" />
		<path
   d="m 1028,10.2 c 1,1 1.5,2.6 1.5,4.6 v 8.4 h -1.9 V 15 c 0,-1.5 -0.4,-2.6 -1.1,-3.4 -0.7,-0.8 -1.7,-1.2 -3.1,-1.2 -1.5,0 -2.7,0.5 -3.5,1.4 -0.9,0.9 -1.3,2.2 -1.3,3.8 v 7.6 h -1.9 V 15 c 0,-1.5 -0.4,-2.6 -1.1,-3.4 -0.7,-0.8 -1.7,-1.2 -3.1,-1.2 -1.5,0 -2.7,0.5 -3.5,1.4 -0.9,0.9 -1.3,2.2 -1.3,3.8 v 7.6 h -1.9 V 8.7 h 1.9 v 2.6 c 0.5,-0.9 1.2,-1.6 2.1,-2 0.9,-0.5 2,-0.7 3.2,-0.7 1.2,0 2.2,0.3 3.1,0.8 0.9,0.5 1.5,1.3 2,2.3 0.5,-1 1.3,-1.7 2.3,-2.2 1,-0.5 2.1,-0.8 3.4,-0.8 1.8,-0.1 3.2,0.5 4.2,1.5 z"
   id="path61" />
		<path
   d="m 1044.2,10.1 c 1,0.9 1.5,2.3 1.5,4.2 v 8.9 h -1.9 V 21 c -0.4,0.7 -1.1,1.3 -1.9,1.8 -0.8,0.4 -1.9,0.6 -3,0.6 -1.6,0 -2.9,-0.4 -3.8,-1.2 -0.9,-0.8 -1.4,-1.8 -1.4,-3 0,-1.2 0.4,-2.2 1.3,-3 0.9,-0.7 2.3,-1.1 4.2,-1.1 h 4.6 v -0.9 c 0,-1.2 -0.3,-2.2 -1,-2.8 -0.7,-0.6 -1.7,-1 -3,-1 -0.9,0 -1.8,0.2 -2.6,0.5 -0.8,0.3 -1.6,0.7 -2.2,1.2 l -0.9,-1.5 c 0.7,-0.6 1.6,-1.1 2.6,-1.4 1,-0.3 2.1,-0.5 3.2,-0.5 1.9,-0.1 3.3,0.4 4.3,1.4 z M 1042,21 c 0.8,-0.5 1.4,-1.2 1.8,-2.2 v -2.4 h -4.5 c -2.5,0 -3.7,0.9 -3.7,2.6 0,0.8 0.3,1.5 1,2 0.6,0.5 1.5,0.7 2.7,0.7 1,0.1 2,-0.2 2.7,-0.7 z"
   id="path63" />
		<path
   d="m 1060.2,23.2 -4.6,-6 -4.6,6 h -2.2 l 5.7,-7.4 -5.4,-7 h 2.2 l 4.3,5.6 4.3,-5.6 h 2.1 l -5.4,7 5.8,7.4 z"
   id="path65" />
	</g>
	<g
   id="g95">
		<path
   d="m 919.8,412.4 v 7.5 h 9.9 v 1.8 h -9.9 v 8.1 h -2 v -19.2 h 13.1 v 1.8 z"
   id="path69" />
		<path
   d="m 943.5,416.8 c 1,0.9 1.5,2.3 1.5,4.2 v 8.9 h -1.9 v -2.2 c -0.4,0.7 -1.1,1.3 -1.9,1.8 -0.8,0.4 -1.9,0.6 -3,0.6 -1.6,0 -2.9,-0.4 -3.8,-1.2 -0.9,-0.8 -1.4,-1.8 -1.4,-3 0,-1.2 0.4,-2.2 1.3,-3 0.9,-0.7 2.3,-1.1 4.2,-1.1 h 4.6 v -0.9 c 0,-1.2 -0.3,-2.2 -1,-2.8 -0.7,-0.6 -1.7,-1 -3,-1 -0.9,0 -1.8,0.2 -2.6,0.5 -0.8,0.3 -1.6,0.7 -2.2,1.2 l -0.9,-1.5 c 0.7,-0.6 1.6,-1.1 2.6,-1.4 1,-0.3 2.1,-0.5 3.2,-0.5 1.9,0 3.3,0.4 4.3,1.4 z m -2.2,10.9 c 0.8,-0.5 1.4,-1.2 1.8,-2.2 v -2.4 h -4.5 c -2.5,0 -3.7,0.9 -3.7,2.6 0,0.8 0.3,1.5 1,2 0.6,0.5 1.5,0.7 2.7,0.7 1,0.1 1.9,-0.2 2.7,-0.7 z"
   id="path71" />
		<path
   d="m 950.3,409.5 h 1.9 v 20.3 h -1.9 z"
   id="path73" />
		<path
   d="m 957.7,409.5 h 1.9 v 20.3 h -1.9 z"
   id="path75" />
		<path
   d="m 965,411.9 c -0.3,-0.3 -0.4,-0.6 -0.4,-1 0,-0.4 0.1,-0.7 0.4,-1 0.3,-0.3 0.6,-0.4 1,-0.4 0.4,0 0.7,0.1 1,0.4 0.3,0.3 0.4,0.6 0.4,0.9 0,0.4 -0.1,0.7 -0.4,1 -0.3,0.3 -0.6,0.4 -1,0.4 -0.4,0 -0.7,0 -1,-0.3 z m 0,3.6 h 1.9 v 14.4 H 965 Z"
   id="path77" />
		<path
   d="m 984.1,416.9 c 1.1,1.1 1.6,2.6 1.6,4.6 v 8.4 h -1.9 v -8.2 c 0,-1.5 -0.4,-2.6 -1.1,-3.4 -0.7,-0.8 -1.8,-1.2 -3.2,-1.2 -1.6,0 -2.8,0.5 -3.7,1.4 -0.9,0.9 -1.4,2.2 -1.4,3.8 v 7.6 h -1.9 v -14.4 h 1.9 v 2.7 c 0.5,-0.9 1.3,-1.6 2.2,-2 0.9,-0.5 2,-0.7 3.3,-0.7 1.7,-0.1 3.1,0.4 4.2,1.4 z"
   id="path79" />
		<path
   d="m 1004.3,415.5 v 12.7 c 0,2.4 -0.6,4.3 -1.8,5.4 -1.2,1.2 -3,1.8 -5.4,1.8 -1.3,0 -2.6,-0.2 -3.8,-0.6 -1.2,-0.4 -2.2,-0.9 -2.9,-1.6 l 1,-1.5 c 0.7,0.6 1.5,1.1 2.5,1.5 1,0.3 2,0.5 3.1,0.5 1.8,0 3.2,-0.4 4,-1.3 0.9,-0.9 1.3,-2.2 1.3,-4 v -1.8 c -0.6,0.9 -1.4,1.6 -2.4,2.1 -1,0.5 -2.1,0.7 -3.2,0.7 -1.4,0 -2.6,-0.3 -3.7,-0.9 -1.1,-0.6 -2,-1.4 -2.6,-2.5 -0.6,-1.1 -0.9,-2.3 -0.9,-3.6 0,-1.4 0.3,-2.6 0.9,-3.6 0.6,-1.1 1.5,-1.9 2.6,-2.5 1.1,-0.6 2.3,-0.9 3.7,-0.9 1.2,0 2.3,0.2 3.3,0.7 1,0.5 1.8,1.2 2.4,2.1 v -2.8 z m -4.5,11.4 c 0.8,-0.4 1.5,-1.1 2,-1.9 0.5,-0.8 0.7,-1.7 0.7,-2.7 0,-1 -0.2,-1.9 -0.7,-2.7 -0.5,-0.8 -1.1,-1.4 -1.9,-1.9 -0.8,-0.4 -1.8,-0.7 -2.8,-0.7 -1,0 -2,0.2 -2.8,0.7 -0.8,0.4 -1.5,1.1 -1.9,1.9 -0.5,0.8 -0.7,1.7 -0.7,2.7 0,1 0.2,1.9 0.7,2.7 0.5,0.8 1.1,1.4 1.9,1.9 0.8,0.4 1.8,0.7 2.8,0.7 0.9,0 1.9,-0.2 2.7,-0.7 z"
   id="path81" />
		<path
   d="m 1029.4,424.8 h -10.7 l -2.3,5.1 h -2.1 l 8.8,-19.2 h 2 l 8.8,19.2 h -2.1 z m -0.7,-1.7 -4.6,-10.3 -4.6,10.3 z"
   id="path83" />
		<path
   d="m 1038.6,429.1 c -1.1,-0.6 -2,-1.5 -2.6,-2.6 -0.6,-1.1 -1,-2.4 -1,-3.8 0,-1.4 0.3,-2.7 1,-3.8 0.6,-1.1 1.5,-2 2.6,-2.6 1.1,-0.6 2.4,-0.9 3.8,-0.9 1.2,0 2.4,0.2 3.3,0.7 1,0.5 1.7,1.2 2.3,2.1 l -1.5,1 c -0.5,-0.7 -1.1,-1.2 -1.8,-1.6 -0.7,-0.4 -1.5,-0.5 -2.4,-0.5 -1,0 -2,0.2 -2.8,0.7 -0.8,0.5 -1.5,1.1 -1.9,2 -0.5,0.9 -0.7,1.8 -0.7,2.9 0,1.1 0.2,2.1 0.7,2.9 0.5,0.8 1.1,1.5 1.9,2 0.8,0.5 1.8,0.7 2.8,0.7 0.9,0 1.7,-0.2 2.4,-0.5 0.7,-0.3 1.3,-0.9 1.8,-1.6 l 1.5,1 c -0.6,0.9 -1.3,1.6 -2.3,2.1 -1,0.5 -2.1,0.7 -3.3,0.7 -1.4,0 -2.7,-0.3 -3.8,-0.9 z"
   id="path85" />
		<path
   d="m 1059.6,429 c -0.4,0.3 -0.8,0.6 -1.4,0.8 -0.5,0.2 -1.1,0.3 -1.7,0.3 -1.4,0 -2.4,-0.4 -3.1,-1.1 -0.7,-0.7 -1.1,-1.8 -1.1,-3.1 v -8.7 h -2.6 v -1.6 h 2.6 v -3.2 h 1.9 v 3.2 h 4.4 v 1.6 h -4.4 v 8.6 c 0,0.9 0.2,1.5 0.6,2 0.4,0.4 1,0.7 1.8,0.7 0.4,0 0.8,-0.1 1.2,-0.2 0.4,-0.1 0.7,-0.3 1,-0.5 z"
   id="path87" />
		<path
   d="m 1063.2,411.9 c -0.3,-0.3 -0.4,-0.6 -0.4,-1 0,-0.4 0.1,-0.7 0.4,-1 0.3,-0.3 0.6,-0.4 1,-0.4 0.4,0 0.7,0.1 1,0.4 0.3,0.3 0.4,0.6 0.4,0.9 0,0.4 -0.1,0.7 -0.4,1 -0.3,0.3 -0.6,0.4 -1,0.4 -0.4,0.1 -0.8,0 -1,-0.3 z m 0,3.6 h 1.9 v 14.4 h -1.9 z"
   id="path89" />
		<path
   d="m 1072.7,429.1 c -1.1,-0.6 -2,-1.5 -2.6,-2.6 -0.6,-1.1 -1,-2.4 -1,-3.8 0,-1.4 0.3,-2.7 1,-3.8 0.6,-1.1 1.5,-2 2.6,-2.6 1.1,-0.6 2.4,-0.9 3.8,-0.9 1.4,0 2.6,0.3 3.8,0.9 1.1,0.6 2,1.5 2.6,2.6 0.6,1.1 0.9,2.4 0.9,3.8 0,1.4 -0.3,2.7 -0.9,3.8 -0.6,1.1 -1.5,2 -2.6,2.6 -1.1,0.6 -2.4,0.9 -3.8,0.9 -1.4,0 -2.7,-0.3 -3.8,-0.9 z m 6.5,-1.5 c 0.8,-0.5 1.4,-1.1 1.9,-2 0.5,-0.9 0.7,-1.8 0.7,-2.9 0,-1.1 -0.2,-2.1 -0.7,-2.9 -0.5,-0.9 -1.1,-1.5 -1.9,-2 -0.8,-0.5 -1.7,-0.7 -2.8,-0.7 -1,0 -1.9,0.2 -2.8,0.7 -0.8,0.5 -1.5,1.1 -1.9,2 -0.5,0.9 -0.7,1.8 -0.7,2.9 0,1.1 0.2,2.1 0.7,2.9 0.5,0.9 1.1,1.5 1.9,2 0.8,0.5 1.7,0.7 2.8,0.7 1.1,0 2,-0.2 2.8,-0.7 z"
   id="path91" />
		<path
   d="m 1099.4,416.9 c 1.1,1.1 1.6,2.6 1.6,4.6 v 8.4 h -1.9 v -8.2 c 0,-1.5 -0.4,-2.6 -1.1,-3.4 -0.7,-0.8 -1.8,-1.2 -3.2,-1.2 -1.6,0 -2.8,0.5 -3.7,1.4 -0.9,0.9 -1.4,2.2 -1.4,3.8 v 7.6 h -1.9 v -14.4 h 1.9 v 2.7 c 0.5,-0.9 1.3,-1.6 2.2,-2 0.9,-0.5 2,-0.7 3.3,-0.7 1.7,-0.1 3.1,0.4 4.2,1.4 z"
   id="path93" />
	</g>
	<g
   id="g117">
		<path
   d="m 969.9,843.6 -4.4,-6.2 c -0.5,0.1 -1,0.1 -1.5,0.1 h -5.2 v 6.1 h -2 v -19.2 h 7.2 c 2.4,0 4.4,0.6 5.8,1.8 1.4,1.2 2.1,2.8 2.1,4.8 0,1.5 -0.4,2.8 -1.1,3.8 -0.8,1 -1.8,1.8 -3.2,2.2 l 4.7,6.6 z m -1.6,-9.1 c 1,-0.8 1.5,-2 1.5,-3.5 0,-1.6 -0.5,-2.7 -1.5,-3.6 -1,-0.8 -2.5,-1.2 -4.4,-1.2 h -5.1 v 9.6 h 5.1 c 1.9,-0.1 3.4,-0.5 4.4,-1.3 z"
   id="path97" />
		<path
   d="m 988.7,836.9 h -12.1 c 0.1,1.5 0.7,2.7 1.7,3.6 1,0.9 2.4,1.4 3.9,1.4 0.9,0 1.7,-0.2 2.5,-0.5 0.7,-0.3 1.4,-0.8 1.9,-1.4 l 1.1,1.3 c -0.6,0.8 -1.4,1.4 -2.4,1.8 -1,0.4 -2,0.6 -3.2,0.6 -1.5,0 -2.8,-0.3 -3.9,-0.9 -1.1,-0.6 -2,-1.5 -2.7,-2.6 -0.6,-1.1 -1,-2.4 -1,-3.8 0,-1.4 0.3,-2.7 0.9,-3.8 0.6,-1.1 1.5,-2 2.5,-2.6 1.1,-0.6 2.3,-0.9 3.6,-0.9 1.3,0 2.5,0.3 3.6,0.9 1.1,0.6 1.9,1.5 2.5,2.6 0.6,1.1 0.9,2.4 0.9,3.8 z M 978.3,832 c -0.9,0.9 -1.5,2 -1.6,3.5 h 10.2 c -0.1,-1.4 -0.7,-2.6 -1.6,-3.5 -0.9,-0.9 -2.1,-1.3 -3.5,-1.3 -1.4,0 -2.6,0.4 -3.5,1.3 z"
   id="path99" />
		<path
   d="m 993.2,843.2 c -1.1,-0.3 -1.9,-0.8 -2.5,-1.3 l 0.9,-1.5 c 0.6,0.5 1.4,0.9 2.3,1.2 0.9,0.3 1.9,0.5 2.8,0.5 1.3,0 2.3,-0.2 2.9,-0.6 0.6,-0.4 0.9,-1 0.9,-1.7 0,-0.5 -0.2,-0.9 -0.5,-1.2 -0.3,-0.3 -0.8,-0.5 -1.3,-0.7 -0.5,-0.2 -1.2,-0.3 -2.1,-0.5 -1.2,-0.2 -2.1,-0.4 -2.8,-0.7 -0.7,-0.3 -1.3,-0.6 -1.8,-1.2 -0.5,-0.5 -0.8,-1.3 -0.8,-2.3 0,-1.2 0.5,-2.2 1.5,-3 1,-0.8 2.4,-1.2 4.2,-1.2 0.9,0 1.9,0.1 2.8,0.4 0.9,0.2 1.7,0.6 2.3,1 l -0.8,1.6 c -1.2,-0.8 -2.6,-1.2 -4.2,-1.2 -1.2,0 -2.2,0.2 -2.8,0.7 -0.6,0.4 -0.9,1 -0.9,1.7 0,0.5 0.2,1 0.5,1.3 0.4,0.3 0.8,0.6 1.3,0.7 0.5,0.2 1.3,0.3 2.2,0.5 1.2,0.2 2.1,0.4 2.8,0.7 0.7,0.2 1.3,0.6 1.8,1.1 0.5,0.5 0.7,1.3 0.7,2.2 0,1.3 -0.5,2.3 -1.6,3 -1.1,0.7 -2.5,1.1 -4.4,1.1 -1.2,-0.1 -2.3,-0.3 -3.4,-0.6 z"
   id="path101" />
		<path
   d="m 1008.3,842.7 c -1.1,-0.6 -2,-1.5 -2.6,-2.6 -0.6,-1.1 -1,-2.4 -1,-3.8 0,-1.4 0.3,-2.7 1,-3.8 0.6,-1.1 1.5,-2 2.6,-2.6 1.1,-0.6 2.4,-0.9 3.8,-0.9 1.4,0 2.6,0.3 3.8,0.9 1.1,0.6 2,1.5 2.6,2.6 0.6,1.1 0.9,2.4 0.9,3.8 0,1.4 -0.3,2.7 -0.9,3.8 -0.6,1.1 -1.5,2 -2.6,2.6 -1.1,0.6 -2.4,0.9 -3.8,0.9 -1.5,0.1 -2.7,-0.2 -3.8,-0.9 z m 6.5,-1.4 c 0.8,-0.5 1.4,-1.1 1.9,-2 0.5,-0.9 0.7,-1.8 0.7,-2.9 0,-1.1 -0.2,-2.1 -0.7,-2.9 -0.5,-0.9 -1.1,-1.5 -1.9,-2 -0.8,-0.5 -1.7,-0.7 -2.8,-0.7 -1,0 -1.9,0.2 -2.8,0.7 -0.8,0.5 -1.5,1.1 -1.9,2 -0.5,0.9 -0.7,1.8 -0.7,2.9 0,1.1 0.2,2.1 0.7,2.9 0.5,0.9 1.1,1.5 1.9,2 0.8,0.5 1.7,0.7 2.8,0.7 1,0 1.9,-0.3 2.8,-0.7 z"
   id="path103" />
		<path
   d="m 1023.3,823.2 h 1.9 v 20.3 h -1.9 z"
   id="path105" />
		<path
   d="m 1043.6,829.1 v 14.4 h -1.9 v -2.6 c -0.5,0.9 -1.2,1.6 -2.1,2 -0.9,0.5 -1.9,0.7 -3.1,0.7 -1.9,0 -3.4,-0.5 -4.5,-1.6 -1.1,-1.1 -1.6,-2.6 -1.6,-4.6 V 829 h 1.9 v 8.2 c 0,1.5 0.4,2.7 1.1,3.5 0.7,0.8 1.8,1.2 3.2,1.2 1.5,0 2.7,-0.5 3.6,-1.4 0.9,-0.9 1.3,-2.2 1.3,-3.9 V 829 Z"
   id="path107" />
		<path
   d="m 1056.7,842.7 c -0.4,0.3 -0.8,0.6 -1.4,0.8 -0.5,0.2 -1.1,0.3 -1.7,0.3 -1.4,0 -2.4,-0.4 -3.1,-1.1 -0.7,-0.7 -1.1,-1.8 -1.1,-3.1 v -8.7 h -2.6 v -1.6 h 2.6 V 826 h 1.9 v 3.2 h 4.4 v 1.6 h -4.4 v 8.6 c 0,0.9 0.2,1.5 0.6,2 0.4,0.4 1,0.7 1.8,0.7 0.4,0 0.8,-0.1 1.2,-0.2 0.4,-0.1 0.7,-0.3 1,-0.5 z"
   id="path109" />
		<path
   d="m 1060.2,825.6 c -0.3,-0.3 -0.4,-0.6 -0.4,-1 0,-0.4 0.1,-0.7 0.4,-1 0.3,-0.3 0.6,-0.4 1,-0.4 0.4,0 0.7,0.1 1,0.4 0.3,0.3 0.4,0.6 0.4,0.9 0,0.4 -0.1,0.7 -0.4,1 -0.3,0.3 -0.6,0.4 -1,0.4 -0.4,0 -0.7,-0.1 -1,-0.3 z m 0,3.5 h 1.9 v 14.4 h -1.9 z"
   id="path111" />
		<path
   d="m 1069.7,842.7 c -1.1,-0.6 -2,-1.5 -2.6,-2.6 -0.6,-1.1 -1,-2.4 -1,-3.8 0,-1.4 0.3,-2.7 1,-3.8 0.6,-1.1 1.5,-2 2.6,-2.6 1.1,-0.6 2.4,-0.9 3.8,-0.9 1.4,0 2.6,0.3 3.8,0.9 1.1,0.6 2,1.5 2.6,2.6 0.6,1.1 0.9,2.4 0.9,3.8 0,1.4 -0.3,2.7 -0.9,3.8 -0.6,1.1 -1.5,2 -2.6,2.6 -1.1,0.6 -2.4,0.9 -3.8,0.9 -1.4,0.1 -2.7,-0.2 -3.8,-0.9 z m 6.5,-1.4 c 0.8,-0.5 1.4,-1.1 1.9,-2 0.5,-0.9 0.7,-1.8 0.7,-2.9 0,-1.1 -0.2,-2.1 -0.7,-2.9 -0.5,-0.9 -1.1,-1.5 -1.9,-2 -0.8,-0.5 -1.7,-0.7 -2.8,-0.7 -1,0 -1.9,0.2 -2.8,0.7 -0.8,0.5 -1.5,1.1 -1.9,2 -0.5,0.9 -0.7,1.8 -0.7,2.9 0,1.1 0.2,2.1 0.7,2.9 0.5,0.9 1.1,1.5 1.9,2 0.8,0.5 1.7,0.7 2.8,0.7 1.1,0 2,-0.3 2.8,-0.7 z"
   id="path113" />
		<path
   d="m 1096.4,830.6 c 1.1,1.1 1.6,2.6 1.6,4.6 v 8.4 h -1.9 v -8.2 c 0,-1.5 -0.4,-2.6 -1.1,-3.4 -0.7,-0.8 -1.8,-1.2 -3.2,-1.2 -1.6,0 -2.8,0.5 -3.7,1.4 -0.9,0.9 -1.4,2.2 -1.4,3.8 v 7.6 h -1.9 v -14.4 h 1.9 v 2.7 c 0.5,-0.9 1.3,-1.6 2.2,-2 0.9,-0.5 2,-0.7 3.3,-0.7 1.7,-0.2 3.1,0.3 4.2,1.4 z"
   id="path115" />
	</g>
	<polyline
   class="st1"
   points="263.7,650.8 320.9,650.8 621.6,102.5 739.1,650.8 828.6,650.8  "
   id="polyline119" />
	<line
   class="st2"
   x1="828.59998"
   y1="637.29999"
   x2="828.59998"
   y2="664.70001"
   id="line121" />
	<line
   class="st3"
   x1="214.7"
   y1="614.70001"
   x2="309.29999"
   y2="614.70001"
   id="line123" />
	<line
   class="st3"
   x1="764.29999"
   y1="614.70001"
   x2="858.90002"
   y2="614.70001"
   id="line125" />
	<line
   class="st3"
   x1="522"
   y1="252.60001"
   x2="412.60001"
   y2="447.89999"
   id="line127" />
	<line
   class="st3"
   x1="571.70001"
   y1="64.300003"
   x2="704.5"
   y2="64.300003"
   id="line129" />
	<line
   class="st3"
   x1="663.59998"
   y1="206.10001"
   x2="721.29999"
   y2="459.89999"
   id="line131" />
	<polyline
   class="st4"
   points="156,835.5 286.8,835.5 286.8,683.2  "
   id="polyline133" />
	<polyline
   class="st4"
   points="256,619.9 256,629 -0.5,629  "
   id="polyline135" />
	<polyline
   class="st4"
   points="0.5,216.2 399.9,216.2 470.9,321.8  "
   id="polyline137" />
	<polyline
   class="st4"
   points="0.5,9.8 634.3,9.8 634.3,48.2  "
   id="polyline139" />
	<polyline
   class="st4"
   points="188.8,422.6 389.6,422.6 490.8,376.6  "
   id="polyline141" />
	<polyline
   class="st4"
   points="961.4,13 761.7,13 626,95.6  "
   id="polyline143" />
	<polyline
   class="st4"
   points="1103,216.2 790.6,216.2 696.1,302.8  "
   id="polyline145" />
	<polyline
   class="st4"
   points="912.3,422.6 756,422.6 651.3,331.8  "
   id="polyline147" />
	<polyline
   class="st4"
   points="811.6,619.9 811.6,629 1103,629  "
   id="polyline149" />
	<polyline
   class="st4"
   points="790.1,664.7 790.1,835.5 950.8,835.5  "
   id="polyline151" />
	<circle
   cx="263.70001"
   cy="650.79999"
   id="ellipse153"
   r="12.9" />
</g>
</svg>
