<?xml version="1.0" encoding="utf-8"?>
<!-- Generator: Adobe Illustrator 23.1.1, SVG Export Plug-In . SVG Version: 6.00 Build 0)  -->
<svg version="1.1" id="Layer_1" xmlns="http://www.w3.org/2000/svg" xmlns:xlink="http://www.w3.org/1999/xlink" x="0px" y="0px"
	 viewBox="0 0 534 119.4" style="enable-background:new 0 0 534 119.4;" xml:space="preserve">
<style type="text/css">
	.st0{fill:#001936;}
	.st1{fill:#FFFFFF;}
</style>
<g>
	<path class="st0" d="M534,95.4c0,13.2-10.8,24-24,24H24c-13.2,0-24-10.8-24-24V24C0,10.8,10.8,0,24,0h486c13.2,0,24,10.8,24,24
		V95.4z"/>
</g>
<g>
	<polygon class="st1" points="470.9,27.9 470.9,35 495.7,59.7 470.9,84.5 470.9,91.5 502.7,59.7 	"/>
	<g>
		<path class="st1" d="M52.1,44.3V75h-8.5V44.3H32.8v-7.3h30v7.3H52.1z"/>
		<path class="st1" d="M93.6,70.7c-3.3,3.1-7.2,4.7-11.6,4.7c-4.4,0-8.1-1.4-11-4.1c-2.9-2.7-4.4-6.4-4.4-11c0-4.6,1.5-8.3,4.4-11
			c3-2.7,6.4-4.1,10.5-4.1c4,0,7.4,1.2,10.3,3.6c2.8,2.4,4.2,5.8,4.2,10v4.4H74.6c0.3,1.6,1.1,2.9,2.5,3.9c1.4,1,3,1.5,4.8,1.5
			c2.9,0,5.2-1,7.1-2.9L93.6,70.7z M85.7,53.4c-1.1-0.9-2.5-1.4-4.1-1.4c-1.6,0-3.1,0.5-4.4,1.5c-1.3,1-2.1,2.3-2.3,4h12.8
			C87.5,55.7,86.9,54.3,85.7,53.4z"/>
		<path class="st1" d="M123.9,65.9c0,2.9-1.1,5.2-3.2,6.9s-4.8,2.6-8.1,2.6c-2.2,0-4.4-0.4-6.8-1.2c-2.4-0.8-4.5-1.9-6.4-3.5
			l3.6-5.1c3,2.4,6.3,3.5,9.7,3.5c1.1,0,1.9-0.2,2.5-0.6c0.6-0.4,0.9-1,0.9-1.7c0-0.7-0.4-1.3-1.3-1.9c-0.9-0.6-2.1-1.1-3.7-1.6
			c-1.6-0.5-2.8-0.9-3.7-1.3c-0.9-0.4-1.8-0.9-2.9-1.6c-2.2-1.4-3.3-3.4-3.3-6.1c0-2.7,1.1-4.9,3.3-6.6c2.2-1.7,5-2.6,8.4-2.6
			c3.4,0,6.9,1.2,10.3,3.5l-3,5.4c-2.5-1.7-5.1-2.6-7.6-2.6c-2.5,0-3.8,0.7-3.8,2.1c0,0.8,0.4,1.4,1.2,1.8c0.8,0.4,2.1,0.9,4,1.5
			c1.9,0.6,3.2,1,3.9,1.3c0.8,0.3,1.7,0.8,2.8,1.4C122.9,60.9,123.9,63,123.9,65.9z"/>
		<path class="st1" d="M139.7,51.6v13.1c0,1.1,0.3,2,0.9,2.6c0.6,0.6,1.3,1,2.1,1c1.5,0,2.8-0.7,3.9-2.1l3,5.7
			c-2.5,2.3-5.2,3.5-8,3.5c-2.8,0-5.2-0.9-7.1-2.8c-1.9-1.9-2.9-4.4-2.9-7.6V51.6H128v-5.9h3.4v-8.8h8.2v8.8h7.1v5.9H139.7z"/>
		<path class="st1" d="M173.3,86.5c-2.9,0-5.6-1.2-8.1-3.5l3.7-6c1.4,1.3,2.8,2,4.2,2c0.8,0,1.4-0.4,2-1.1c0.5-0.7,0.8-1.5,0.8-2.4
			c0-0.8-3.8-10.8-11.3-29.8h8.7l7.1,18.2l7.1-18.2h8.7l-13.6,34.5c-0.8,2-2,3.5-3.7,4.7C177.2,86,175.4,86.5,173.3,86.5z"/>
		<path class="st1" d="M228.9,60.3c0,4.2-1.5,7.8-4.4,10.7c-2.9,2.9-6.6,4.4-11.1,4.4c-4.4,0-8.1-1.5-11.1-4.4
			c-2.9-2.9-4.4-6.5-4.4-10.7c0-4.2,1.5-7.8,4.4-10.7c2.9-2.9,6.6-4.4,11.1-4.4c4.4,0,8.1,1.5,11.1,4.4
			C227.4,52.5,228.9,56.1,228.9,60.3z M206.2,60.3c0,2.4,0.7,4.3,2,5.8c1.4,1.5,3.1,2.3,5.2,2.3s3.9-0.8,5.2-2.3
			c1.4-1.5,2-3.5,2-5.8c0-2.4-0.7-4.4-2-5.9s-3.1-2.3-5.2-2.3s-3.9,0.8-5.2,2.3S206.2,57.9,206.2,60.3z"/>
		<path class="st1" d="M253.8,61.5V45.7h8.2V75h-8.2v-3.9c-2,2.9-4.7,4.3-7.9,4.3c-3.2,0-5.9-1-8.1-3c-2.2-2-3.3-5-3.3-9V45.7h8.2
			v15.9c0,4.5,1.6,6.7,5,6.7c1.6,0,3-0.6,4.2-1.8C253.2,65.4,253.8,63.7,253.8,61.5z"/>
		<path class="st1" d="M285.2,52.9c-2.4,0-4.2,0.9-5.4,2.6c-1.2,1.7-1.8,4-1.8,6.8V75h-8.2V45.7h8.2v3.9c1.1-1.2,2.4-2.2,3.9-3
			c1.6-0.8,3.2-1.3,4.8-1.3l0.1,7.7H285.2z"/>
		<path class="st1" d="M316.2,44.5c-0.8,0.7-1.2,1.6-1.2,2.7c0,1.1,0.5,2,1.5,2.6c1,0.7,3.3,1.4,6.9,2.3c3.6,0.9,6.4,2.2,8.4,4
			c2,1.8,3,4.4,3,7.8c0,3.4-1.3,6.2-3.8,8.3s-5.9,3.2-10.1,3.2c-6,0-11.4-2.2-16.3-6.7l5.1-6.2c4.1,3.6,7.9,5.4,11.4,5.4
			c1.6,0,2.8-0.3,3.7-1c0.9-0.7,1.3-1.6,1.3-2.7c0-1.1-0.5-2-1.4-2.7c-0.9-0.7-2.8-1.4-5.6-2c-4.4-1.1-7.7-2.4-9.7-4.1
			c-2-1.7-3.1-4.3-3.1-7.9c0-3.6,1.3-6.4,3.9-8.4s5.8-2.9,9.7-2.9c2.5,0,5.1,0.4,7.6,1.3s4.8,2.1,6.6,3.7l-4.3,6.2
			c-3.3-2.5-6.7-3.8-10.2-3.8C318.1,43.5,317,43.9,316.2,44.5z"/>
		<path class="st1" d="M349.4,75h-8.2V34.6h8.2v20.7l9.1-9.7h10.3l-11.2,11.9L369.2,75h-9.7L352,63.8l-2.7,2.8V75z"/>
		<path class="st1" d="M374.3,42c-0.9-0.9-1.4-2.1-1.4-3.4c0-1.3,0.5-2.5,1.4-3.4c0.9-0.9,2.1-1.4,3.4-1.4c1.3,0,2.5,0.5,3.4,1.4
			c0.9,0.9,1.4,2.1,1.4,3.4c0,1.3-0.5,2.5-1.4,3.4c-0.9,0.9-2.1,1.4-3.4,1.4C376.3,43.4,375.2,42.9,374.3,42z M381.8,75h-8.2V45.7
			h8.2V75z"/>
		<path class="st1" d="M397.6,75h-8.2V34.6h8.2V75z"/>
		<path class="st1" d="M413.5,75h-8.2V34.6h8.2V75z"/>
		<path class="st1" d="M443.3,65.9c0,2.9-1.1,5.2-3.2,6.9s-4.8,2.6-8.1,2.6c-2.2,0-4.4-0.4-6.8-1.2c-2.4-0.8-4.5-1.9-6.4-3.5
			l3.6-5.1c3,2.4,6.3,3.5,9.7,3.5c1.1,0,1.9-0.2,2.5-0.6c0.6-0.4,0.9-1,0.9-1.7c0-0.7-0.4-1.3-1.3-1.9c-0.9-0.6-2.1-1.1-3.7-1.6
			c-1.6-0.5-2.8-0.9-3.7-1.3c-0.9-0.4-1.8-0.9-2.9-1.6c-2.2-1.4-3.3-3.4-3.3-6.1c0-2.7,1.1-4.9,3.3-6.6c2.2-1.7,5-2.6,8.4-2.6
			c3.4,0,6.9,1.2,10.3,3.5l-3,5.4c-2.5-1.7-5.1-2.6-7.6-2.6s-3.8,0.7-3.8,2.1c0,0.8,0.4,1.4,1.2,1.8c0.8,0.4,2.1,0.9,4,1.5
			c1.9,0.6,3.2,1,3.9,1.3c0.8,0.3,1.7,0.8,2.8,1.4C442.3,60.9,443.3,63,443.3,65.9z"/>
	</g>
</g>
</svg>
