<svg id="noun_Check_3496109" xmlns="http://www.w3.org/2000/svg" width="38.079" height="38.079" viewBox="0 0 38.079 38.079">
  <g id="Layer_2" data-name="Layer 2" transform="translate(0 0)">
    <path id="Path_7" data-name="Path 7" d="M20.039,39.079A19.039,19.039,0,1,0,1,20.039,19.039,19.039,0,0,0,20.039,39.079ZM10.156,20.541a1.731,1.731,0,0,1,2.44,0l3.981,3.981L26.6,14.5a1.731,1.731,0,0,1,2.44,2.44l-11.25,11.25a1.731,1.731,0,0,1-2.44,0L10.156,23a1.731,1.731,0,0,1,0-2.458Z" transform="translate(-1 -1)" fill="#007961"/>
  </g>
</svg>
