<svg id="noun_Close_752308" xmlns="http://www.w3.org/2000/svg" width="37.97" height="37.97" viewBox="0 0 37.97 37.97">
  <path id="Path_13" data-name="Path 13" d="M28.385,47.87A18.985,18.985,0,1,1,47.37,28.885,19.013,19.013,0,0,1,28.385,47.87Zm8.048-10.936a1.886,1.886,0,0,0,0-2.7l-5.35-5.35,5.35-5.35a1.908,1.908,0,0,0-2.7-2.7l-5.35,5.35-5.35-5.35a1.908,1.908,0,0,0-2.7,2.7l5.35,5.35-5.35,5.35a1.908,1.908,0,1,0,2.7,2.7l5.35-5.35,5.35,5.35A1.886,1.886,0,0,0,36.433,36.933Z" transform="translate(-9.4 -9.9)" fill="#cd5849" fill-rule="evenodd"/>
</svg>
