<svg id="Group_644" data-name="Group 644" xmlns="http://www.w3.org/2000/svg" width="37.703" height="37.703" viewBox="0 0 37.703 37.703">
  <circle id="Ellipse_78" data-name="Ellipse 78" cx="13.5" cy="13.5" r="13.5" transform="translate(5.768 6)" fill="#fff"/>
  <g id="noun_Close_752308" transform="translate(0)">
    <path id="Path_13" data-name="Path 13" d="M28.251,47.6A18.851,18.851,0,1,1,47.1,28.751,18.88,18.88,0,0,1,28.251,47.6Zm7.992-10.86a1.873,1.873,0,0,0,0-2.68l-5.312-5.312,5.312-5.312a1.895,1.895,0,0,0-2.68-2.68l-5.312,5.312L22.939,20.76a1.895,1.895,0,0,0-2.68,2.68l5.312,5.312L20.26,34.064a1.895,1.895,0,0,0,2.68,2.68l5.312-5.312,5.312,5.312A1.873,1.873,0,0,0,36.243,36.743Z" transform="translate(-9.4 -9.9)" fill="#cd594b" fill-rule="evenodd"/>
  </g>
</svg>
