<svg xmlns="http://www.w3.org/2000/svg" width="23.812" height="23.812" viewBox="0 0 23.812 23.812"><ellipse cx="8" cy="8.5" rx="8" ry="8.5" transform="translate(3.881 3.472)" fill="#fff"/><g transform="translate(0 0)"><path d="M21.306,33.712A11.906,11.906,0,1,1,33.212,21.806,11.924,11.924,0,0,1,21.306,33.712Zm5.048-6.859a1.183,1.183,0,0,0,0-1.692L23,21.806l3.355-3.355a1.2,1.2,0,0,0-1.692-1.692l-3.355,3.355-3.355-3.355a1.2,1.2,0,0,0-1.692,1.692l3.355,3.355-3.355,3.355a1.2,1.2,0,1,0,1.692,1.692L21.306,23.5l3.355,3.355A1.183,1.183,0,0,0,26.354,26.854Z" transform="translate(-9.4 -9.9)" fill="#cd594b" fill-rule="evenodd"/></g></svg>