<svg xmlns="http://www.w3.org/2000/svg" width="22.637" height="22.637" viewBox="0 0 22.637 22.637"><circle cx="8.5" cy="8.5" r="8.5" transform="translate(2.365 2.579)" fill="#fff"/><g transform="translate(0 0)"><path d="M12.318,23.637A11.318,11.318,0,1,0,1,12.318,11.318,11.318,0,0,0,12.318,23.637ZM6.443,12.617a1.029,1.029,0,0,1,1.451,0l2.367,2.367,5.958-5.958a1.029,1.029,0,0,1,1.451,1.451l-6.688,6.688a1.029,1.029,0,0,1-1.451,0L6.443,14.078a1.029,1.029,0,0,1,0-1.461Z" transform="translate(-1 -1)" fill="#4b9e65"/></g></svg>