<?xml version="1.0" encoding="utf-8"?>
<!-- Generator: Adobe Illustrator 26.5.0, SVG Export Plug-In . SVG Version: 6.00 Build 0)  -->
<svg version="1.1" id="Layer_3" xmlns="http://www.w3.org/2000/svg" xmlns:xlink="http://www.w3.org/1999/xlink" x="0px" y="0px"
	 viewBox="0 0 674.9 679.1" style="enable-background:new 0 0 674.9 679.1;" xml:space="preserve">
<style type="text/css">
	.st0{fill:none;}
	.st1{fill:#FFF200;}
	.st2{fill:#086635;}
	.st3{fill:#FF924A;}
	.st4{fill:#016BD1;}
	.st5{fill:#ED1C24;}
	.st6{fill:#6200E0;}
	.st7{fill:none;stroke:#FFFFFF;stroke-miterlimit:10;}
	.st8{stroke:#000000;stroke-miterlimit:10;}
	.st9{fill:#FFFFFF;stroke:#000000;stroke-width:2;stroke-miterlimit:10;}
	.st10{fill:none;stroke:#000000;stroke-width:2;stroke-miterlimit:10;}
	.st11{stroke:#5E6062;stroke-width:2;stroke-miterlimit:10;}
	.st12{fill:#FFFFFF;}
</style>
<g>
	<polygon class="st0" points="334,358.4 334,358.4 334,358.4 	"/>
	<path class="st1" d="M424.2,202.1c-26.7-15.6-57.8-24.5-91-24.5c-32.7,0-63.4,8.7-89.9,23.9L334,358.4L424.2,202.1z"/>
	<path class="st2" d="M334,358.4l-90.6-156.9c-54.3,31.2-90.9,89.8-90.9,156.9H334L334,358.4z"/>
	<path class="st3" d="M424.2,202.1L334,358.4l0,0h180.1C514.1,291.7,478,233.4,424.2,202.1z"/>
	<path class="st4" d="M152.4,358.4c0,67.2,36.6,125.8,90.9,156.9L334,358.4H152.4z"/>
	<path class="st5" d="M424.2,514.7c53.7-31.3,89.9-89.6,89.9-156.3H334L424.2,514.7z"/>
	<path class="st6" d="M334,358.4l-90.6,156.9c26.5,15.2,57.2,23.9,89.9,23.9c33.2,0,64.2-8.9,91-24.5L334,358.4L334,358.4z"/>
	<line class="st7" x1="243.4" y1="201.4" x2="334" y2="358.4"/>
	<line class="st7" x1="424.2" y1="202.1" x2="334" y2="358.4"/>
	<line class="st7" x1="514.1" y1="358.4" x2="334" y2="358.4"/>
	<line class="st7" x1="424.2" y1="514.7" x2="334" y2="358.4"/>
	<line class="st7" x1="243.4" y1="515.3" x2="334" y2="358.4"/>
	<line class="st7" x1="152.4" y1="358.4" x2="334" y2="358.4"/>
	<circle class="st8" cx="595.8" cy="306.6" r="43.2"/>
	<circle class="st9" cx="70.8" cy="306.6" r="43.2"/>
	<polyline class="st10" points="14.5,72.9 85.2,72.9 320,197.4 	"/>
	<polyline class="st10" points="10.6,443.6 84.7,443.6 84.7,333.6 	"/>
	<polyline class="st10" points="15.8,233.6 92.4,233.6 189.5,283.9 	"/>
	<polyline class="st10" points="19,604.3 111.9,604.3 207,448.8 	"/>
	<polyline class="st10" points="674.9,72.9 572,72.9 461.3,256.8 	"/>
	<polyline class="st10" points="674.9,443.6 577.7,443.6 493.2,410.3 	"/>
	<polyline class="st10" points="657,222.3 592,222.3 592,273.7 	"/>
	<polyline class="st10" points="663.1,605.5 546.6,605.5 356.1,515.3 	"/>
</g>
<g>
	<circle class="st11" cx="642.4" cy="72.9" r="31.4"/>
	<g>
		<path class="st12" d="M653.5,78.2c0,5.1-3.7,9.5-11.9,9.5c-4,0-8.2-1.1-10.9-3.1l2.6-5.1c2.2,1.6,5.2,2.6,8.2,2.6
			c3.3,0,5.4-1.4,5.4-3.7c0-2.3-1.5-3.7-6.7-3.7h-7.3l1.5-16.2h17.5v5.3h-12l-0.5,5.5h2.3C650.2,69.3,653.5,73.1,653.5,78.2z"/>
	</g>
</g>
<g>
	<circle class="st11" cx="32.5" cy="72.9" r="31.4"/>
	<g>
		<path class="st12" d="M37.1,58.5v28.7h-6.6V63.9h-5.7v-5.3H37.1z"/>
	</g>
</g>
<g>
	<circle class="st11" cx="32.5" cy="233.6" r="31.4"/>
	<g>
		<path class="st12" d="M43.4,242.6v5.4H21.7v-4.3l11.1-10.5c2.5-2.4,3-3.9,3-5.3c0-2.3-1.6-3.6-4.6-3.6c-2.5,0-4.6,0.9-5.9,2.9
			l-4.8-3.1c2.2-3.2,6.2-5.3,11.4-5.3c6.4,0,10.7,3.3,10.7,8.5c0,2.8-0.8,5.3-4.8,9.1l-6.6,6.2H43.4z"/>
	</g>
</g>
<g>
	<circle class="st11" cx="32.5" cy="441.7" r="31.4"/>
	<g>
		<path class="st12" d="M43.1,447.3c0,4.8-3.7,9.3-11.9,9.3c-4,0-8.2-1.1-10.9-3.1l2.6-5.1c2.2,1.6,5.2,2.6,8.2,2.6
			c3.3,0,5.4-1.4,5.4-3.7c0-2.2-1.6-3.5-5.4-3.5h-3v-4.4l5.9-6.7H21.7v-5.3h20.1v4.3l-6.5,7.4C40.5,439.8,43.1,443,43.1,447.3z"/>
	</g>
</g>
<g>
	<circle class="st11" cx="32.5" cy="604.3" r="31.4"/>
	<g>
		<path class="st12" d="M46.2,612.6h-4.7v6h-6.5v-6H19.6v-4.5l13.5-18.2h7l-12.5,17.3h7.7v-5.4h6.3v5.4h4.7V612.6z"/>
	</g>
</g>
<g>
	<circle class="st11" cx="642.4" cy="222.3" r="31.4"/>
	<g>
		<path class="st12" d="M654.7,227.6c0,5.9-4.8,9.6-10.9,9.6c-7.9,0-12.8-5-12.8-14.2c0-9.9,6-15.5,14.6-15.5c3,0,6,0.7,8,2
			l-2.5,4.9c-1.6-1.1-3.4-1.4-5.4-1.4c-4.8,0-7.9,2.8-8.1,8.3c1.7-1.7,4.1-2.5,7.1-2.5C650.3,218.6,654.7,222.1,654.7,227.6z
			 M648.2,227.9c0-2.6-1.9-4.3-4.9-4.3c-2.9,0-5,1.8-5,4.3c0,2.5,1.8,4.3,5,4.3C646.3,232.1,648.2,230.5,648.2,227.9z"/>
	</g>
</g>
<g>
	<circle class="st11" cx="642.4" cy="443.6" r="31.4"/>
	<g>
		<path class="st12" d="M653.8,429.2v4.3l-10.7,24.4h-7.2l10.3-23.3h-9.5v4.7h-5.9v-10.1H653.8z"/>
	</g>
</g>
<g>
	<circle class="st11" cx="642.4" cy="604.3" r="31.4"/>
	<g>
		<path class="st12" d="M654.5,610.3c0,5.4-4.8,8.8-12.1,8.8c-7.3,0-12.1-3.4-12.1-8.8c0-3.1,1.6-5.4,4.3-6.8
			c-2.1-1.3-3.3-3.3-3.3-5.9c0-5,4.5-8.2,11-8.2c6.6,0,11.1,3.2,11.1,8.2c0,2.6-1.2,4.6-3.4,5.9C652.9,605,654.5,607.2,654.5,610.3z
			 M647.8,610.1c0-2.5-2.1-4.1-5.4-4.1c-3.3,0-5.3,1.6-5.3,4.1s2,4.1,5.3,4.1C645.7,614.3,647.8,612.7,647.8,610.1z M638,597.9
			c0,2.2,1.7,3.5,4.4,3.5c2.7,0,4.5-1.4,4.5-3.5c0-2.3-1.8-3.6-4.5-3.6C639.7,594.3,638,595.7,638,597.9z"/>
	</g>
</g>
</svg>
