<?xml version="1.0" encoding="utf-8"?>
<!-- Generator: Adobe Illustrator 26.5.0, SVG Export Plug-In . SVG Version: 6.00 Build 0)  -->
<svg version="1.1" id="Layer_3" xmlns="http://www.w3.org/2000/svg" xmlns:xlink="http://www.w3.org/1999/xlink" x="0px" y="0px"
	 viewBox="0 0 222.6 173.9" style="enable-background:new 0 0 222.6 173.9;" xml:space="preserve">
<style type="text/css">
	.st0{fill:#FFFFFF;stroke:#5E6062;stroke-width:2;stroke-miterlimit:10;}
	.st1{stroke:#5E6062;stroke-width:2;stroke-miterlimit:10;}
	.st2{fill:#FFFFFF;}
</style>
<path class="st0" d="M221.6,1v160.4c0,4.4-3.6,8-8,8H12.5c-4.4,0-8-3.6-8-8V1H221.6z"/>
<g>
	<circle class="st1" cx="20.8" cy="153.1" r="19.8"/>
	<g>
		<path class="st2" d="M27.5,156.7c0,3.1-2.4,5.9-7.5,5.9c-2.5,0-5.2-0.7-6.9-2l1.6-3.2c1.4,1,3.3,1.6,5.2,1.6
			c2.1,0,3.4-0.9,3.4-2.3c0-1.4-1-2.2-3.4-2.2h-1.9v-2.8l3.7-4.2h-7.7V144h12.7v2.7l-4.1,4.7C25.8,152,27.5,154,27.5,156.7z"/>
	</g>
</g>
</svg>
