<?xml version="1.0" encoding="utf-8"?>
<!-- Generator: Adobe Illustrator 26.5.0, SVG Export Plug-In . SVG Version: 6.00 Build 0)  -->
<svg version="1.1" id="Layer_3" xmlns="http://www.w3.org/2000/svg" xmlns:xlink="http://www.w3.org/1999/xlink" x="0px" y="0px"
	 viewBox="0 0 222.6 173.9" style="enable-background:new 0 0 222.6 173.9;" xml:space="preserve">
<style type="text/css">
	.st0{stroke:#5E6062;stroke-width:2;stroke-miterlimit:10;}
	.st1{fill:#FFFFFF;}
</style>
<path class="st0" d="M221.6,1v160.4c0,4.4-3.6,8-8,8H12.5c-4.4,0-8-3.6-8-8V1H221.6z"/>
<g>
	<circle class="st0" cx="20.8" cy="153.1" r="19.8"/>
	<g>
		<path class="st1" d="M28.5,156.5c0,3.7-3,6.1-6.9,6.1c-5,0-8.1-3.1-8.1-9c0-6.3,3.8-9.8,9.3-9.8c1.9,0,3.8,0.4,5.1,1.2l-1.6,3.1
			c-1-0.7-2.2-0.9-3.4-0.9c-3,0-5,1.8-5.1,5.3c1.1-1.1,2.6-1.6,4.5-1.6C25.8,150.8,28.5,153.1,28.5,156.5z M24.4,156.7
			c0-1.7-1.2-2.7-3.1-2.7c-1.8,0-3.1,1.1-3.1,2.7c0,1.6,1.2,2.7,3.2,2.7C23.2,159.4,24.4,158.4,24.4,156.7z"/>
	</g>
</g>
</svg>
