<?xml version="1.0" encoding="utf-8"?>
<!-- Generator: Adobe Illustrator 26.5.0, SVG Export Plug-In . SVG Version: 6.00 Build 0)  -->
<svg version="1.1" id="Layer_3" xmlns="http://www.w3.org/2000/svg" xmlns:xlink="http://www.w3.org/1999/xlink" x="0px" y="0px"
	 viewBox="0 0 222.6 173.9" style="enable-background:new 0 0 222.6 173.9;" xml:space="preserve">
<style type="text/css">
	.st0{fill:#6200E0;stroke:#5E6062;stroke-width:2;stroke-miterlimit:10;}
	.st1{stroke:#5E6062;stroke-width:2;stroke-miterlimit:10;}
	.st2{fill:#FFFFFF;}
</style>
<path class="st0" d="M221.6,1v160.4c0,4.4-3.6,8-8,8H12.5c-4.4,0-8-3.6-8-8V1H221.6z"/>
<g>
	<circle class="st1" cx="20.8" cy="153.1" r="19.8"/>
	<g>
		<path class="st2" d="M28.4,157c0,3.4-3.1,5.6-7.7,5.6c-4.6,0-7.6-2.2-7.6-5.6c0-1.9,1-3.4,2.8-4.3c-1.4-0.8-2.1-2.1-2.1-3.7
			c0-3.2,2.9-5.2,7-5.2c4.2,0,7,2,7,5.2c0,1.6-0.8,2.9-2.1,3.7C27.4,153.6,28.4,155,28.4,157z M24.2,156.8c0-1.6-1.3-2.6-3.4-2.6
			c-2.1,0-3.4,1-3.4,2.6s1.3,2.6,3.4,2.6C22.8,159.5,24.2,158.5,24.2,156.8z M17.9,149.1c0,1.4,1.1,2.2,2.8,2.2
			c1.7,0,2.9-0.9,2.9-2.2c0-1.4-1.1-2.3-2.9-2.3C19,146.8,17.9,147.7,17.9,149.1z"/>
	</g>
</g>
</svg>
