<?xml version="1.0" encoding="utf-8"?>
<!-- Generator: Adobe Illustrator 26.5.0, SVG Export Plug-In . SVG Version: 6.00 Build 0)  -->
<svg version="1.1" id="Layer_3" xmlns="http://www.w3.org/2000/svg" xmlns:xlink="http://www.w3.org/1999/xlink" x="0px" y="0px"
	 viewBox="0 0 222.6 173.9" style="enable-background:new 0 0 222.6 173.9;" xml:space="preserve">
<style type="text/css">
	.st0{fill:#086635;stroke:#5E6062;stroke-width:2;stroke-miterlimit:10;}
	.st1{stroke:#5E6062;stroke-width:2;stroke-miterlimit:10;}
	.st2{fill:#FFFFFF;}
</style>
<path class="st0" d="M221.6,1v160.4c0,4.4-3.6,8-8,8H12.5c-4.4,0-8-3.6-8-8V1H221.6z"/>
<g>
	<circle class="st1" cx="20.8" cy="153.1" r="19.8"/>
	<g>
		<path class="st2" d="M27.7,158.8v3.4H13.9v-2.7l7-6.6c1.6-1.5,1.9-2.5,1.9-3.4c0-1.4-1-2.3-2.9-2.3c-1.6,0-2.9,0.6-3.8,1.8l-3.1-2
			c1.4-2.1,4-3.4,7.2-3.4c4.1,0,6.8,2.1,6.8,5.4c0,1.8-0.5,3.4-3,5.7l-4.2,4H27.7z"/>
	</g>
</g>
</svg>
