<svg xmlns="http://www.w3.org/2000/svg" width="18.314" height="18.314" viewBox="0 0 18.314 18.314">
  <g id="Group_703" data-name="Group 703" transform="translate(-1862.629 -37.556)">
    <circle id="Ellipse_209" data-name="Ellipse 209" cx="6.5" cy="6.5" r="6.5" transform="translate(1865 40)" fill="#fff"/>
    <g id="noun_Close_752308" transform="translate(1862.629 37.556)">
      <path id="Path_13" data-name="Path 13" d="M18.557,28.214a9.157,9.157,0,1,1,9.157-9.157A9.171,9.171,0,0,1,18.557,28.214Zm3.882-5.275a.91.91,0,0,0,0-1.3l-2.58-2.58,2.58-2.58a.92.92,0,0,0-1.3-1.3l-2.58,2.58-2.58-2.58a.92.92,0,0,0-1.3,1.3l2.58,2.58-2.58,2.58a.92.92,0,1,0,1.3,1.3l2.58-2.58,2.58,2.58A.91.91,0,0,0,22.439,22.939Z" transform="translate(-9.4 -9.9)" fill="#cd594b" fill-rule="evenodd"/>
    </g>
  </g>
</svg>
