<svg xmlns="http://www.w3.org/2000/svg" width="35.841" height="35.841" viewBox="0 0 35.841 35.841">
  <g id="Group_638" data-name="Group 638" transform="translate(0 0)">
    <ellipse id="Ellipse_79" data-name="Ellipse 79" cx="13.449" cy="13.449" rx="13.449" ry="13.449" transform="translate(4.483 4.105)" fill="#fff"/>
    <g id="noun_Check_3496109" transform="translate(0 0)">
      <g id="Layer_2" data-name="Layer 2" transform="translate(0 0)">
        <path id="Path_7" data-name="Path 7" d="M18.921,36.841A17.92,17.92,0,1,0,1,18.92a17.921,17.921,0,0,0,17.921,17.92Zm-9.3-17.448a1.629,1.629,0,0,1,2.3,0l3.747,3.747L25.1,13.707a1.629,1.629,0,0,1,2.3,2.3L16.8,26.594a1.629,1.629,0,0,1-2.3,0L9.618,21.706a1.629,1.629,0,0,1,0-2.313Z" transform="translate(-1 -1)" fill="#4b9e65"/>
      </g>
    </g>
  </g>
</svg>
