<?xml version="1.0" encoding="utf-8"?>
<!-- Generator: Adobe Illustrator 26.5.0, SVG Export Plug-In . SVG Version: 6.00 Build 0)  -->
<svg version="1.1" id="Layer_3" xmlns="http://www.w3.org/2000/svg" xmlns:xlink="http://www.w3.org/1999/xlink" x="0px" y="0px"
	 viewBox="0 0 219.1 170.4" style="enable-background:new 0 0 219.1 170.4;" xml:space="preserve">
<style type="text/css">
	.st0{fill:#FFFFFF;stroke:#5E6062;stroke-width:2;stroke-miterlimit:10;}
	.st1{fill:#5E6062;}
</style>
<path class="st0" d="M218.1,1v160.4c0,4.4-3.6,8-8,8H9c-4.4,0-8-3.6-8-8V1H218.1z"/>
<g>
	<path class="st1" d="M25.4,57.6c1.2,0,2,0.3,2.6,0.9c0.6,0.6,0.9,1.4,0.9,2.5s-0.3,1.9-0.9,2.5c-0.6,0.6-1.5,0.9-2.6,0.9h-3.5V69
		h-1.5V57.6H25.4z M24.9,63.1c0.9,0,1.5-0.2,1.9-0.5c0.4-0.4,0.6-0.9,0.6-1.6s-0.2-1.2-0.6-1.6s-1-0.5-1.9-0.5h-3v4.2H24.9z"/>
	<path class="st1" d="M30.5,61c0.2-0.7,0.6-1.4,1-1.9c0.5-0.6,1-1,1.7-1.3c0.7-0.3,1.5-0.5,2.4-0.5c0.9,0,1.7,0.2,2.4,0.5
		c0.7,0.3,1.3,0.8,1.7,1.3c0.5,0.6,0.8,1.2,1,1.9c0.2,0.7,0.3,1.5,0.3,2.2c0,0.8-0.1,1.5-0.3,2.2c-0.2,0.7-0.6,1.4-1,1.9
		s-1,1-1.7,1.3s-1.5,0.5-2.4,0.5c-0.9,0-1.7-0.2-2.4-0.5S32,68,31.5,67.5s-0.8-1.2-1-1.9c-0.2-0.7-0.3-1.5-0.3-2.2
		C30.1,62.5,30.3,61.8,30.5,61z M31.9,65c0.1,0.6,0.4,1.1,0.7,1.5c0.3,0.4,0.7,0.8,1.2,1.1c0.5,0.3,1.1,0.4,1.8,0.4s1.3-0.1,1.8-0.4
		c0.5-0.3,0.9-0.6,1.2-1.1c0.3-0.4,0.6-1,0.7-1.5c0.1-0.6,0.2-1.1,0.2-1.7c0-0.6-0.1-1.1-0.2-1.7c-0.1-0.6-0.4-1.1-0.7-1.5
		c-0.3-0.4-0.7-0.8-1.2-1.1c-0.5-0.3-1.1-0.4-1.8-0.4s-1.3,0.1-1.8,0.4c-0.5,0.3-0.9,0.6-1.2,1.1c-0.3,0.4-0.6,1-0.7,1.5
		c-0.1,0.6-0.2,1.1-0.2,1.7C31.7,63.9,31.7,64.4,31.9,65z"/>
	<path class="st1" d="M41.7,58.9v-1.3h9.1v1.3h-3.8V69h-1.5V58.9H41.7z"/>
	<path class="st1" d="M60.1,68.2c-0.8,0.7-1.9,1.1-3.3,1.1c-1.5,0-2.6-0.3-3.4-1s-1.2-1.8-1.2-3.3v-7.3h1.5v7.3c0,1,0.3,1.8,0.8,2.3
		c0.5,0.5,1.3,0.8,2.4,0.8c1,0,1.7-0.3,2.2-0.8c0.5-0.5,0.8-1.3,0.8-2.3v-7.3h1.5v7.3C61.2,66.3,60.9,67.4,60.1,68.2z"/>
	<path class="st1" d="M69.4,59.1c-0.5-0.4-1.2-0.6-1.9-0.6c-0.3,0-0.6,0-0.9,0.1c-0.3,0.1-0.6,0.2-0.8,0.3c-0.2,0.1-0.4,0.3-0.6,0.6
		s-0.2,0.6-0.2,0.9c0,0.4,0.1,0.6,0.3,0.9s0.5,0.4,0.8,0.5s0.7,0.3,1.2,0.3c0.4,0.1,0.9,0.2,1.3,0.3c0.5,0.1,0.9,0.2,1.3,0.4
		c0.4,0.1,0.8,0.3,1.2,0.6c0.3,0.2,0.6,0.6,0.8,0.9s0.3,0.8,0.3,1.4c0,0.6-0.1,1.1-0.4,1.6c-0.3,0.4-0.6,0.8-1,1.1s-0.9,0.5-1.4,0.6
		c-0.5,0.1-1.1,0.2-1.6,0.2c-0.6,0-1.2-0.1-1.8-0.2c-0.6-0.2-1.1-0.4-1.5-0.7c-0.4-0.3-0.8-0.7-1-1.2c-0.3-0.5-0.4-1.1-0.4-1.8h1.4
		c0,0.5,0.1,0.9,0.3,1.2s0.4,0.6,0.7,0.9c0.3,0.2,0.7,0.4,1.1,0.5c0.4,0.1,0.8,0.2,1.2,0.2c0.3,0,0.7,0,1-0.1
		c0.3-0.1,0.7-0.2,0.9-0.3c0.3-0.2,0.5-0.4,0.7-0.6c0.2-0.3,0.3-0.6,0.3-1c0-0.4-0.1-0.7-0.3-1c-0.2-0.2-0.5-0.4-0.8-0.6
		s-0.7-0.3-1.2-0.4c-0.4-0.1-0.9-0.2-1.3-0.3c-0.5-0.1-0.9-0.2-1.3-0.4c-0.4-0.1-0.8-0.3-1.2-0.5c-0.3-0.2-0.6-0.5-0.8-0.8
		s-0.3-0.8-0.3-1.3c0-0.6,0.1-1.1,0.4-1.5c0.2-0.4,0.5-0.8,0.9-1c0.4-0.3,0.8-0.5,1.3-0.6c0.5-0.1,1-0.2,1.5-0.2
		c0.6,0,1.1,0.1,1.6,0.2c0.5,0.1,0.9,0.4,1.3,0.7c0.4,0.3,0.7,0.7,0.9,1.1c0.2,0.5,0.3,1,0.4,1.6h-1.4
		C70.2,60.1,69.9,59.5,69.4,59.1z"/>
	<path class="st1" d="M79.7,60.7v1.1h0c0.2-0.5,0.6-0.8,1.1-1s1-0.3,1.6-0.3c0.6,0,1.2,0.1,1.7,0.4c0.5,0.2,0.9,0.6,1.2,1
		c0.3,0.4,0.6,0.9,0.7,1.4c0.2,0.5,0.2,1.1,0.2,1.7c0,0.6-0.1,1.1-0.2,1.7c-0.2,0.5-0.4,1-0.7,1.4c-0.3,0.4-0.7,0.7-1.2,0.9
		c-0.5,0.2-1,0.3-1.7,0.3c-0.2,0-0.4,0-0.7-0.1c-0.3,0-0.5-0.1-0.7-0.2c-0.2-0.1-0.5-0.2-0.7-0.4c-0.2-0.2-0.4-0.4-0.6-0.6h0v4.3
		h-1.4V60.7H79.7z M84.6,63.7c-0.1-0.4-0.3-0.7-0.5-1c-0.2-0.3-0.5-0.5-0.8-0.7c-0.3-0.2-0.7-0.3-1.1-0.3c-0.5,0-0.8,0.1-1.2,0.3
		c-0.3,0.2-0.6,0.4-0.8,0.7s-0.3,0.6-0.4,1c-0.1,0.4-0.1,0.8-0.1,1.1c0,0.4,0,0.8,0.1,1.2c0.1,0.4,0.2,0.7,0.5,1
		c0.2,0.3,0.5,0.5,0.8,0.7c0.3,0.2,0.7,0.3,1.2,0.3c0.5,0,0.9-0.1,1.2-0.3c0.3-0.2,0.6-0.4,0.8-0.7c0.2-0.3,0.3-0.6,0.4-1
		c0.1-0.4,0.1-0.8,0.1-1.2C84.7,64.4,84.7,64,84.6,63.7z"/>
	<path class="st1" d="M95.1,69c-0.2,0.1-0.6,0.2-1,0.2c-0.4,0-0.6-0.1-0.8-0.3s-0.3-0.5-0.3-1c-0.4,0.4-0.8,0.8-1.3,1
		s-1,0.3-1.6,0.3c-0.4,0-0.7,0-1.1-0.1c-0.3-0.1-0.6-0.2-0.9-0.4c-0.2-0.2-0.4-0.4-0.6-0.7s-0.2-0.6-0.2-1.1c0-0.5,0.1-0.9,0.2-1.2
		c0.2-0.3,0.4-0.5,0.6-0.7c0.3-0.2,0.6-0.3,0.9-0.4c0.3-0.1,0.7-0.2,1-0.2c0.4-0.1,0.7-0.1,1.1-0.2c0.3,0,0.6-0.1,0.9-0.2
		c0.3-0.1,0.5-0.2,0.6-0.3c0.1-0.1,0.2-0.3,0.2-0.6c0-0.3-0.1-0.5-0.2-0.7c-0.1-0.2-0.3-0.3-0.4-0.4c-0.2-0.1-0.4-0.2-0.6-0.2
		c-0.2,0-0.4,0-0.6,0c-0.6,0-1.1,0.1-1.4,0.3c-0.4,0.2-0.6,0.6-0.6,1.2h-1.4c0-0.5,0.1-0.9,0.3-1.3c0.2-0.4,0.4-0.6,0.8-0.9
		c0.3-0.2,0.7-0.4,1.1-0.5c0.4-0.1,0.9-0.1,1.3-0.1c0.4,0,0.7,0,1.1,0.1c0.4,0.1,0.7,0.2,1,0.3c0.3,0.2,0.5,0.4,0.7,0.7
		c0.2,0.3,0.3,0.7,0.3,1.2v4.2c0,0.3,0,0.6,0.1,0.7c0,0.1,0.2,0.2,0.4,0.2c0.1,0,0.3,0,0.4-0.1V69z M92.9,64.7
		c-0.2,0.1-0.4,0.2-0.7,0.3c-0.3,0.1-0.6,0.1-0.9,0.1c-0.3,0-0.6,0.1-0.9,0.1c-0.3,0-0.6,0.1-0.8,0.2c-0.2,0.1-0.4,0.3-0.6,0.5
		c-0.2,0.2-0.2,0.5-0.2,0.8c0,0.2,0,0.4,0.1,0.6s0.2,0.3,0.4,0.4c0.1,0.1,0.3,0.2,0.5,0.2c0.2,0,0.4,0.1,0.6,0.1
		c0.4,0,0.8-0.1,1.2-0.2s0.6-0.3,0.8-0.5s0.4-0.4,0.4-0.6s0.1-0.4,0.1-0.6V64.7z"/>
	<path class="st1" d="M97.6,60.7v1.7h0c0.3-0.7,0.7-1.2,1.2-1.5c0.5-0.3,1.1-0.5,1.8-0.4V62c-0.5,0-1,0.1-1.4,0.2
		c-0.4,0.1-0.7,0.4-0.9,0.7c-0.2,0.3-0.4,0.6-0.5,1c-0.1,0.4-0.2,0.9-0.2,1.4V69h-1.4v-8.3H97.6z"/>
	<path class="st1" d="M107.4,69v-1.1h0c-0.2,0.5-0.6,0.8-1.1,1c-0.5,0.2-1,0.3-1.6,0.3c-0.6,0-1.2-0.1-1.7-0.4
		c-0.5-0.2-0.9-0.5-1.2-0.9c-0.3-0.4-0.6-0.9-0.7-1.4c-0.2-0.5-0.2-1.1-0.2-1.7c0-0.6,0.1-1.1,0.2-1.7c0.2-0.5,0.4-1,0.7-1.4
		s0.7-0.7,1.2-0.9c0.5-0.2,1-0.3,1.7-0.3c0.2,0,0.4,0,0.7,0.1s0.5,0.1,0.7,0.2c0.2,0.1,0.5,0.2,0.7,0.4c0.2,0.2,0.4,0.4,0.6,0.6h0
		v-4.3h1.4V69H107.4z M102.5,66.1c0.1,0.4,0.3,0.7,0.5,1s0.5,0.5,0.8,0.7c0.3,0.2,0.7,0.3,1.1,0.3c0.5,0,0.8-0.1,1.2-0.3
		c0.3-0.2,0.6-0.4,0.8-0.7c0.2-0.3,0.3-0.6,0.4-1c0.1-0.4,0.1-0.8,0.1-1.1c0-0.4,0-0.8-0.1-1.2c-0.1-0.4-0.2-0.7-0.5-1
		c-0.2-0.3-0.5-0.5-0.8-0.7c-0.3-0.2-0.7-0.3-1.2-0.3c-0.5,0-0.8,0.1-1.2,0.3c-0.3,0.2-0.6,0.4-0.8,0.7c-0.2,0.3-0.3,0.6-0.4,1
		c-0.1,0.4-0.1,0.8-0.1,1.2C102.4,65.3,102.4,65.7,102.5,66.1z"/>
	<path class="st1" d="M110.7,63.2c0.2-0.5,0.4-1,0.8-1.4c0.3-0.4,0.8-0.7,1.3-0.9c0.5-0.2,1.1-0.3,1.7-0.3c0.7,0,1.2,0.1,1.7,0.3
		s0.9,0.5,1.3,0.9c0.3,0.4,0.6,0.8,0.8,1.4c0.2,0.5,0.3,1.1,0.3,1.7s-0.1,1.2-0.3,1.7c-0.2,0.5-0.4,1-0.8,1.4
		c-0.3,0.4-0.8,0.7-1.3,0.9c-0.5,0.2-1.1,0.3-1.7,0.3c-0.7,0-1.2-0.1-1.7-0.3c-0.5-0.2-0.9-0.5-1.3-0.9c-0.3-0.4-0.6-0.8-0.8-1.4
		c-0.2-0.5-0.3-1.1-0.3-1.7S110.5,63.7,110.7,63.2z M112.1,66.2c0.1,0.4,0.3,0.7,0.6,1c0.2,0.3,0.5,0.5,0.8,0.6s0.6,0.2,1,0.2
		c0.4,0,0.7-0.1,1-0.2s0.6-0.3,0.8-0.6s0.4-0.6,0.6-1c0.1-0.4,0.2-0.8,0.2-1.3s-0.1-0.9-0.2-1.3c-0.1-0.4-0.3-0.7-0.6-1
		c-0.2-0.3-0.5-0.5-0.8-0.6c-0.3-0.1-0.6-0.2-1-0.2c-0.4,0-0.7,0.1-1,0.2c-0.3,0.1-0.6,0.3-0.8,0.6c-0.2,0.3-0.4,0.6-0.6,1
		s-0.2,0.8-0.2,1.3S111.9,65.8,112.1,66.2z"/>
	<path class="st1" d="M121.3,60.7V62h0c0.6-1,1.5-1.5,2.7-1.5c0.5,0,1,0.1,1.4,0.2c0.4,0.1,0.7,0.4,0.9,0.6c0.2,0.3,0.4,0.6,0.5,1
		c0.1,0.4,0.1,0.8,0.1,1.2V69h-1.4v-5.6c0-0.5-0.1-0.9-0.4-1.2c-0.3-0.3-0.7-0.4-1.2-0.4c-0.4,0-0.8,0.1-1.1,0.2
		c-0.3,0.1-0.6,0.3-0.8,0.5c-0.2,0.2-0.4,0.5-0.5,0.8c-0.1,0.3-0.2,0.7-0.2,1V69h-1.4v-8.3H121.3z"/>
	<path class="st1" d="M130,67.2c0.1,0.2,0.3,0.4,0.5,0.5s0.4,0.2,0.7,0.3c0.3,0.1,0.5,0.1,0.8,0.1c0.2,0,0.4,0,0.7,0
		c0.2,0,0.5-0.1,0.6-0.2c0.2-0.1,0.4-0.2,0.5-0.4s0.2-0.4,0.2-0.6c0-0.4-0.1-0.6-0.4-0.8c-0.3-0.2-0.6-0.3-1-0.4
		c-0.4-0.1-0.8-0.2-1.3-0.3c-0.5-0.1-0.9-0.2-1.3-0.4c-0.4-0.2-0.7-0.4-1-0.7c-0.3-0.3-0.4-0.7-0.4-1.2c0-0.4,0.1-0.8,0.3-1.1
		c0.2-0.3,0.4-0.5,0.7-0.7c0.3-0.2,0.6-0.3,1-0.4c0.4-0.1,0.7-0.1,1.1-0.1c0.5,0,0.9,0,1.3,0.1c0.4,0.1,0.7,0.2,1,0.4
		c0.3,0.2,0.5,0.5,0.7,0.8s0.3,0.8,0.3,1.3h-1.4c0-0.3-0.1-0.5-0.2-0.7c-0.1-0.2-0.3-0.3-0.4-0.4c-0.2-0.1-0.4-0.2-0.6-0.2
		c-0.2,0-0.4-0.1-0.7-0.1c-0.2,0-0.4,0-0.6,0c-0.2,0-0.4,0.1-0.6,0.2c-0.2,0.1-0.3,0.2-0.4,0.3c-0.1,0.1-0.2,0.3-0.2,0.5
		c0,0.2,0.1,0.4,0.2,0.6c0.2,0.2,0.4,0.3,0.6,0.4c0.3,0.1,0.5,0.2,0.9,0.3c0.3,0.1,0.6,0.1,1,0.2c0.3,0.1,0.7,0.2,1,0.3
		c0.3,0.1,0.6,0.2,0.9,0.4c0.3,0.2,0.5,0.4,0.6,0.7c0.2,0.3,0.2,0.6,0.2,1c0,0.5-0.1,0.9-0.3,1.2s-0.5,0.6-0.8,0.8
		c-0.3,0.2-0.7,0.3-1.1,0.4c-0.4,0.1-0.8,0.1-1.3,0.1c-0.5,0-0.9,0-1.3-0.1c-0.4-0.1-0.8-0.3-1.1-0.5s-0.6-0.5-0.8-0.9
		c-0.2-0.4-0.3-0.8-0.3-1.3h1.4C129.8,66.7,129.9,67,130,67.2z"/>
	<path class="st1" d="M144.7,69v-8.1h-2.9v-1.1c0.4,0,0.8,0,1.1-0.1c0.4-0.1,0.7-0.2,1-0.3c0.3-0.2,0.5-0.4,0.7-0.7
		c0.2-0.3,0.3-0.6,0.4-1.1h1V69H144.7z"/>
	<path class="st1" d="M152.2,59.1l-0.6,3.3l0,0c0.2-0.3,0.6-0.5,1-0.6c0.4-0.1,0.8-0.2,1.2-0.2c0.5,0,1,0.1,1.4,0.2
		c0.4,0.2,0.8,0.4,1.2,0.7c0.3,0.3,0.6,0.7,0.8,1.2c0.2,0.5,0.3,1.1,0.3,1.7c0,0.5-0.1,0.9-0.2,1.4c-0.2,0.5-0.4,0.9-0.7,1.2
		c-0.3,0.4-0.7,0.6-1.2,0.8s-1.1,0.3-1.7,0.3c-0.5,0-1-0.1-1.4-0.2s-0.8-0.4-1.1-0.6c-0.3-0.3-0.6-0.6-0.8-1
		c-0.2-0.4-0.3-0.9-0.3-1.4h1.4c0,0.3,0.1,0.6,0.2,0.8c0.1,0.3,0.3,0.5,0.5,0.7s0.5,0.3,0.7,0.4c0.3,0.1,0.6,0.2,0.9,0.2
		c0.3,0,0.6-0.1,0.9-0.2c0.3-0.1,0.5-0.3,0.8-0.5c0.2-0.2,0.4-0.5,0.5-0.8s0.2-0.7,0.2-1.2c0-0.4-0.1-0.7-0.2-1
		c-0.1-0.3-0.3-0.6-0.5-0.8s-0.5-0.4-0.8-0.5c-0.3-0.1-0.7-0.2-1-0.2c-0.4,0-0.8,0.1-1.2,0.3c-0.3,0.2-0.7,0.5-0.9,0.8l-1.2-0.1
		l1.1-5.9h5.6v1.2H152.2z"/>
	<path class="st1" d="M25.1,81.4c-0.3-0.3-0.8-0.4-1.4-0.4c-0.5,0-0.9,0.1-1.2,0.3c-0.3,0.2-0.6,0.4-0.8,0.7c-0.2,0.3-0.3,0.6-0.4,1
		c-0.1,0.4-0.1,0.8-0.1,1.2c0,0.4,0,0.8,0.1,1.1c0.1,0.4,0.2,0.7,0.4,1c0.2,0.3,0.4,0.5,0.8,0.7c0.3,0.2,0.7,0.3,1.1,0.3
		c0.7,0,1.2-0.2,1.6-0.5c0.4-0.4,0.6-0.8,0.7-1.5h1.4c-0.1,1-0.5,1.8-1.1,2.4c-0.6,0.6-1.4,0.8-2.5,0.8c-0.6,0-1.2-0.1-1.7-0.3
		s-0.9-0.5-1.2-0.9c-0.3-0.4-0.6-0.8-0.7-1.3c-0.2-0.5-0.2-1.1-0.2-1.7c0-0.6,0.1-1.2,0.2-1.7s0.4-1,0.7-1.4
		c0.3-0.4,0.7-0.7,1.2-0.9c0.5-0.2,1.1-0.3,1.7-0.3c0.5,0,0.9,0.1,1.3,0.2c0.4,0.1,0.8,0.3,1.1,0.5c0.3,0.2,0.6,0.5,0.8,0.9
		c0.2,0.4,0.3,0.8,0.4,1.3h-1.4C25.7,82.1,25.5,81.7,25.1,81.4z"/>
	<path class="st1" d="M30,79.9v1.7h0c0.3-0.7,0.7-1.2,1.2-1.5c0.5-0.3,1.1-0.5,1.8-0.4v1.4c-0.5,0-1,0.1-1.4,0.2
		c-0.4,0.1-0.7,0.4-0.9,0.7c-0.2,0.3-0.4,0.6-0.5,1c-0.1,0.4-0.2,0.9-0.2,1.4v3.7h-1.4v-8.3H30z"/>
	<path class="st1" d="M34.2,78.4v-1.7h1.4v1.7H34.2z M35.6,79.9v8.3h-1.4v-8.3H35.6z"/>
	<path class="st1" d="M38.9,79.9v1.2h0c0.6-0.9,1.5-1.4,2.7-1.4c0.5,0,1,0.1,1.4,0.3s0.7,0.6,0.9,1.1c0.3-0.4,0.6-0.8,1.1-1
		c0.5-0.2,1-0.4,1.5-0.4c0.4,0,0.8,0,1.1,0.1c0.3,0.1,0.6,0.2,0.9,0.4c0.2,0.2,0.4,0.4,0.6,0.7c0.1,0.3,0.2,0.7,0.2,1.1v6.1h-1.4
		v-5.4c0-0.3,0-0.5-0.1-0.7c0-0.2-0.1-0.4-0.2-0.6c-0.1-0.2-0.3-0.3-0.5-0.4c-0.2-0.1-0.5-0.1-0.8-0.1c-0.7,0-1.2,0.2-1.6,0.6
		c-0.4,0.4-0.6,0.9-0.6,1.5v5.2h-1.4v-5.4c0-0.3,0-0.5-0.1-0.7c0-0.2-0.1-0.4-0.2-0.6c-0.1-0.2-0.3-0.3-0.5-0.4
		c-0.2-0.1-0.5-0.1-0.8-0.1c-0.4,0-0.7,0.1-1,0.2c-0.3,0.2-0.5,0.4-0.7,0.6c-0.2,0.2-0.3,0.5-0.4,0.7c-0.1,0.2-0.1,0.4-0.1,0.6v5.2
		h-1.4v-8.3H38.9z"/>
	<path class="st1" d="M51.4,78.4v-1.7h1.4v1.7H51.4z M52.8,79.9v8.3h-1.4v-8.3H52.8z"/>
	<path class="st1" d="M56.1,79.9v1.3h0c0.6-1,1.5-1.5,2.7-1.5c0.5,0,1,0.1,1.4,0.2c0.4,0.1,0.7,0.4,0.9,0.6c0.2,0.3,0.4,0.6,0.5,1
		s0.1,0.8,0.1,1.2v5.4h-1.4v-5.6c0-0.5-0.1-0.9-0.4-1.2c-0.3-0.3-0.7-0.4-1.2-0.4c-0.4,0-0.8,0.1-1.1,0.2c-0.3,0.1-0.6,0.3-0.8,0.5
		c-0.2,0.2-0.4,0.5-0.5,0.8c-0.1,0.3-0.2,0.7-0.2,1v4.7h-1.4v-8.3H56.1z"/>
	<path class="st1" d="M71.1,88.2c-0.2,0.1-0.6,0.2-1,0.2c-0.4,0-0.6-0.1-0.8-0.3s-0.3-0.5-0.3-1c-0.4,0.4-0.8,0.8-1.3,1
		s-1,0.3-1.6,0.3c-0.4,0-0.7,0-1.1-0.1c-0.3-0.1-0.6-0.2-0.9-0.4c-0.2-0.2-0.4-0.4-0.6-0.7s-0.2-0.6-0.2-1.1c0-0.5,0.1-0.9,0.2-1.2
		c0.2-0.3,0.4-0.5,0.6-0.7c0.3-0.2,0.6-0.3,0.9-0.4c0.3-0.1,0.7-0.2,1-0.2c0.4-0.1,0.7-0.1,1.1-0.2c0.3,0,0.6-0.1,0.9-0.2
		c0.3-0.1,0.5-0.2,0.6-0.3c0.1-0.1,0.2-0.3,0.2-0.6c0-0.3-0.1-0.5-0.2-0.7c-0.1-0.2-0.3-0.3-0.4-0.4c-0.2-0.1-0.4-0.2-0.6-0.2
		c-0.2,0-0.4,0-0.6,0c-0.6,0-1.1,0.1-1.4,0.3c-0.4,0.2-0.6,0.6-0.6,1.2h-1.4c0-0.5,0.1-0.9,0.3-1.3c0.2-0.4,0.4-0.6,0.8-0.9
		c0.3-0.2,0.7-0.4,1.1-0.5c0.4-0.1,0.9-0.1,1.3-0.1c0.4,0,0.7,0,1.1,0.1c0.4,0.1,0.7,0.2,1,0.3c0.3,0.2,0.5,0.4,0.7,0.7
		c0.2,0.3,0.3,0.7,0.3,1.2v4.2c0,0.3,0,0.6,0.1,0.7c0,0.1,0.2,0.2,0.4,0.2c0.1,0,0.3,0,0.4-0.1V88.2z M68.9,83.9
		c-0.2,0.1-0.4,0.2-0.7,0.3c-0.3,0.1-0.6,0.1-0.9,0.1c-0.3,0-0.6,0.1-0.9,0.1c-0.3,0-0.6,0.1-0.8,0.2c-0.2,0.1-0.4,0.3-0.6,0.5
		c-0.2,0.2-0.2,0.5-0.2,0.8c0,0.2,0,0.4,0.1,0.6s0.2,0.3,0.4,0.4c0.1,0.1,0.3,0.2,0.5,0.2c0.2,0,0.4,0.1,0.6,0.1
		c0.4,0,0.8-0.1,1.2-0.2s0.6-0.3,0.8-0.5s0.4-0.4,0.4-0.6s0.1-0.4,0.1-0.6V83.9z"/>
	<path class="st1" d="M73.8,76.8v11.4h-1.4V76.8H73.8z"/>
	<path class="st1" d="M87.7,88.2c-0.2,0.1-0.6,0.2-1,0.2c-0.4,0-0.6-0.1-0.8-0.3s-0.3-0.5-0.3-1c-0.4,0.4-0.8,0.8-1.3,1
		s-1,0.3-1.6,0.3c-0.4,0-0.7,0-1.1-0.1c-0.3-0.1-0.6-0.2-0.9-0.4c-0.2-0.2-0.4-0.4-0.6-0.7s-0.2-0.6-0.2-1.1c0-0.5,0.1-0.9,0.2-1.2
		c0.2-0.3,0.4-0.5,0.6-0.7c0.3-0.2,0.6-0.3,0.9-0.4c0.3-0.1,0.7-0.2,1-0.2c0.4-0.1,0.7-0.1,1.1-0.2c0.3,0,0.6-0.1,0.9-0.2
		c0.3-0.1,0.5-0.2,0.6-0.3c0.1-0.1,0.2-0.3,0.2-0.6c0-0.3-0.1-0.5-0.2-0.7c-0.1-0.2-0.3-0.3-0.4-0.4c-0.2-0.1-0.4-0.2-0.6-0.2
		c-0.2,0-0.4,0-0.6,0c-0.6,0-1.1,0.1-1.4,0.3c-0.4,0.2-0.6,0.6-0.6,1.2h-1.4c0-0.5,0.1-0.9,0.3-1.3c0.2-0.4,0.4-0.6,0.8-0.9
		c0.3-0.2,0.7-0.4,1.1-0.5c0.4-0.1,0.9-0.1,1.3-0.1c0.4,0,0.7,0,1.1,0.1c0.4,0.1,0.7,0.2,1,0.3c0.3,0.2,0.5,0.4,0.7,0.7
		c0.2,0.3,0.3,0.7,0.3,1.2v4.2c0,0.3,0,0.6,0.1,0.7c0,0.1,0.2,0.2,0.4,0.2c0.1,0,0.3,0,0.4-0.1V88.2z M85.5,83.9
		c-0.2,0.1-0.4,0.2-0.7,0.3c-0.3,0.1-0.6,0.1-0.9,0.1c-0.3,0-0.6,0.1-0.9,0.1c-0.3,0-0.6,0.1-0.8,0.2c-0.2,0.1-0.4,0.3-0.6,0.5
		c-0.2,0.2-0.2,0.5-0.2,0.8c0,0.2,0,0.4,0.1,0.6s0.2,0.3,0.4,0.4c0.1,0.1,0.3,0.2,0.5,0.2c0.2,0,0.4,0.1,0.6,0.1
		c0.4,0,0.8-0.1,1.2-0.2s0.6-0.3,0.8-0.5s0.4-0.4,0.4-0.6s0.1-0.4,0.1-0.6V83.9z"/>
	<path class="st1" d="M90.4,76.8v11.4H89V76.8H90.4z"/>
	<path class="st1" d="M93.9,76.8v11.4h-1.4V76.8H93.9z"/>
	<path class="st1" d="M96.1,78.4v-1.7h1.4v1.7H96.1z M97.5,79.9v8.3h-1.4v-8.3H97.5z"/>
	<path class="st1" d="M105.5,87.7c-0.6,0.5-1.4,0.7-2.3,0.7c-0.7,0-1.2-0.1-1.7-0.3c-0.5-0.2-0.9-0.5-1.2-0.9
		c-0.3-0.4-0.6-0.8-0.7-1.4c-0.2-0.5-0.3-1.1-0.3-1.7c0-0.6,0.1-1.2,0.3-1.7c0.2-0.5,0.5-1,0.8-1.4c0.3-0.4,0.8-0.7,1.2-0.9
		s1-0.3,1.6-0.3c0.7,0,1.3,0.2,1.8,0.5c0.5,0.3,0.9,0.7,1.2,1.2c0.3,0.5,0.5,1,0.6,1.5c0.1,0.6,0.2,1.1,0.1,1.6h-6.2
		c0,0.4,0,0.7,0.1,1c0.1,0.3,0.3,0.6,0.5,0.9c0.2,0.3,0.5,0.5,0.8,0.6c0.3,0.1,0.7,0.2,1.2,0.2c0.6,0,1-0.1,1.4-0.4
		c0.4-0.3,0.6-0.7,0.7-1.2h1.3C106.5,86.5,106.1,87.2,105.5,87.7z M105.1,82.4c-0.1-0.3-0.3-0.5-0.5-0.7s-0.5-0.4-0.7-0.5
		c-0.3-0.1-0.6-0.2-0.9-0.2c-0.4,0-0.7,0.1-1,0.2c-0.3,0.1-0.5,0.3-0.7,0.5c-0.2,0.2-0.4,0.5-0.5,0.7c-0.1,0.3-0.2,0.6-0.2,0.9h4.8
		C105.3,83,105.2,82.7,105.1,82.4z"/>
	<path class="st1" d="M109.2,86.4c0.1,0.2,0.3,0.4,0.5,0.5s0.4,0.2,0.7,0.3c0.3,0.1,0.5,0.1,0.8,0.1c0.2,0,0.4,0,0.7,0
		c0.2,0,0.5-0.1,0.6-0.2c0.2-0.1,0.4-0.2,0.5-0.4s0.2-0.4,0.2-0.6c0-0.4-0.1-0.6-0.4-0.8c-0.3-0.2-0.6-0.3-1-0.4
		c-0.4-0.1-0.8-0.2-1.3-0.3c-0.5-0.1-0.9-0.2-1.3-0.4c-0.4-0.2-0.7-0.4-1-0.7c-0.3-0.3-0.4-0.7-0.4-1.2c0-0.4,0.1-0.8,0.3-1.1
		c0.2-0.3,0.4-0.5,0.7-0.7c0.3-0.2,0.6-0.3,1-0.4c0.4-0.1,0.7-0.1,1.1-0.1c0.5,0,0.9,0,1.3,0.1c0.4,0.1,0.7,0.2,1,0.4
		c0.3,0.2,0.5,0.5,0.7,0.8s0.3,0.8,0.3,1.3H113c0-0.3-0.1-0.5-0.2-0.7c-0.1-0.2-0.3-0.3-0.4-0.4c-0.2-0.1-0.4-0.2-0.6-0.2
		c-0.2,0-0.4-0.1-0.7-0.1c-0.2,0-0.4,0-0.6,0c-0.2,0-0.4,0.1-0.6,0.2c-0.2,0.1-0.3,0.2-0.4,0.3c-0.1,0.1-0.2,0.3-0.2,0.5
		c0,0.2,0.1,0.4,0.2,0.6c0.2,0.2,0.4,0.3,0.6,0.4c0.3,0.1,0.5,0.2,0.9,0.3c0.3,0.1,0.6,0.1,1,0.2c0.3,0.1,0.7,0.2,1,0.3
		c0.3,0.1,0.6,0.2,0.9,0.4c0.3,0.2,0.5,0.4,0.6,0.7c0.2,0.3,0.2,0.6,0.2,1c0,0.5-0.1,0.9-0.3,1.2s-0.5,0.6-0.8,0.8
		c-0.3,0.2-0.7,0.3-1.1,0.4c-0.4,0.1-0.8,0.1-1.3,0.1c-0.5,0-0.9,0-1.3-0.1c-0.4-0.1-0.8-0.3-1.1-0.5s-0.6-0.5-0.8-0.9
		c-0.2-0.4-0.3-0.8-0.3-1.3h1.4C109,85.9,109.1,86.2,109.2,86.4z"/>
	<path class="st1" d="M118.3,86.4V88c0,0.6-0.1,1.1-0.4,1.6c-0.3,0.4-0.7,0.7-1.3,0.9v-0.8c0.2-0.1,0.3-0.2,0.5-0.3
		c0.1-0.1,0.2-0.3,0.3-0.4c0.1-0.1,0.1-0.3,0.2-0.4s0-0.3,0-0.4h-0.9v-1.8H118.3z"/>
	<path class="st1" d="M126.4,79.9v1.2h0c0.6-0.9,1.5-1.4,2.7-1.4c0.5,0,1,0.1,1.4,0.3s0.7,0.6,0.9,1.1c0.3-0.4,0.6-0.8,1.1-1
		c0.5-0.2,1-0.4,1.5-0.4c0.4,0,0.8,0,1.1,0.1c0.3,0.1,0.6,0.2,0.9,0.4c0.2,0.2,0.4,0.4,0.6,0.7c0.1,0.3,0.2,0.7,0.2,1.1v6.1h-1.4
		v-5.4c0-0.3,0-0.5-0.1-0.7c0-0.2-0.1-0.4-0.2-0.6c-0.1-0.2-0.3-0.3-0.5-0.4c-0.2-0.1-0.5-0.1-0.8-0.1c-0.7,0-1.2,0.2-1.6,0.6
		s-0.6,0.9-0.6,1.5v5.2h-1.4v-5.4c0-0.3,0-0.5-0.1-0.7c0-0.2-0.1-0.4-0.2-0.6c-0.1-0.2-0.3-0.3-0.5-0.4c-0.2-0.1-0.5-0.1-0.8-0.1
		c-0.4,0-0.7,0.1-1,0.2c-0.3,0.2-0.5,0.4-0.7,0.6c-0.2,0.2-0.3,0.5-0.4,0.7c-0.1,0.2-0.1,0.4-0.1,0.6v5.2h-1.4v-8.3H126.4z"/>
	<path class="st1" d="M138.5,82.4c0.2-0.5,0.4-1,0.8-1.4c0.3-0.4,0.8-0.7,1.3-0.9c0.5-0.2,1.1-0.3,1.7-0.3c0.7,0,1.2,0.1,1.7,0.3
		s0.9,0.5,1.3,0.9c0.3,0.4,0.6,0.8,0.8,1.4c0.2,0.5,0.3,1.1,0.3,1.7s-0.1,1.2-0.3,1.7c-0.2,0.5-0.4,1-0.8,1.4
		c-0.3,0.4-0.8,0.7-1.3,0.9c-0.5,0.2-1.1,0.3-1.7,0.3c-0.7,0-1.2-0.1-1.7-0.3c-0.5-0.2-0.9-0.5-1.3-0.9c-0.3-0.4-0.6-0.8-0.8-1.4
		c-0.2-0.5-0.3-1.1-0.3-1.7S138.4,82.9,138.5,82.4z M139.9,85.4c0.1,0.4,0.3,0.7,0.6,1c0.2,0.3,0.5,0.5,0.8,0.6s0.6,0.2,1,0.2
		c0.4,0,0.7-0.1,1-0.2s0.6-0.3,0.8-0.6s0.4-0.6,0.6-1c0.1-0.4,0.2-0.8,0.2-1.3s-0.1-0.9-0.2-1.3c-0.1-0.4-0.3-0.7-0.6-1
		c-0.2-0.3-0.5-0.5-0.8-0.6c-0.3-0.1-0.6-0.2-1-0.2c-0.4,0-0.7,0.1-1,0.2c-0.3,0.1-0.6,0.3-0.8,0.6c-0.2,0.3-0.4,0.6-0.6,1
		s-0.2,0.8-0.2,1.3S139.8,85,139.9,85.4z"/>
	<path class="st1" d="M152.9,81.4c-0.3-0.3-0.8-0.4-1.4-0.4c-0.5,0-0.9,0.1-1.2,0.3c-0.3,0.2-0.6,0.4-0.8,0.7
		c-0.2,0.3-0.3,0.6-0.4,1c-0.1,0.4-0.1,0.8-0.1,1.2c0,0.4,0,0.8,0.1,1.1c0.1,0.4,0.2,0.7,0.4,1c0.2,0.3,0.4,0.5,0.8,0.7
		c0.3,0.2,0.7,0.3,1.1,0.3c0.7,0,1.2-0.2,1.6-0.5s0.6-0.8,0.7-1.5h1.4c-0.1,1-0.5,1.8-1.1,2.4s-1.4,0.8-2.5,0.8
		c-0.6,0-1.2-0.1-1.7-0.3c-0.5-0.2-0.9-0.5-1.2-0.9c-0.3-0.4-0.6-0.8-0.7-1.3c-0.2-0.5-0.2-1.1-0.2-1.7c0-0.6,0.1-1.2,0.2-1.7
		c0.2-0.5,0.4-1,0.7-1.4c0.3-0.4,0.7-0.7,1.2-0.9c0.5-0.2,1.1-0.3,1.7-0.3c0.5,0,0.9,0.1,1.3,0.2c0.4,0.1,0.8,0.3,1.1,0.5
		s0.6,0.5,0.8,0.9c0.2,0.4,0.3,0.8,0.4,1.3h-1.4C153.4,82.1,153.2,81.7,152.9,81.4z"/>
	<path class="st1" d="M157.9,76.8v6.8l3.8-3.6h1.8l-3.3,3l3.5,5.3h-1.7l-2.8-4.3l-1.3,1.2v3.1h-1.4V76.8H157.9z"/>
	<path class="st1" d="M164.9,78.4v-1.7h1.4v1.7H164.9z M166.3,79.9v8.3h-1.4v-8.3H166.3z"/>
	<path class="st1" d="M169.6,79.9v1.3h0c0.6-1,1.5-1.5,2.7-1.5c0.5,0,1,0.1,1.4,0.2c0.4,0.1,0.7,0.4,0.9,0.6c0.2,0.3,0.4,0.6,0.5,1
		c0.1,0.4,0.1,0.8,0.1,1.2v5.4h-1.4v-5.6c0-0.5-0.1-0.9-0.4-1.2c-0.3-0.3-0.7-0.4-1.2-0.4c-0.4,0-0.8,0.1-1.1,0.2
		c-0.3,0.1-0.6,0.3-0.8,0.5c-0.2,0.2-0.4,0.5-0.5,0.8c-0.1,0.3-0.2,0.7-0.2,1v4.7h-1.4v-8.3H169.6z"/>
	<path class="st1" d="M183.5,90.5c-0.6,0.7-1.6,1-2.9,1c-0.4,0-0.8,0-1.2-0.1c-0.4-0.1-0.8-0.2-1.1-0.4c-0.3-0.2-0.6-0.4-0.8-0.8
		c-0.2-0.3-0.3-0.7-0.4-1.1h1.4c0,0.2,0.1,0.5,0.2,0.6c0.1,0.2,0.3,0.3,0.5,0.4c0.2,0.1,0.4,0.2,0.7,0.2c0.2,0,0.5,0.1,0.7,0.1
		c0.4,0,0.8-0.1,1.1-0.2s0.6-0.4,0.8-0.6c0.2-0.3,0.3-0.6,0.4-1c0.1-0.4,0.1-0.8,0.1-1.3v-0.5h0c-0.2,0.5-0.6,0.9-1.1,1.1
		c-0.5,0.2-1,0.4-1.5,0.4c-0.6,0-1.2-0.1-1.6-0.3c-0.5-0.2-0.8-0.5-1.2-0.9c-0.3-0.4-0.5-0.8-0.7-1.3c-0.2-0.5-0.2-1-0.2-1.6
		c0-0.5,0.1-1,0.2-1.5c0.1-0.5,0.3-1,0.6-1.4c0.3-0.4,0.7-0.8,1.2-1s1.1-0.4,1.8-0.4c0.5,0,1,0.1,1.4,0.3c0.4,0.2,0.8,0.6,1,1h0
		v-1.2h1.3v7.6C184.4,88.9,184.1,89.9,183.5,90.5z M181.7,86.8c0.3-0.2,0.6-0.4,0.8-0.7c0.2-0.3,0.3-0.6,0.4-1
		c0.1-0.4,0.1-0.8,0.1-1.2c0-0.4,0-0.7-0.1-1.1c-0.1-0.4-0.2-0.7-0.4-1c-0.2-0.3-0.4-0.5-0.7-0.7c-0.3-0.2-0.7-0.3-1.1-0.3
		c-0.4,0-0.8,0.1-1.1,0.2c-0.3,0.2-0.6,0.4-0.8,0.7s-0.3,0.6-0.4,1c-0.1,0.4-0.1,0.7-0.1,1.1c0,0.4,0,0.7,0.1,1.1
		c0.1,0.4,0.2,0.7,0.4,1c0.2,0.3,0.4,0.5,0.7,0.7c0.3,0.2,0.7,0.3,1.1,0.3C181,87.1,181.4,87,181.7,86.8z"/>
	<path class="st1" d="M23.7,99.1v1.2h-1.6v5.1c0,0.2,0,0.3,0,0.4c0,0.1,0.1,0.2,0.2,0.2c0.1,0.1,0.2,0.1,0.3,0.1s0.3,0,0.5,0h0.6
		v1.2h-1c-0.4,0-0.7,0-0.9-0.1c-0.3,0-0.5-0.1-0.6-0.3s-0.3-0.3-0.3-0.5c-0.1-0.2-0.1-0.5-0.1-0.9v-5.3h-1.4v-1.2h1.4v-2.5h1.4v2.5
		H23.7z"/>
	<path class="st1" d="M26.6,96v4.4h0c0.1-0.3,0.3-0.5,0.4-0.6c0.2-0.2,0.4-0.3,0.6-0.4c0.2-0.1,0.5-0.2,0.8-0.2
		c0.3-0.1,0.5-0.1,0.8-0.1c0.5,0,1,0.1,1.4,0.2c0.4,0.1,0.7,0.4,0.9,0.6c0.2,0.3,0.4,0.6,0.5,1c0.1,0.4,0.1,0.8,0.1,1.2v5.4h-1.4
		v-5.6c0-0.5-0.1-0.9-0.4-1.2c-0.3-0.3-0.7-0.4-1.2-0.4c-0.4,0-0.8,0.1-1.1,0.2c-0.3,0.1-0.6,0.3-0.8,0.5c-0.2,0.2-0.4,0.5-0.5,0.8
		c-0.1,0.3-0.2,0.7-0.2,1v4.7h-1.4V96H26.6z"/>
	<path class="st1" d="M40,106.9c-0.6,0.5-1.4,0.7-2.3,0.7c-0.7,0-1.2-0.1-1.7-0.3c-0.5-0.2-0.9-0.5-1.2-0.9
		c-0.3-0.4-0.6-0.8-0.7-1.4c-0.2-0.5-0.3-1.1-0.3-1.7c0-0.6,0.1-1.2,0.3-1.7c0.2-0.5,0.5-1,0.8-1.4c0.3-0.4,0.8-0.7,1.2-0.9
		s1-0.3,1.6-0.3c0.7,0,1.3,0.2,1.8,0.5c0.5,0.3,0.9,0.7,1.2,1.2c0.3,0.5,0.5,1,0.6,1.5c0.1,0.6,0.2,1.1,0.1,1.6h-6.2
		c0,0.4,0,0.7,0.1,1c0.1,0.3,0.3,0.6,0.5,0.9c0.2,0.3,0.5,0.5,0.8,0.6s0.7,0.2,1.2,0.2c0.6,0,1-0.1,1.4-0.4c0.4-0.3,0.6-0.7,0.7-1.2
		h1.3C41,105.7,40.6,106.4,40,106.9z M39.7,101.6c-0.1-0.3-0.3-0.5-0.5-0.7s-0.5-0.4-0.7-0.5c-0.3-0.1-0.6-0.2-0.9-0.2
		c-0.4,0-0.7,0.1-1,0.2c-0.3,0.1-0.5,0.3-0.7,0.5c-0.2,0.2-0.4,0.5-0.5,0.7c-0.1,0.3-0.2,0.6-0.2,0.9h4.8
		C39.8,102.2,39.8,101.9,39.7,101.6z"/>
	<path class="st1" d="M47.2,97.6V96h1.4v1.7H47.2z M48.6,99.1v8.3h-1.4v-8.3H48.6z"/>
	<path class="st1" d="M56.8,107.4v-1.1h0c-0.2,0.5-0.6,0.8-1.1,1c-0.5,0.2-1,0.3-1.6,0.3c-0.6,0-1.2-0.1-1.7-0.4
		c-0.5-0.2-0.9-0.5-1.2-0.9c-0.3-0.4-0.6-0.9-0.7-1.4c-0.2-0.5-0.2-1.1-0.2-1.7c0-0.6,0.1-1.1,0.2-1.7c0.2-0.5,0.4-1,0.7-1.4
		c0.3-0.4,0.7-0.7,1.2-0.9c0.5-0.2,1-0.3,1.7-0.3c0.2,0,0.4,0,0.7,0.1c0.2,0,0.5,0.1,0.7,0.2c0.2,0.1,0.5,0.2,0.7,0.4
		c0.2,0.2,0.4,0.4,0.6,0.6h0V96h1.4v11.4H56.8z M51.9,104.5c0.1,0.4,0.3,0.7,0.5,1s0.5,0.5,0.8,0.7c0.3,0.2,0.7,0.3,1.1,0.3
		c0.5,0,0.8-0.1,1.2-0.3c0.3-0.2,0.6-0.4,0.8-0.7c0.2-0.3,0.3-0.6,0.4-1c0.1-0.4,0.1-0.8,0.1-1.1c0-0.4,0-0.8-0.1-1.2
		c-0.1-0.4-0.2-0.7-0.5-1c-0.2-0.3-0.5-0.5-0.8-0.7s-0.7-0.3-1.2-0.3c-0.5,0-0.8,0.1-1.2,0.3c-0.3,0.2-0.6,0.4-0.8,0.7
		c-0.2,0.3-0.3,0.6-0.4,1c-0.1,0.4-0.1,0.8-0.1,1.2C51.7,103.7,51.8,104.1,51.9,104.5z"/>
	<path class="st1" d="M66.1,106.9c-0.6,0.5-1.4,0.7-2.3,0.7c-0.7,0-1.2-0.1-1.7-0.3c-0.5-0.2-0.9-0.5-1.2-0.9
		c-0.3-0.4-0.6-0.8-0.7-1.4c-0.2-0.5-0.3-1.1-0.3-1.7c0-0.6,0.1-1.2,0.3-1.7c0.2-0.5,0.5-1,0.8-1.4c0.3-0.4,0.8-0.7,1.2-0.9
		s1-0.3,1.6-0.3c0.7,0,1.3,0.2,1.8,0.5c0.5,0.3,0.9,0.7,1.2,1.2c0.3,0.5,0.5,1,0.6,1.5c0.1,0.6,0.2,1.1,0.1,1.6h-6.2
		c0,0.4,0,0.7,0.1,1c0.1,0.3,0.3,0.6,0.5,0.9c0.2,0.3,0.5,0.5,0.8,0.6s0.7,0.2,1.2,0.2c0.6,0,1-0.1,1.4-0.4c0.4-0.3,0.6-0.7,0.7-1.2
		h1.3C67.1,105.7,66.7,106.4,66.1,106.9z M65.7,101.6c-0.1-0.3-0.3-0.5-0.5-0.7s-0.5-0.4-0.7-0.5c-0.3-0.1-0.6-0.2-0.9-0.2
		c-0.4,0-0.7,0.1-1,0.2c-0.3,0.1-0.5,0.3-0.7,0.5c-0.2,0.2-0.4,0.5-0.5,0.7c-0.1,0.3-0.2,0.6-0.2,0.9H66
		C65.9,102.2,65.9,101.9,65.7,101.6z"/>
	<path class="st1" d="M76.1,107.4c-0.2,0.1-0.6,0.2-1,0.2c-0.4,0-0.6-0.1-0.8-0.3s-0.3-0.5-0.3-1c-0.4,0.4-0.8,0.8-1.3,1
		s-1,0.3-1.6,0.3c-0.4,0-0.7,0-1.1-0.1c-0.3-0.1-0.6-0.2-0.9-0.4c-0.2-0.2-0.4-0.4-0.6-0.7s-0.2-0.6-0.2-1.1c0-0.5,0.1-0.9,0.2-1.2
		c0.2-0.3,0.4-0.5,0.6-0.7c0.3-0.2,0.6-0.3,0.9-0.4c0.3-0.1,0.7-0.2,1-0.2c0.4-0.1,0.7-0.1,1.1-0.2c0.3,0,0.6-0.1,0.9-0.2
		c0.3-0.1,0.5-0.2,0.6-0.3c0.1-0.1,0.2-0.3,0.2-0.6c0-0.3-0.1-0.5-0.2-0.7c-0.1-0.2-0.3-0.3-0.4-0.4c-0.2-0.1-0.4-0.2-0.6-0.2
		c-0.2,0-0.4,0-0.6,0c-0.6,0-1.1,0.1-1.4,0.3c-0.4,0.2-0.6,0.6-0.6,1.2h-1.4c0-0.5,0.1-0.9,0.3-1.3c0.2-0.4,0.4-0.6,0.8-0.9
		c0.3-0.2,0.7-0.4,1.1-0.5c0.4-0.1,0.9-0.1,1.3-0.1c0.4,0,0.7,0,1.1,0.1c0.4,0.1,0.7,0.2,1,0.3c0.3,0.2,0.5,0.4,0.7,0.7
		c0.2,0.3,0.3,0.7,0.3,1.2v4.2c0,0.3,0,0.6,0.1,0.7c0,0.1,0.2,0.2,0.4,0.2c0.1,0,0.3,0,0.4-0.1V107.4z M73.9,103.1
		c-0.2,0.1-0.4,0.2-0.7,0.3c-0.3,0.1-0.6,0.1-0.9,0.1c-0.3,0-0.6,0.1-0.9,0.1c-0.3,0-0.6,0.1-0.8,0.2c-0.2,0.1-0.4,0.3-0.6,0.5
		c-0.2,0.2-0.2,0.5-0.2,0.8c0,0.2,0,0.4,0.1,0.6s0.2,0.3,0.4,0.4c0.1,0.1,0.3,0.2,0.5,0.2c0.2,0,0.4,0.1,0.6,0.1
		c0.4,0,0.8-0.1,1.2-0.2s0.6-0.3,0.8-0.5s0.4-0.4,0.4-0.6s0.1-0.4,0.1-0.6V103.1z"/>
	<path class="st1" d="M81.6,101.6c0.2-0.5,0.4-1,0.8-1.4c0.3-0.4,0.8-0.7,1.3-0.9s1.1-0.3,1.7-0.3c0.7,0,1.2,0.1,1.7,0.3
		s0.9,0.5,1.3,0.9c0.3,0.4,0.6,0.8,0.8,1.4c0.2,0.5,0.3,1.1,0.3,1.7s-0.1,1.2-0.3,1.7c-0.2,0.5-0.4,1-0.8,1.4
		c-0.3,0.4-0.8,0.7-1.3,0.9c-0.5,0.2-1.1,0.3-1.7,0.3c-0.7,0-1.2-0.1-1.7-0.3c-0.5-0.2-0.9-0.5-1.3-0.9c-0.3-0.4-0.6-0.8-0.8-1.4
		c-0.2-0.5-0.3-1.1-0.3-1.7S81.5,102.1,81.6,101.6z M83,104.6c0.1,0.4,0.3,0.7,0.6,1c0.2,0.3,0.5,0.5,0.8,0.6c0.3,0.1,0.6,0.2,1,0.2
		c0.4,0,0.7-0.1,1-0.2c0.3-0.1,0.6-0.3,0.8-0.6c0.2-0.3,0.4-0.6,0.6-1c0.1-0.4,0.2-0.8,0.2-1.3s-0.1-0.9-0.2-1.3s-0.3-0.7-0.6-1
		c-0.2-0.3-0.5-0.5-0.8-0.6c-0.3-0.1-0.6-0.2-1-0.2c-0.4,0-0.7,0.1-1,0.2c-0.3,0.1-0.6,0.3-0.8,0.6c-0.2,0.3-0.4,0.6-0.6,1
		s-0.2,0.8-0.2,1.3S82.9,104.2,83,104.6z"/>
	<path class="st1" d="M90.2,100.3v-1.2h1.4v-1.2c0-0.7,0.2-1.2,0.6-1.5c0.4-0.3,1-0.5,1.7-0.5c0.1,0,0.3,0,0.4,0
		c0.2,0,0.3,0.1,0.4,0.1v1.2c-0.1,0-0.2-0.1-0.4-0.1c-0.1,0-0.3,0-0.4,0c-0.3,0-0.6,0.1-0.8,0.2c-0.2,0.1-0.3,0.4-0.3,0.7v1.2h1.6
		v1.2h-1.6v7.1h-1.4v-7.1H90.2z"/>
	<path class="st1" d="M101.6,96v11.4h-1.4V96H101.6z"/>
	<path class="st1" d="M111.1,107.4c-0.2,0.1-0.6,0.2-1,0.2c-0.4,0-0.6-0.1-0.8-0.3s-0.3-0.5-0.3-1c-0.4,0.4-0.8,0.8-1.3,1
		s-1,0.3-1.6,0.3c-0.4,0-0.7,0-1.1-0.1c-0.3-0.1-0.6-0.2-0.9-0.4c-0.2-0.2-0.4-0.4-0.6-0.7s-0.2-0.6-0.2-1.1c0-0.5,0.1-0.9,0.2-1.2
		c0.2-0.3,0.4-0.5,0.6-0.7c0.3-0.2,0.6-0.3,0.9-0.4c0.3-0.1,0.7-0.2,1-0.2c0.4-0.1,0.7-0.1,1.1-0.2c0.3,0,0.6-0.1,0.9-0.2
		s0.5-0.2,0.6-0.3c0.1-0.1,0.2-0.3,0.2-0.6c0-0.3-0.1-0.5-0.2-0.7c-0.1-0.2-0.3-0.3-0.4-0.4c-0.2-0.1-0.4-0.2-0.6-0.2
		c-0.2,0-0.4,0-0.6,0c-0.6,0-1.1,0.1-1.4,0.3c-0.4,0.2-0.6,0.6-0.6,1.2h-1.4c0-0.5,0.1-0.9,0.3-1.3c0.2-0.4,0.4-0.6,0.8-0.9
		c0.3-0.2,0.7-0.4,1.1-0.5c0.4-0.1,0.9-0.1,1.3-0.1c0.4,0,0.7,0,1.1,0.1s0.7,0.2,1,0.3s0.5,0.4,0.7,0.7c0.2,0.3,0.3,0.7,0.3,1.2v4.2
		c0,0.3,0,0.6,0.1,0.7c0,0.1,0.2,0.2,0.4,0.2c0.1,0,0.3,0,0.4-0.1V107.4z M108.9,103.1c-0.2,0.1-0.4,0.2-0.7,0.3s-0.6,0.1-0.9,0.1
		c-0.3,0-0.6,0.1-0.9,0.1c-0.3,0-0.6,0.1-0.8,0.2s-0.4,0.3-0.6,0.5c-0.2,0.2-0.2,0.5-0.2,0.8c0,0.2,0,0.4,0.1,0.6
		c0.1,0.2,0.2,0.3,0.4,0.4c0.1,0.1,0.3,0.2,0.5,0.2c0.2,0,0.4,0.1,0.6,0.1c0.4,0,0.8-0.1,1.2-0.2c0.3-0.1,0.6-0.3,0.8-0.5
		c0.2-0.2,0.4-0.4,0.4-0.6s0.1-0.4,0.1-0.6V103.1z"/>
	<path class="st1" d="M119.1,107.4l-1.7-6.6h0l-1.7,6.6h-1.5l-2.7-8.3h1.5l1.9,6.8h0l1.7-6.8h1.5l1.7,6.8h0l1.9-6.8h1.4l-2.6,8.3
		H119.1z"/>
	<path class="st1" d="M136.3,107.4c-0.2,0.1-0.6,0.2-1,0.2c-0.4,0-0.6-0.1-0.8-0.3s-0.3-0.5-0.3-1c-0.4,0.4-0.8,0.8-1.3,1
		s-1,0.3-1.6,0.3c-0.4,0-0.7,0-1.1-0.1c-0.3-0.1-0.6-0.2-0.9-0.4c-0.2-0.2-0.4-0.4-0.6-0.7s-0.2-0.6-0.2-1.1c0-0.5,0.1-0.9,0.2-1.2
		c0.2-0.3,0.4-0.5,0.6-0.7c0.3-0.2,0.6-0.3,0.9-0.4c0.3-0.1,0.7-0.2,1-0.2c0.4-0.1,0.7-0.1,1.1-0.2c0.3,0,0.6-0.1,0.9-0.2
		s0.5-0.2,0.6-0.3c0.1-0.1,0.2-0.3,0.2-0.6c0-0.3-0.1-0.5-0.2-0.7c-0.1-0.2-0.3-0.3-0.4-0.4c-0.2-0.1-0.4-0.2-0.6-0.2
		c-0.2,0-0.4,0-0.6,0c-0.6,0-1.1,0.1-1.4,0.3c-0.4,0.2-0.6,0.6-0.6,1.2h-1.4c0-0.5,0.1-0.9,0.3-1.3c0.2-0.4,0.4-0.6,0.8-0.9
		c0.3-0.2,0.7-0.4,1.1-0.5c0.4-0.1,0.9-0.1,1.3-0.1c0.4,0,0.7,0,1.1,0.1s0.7,0.2,1,0.3s0.5,0.4,0.7,0.7c0.2,0.3,0.3,0.7,0.3,1.2v4.2
		c0,0.3,0,0.6,0.1,0.7c0,0.1,0.2,0.2,0.4,0.2c0.1,0,0.3,0,0.4-0.1V107.4z M134,103.1c-0.2,0.1-0.4,0.2-0.7,0.3s-0.6,0.1-0.9,0.1
		c-0.3,0-0.6,0.1-0.9,0.1c-0.3,0-0.6,0.1-0.8,0.2s-0.4,0.3-0.6,0.5c-0.2,0.2-0.2,0.5-0.2,0.8c0,0.2,0,0.4,0.1,0.6
		c0.1,0.2,0.2,0.3,0.4,0.4c0.1,0.1,0.3,0.2,0.5,0.2c0.2,0,0.4,0.1,0.6,0.1c0.4,0,0.8-0.1,1.2-0.2c0.3-0.1,0.6-0.3,0.8-0.5
		c0.2-0.2,0.4-0.4,0.4-0.6s0.1-0.4,0.1-0.6V103.1z"/>
	<path class="st1" d="M138.8,99.1v1.3h0c0.6-1,1.5-1.5,2.7-1.5c0.5,0,1,0.1,1.4,0.2c0.4,0.1,0.7,0.4,0.9,0.6c0.2,0.3,0.4,0.6,0.5,1
		c0.1,0.4,0.1,0.8,0.1,1.2v5.4H143v-5.6c0-0.5-0.1-0.9-0.4-1.2c-0.3-0.3-0.7-0.4-1.2-0.4c-0.4,0-0.8,0.1-1.1,0.2
		c-0.3,0.1-0.6,0.3-0.8,0.5c-0.2,0.2-0.4,0.5-0.5,0.8c-0.1,0.3-0.2,0.7-0.2,1v4.7h-1.4v-8.3H138.8z"/>
	<path class="st1" d="M152.4,107.4v-1.1h0c-0.2,0.5-0.6,0.8-1.1,1c-0.5,0.2-1,0.3-1.6,0.3c-0.6,0-1.2-0.1-1.7-0.4
		c-0.5-0.2-0.9-0.5-1.2-0.9c-0.3-0.4-0.6-0.9-0.7-1.4c-0.2-0.5-0.2-1.1-0.2-1.7c0-0.6,0.1-1.1,0.2-1.7c0.2-0.5,0.4-1,0.7-1.4
		s0.7-0.7,1.2-0.9c0.5-0.2,1-0.3,1.7-0.3c0.2,0,0.4,0,0.7,0.1s0.5,0.1,0.7,0.2c0.2,0.1,0.5,0.2,0.7,0.4c0.2,0.2,0.4,0.4,0.6,0.6h0
		V96h1.4v11.4H152.4z M147.6,104.5c0.1,0.4,0.3,0.7,0.5,1s0.5,0.5,0.8,0.7c0.3,0.2,0.7,0.3,1.1,0.3c0.5,0,0.8-0.1,1.2-0.3
		c0.3-0.2,0.6-0.4,0.8-0.7c0.2-0.3,0.3-0.6,0.4-1c0.1-0.4,0.1-0.8,0.1-1.1c0-0.4,0-0.8-0.1-1.2c-0.1-0.4-0.2-0.7-0.5-1
		c-0.2-0.3-0.5-0.5-0.8-0.7c-0.3-0.2-0.7-0.3-1.2-0.3c-0.5,0-0.8,0.1-1.2,0.3c-0.3,0.2-0.6,0.4-0.8,0.7c-0.2,0.3-0.3,0.6-0.4,1
		c-0.1,0.4-0.1,0.8-0.1,1.2C147.4,103.7,147.5,104.1,147.6,104.5z"/>
	<path class="st1" d="M160.2,101.6c0.2-0.5,0.4-1,0.8-1.4c0.3-0.4,0.8-0.7,1.3-0.9c0.5-0.2,1.1-0.3,1.7-0.3c0.7,0,1.2,0.1,1.7,0.3
		s0.9,0.5,1.3,0.9c0.3,0.4,0.6,0.8,0.8,1.4c0.2,0.5,0.3,1.1,0.3,1.7s-0.1,1.2-0.3,1.7c-0.2,0.5-0.4,1-0.8,1.4
		c-0.3,0.4-0.8,0.7-1.3,0.9c-0.5,0.2-1.1,0.3-1.7,0.3c-0.7,0-1.2-0.1-1.7-0.3c-0.5-0.2-0.9-0.5-1.3-0.9c-0.3-0.4-0.6-0.8-0.8-1.4
		c-0.2-0.5-0.3-1.1-0.3-1.7S160,102.1,160.2,101.6z M161.5,104.6c0.1,0.4,0.3,0.7,0.6,1c0.2,0.3,0.5,0.5,0.8,0.6s0.6,0.2,1,0.2
		c0.4,0,0.7-0.1,1-0.2s0.6-0.3,0.8-0.6s0.4-0.6,0.6-1c0.1-0.4,0.2-0.8,0.2-1.3s-0.1-0.9-0.2-1.3c-0.1-0.4-0.3-0.7-0.6-1
		c-0.2-0.3-0.5-0.5-0.8-0.6c-0.3-0.1-0.6-0.2-1-0.2c-0.4,0-0.7,0.1-1,0.2c-0.3,0.1-0.6,0.3-0.8,0.6c-0.2,0.3-0.4,0.6-0.6,1
		s-0.2,0.8-0.2,1.3S161.4,104.2,161.5,104.6z"/>
	<path class="st1" d="M170.8,99.1v1.7h0c0.3-0.7,0.7-1.2,1.2-1.5c0.5-0.3,1.1-0.5,1.8-0.4v1.4c-0.5,0-1,0.1-1.4,0.2
		c-0.4,0.1-0.7,0.4-0.9,0.7s-0.4,0.6-0.5,1c-0.1,0.4-0.2,0.9-0.2,1.4v3.7h-1.4v-8.3H170.8z"/>
	<path class="st1" d="M180.6,107.4v-1.1h0c-0.2,0.5-0.6,0.8-1.1,1c-0.5,0.2-1,0.3-1.6,0.3c-0.6,0-1.2-0.1-1.7-0.4
		c-0.5-0.2-0.9-0.5-1.2-0.9c-0.3-0.4-0.6-0.9-0.7-1.4c-0.2-0.5-0.2-1.1-0.2-1.7c0-0.6,0.1-1.1,0.2-1.7c0.2-0.5,0.4-1,0.7-1.4
		s0.7-0.7,1.2-0.9c0.5-0.2,1-0.3,1.7-0.3c0.2,0,0.4,0,0.7,0.1s0.5,0.1,0.7,0.2c0.2,0.1,0.5,0.2,0.7,0.4c0.2,0.2,0.4,0.4,0.6,0.6h0
		V96h1.4v11.4H180.6z M175.7,104.5c0.1,0.4,0.3,0.7,0.5,1s0.5,0.5,0.8,0.7c0.3,0.2,0.7,0.3,1.1,0.3c0.5,0,0.8-0.1,1.2-0.3
		c0.3-0.2,0.6-0.4,0.8-0.7c0.2-0.3,0.3-0.6,0.4-1c0.1-0.4,0.1-0.8,0.1-1.1c0-0.4,0-0.8-0.1-1.2c-0.1-0.4-0.2-0.7-0.5-1
		c-0.2-0.3-0.5-0.5-0.8-0.7c-0.3-0.2-0.7-0.3-1.2-0.3c-0.5,0-0.8,0.1-1.2,0.3c-0.3,0.2-0.6,0.4-0.8,0.7c-0.2,0.3-0.3,0.6-0.4,1
		c-0.1,0.4-0.1,0.8-0.1,1.2C175.6,103.7,175.6,104.1,175.7,104.5z"/>
	<path class="st1" d="M189.9,106.9c-0.6,0.5-1.4,0.7-2.3,0.7c-0.7,0-1.2-0.1-1.7-0.3s-0.9-0.5-1.2-0.9c-0.3-0.4-0.6-0.8-0.7-1.4
		c-0.2-0.5-0.3-1.1-0.3-1.7c0-0.6,0.1-1.2,0.3-1.7c0.2-0.5,0.5-1,0.8-1.4c0.3-0.4,0.8-0.7,1.2-0.9s1-0.3,1.6-0.3
		c0.7,0,1.3,0.2,1.8,0.5c0.5,0.3,0.9,0.7,1.2,1.2c0.3,0.5,0.5,1,0.6,1.5c0.1,0.6,0.2,1.1,0.1,1.6h-6.2c0,0.4,0,0.7,0.1,1
		c0.1,0.3,0.3,0.6,0.5,0.9c0.2,0.3,0.5,0.5,0.8,0.6s0.7,0.2,1.2,0.2c0.6,0,1-0.1,1.4-0.4c0.4-0.3,0.6-0.7,0.7-1.2h1.3
		C190.9,105.7,190.5,106.4,189.9,106.9z M189.6,101.6c-0.1-0.3-0.3-0.5-0.5-0.7s-0.5-0.4-0.7-0.5c-0.3-0.1-0.6-0.2-0.9-0.2
		c-0.4,0-0.7,0.1-1,0.2c-0.3,0.1-0.5,0.3-0.7,0.5c-0.2,0.2-0.4,0.5-0.5,0.7c-0.1,0.3-0.2,0.6-0.2,0.9h4.8
		C189.8,102.2,189.7,101.9,189.6,101.6z"/>
	<path class="st1" d="M193.9,99.1v1.7h0c0.3-0.7,0.7-1.2,1.2-1.5c0.5-0.3,1.1-0.5,1.8-0.4v1.4c-0.5,0-1,0.1-1.4,0.2
		c-0.4,0.1-0.7,0.4-0.9,0.7s-0.4,0.6-0.5,1c-0.1,0.4-0.2,0.9-0.2,1.4v3.7h-1.4v-8.3H193.9z"/>
	<path class="st1" d="M198.6,105.6v1.8h-1.8v-1.8H198.6z"/>
</g>
</svg>
