<?xml version="1.0" encoding="utf-8"?>
<!-- Generator: Adobe Illustrator 26.5.0, SVG Export Plug-In . SVG Version: 6.00 Build 0)  -->
<svg version="1.1" id="Layer_3" xmlns="http://www.w3.org/2000/svg" xmlns:xlink="http://www.w3.org/1999/xlink" x="0px" y="0px"
	 viewBox="0 0 674.9 679.1" style="enable-background:new 0 0 674.9 679.1;" xml:space="preserve">
<style type="text/css">
	.st0{fill:#FDF3A4;stroke:#F9E11B;stroke-miterlimit:10;}
	.st1{fill:#5E6062;}
	.st2{fill:#9EC7EE;}
	.st3{fill:#67A6E3;}
	.st4{fill:#016BD1;}
	.st5{fill:#FFFFFF;}
</style>
<g>
	<circle class="st0" cx="90" cy="284" r="22"/>
	<g>
		<path class="st1" d="M121.5,269.3l4.3,11.3l4.4-11.3h1.8v12.9h-1.2V271h0l-4.4,11.1h-1.2L121,271h0v11.1h-1.2v-12.9H121.5z"/>
		<path class="st1" d="M140.1,273c0.5,0.3,1,0.6,1.4,1.1c0.4,0.4,0.7,1,0.8,1.6c0.2,0.6,0.3,1.2,0.3,1.9c0,0.7-0.1,1.3-0.3,1.9
			c-0.2,0.6-0.5,1.1-0.8,1.6c-0.4,0.4-0.8,0.8-1.4,1.1c-0.5,0.3-1.2,0.4-1.9,0.4s-1.3-0.1-1.9-0.4c-0.5-0.3-1-0.6-1.4-1.1
			s-0.7-1-0.8-1.6c-0.2-0.6-0.3-1.2-0.3-1.9c0-0.7,0.1-1.3,0.3-1.9c0.2-0.6,0.5-1.1,0.8-1.6c0.4-0.4,0.8-0.8,1.4-1.1
			c0.5-0.3,1.2-0.4,1.9-0.4S139.6,272.7,140.1,273z M136.8,273.9c-0.4,0.2-0.7,0.5-1,0.9c-0.3,0.4-0.5,0.8-0.6,1.3s-0.2,1-0.2,1.4
			c0,0.5,0.1,1,0.2,1.4s0.3,0.9,0.6,1.3c0.3,0.4,0.6,0.7,1,0.9s0.9,0.3,1.4,0.3s1-0.1,1.4-0.3c0.4-0.2,0.7-0.5,1-0.9
			c0.3-0.4,0.5-0.8,0.6-1.3c0.1-0.5,0.2-1,0.2-1.4c0-0.5-0.1-1-0.2-1.4c-0.1-0.5-0.3-0.9-0.6-1.3c-0.3-0.4-0.6-0.7-1-0.9
			c-0.4-0.2-0.9-0.3-1.4-0.3S137.2,273.6,136.8,273.9z"/>
		<path class="st1" d="M145.4,272.8v2.2h0c0.3-0.8,0.7-1.3,1.3-1.7c0.6-0.4,1.3-0.6,2.2-0.6v1.1c-0.5,0-1,0-1.4,0.2
			c-0.4,0.2-0.8,0.4-1.1,0.7c-0.3,0.3-0.5,0.7-0.7,1.1s-0.3,0.9-0.3,1.4v5h-1.1v-9.3H145.4z"/>
		<path class="st1" d="M157.6,283.2c-0.2,0.6-0.4,1-0.7,1.4c-0.3,0.4-0.7,0.7-1.3,0.9c-0.5,0.2-1.2,0.3-1.9,0.3
			c-0.5,0-0.9-0.1-1.4-0.2c-0.4-0.1-0.8-0.3-1.2-0.5c-0.4-0.2-0.6-0.5-0.9-0.9c-0.2-0.4-0.4-0.8-0.4-1.3h1.1
			c0.1,0.3,0.2,0.6,0.4,0.9s0.4,0.4,0.6,0.6c0.2,0.1,0.5,0.2,0.8,0.3c0.3,0.1,0.6,0.1,0.9,0.1c1.1,0,1.8-0.3,2.3-0.9
			c0.5-0.6,0.7-1.5,0.7-2.6v-1.3h0c-0.3,0.6-0.7,1-1.2,1.4c-0.5,0.3-1.1,0.5-1.8,0.5c-0.7,0-1.4-0.1-1.9-0.4c-0.5-0.2-1-0.6-1.3-1
			c-0.3-0.4-0.6-0.9-0.7-1.5c-0.2-0.6-0.2-1.2-0.2-1.9c0-0.6,0.1-1.2,0.3-1.8c0.2-0.6,0.5-1.1,0.8-1.5c0.4-0.4,0.8-0.8,1.3-1
			c0.5-0.2,1.1-0.4,1.8-0.4c0.3,0,0.7,0,1,0.1c0.3,0.1,0.6,0.2,0.8,0.4s0.5,0.4,0.7,0.6c0.2,0.2,0.4,0.5,0.5,0.7h0v-1.6h1.1v8.5
			C157.8,282.1,157.8,282.7,157.6,283.2z M155,280.7c0.4-0.2,0.7-0.5,0.9-0.8c0.3-0.3,0.4-0.7,0.6-1.2s0.2-0.9,0.2-1.4
			c0-0.5-0.1-0.9-0.2-1.4c-0.1-0.5-0.3-0.9-0.5-1.2s-0.5-0.7-0.9-0.9c-0.4-0.2-0.8-0.3-1.4-0.3s-1,0.1-1.4,0.3
			c-0.4,0.2-0.7,0.5-1,0.9s-0.4,0.8-0.5,1.2s-0.2,0.9-0.2,1.4c0,0.5,0.1,0.9,0.2,1.4s0.3,0.8,0.6,1.2c0.3,0.3,0.6,0.6,1,0.8
			c0.4,0.2,0.8,0.3,1.4,0.3C154.2,281.1,154.6,281,155,280.7z"/>
		<path class="st1" d="M160.2,274.3c0.2-0.4,0.5-0.7,0.8-1c0.3-0.3,0.7-0.4,1.2-0.6c0.4-0.1,0.9-0.2,1.5-0.2c0.4,0,0.8,0,1.2,0.1
			s0.8,0.2,1.1,0.4c0.3,0.2,0.6,0.5,0.8,0.9c0.2,0.4,0.3,0.9,0.3,1.5v4.9c0,0.5,0.2,0.7,0.7,0.7c0.1,0,0.3,0,0.4-0.1v1
			c-0.1,0-0.2,0-0.4,0.1c-0.1,0-0.2,0-0.4,0c-0.3,0-0.5,0-0.7-0.1c-0.2-0.1-0.3-0.2-0.4-0.3c-0.1-0.1-0.2-0.3-0.2-0.5
			c0-0.2,0-0.4,0-0.7h0c-0.2,0.3-0.4,0.6-0.6,0.8c-0.2,0.2-0.4,0.4-0.7,0.6s-0.6,0.3-0.9,0.4s-0.7,0.1-1.2,0.1
			c-0.4,0-0.8-0.1-1.2-0.2c-0.4-0.1-0.7-0.3-1-0.5c-0.3-0.2-0.5-0.5-0.7-0.8c-0.2-0.3-0.2-0.7-0.2-1.2c0-0.6,0.1-1.2,0.4-1.5
			c0.3-0.4,0.7-0.6,1.1-0.8c0.5-0.2,1-0.3,1.6-0.4c0.6-0.1,1.2-0.2,1.8-0.2c0.2,0,0.5-0.1,0.6-0.1c0.2,0,0.3-0.1,0.5-0.2
			c0.1-0.1,0.2-0.2,0.3-0.4c0.1-0.2,0.1-0.4,0.1-0.6c0-0.4-0.1-0.7-0.2-0.9c-0.1-0.2-0.3-0.4-0.5-0.6c-0.2-0.1-0.5-0.2-0.8-0.3
			c-0.3-0.1-0.6-0.1-0.9-0.1c-0.7,0-1.3,0.2-1.8,0.5c-0.5,0.3-0.7,0.9-0.7,1.6h-1.1C159.9,275.1,160,274.7,160.2,274.3z M165.9,277
			c-0.1,0.1-0.2,0.2-0.4,0.3s-0.4,0.1-0.5,0.1c-0.5,0.1-1,0.2-1.5,0.2s-1,0.2-1.4,0.3c-0.4,0.1-0.8,0.3-1,0.6
			c-0.3,0.2-0.4,0.6-0.4,1.1c0,0.3,0.1,0.5,0.2,0.8s0.3,0.4,0.5,0.6c0.2,0.2,0.4,0.3,0.7,0.4s0.5,0.1,0.8,0.1c0.4,0,0.8-0.1,1.2-0.2
			c0.4-0.1,0.7-0.3,1-0.6c0.3-0.3,0.5-0.6,0.7-0.9s0.3-0.8,0.3-1.2L165.9,277L165.9,277z"/>
		<path class="st1" d="M170.4,272.8v1.6h0c0.2-0.6,0.6-1,1.2-1.4c0.6-0.3,1.2-0.5,1.8-0.5c0.6,0,1.2,0.1,1.6,0.3
			c0.4,0.2,0.8,0.4,1.1,0.7c0.3,0.3,0.5,0.7,0.6,1.1c0.1,0.4,0.2,0.9,0.2,1.5v6h-1.1v-5.8c0-0.4,0-0.8-0.1-1.1
			c-0.1-0.3-0.2-0.6-0.4-0.9s-0.4-0.5-0.7-0.6c-0.3-0.1-0.7-0.2-1.1-0.2s-0.9,0.1-1.2,0.2c-0.4,0.2-0.7,0.4-0.9,0.7
			c-0.2,0.3-0.4,0.6-0.6,1c-0.1,0.4-0.2,0.8-0.2,1.3v5.4h-1.1v-9.3H170.4z"/>
		<path class="st2" d="M127.6,299.7c0,0.2-0.1,0.3,0,0.5c0,0.1,0,0.2,0.1,0.3c0.1,0.1,0.2,0.1,0.3,0.1c0.4,0,0.8-0.1,1.2-0.4
			s0.7-0.6,1-1.1c0.3-0.4,0.5-0.9,0.7-1.4c0.2-0.5,0.3-1,0.3-1.5c0-0.7-0.1-1.4-0.4-2c-0.3-0.6-0.6-1.1-1.1-1.5
			c-0.5-0.4-1-0.7-1.6-0.9c-0.6-0.2-1.3-0.3-2-0.3c-0.8,0-1.6,0.2-2.3,0.5c-0.7,0.3-1.3,0.7-1.8,1.3c-0.5,0.5-0.9,1.2-1.2,1.9
			c-0.3,0.7-0.4,1.5-0.4,2.3c0,0.8,0.1,1.6,0.4,2.3s0.7,1.3,1.2,1.8s1.1,0.9,1.8,1.2c0.7,0.3,1.5,0.5,2.3,0.5c0.4,0,0.9-0.1,1.3-0.2
			c0.4-0.1,0.9-0.3,1.3-0.5c0.4-0.2,0.8-0.5,1.1-0.7c0.3-0.3,0.7-0.6,0.9-1h0.9c-0.3,0.5-0.6,0.9-1,1.3c-0.4,0.4-0.8,0.7-1.3,1
			c-0.5,0.3-1,0.5-1.5,0.6c-0.5,0.1-1.1,0.2-1.7,0.2c-1,0-1.9-0.2-2.7-0.5c-0.8-0.3-1.5-0.8-2.1-1.4c-0.6-0.6-1.1-1.3-1.4-2.1
			c-0.3-0.8-0.5-1.7-0.5-2.7c0-0.9,0.2-1.8,0.5-2.6c0.3-0.8,0.8-1.5,1.4-2.1c0.6-0.6,1.3-1.1,2.1-1.4c0.8-0.3,1.7-0.5,2.6-0.5
			c0.9,0,1.7,0.1,2.4,0.4c0.7,0.3,1.4,0.7,1.9,1.2s1,1.1,1.3,1.8c0.3,0.7,0.5,1.4,0.5,2.3c0,0.7-0.1,1.4-0.4,2
			c-0.2,0.6-0.6,1.2-1,1.7c-0.4,0.5-0.8,0.8-1.3,1.1s-1,0.4-1.5,0.4c-0.3,0-0.6-0.1-0.8-0.3c-0.2-0.2-0.4-0.5-0.4-0.9h0
			c-0.3,0.3-0.6,0.6-1,0.8c-0.4,0.3-0.8,0.4-1.3,0.4c-0.4,0-0.7-0.1-1-0.2c-0.3-0.1-0.5-0.3-0.7-0.6c-0.2-0.2-0.4-0.5-0.5-0.8
			s-0.2-0.6-0.2-1c0-0.6,0.1-1.2,0.3-1.9s0.5-1.2,0.9-1.7c0.4-0.5,0.8-0.9,1.4-1.2c0.5-0.3,1.1-0.5,1.7-0.5c0.4,0,0.8,0.1,1.1,0.4
			c0.3,0.2,0.6,0.6,0.8,1.2l0.5-1.2h1l-1.7,5.2C127.7,299.3,127.7,299.5,127.6,299.7z M124.9,295c-0.4,0.3-0.7,0.6-1,1
			c-0.3,0.4-0.5,0.9-0.6,1.4c-0.1,0.5-0.2,0.9-0.2,1.4c0,0.5,0.1,1,0.4,1.3c0.3,0.3,0.6,0.5,1.1,0.5c0.4,0,0.8-0.1,1.2-0.4
			c0.4-0.3,0.7-0.7,0.9-1.1c0.3-0.4,0.5-0.9,0.6-1.4s0.2-0.9,0.2-1.3c0-0.2,0-0.4-0.1-0.6c-0.1-0.2-0.2-0.4-0.3-0.5
			c-0.1-0.2-0.3-0.3-0.5-0.4c-0.2-0.1-0.3-0.1-0.5-0.1C125.7,294.5,125.2,294.7,124.9,295z"/>
		<path class="st2" d="M139.3,290.9l5,12.9H143l-1.6-4h-5.8l-1.5,4h-1.3l5.2-12.9H139.3z M141,298.7l-2.5-6.6l-2.6,6.6H141z"/>
		<path class="st2" d="M146.8,290.9v12.9h-1.2v-12.9H146.8z"/>
		<path class="st2" d="M150.8,290.9v12.9h-1.2v-12.9H150.8z"/>
		<path class="st2" d="M162.3,290.9v1h-7.6v4.6h7.2v1h-7.2v5.1h7.7v1h-9v-12.9H162.3z"/>
		<path class="st2" d="M164.1,294.4l3.1,7.9l2.9-7.9h1.1l-4,10.7c-0.2,0.4-0.3,0.7-0.5,1c-0.1,0.3-0.3,0.5-0.5,0.6
			c-0.2,0.1-0.4,0.3-0.6,0.3c-0.2,0.1-0.5,0.1-0.9,0.1c-0.2,0-0.4,0-0.5,0s-0.2,0-0.3-0.1v-1c0.1,0,0.3,0,0.4,0.1c0.1,0,0.3,0,0.4,0
			c0.3,0,0.5,0,0.6-0.1c0.2-0.1,0.3-0.2,0.4-0.3c0.1-0.1,0.2-0.3,0.3-0.5s0.2-0.4,0.3-0.6l0.4-1l-3.7-9.3H164.1z"/>
		<path class="st2" d="M173.1,300.7c0.1,0.4,0.3,0.8,0.5,1.2c0.3,0.3,0.6,0.6,1,0.9s0.8,0.3,1.4,0.3c0.8,0,1.5-0.2,1.9-0.6
			s0.8-1,1-1.7h1.1c-0.2,1.1-0.7,1.9-1.3,2.4c-0.6,0.6-1.6,0.9-2.7,0.9c-0.7,0-1.4-0.1-1.9-0.4c-0.5-0.3-1-0.6-1.3-1.1
			c-0.3-0.5-0.6-1-0.7-1.6c-0.2-0.6-0.2-1.2-0.2-1.9c0-0.6,0.1-1.2,0.2-1.8s0.4-1.1,0.7-1.6s0.8-0.8,1.3-1.1
			c0.5-0.3,1.2-0.4,1.9-0.4c0.7,0,1.4,0.2,1.9,0.5c0.5,0.3,1,0.7,1.3,1.2c0.3,0.5,0.6,1,0.7,1.7c0.1,0.6,0.2,1.3,0.2,1.9h-7.1
			C172.9,299.8,173,300.2,173.1,300.7z M178.7,297.2c-0.1-0.4-0.3-0.7-0.6-1.1s-0.6-0.6-0.9-0.7c-0.4-0.2-0.8-0.3-1.2-0.3
			c-0.5,0-0.9,0.1-1.2,0.3c-0.4,0.2-0.7,0.4-0.9,0.7s-0.5,0.7-0.6,1.1s-0.2,0.8-0.3,1.2h6C178.9,298,178.9,297.6,178.7,297.2z"/>
		<path class="st2" d="M187,296.2c-0.1-0.3-0.3-0.5-0.5-0.6c-0.2-0.2-0.5-0.3-0.8-0.4s-0.6-0.1-0.9-0.1c-0.3,0-0.5,0-0.8,0.1
			c-0.3,0.1-0.5,0.1-0.7,0.3s-0.4,0.3-0.5,0.5s-0.2,0.5-0.2,0.8c0,0.3,0.1,0.5,0.2,0.6s0.3,0.3,0.5,0.4c0.2,0.1,0.4,0.2,0.6,0.3
			c0.2,0.1,0.4,0.1,0.6,0.2l1.5,0.3c0.3,0,0.6,0.1,1,0.3c0.3,0.1,0.6,0.3,0.8,0.5c0.2,0.2,0.4,0.5,0.6,0.8c0.2,0.3,0.2,0.7,0.2,1.1
			c0,0.5-0.1,0.9-0.3,1.3c-0.2,0.4-0.5,0.6-0.9,0.9c-0.4,0.2-0.8,0.4-1.2,0.5c-0.4,0.1-0.9,0.1-1.3,0.1c-1.1,0-2-0.3-2.7-0.8
			c-0.7-0.5-1.1-1.3-1.2-2.5h1.1c0,0.8,0.3,1.3,0.8,1.7c0.5,0.4,1.1,0.6,1.9,0.6c0.3,0,0.6,0,0.9-0.1s0.6-0.2,0.8-0.3
			s0.5-0.3,0.6-0.5c0.2-0.2,0.2-0.5,0.2-0.8c0-0.3-0.1-0.5-0.2-0.7c-0.1-0.2-0.3-0.3-0.5-0.5c-0.2-0.1-0.4-0.2-0.7-0.3
			c-0.2-0.1-0.5-0.2-0.7-0.2l-1.5-0.3c-0.4-0.1-0.7-0.2-1-0.3c-0.3-0.1-0.6-0.3-0.8-0.5c-0.2-0.2-0.4-0.4-0.5-0.7s-0.2-0.6-0.2-1
			c0-0.5,0.1-0.9,0.3-1.2s0.5-0.6,0.8-0.8c0.3-0.2,0.7-0.4,1.1-0.5c0.4-0.1,0.8-0.1,1.2-0.1c0.5,0,0.9,0.1,1.3,0.2
			c0.4,0.1,0.8,0.3,1.1,0.6s0.5,0.6,0.7,0.9c0.2,0.4,0.3,0.8,0.3,1.3h-1.1C187.2,296.8,187.1,296.5,187,296.2z"/>
	</g>
	<g>
		<path class="st1" d="M78.9,319.6c0.9,0,1.7,0.1,2.4,0.4c0.7,0.3,1.4,0.6,1.9,1.1c0.5,0.5,0.9,1.1,1.2,1.8c0.3,0.7,0.4,1.5,0.4,2.4
			c0,0.9-0.1,1.7-0.4,2.4c-0.3,0.7-0.7,1.3-1.2,1.8c-0.5,0.5-1.1,0.9-1.9,1.1c-0.7,0.3-1.5,0.4-2.4,0.4h-7v8.6H70v-20H78.9z
			 M78.5,329.4c1.3,0,2.4-0.3,3.2-1c0.8-0.7,1.2-1.7,1.2-3.1c0-1.4-0.4-2.4-1.2-3.1s-1.9-1-3.2-1h-6.6v8.2H78.5z"/>
		<path class="st1" d="M87.2,325.6c0.4-1.3,1-2.4,1.8-3.3c0.8-1,1.8-1.7,3-2.3s2.6-0.9,4.1-0.9s2.9,0.3,4.1,0.9s2.2,1.3,2.9,2.3
			c0.8,1,1.4,2.1,1.8,3.3c0.4,1.2,0.6,2.6,0.6,3.9c0,1.4-0.2,2.7-0.6,3.9c-0.4,1.3-1,2.4-1.8,3.3c-0.8,1-1.8,1.7-2.9,2.3
			S97.6,340,96,340s-2.9-0.3-4.1-0.9s-2.2-1.3-3-2.3c-0.8-1-1.4-2.1-1.8-3.3c-0.4-1.2-0.6-2.6-0.6-3.9
			C86.6,328.2,86.8,326.9,87.2,325.6z M88.9,332.8c0.3,1.1,0.7,2,1.3,2.8c0.6,0.8,1.4,1.5,2.3,2s2.1,0.8,3.4,0.8s2.5-0.3,3.4-0.8
			c0.9-0.5,1.7-1.2,2.3-2c0.6-0.8,1.1-1.8,1.3-2.8c0.3-1.1,0.4-2.1,0.4-3.2c0-1.1-0.1-2.2-0.4-3.2c-0.3-1-0.7-2-1.3-2.8
			c-0.6-0.8-1.4-1.5-2.3-2c-0.9-0.5-2.1-0.8-3.4-0.8s-2.5,0.3-3.4,0.8c-1,0.5-1.7,1.2-2.3,2c-0.6,0.8-1.1,1.8-1.3,2.8
			c-0.3,1-0.4,2.1-0.4,3.2C88.5,330.7,88.7,331.7,88.9,332.8z"/>
		<path class="st1" d="M122.1,319.6v1.6h-7v18.4h-1.9v-18.4h-6.9v-1.6H122.1z"/>
		<path class="st1" d="M125.7,319.6V332c0,1.2,0.1,2.1,0.4,3c0.3,0.8,0.6,1.5,1.1,2c0.5,0.5,1.1,0.9,1.8,1.1
			c0.7,0.2,1.5,0.3,2.5,0.3c0.9,0,1.8-0.1,2.5-0.3c0.7-0.2,1.3-0.6,1.8-1.1c0.5-0.5,0.9-1.2,1.1-2c0.3-0.8,0.4-1.8,0.4-3v-12.4h1.9
			v12.8c0,1-0.1,2-0.4,2.9c-0.3,0.9-0.7,1.7-1.4,2.4c-0.6,0.7-1.4,1.2-2.4,1.6c-1,0.4-2.2,0.6-3.6,0.6c-1.4,0-2.6-0.2-3.5-0.6
			c-1-0.4-1.8-0.9-2.4-1.6s-1.1-1.5-1.4-2.4s-0.4-1.9-0.4-2.9v-12.8H125.7z"/>
		<path class="st1" d="M144.5,335.6c0.3,0.7,0.8,1.2,1.4,1.7s1.3,0.7,2.1,0.9c0.8,0.2,1.7,0.3,2.6,0.3c0.5,0,1.1-0.1,1.7-0.2
			c0.6-0.1,1.2-0.4,1.7-0.7c0.5-0.3,1-0.7,1.3-1.3s0.5-1.1,0.5-1.9c0-0.6-0.1-1-0.4-1.5c-0.3-0.4-0.6-0.8-1-1s-0.8-0.5-1.3-0.7
			s-1-0.3-1.4-0.4l-4.5-1.1c-0.6-0.1-1.1-0.3-1.7-0.6c-0.6-0.2-1-0.5-1.4-0.9c-0.4-0.4-0.7-0.8-1-1.4c-0.3-0.5-0.4-1.2-0.4-2
			c0-0.5,0.1-1.1,0.3-1.7c0.2-0.7,0.5-1.3,1-1.8c0.5-0.6,1.2-1.1,2.1-1.5c0.9-0.4,2-0.6,3.4-0.6c1,0,1.9,0.1,2.8,0.4
			c0.9,0.3,1.7,0.7,2.4,1.2c0.7,0.5,1.2,1.2,1.6,1.9s0.6,1.7,0.6,2.7h-1.9c0-0.8-0.2-1.4-0.5-2c-0.3-0.6-0.7-1-1.2-1.4
			c-0.5-0.4-1.1-0.7-1.7-0.9c-0.6-0.2-1.3-0.3-2-0.3c-0.7,0-1.3,0.1-1.9,0.2c-0.6,0.1-1.1,0.4-1.6,0.7c-0.5,0.3-0.8,0.7-1.1,1.2
			c-0.3,0.5-0.4,1.1-0.4,1.9c0,0.5,0.1,0.9,0.2,1.2c0.2,0.3,0.4,0.6,0.7,0.9c0.3,0.2,0.6,0.4,1,0.6c0.4,0.2,0.8,0.3,1.2,0.4l4.9,1.2
			c0.7,0.2,1.4,0.4,2,0.7c0.6,0.3,1.2,0.6,1.7,1c0.5,0.4,0.8,0.9,1.1,1.5c0.3,0.6,0.4,1.3,0.4,2.1c0,0.2,0,0.5-0.1,0.9
			c0,0.4-0.2,0.8-0.3,1.2c-0.2,0.4-0.4,0.8-0.8,1.3c-0.3,0.4-0.8,0.8-1.3,1.2s-1.3,0.6-2.1,0.8c-0.8,0.2-1.8,0.3-3,0.3
			s-2.3-0.1-3.3-0.4c-1-0.3-1.9-0.7-2.6-1.2c-0.7-0.6-1.3-1.3-1.6-2.2c-0.4-0.9-0.5-1.9-0.5-3.2h1.9
			C144,334,144.2,334.9,144.5,335.6z"/>
		<path class="st1" d="M170,325.1v15.8c0,0.5,0,1.1-0.1,1.5s-0.2,0.9-0.5,1.3c-0.2,0.4-0.6,0.7-1,0.9s-0.9,0.3-1.5,0.3
			c-0.2,0-0.4,0-0.6,0c-0.2,0-0.4,0-0.6,0v-1.5c0.1,0,0.3,0,0.5,0c0.2,0,0.3,0,0.4,0c0.7,0,1.1-0.2,1.3-0.6c0.2-0.4,0.3-0.9,0.3-1.5
			v-16.2H170z M170,319.6v2.8h-1.8v-2.8H170z"/>
		<path class="st1" d="M183.5,339.6V337h-0.1c-0.5,1-1.1,1.7-2,2.2c-0.9,0.5-1.9,0.8-3,0.8c-0.9,0-1.7-0.1-2.3-0.4
			c-0.6-0.3-1.2-0.6-1.6-1.1s-0.7-1-0.9-1.7c-0.2-0.7-0.3-1.4-0.3-2.3v-9.4h1.8v9.4c0,1.3,0.3,2.3,0.9,3c0.6,0.7,1.6,1,3,1
			c0.8,0,1.4-0.2,2-0.5c0.5-0.3,1-0.8,1.3-1.3s0.6-1.2,0.8-1.9s0.3-1.4,0.3-2.1v-7.6h1.8v14.4H183.5z"/>
		<path class="st1" d="M196.8,328c-0.2-0.4-0.5-0.7-0.8-1c-0.3-0.3-0.7-0.5-1.2-0.6c-0.4-0.1-0.9-0.2-1.4-0.2c-0.4,0-0.8,0-1.2,0.1
			s-0.8,0.2-1.1,0.4s-0.6,0.5-0.8,0.8c-0.2,0.3-0.3,0.7-0.3,1.2c0,0.4,0.1,0.7,0.3,1s0.4,0.5,0.7,0.7c0.3,0.2,0.6,0.3,1,0.5
			c0.4,0.1,0.7,0.2,1,0.3l2.4,0.5c0.5,0.1,1,0.2,1.5,0.4c0.5,0.2,0.9,0.5,1.3,0.8c0.4,0.3,0.7,0.7,0.9,1.2c0.2,0.5,0.4,1,0.4,1.7
			c0,0.8-0.2,1.5-0.5,2c-0.4,0.6-0.8,1-1.4,1.3c-0.6,0.3-1.2,0.6-1.9,0.7s-1.4,0.2-2,0.2c-1.7,0-3.1-0.4-4.1-1.2s-1.7-2.1-1.8-3.9
			h1.8c0.1,1.2,0.5,2.1,1.3,2.7c0.8,0.6,1.8,0.9,3,0.9c0.4,0,0.9,0,1.3-0.1c0.5-0.1,0.9-0.3,1.3-0.5c0.4-0.2,0.7-0.5,1-0.9
			c0.3-0.3,0.4-0.8,0.4-1.3c0-0.4-0.1-0.8-0.3-1.1c-0.2-0.3-0.4-0.5-0.7-0.7c-0.3-0.2-0.6-0.4-1-0.5c-0.4-0.1-0.8-0.2-1.2-0.3
			l-2.3-0.5c-0.6-0.1-1.1-0.3-1.6-0.5s-0.9-0.4-1.3-0.7c-0.4-0.3-0.6-0.6-0.9-1.1s-0.3-0.9-0.3-1.6c0-0.7,0.2-1.4,0.5-1.9
			c0.3-0.5,0.8-0.9,1.3-1.3s1.1-0.6,1.8-0.7s1.3-0.2,1.9-0.2c0.7,0,1.4,0.1,2,0.3c0.6,0.2,1.2,0.5,1.7,0.9c0.5,0.4,0.9,0.9,1.1,1.5
			c0.3,0.6,0.4,1.3,0.5,2h-1.8C197.1,328.8,197,328.4,196.8,328z"/>
		<path class="st1" d="M207.7,325.1v1.5h-2.9v9.7c0,0.6,0.1,1,0.2,1.4c0.2,0.3,0.6,0.5,1.2,0.5c0.5,0,1,0,1.5-0.1v1.5
			c-0.3,0-0.5,0-0.8,0c-0.3,0-0.5,0-0.8,0c-1.2,0-2-0.2-2.5-0.7c-0.5-0.5-0.7-1.3-0.7-2.5v-9.9h-2.5v-1.5h2.5v-4.3h1.8v4.3H207.7z"
			/>
		<path class="st1" d="M219.6,325.1v2.7h0.1c0.4-1,1.1-1.8,2-2.3c0.9-0.5,2-0.8,3.2-0.8c1.1,0,2.1,0.2,2.9,0.6c0.8,0.4,1.5,1,2,1.7
			c0.5,0.7,0.9,1.5,1.2,2.4c0.3,0.9,0.4,1.9,0.4,2.9s-0.1,2-0.4,2.9c-0.3,0.9-0.7,1.7-1.2,2.4c-0.5,0.7-1.2,1.2-2,1.7
			c-0.8,0.4-1.8,0.6-2.9,0.6c-0.5,0-1-0.1-1.6-0.2c-0.5-0.1-1-0.3-1.5-0.6s-0.8-0.6-1.2-1c-0.3-0.4-0.6-0.8-0.8-1.4h-0.1v8.1H218
			v-19.8H219.6z M229.3,330.1c-0.2-0.7-0.5-1.4-0.8-2c-0.4-0.6-0.9-1-1.5-1.4s-1.3-0.5-2.2-0.5c-1,0-1.8,0.2-2.4,0.5
			s-1.2,0.8-1.6,1.3c-0.4,0.6-0.7,1.2-0.8,2c-0.2,0.7-0.2,1.5-0.2,2.4c0,0.7,0.1,1.5,0.3,2.2c0.2,0.7,0.5,1.4,0.9,2
			c0.4,0.6,0.9,1,1.6,1.4c0.6,0.4,1.4,0.5,2.4,0.5c0.8,0,1.6-0.2,2.2-0.5c0.6-0.4,1.1-0.8,1.5-1.4c0.4-0.6,0.7-1.2,0.8-2
			c0.2-0.7,0.3-1.5,0.3-2.2C229.6,331.6,229.5,330.9,229.3,330.1z"/>
		<path class="st1" d="M234.4,327.4c0.3-0.6,0.7-1.1,1.2-1.5s1.1-0.7,1.8-0.9c0.7-0.2,1.5-0.3,2.3-0.3c0.6,0,1.3,0.1,1.9,0.2
			s1.2,0.3,1.7,0.7s0.9,0.8,1.2,1.4c0.3,0.6,0.5,1.4,0.5,2.4v7.7c0,0.7,0.3,1.1,1,1.1c0.2,0,0.4,0,0.6-0.1v1.5
			c-0.2,0-0.4,0.1-0.5,0.1c-0.2,0-0.4,0-0.6,0c-0.4,0-0.8-0.1-1.1-0.2s-0.5-0.3-0.6-0.5c-0.1-0.2-0.2-0.5-0.3-0.8
			c0-0.3-0.1-0.6-0.1-1h-0.1c-0.3,0.5-0.6,0.9-1,1.2c-0.3,0.4-0.7,0.7-1.1,0.9c-0.4,0.2-0.9,0.4-1.4,0.6c-0.5,0.1-1.1,0.2-1.8,0.2
			c-0.7,0-1.3-0.1-1.9-0.2s-1.1-0.4-1.5-0.8s-0.8-0.8-1-1.3s-0.4-1.2-0.4-1.9c0-1,0.2-1.8,0.7-2.4c0.4-0.6,1-1,1.8-1.3
			s1.6-0.5,2.5-0.6s1.9-0.2,2.8-0.4c0.4,0,0.7-0.1,1-0.1s0.5-0.2,0.7-0.3s0.3-0.3,0.4-0.6c0.1-0.2,0.2-0.6,0.2-1
			c0-0.6-0.1-1.1-0.3-1.5s-0.5-0.7-0.8-0.9c-0.3-0.2-0.7-0.4-1.2-0.5c-0.5-0.1-0.9-0.1-1.5-0.1c-1.1,0-2,0.3-2.7,0.8
			c-0.7,0.5-1.1,1.4-1.1,2.6h-1.8C234,328.7,234.1,328,234.4,327.4z M243.3,331.7c-0.1,0.2-0.3,0.4-0.6,0.4
			c-0.3,0.1-0.6,0.2-0.8,0.2c-0.7,0.1-1.5,0.2-2.3,0.4c-0.8,0.1-1.5,0.3-2.2,0.5c-0.7,0.2-1.2,0.5-1.6,0.9s-0.6,0.9-0.6,1.6
			c0,0.4,0.1,0.8,0.3,1.2s0.4,0.6,0.7,0.9s0.6,0.4,1,0.6c0.4,0.1,0.8,0.2,1.2,0.2c0.7,0,1.3-0.1,1.9-0.3c0.6-0.2,1.2-0.5,1.6-0.9
			c0.5-0.4,0.8-0.9,1.1-1.4c0.3-0.6,0.4-1.2,0.4-1.9L243.3,331.7L243.3,331.7z"/>
		<path class="st1" d="M250.2,325.1v3.4h0.1c0.4-1.2,1.1-2.1,2.1-2.7c0.9-0.6,2.1-0.9,3.4-0.9v1.8c-0.8,0-1.5,0.1-2.2,0.3
			s-1.2,0.6-1.7,1.1c-0.5,0.5-0.8,1-1.1,1.7c-0.3,0.6-0.4,1.3-0.4,2.1v7.7h-1.8v-14.4H250.2z"/>
		<path class="st1" d="M268,339.6v-2.7H268c-0.2,0.5-0.5,0.9-0.8,1.3c-0.4,0.4-0.8,0.7-1.2,1s-1,0.5-1.5,0.6
			c-0.5,0.1-1.1,0.2-1.6,0.2c-1.1,0-2.1-0.2-2.9-0.6c-0.8-0.4-1.5-1-2-1.7c-0.5-0.7-0.9-1.5-1.2-2.4c-0.3-0.9-0.4-1.9-0.4-2.9
			s0.1-2,0.4-2.9c0.3-0.9,0.7-1.7,1.2-2.4c0.5-0.7,1.2-1.3,2-1.7c0.8-0.4,1.8-0.6,2.9-0.6c0.5,0,1.1,0.1,1.6,0.2
			c0.5,0.1,1,0.3,1.4,0.6s0.8,0.6,1.2,1c0.3,0.4,0.6,0.8,0.8,1.4h0.1v-8.3h1.8v20H268z M258.3,334.6c0.2,0.7,0.5,1.4,0.8,2
			c0.4,0.6,0.9,1,1.5,1.4c0.6,0.4,1.3,0.5,2.2,0.5c0.9,0,1.7-0.2,2.4-0.5c0.6-0.4,1.2-0.8,1.6-1.4c0.4-0.6,0.7-1.2,0.9-2
			c0.2-0.7,0.3-1.5,0.3-2.2c0-0.7-0.1-1.5-0.3-2.2c-0.2-0.7-0.5-1.4-0.9-2c-0.4-0.6-0.9-1-1.6-1.4c-0.6-0.4-1.4-0.5-2.4-0.5
			c-0.8,0-1.6,0.2-2.2,0.5c-0.6,0.4-1.1,0.8-1.5,1.4c-0.4,0.6-0.7,1.2-0.8,2c-0.2,0.7-0.3,1.5-0.3,2.2
			C258.1,333.1,258.2,333.9,258.3,334.6z"/>
		<path class="st1" d="M282,325.3c0.8,0.4,1.6,1,2.1,1.7c0.6,0.7,1,1.5,1.3,2.4s0.4,1.9,0.4,3c0,1-0.1,2-0.4,3s-0.7,1.7-1.3,2.4
			c-0.6,0.7-1.3,1.2-2.1,1.6s-1.8,0.6-2.9,0.6c-1.1,0-2.1-0.2-2.9-0.6c-0.8-0.4-1.6-0.9-2.1-1.6c-0.6-0.7-1-1.5-1.3-2.4
			c-0.3-0.9-0.4-1.9-0.4-3c0-1,0.1-2,0.4-3c0.3-0.9,0.7-1.7,1.3-2.4c0.6-0.7,1.3-1.2,2.1-1.7c0.8-0.4,1.8-0.6,2.9-0.6
			C280.2,324.7,281.2,324.9,282,325.3z M276.9,326.7c-0.6,0.4-1.2,0.8-1.6,1.4c-0.4,0.6-0.7,1.2-1,2c-0.2,0.7-0.3,1.5-0.3,2.3
			s0.1,1.5,0.3,2.3c0.2,0.7,0.5,1.4,1,2c0.4,0.6,0.9,1,1.6,1.4c0.6,0.4,1.4,0.5,2.2,0.5s1.6-0.2,2.2-0.5c0.6-0.4,1.2-0.8,1.6-1.4
			c0.4-0.6,0.7-1.2,1-2c0.2-0.7,0.3-1.5,0.3-2.3s-0.1-1.5-0.3-2.3c-0.2-0.7-0.5-1.4-1-2c-0.4-0.6-0.9-1-1.6-1.4
			c-0.6-0.4-1.4-0.5-2.2-0.5S277.5,326.4,276.9,326.7z"/>
		<path class="st1" d="M290.3,325.1v2.5h0.1c0.3-0.9,0.9-1.6,1.8-2.1c0.9-0.5,1.8-0.8,2.8-0.8c1,0,1.9,0.1,2.5,0.4s1.2,0.6,1.6,1.1
			c0.4,0.5,0.7,1.1,0.9,1.8c0.2,0.7,0.3,1.5,0.3,2.3v9.3h-1.8v-9c0-0.6-0.1-1.2-0.2-1.7c-0.1-0.5-0.3-1-0.6-1.4
			c-0.3-0.4-0.7-0.7-1.1-0.9c-0.5-0.2-1.1-0.3-1.8-0.3c-0.7,0-1.3,0.1-1.9,0.4s-1,0.6-1.4,1c-0.4,0.4-0.7,1-0.9,1.6s-0.3,1.3-0.3,2
			v8.4h-1.8v-14.4H290.3z"/>
		<path class="st1" d="M304.9,334.8c0.2,0.7,0.5,1.3,0.9,1.8s0.9,1,1.5,1.3c0.6,0.4,1.3,0.5,2.2,0.5c1.3,0,2.3-0.3,3-1
			c0.7-0.7,1.2-1.6,1.5-2.7h1.8c-0.4,1.6-1.1,2.9-2.1,3.8c-1,0.9-2.4,1.3-4.2,1.3c-1.1,0-2.1-0.2-3-0.6c-0.8-0.4-1.5-1-2-1.7
			c-0.5-0.7-0.9-1.5-1.2-2.4s-0.4-1.9-0.4-2.9c0-1,0.1-1.9,0.4-2.8c0.3-0.9,0.6-1.7,1.2-2.5c0.5-0.7,1.2-1.3,2-1.7
			c0.8-0.4,1.8-0.7,3-0.7c1.2,0,2.1,0.2,3,0.7c0.8,0.5,1.5,1.1,2,1.8c0.5,0.8,0.9,1.6,1.1,2.6c0.2,1,0.3,2,0.3,3h-11.1
			C304.6,333.5,304.7,334.1,304.9,334.8z M313.6,329.4c-0.2-0.6-0.5-1.2-0.9-1.6c-0.4-0.5-0.9-0.9-1.4-1.1c-0.6-0.3-1.2-0.4-1.9-0.4
			c-0.7,0-1.4,0.1-1.9,0.4c-0.6,0.3-1,0.7-1.4,1.1c-0.4,0.5-0.7,1-0.9,1.7c-0.2,0.6-0.4,1.3-0.5,1.9h9.4
			C314,330.7,313.9,330,313.6,329.4z"/>
		<path class="st1" d="M329.2,339.6v-2.7h-0.1c-0.2,0.5-0.5,0.9-0.8,1.3c-0.4,0.4-0.8,0.7-1.2,1s-1,0.5-1.5,0.6
			c-0.5,0.1-1.1,0.2-1.6,0.2c-1.1,0-2.1-0.2-2.9-0.6c-0.8-0.4-1.5-1-2-1.7c-0.5-0.7-0.9-1.5-1.2-2.4c-0.3-0.9-0.4-1.9-0.4-2.9
			s0.1-2,0.4-2.9c0.3-0.9,0.7-1.7,1.2-2.4c0.5-0.7,1.2-1.3,2-1.7c0.8-0.4,1.8-0.6,2.9-0.6c0.5,0,1.1,0.1,1.6,0.2
			c0.5,0.1,1,0.3,1.4,0.6s0.8,0.6,1.2,1c0.3,0.4,0.6,0.8,0.8,1.4h0.1v-8.3h1.8v20H329.2z M319.5,334.6c0.2,0.7,0.5,1.4,0.8,2
			c0.4,0.6,0.9,1,1.5,1.4c0.6,0.4,1.3,0.5,2.2,0.5c0.9,0,1.7-0.2,2.4-0.5c0.6-0.4,1.2-0.8,1.6-1.4c0.4-0.6,0.7-1.2,0.9-2
			c0.2-0.7,0.3-1.5,0.3-2.2c0-0.7-0.1-1.5-0.3-2.2c-0.2-0.7-0.5-1.4-0.9-2c-0.4-0.6-0.9-1-1.6-1.4c-0.6-0.4-1.4-0.5-2.4-0.5
			c-0.8,0-1.6,0.2-2.2,0.5c-0.6,0.4-1.1,0.8-1.5,1.4c-0.4,0.6-0.7,1.2-0.8,2c-0.2,0.7-0.3,1.5-0.3,2.2
			C319.3,333.1,319.4,333.9,319.5,334.6z"/>
		<path class="st1" d="M345.1,323.6c0.6-0.1,1.2-0.2,1.6-0.5c0.5-0.2,0.8-0.6,1.1-1.1c0.3-0.5,0.5-1.2,0.7-2.1h1.4v19.6h-1.8V325
			H343v-1.3C343.8,323.8,344.5,323.7,345.1,323.6z"/>
		<path class="st1" d="M359.1,335.8c0.3,0.6,0.6,1,1,1.4c0.4,0.4,0.9,0.7,1.5,0.9c0.6,0.2,1.2,0.3,1.9,0.3c0.8,0,1.4-0.1,2-0.4
			c0.6-0.3,1.1-0.7,1.5-1.2c0.4-0.5,0.8-1.1,1-1.7c0.2-0.6,0.3-1.3,0.3-2c0-0.7-0.1-1.4-0.4-2s-0.6-1.2-1-1.6
			c-0.4-0.5-1-0.8-1.6-1.1c-0.6-0.3-1.3-0.4-2-0.4c-0.9,0-1.7,0.2-2.5,0.6c-0.8,0.4-1.4,1-1.9,1.7h-1.5l1.9-10.2h9.8v1.6h-8.6
			l-1.3,6.5l0.1,0.1c0.5-0.6,1.1-1,1.8-1.3c0.7-0.3,1.5-0.5,2.3-0.5c1,0,1.9,0.2,2.7,0.5c0.8,0.3,1.5,0.8,2.1,1.4
			c0.6,0.6,1,1.3,1.3,2.1c0.3,0.8,0.5,1.7,0.5,2.7c0,1-0.2,1.8-0.5,2.6c-0.4,0.8-0.8,1.5-1.5,2.1c-0.6,0.6-1.3,1-2.2,1.4
			s-1.7,0.5-2.6,0.5c-0.9,0-1.8-0.1-2.5-0.4s-1.4-0.7-2-1.2c-0.6-0.5-1-1.1-1.4-1.9c-0.3-0.7-0.5-1.6-0.5-2.5h1.8
			C358.7,334.7,358.8,335.3,359.1,335.8z"/>
		<path class="st1" d="M389.8,327.1c-0.7-0.6-1.6-0.9-2.7-0.9c-0.8,0-1.6,0.2-2.2,0.5c-0.6,0.4-1.2,0.8-1.6,1.4
			c-0.4,0.6-0.7,1.2-1,2c-0.2,0.7-0.3,1.5-0.3,2.3s0.1,1.5,0.3,2.3c0.2,0.7,0.5,1.4,1,2c0.4,0.6,0.9,1,1.6,1.4
			c0.6,0.4,1.4,0.5,2.2,0.5c0.5,0,1.1-0.1,1.5-0.3c0.5-0.2,0.9-0.5,1.3-0.9c0.4-0.4,0.7-0.8,0.9-1.3c0.2-0.5,0.4-1.1,0.4-1.7h1.8
			c-0.2,1.8-0.9,3.1-1.9,4.1c-1,1-2.4,1.5-4,1.5c-1.1,0-2.1-0.2-2.9-0.6c-0.8-0.4-1.6-0.9-2.1-1.6c-0.6-0.7-1-1.5-1.3-2.4
			c-0.3-0.9-0.4-1.9-0.4-3c0-1,0.1-2,0.4-3c0.3-0.9,0.7-1.7,1.3-2.4c0.6-0.7,1.3-1.2,2.1-1.7c0.8-0.4,1.8-0.6,2.9-0.6
			c1.5,0,2.9,0.4,3.9,1.2s1.7,2.1,1.9,3.7h-1.8C390.9,328.6,390.4,327.7,389.8,327.1z"/>
		<path class="st1" d="M397.1,325.1v3.4h0.1c0.4-1.2,1.1-2.1,2.1-2.7c0.9-0.6,2.1-0.9,3.4-0.9v1.8c-0.8,0-1.5,0.1-2.2,0.3
			s-1.2,0.6-1.7,1.1c-0.5,0.5-0.8,1-1.1,1.7c-0.3,0.6-0.4,1.3-0.4,2.1v7.7h-1.8v-14.4H397.1z"/>
		<path class="st1" d="M406.1,319.6v2.8h-1.8v-2.8H406.1z M406.1,325.1v14.4h-1.8v-14.4H406.1z"/>
		<path class="st1" d="M411.1,325.1v2.4h0.1c0.5-0.9,1.1-1.6,1.8-2.1s1.7-0.8,2.9-0.8c1,0,1.8,0.2,2.6,0.7c0.8,0.5,1.3,1.2,1.6,2.1
			c0.4-1,1.1-1.7,1.9-2.1c0.8-0.5,1.7-0.7,2.7-0.7c3.2,0,4.8,1.7,4.8,5.1v9.8h-1.8v-9.7c0-1.2-0.3-2.1-0.8-2.7
			c-0.5-0.6-1.4-0.9-2.7-0.9c-0.8,0-1.4,0.1-1.9,0.4c-0.5,0.3-0.9,0.7-1.2,1.2c-0.3,0.5-0.5,1-0.6,1.7c-0.1,0.6-0.2,1.3-0.2,1.9v8.2
			h-1.8v-9.8c0-0.5-0.1-0.9-0.2-1.4s-0.3-0.8-0.5-1.1c-0.2-0.3-0.5-0.6-0.9-0.8c-0.4-0.2-0.9-0.3-1.4-0.3c-0.7,0-1.4,0.1-1.9,0.4
			s-1,0.6-1.3,1.1c-0.3,0.5-0.6,1-0.8,1.7s-0.3,1.3-0.3,2.1v8.1h-1.8v-14.4H411.1z"/>
		<path class="st1" d="M434.6,319.6v2.8h-1.8v-2.8H434.6z M434.6,325.1v14.4h-1.8v-14.4H434.6z"/>
		<path class="st1" d="M439.7,325.1v2.5h0.1c0.3-0.9,0.9-1.6,1.8-2.1c0.9-0.5,1.8-0.8,2.8-0.8c1,0,1.9,0.1,2.5,0.4s1.2,0.6,1.6,1.1
			c0.4,0.5,0.7,1.1,0.9,1.8c0.2,0.7,0.3,1.5,0.3,2.3v9.3h-1.8v-9c0-0.6-0.1-1.2-0.2-1.7c-0.1-0.5-0.3-1-0.6-1.4
			c-0.3-0.4-0.7-0.7-1.1-0.9c-0.5-0.2-1.1-0.3-1.8-0.3c-0.7,0-1.3,0.1-1.9,0.4s-1,0.6-1.4,1c-0.4,0.4-0.7,1-0.9,1.6s-0.3,1.3-0.3,2
			v8.4h-1.8v-14.4H439.7z"/>
		<path class="st1" d="M453.3,327.4c0.3-0.6,0.7-1.1,1.2-1.5s1.1-0.7,1.8-0.9c0.7-0.2,1.5-0.3,2.3-0.3c0.6,0,1.3,0.1,1.9,0.2
			s1.2,0.3,1.7,0.7s0.9,0.8,1.2,1.4c0.3,0.6,0.5,1.4,0.5,2.4v7.7c0,0.7,0.3,1.1,1,1.1c0.2,0,0.4,0,0.6-0.1v1.5
			c-0.2,0-0.4,0.1-0.5,0.1c-0.2,0-0.4,0-0.6,0c-0.4,0-0.8-0.1-1.1-0.2s-0.5-0.3-0.6-0.5c-0.1-0.2-0.2-0.5-0.3-0.8
			c0-0.3-0.1-0.6-0.1-1h-0.1c-0.3,0.5-0.6,0.9-1,1.2c-0.3,0.4-0.7,0.7-1.1,0.9c-0.4,0.2-0.9,0.4-1.4,0.6c-0.5,0.1-1.1,0.2-1.8,0.2
			c-0.7,0-1.3-0.1-1.9-0.2s-1.1-0.4-1.5-0.8s-0.8-0.8-1-1.3s-0.4-1.2-0.4-1.9c0-1,0.2-1.8,0.7-2.4c0.4-0.6,1-1,1.8-1.3
			s1.6-0.5,2.5-0.6s1.9-0.2,2.8-0.4c0.4,0,0.7-0.1,1-0.1s0.5-0.2,0.7-0.3s0.3-0.3,0.4-0.6c0.1-0.2,0.2-0.6,0.2-1
			c0-0.6-0.1-1.1-0.3-1.5s-0.5-0.7-0.8-0.9c-0.3-0.2-0.7-0.4-1.2-0.5c-0.5-0.1-0.9-0.1-1.5-0.1c-1.1,0-2,0.3-2.7,0.8
			c-0.7,0.5-1.1,1.4-1.1,2.6h-1.8C452.9,328.7,453,328,453.3,327.4z M462.2,331.7c-0.1,0.2-0.3,0.4-0.6,0.4
			c-0.3,0.1-0.6,0.2-0.8,0.2c-0.7,0.1-1.5,0.2-2.3,0.4c-0.8,0.1-1.5,0.3-2.2,0.5c-0.7,0.2-1.2,0.5-1.6,0.9s-0.6,0.9-0.6,1.6
			c0,0.4,0.1,0.8,0.3,1.2s0.4,0.6,0.7,0.9s0.6,0.4,1,0.6c0.4,0.1,0.8,0.2,1.2,0.2c0.7,0,1.3-0.1,1.9-0.3c0.6-0.2,1.2-0.5,1.6-0.9
			c0.5-0.4,0.8-0.9,1.1-1.4c0.3-0.6,0.4-1.2,0.4-1.9L462.2,331.7L462.2,331.7z"/>
		<path class="st1" d="M469.3,319.6v20h-1.8v-20H469.3z"/>
		<path class="st1" d="M481,328c-0.2-0.4-0.5-0.7-0.8-1c-0.3-0.3-0.7-0.5-1.2-0.6c-0.4-0.1-0.9-0.2-1.4-0.2c-0.4,0-0.8,0-1.2,0.1
			c-0.4,0.1-0.8,0.2-1.1,0.4s-0.6,0.5-0.8,0.8c-0.2,0.3-0.3,0.7-0.3,1.2c0,0.4,0.1,0.7,0.3,1c0.2,0.3,0.4,0.5,0.7,0.7s0.6,0.3,1,0.5
			c0.4,0.1,0.7,0.2,1,0.3l2.4,0.5c0.5,0.1,1,0.2,1.5,0.4c0.5,0.2,0.9,0.5,1.3,0.8c0.4,0.3,0.7,0.7,0.9,1.2c0.2,0.5,0.4,1,0.4,1.7
			c0,0.8-0.2,1.5-0.5,2c-0.4,0.6-0.8,1-1.4,1.3c-0.6,0.3-1.2,0.6-1.9,0.7s-1.4,0.2-2,0.2c-1.7,0-3.1-0.4-4.1-1.2s-1.7-2.1-1.8-3.9
			h1.8c0.1,1.2,0.5,2.1,1.3,2.7c0.8,0.6,1.8,0.9,3,0.9c0.4,0,0.9,0,1.3-0.1c0.5-0.1,0.9-0.3,1.3-0.5c0.4-0.2,0.7-0.5,1-0.9
			c0.3-0.3,0.4-0.8,0.4-1.3c0-0.4-0.1-0.8-0.3-1.1c-0.2-0.3-0.4-0.5-0.7-0.7c-0.3-0.2-0.6-0.4-1-0.5s-0.8-0.2-1.2-0.3l-2.3-0.5
			c-0.6-0.1-1.1-0.3-1.6-0.5s-0.9-0.4-1.3-0.7s-0.6-0.6-0.9-1.1s-0.3-0.9-0.3-1.6c0-0.7,0.2-1.4,0.5-1.9c0.3-0.5,0.8-0.9,1.3-1.3
			s1.1-0.6,1.8-0.7c0.6-0.1,1.3-0.2,1.9-0.2c0.7,0,1.4,0.1,2,0.3c0.6,0.2,1.2,0.5,1.7,0.9c0.5,0.4,0.9,0.9,1.1,1.5
			c0.3,0.6,0.4,1.3,0.5,2h-1.8C481.3,328.8,481.2,328.4,481,328z"/>
		<path class="st1" d="M489.5,339.6c0,0.4-0.1,0.8-0.2,1.2s-0.3,0.8-0.5,1.1c-0.2,0.3-0.5,0.6-0.8,0.9c-0.3,0.3-0.7,0.4-1.1,0.6
			v-1.2c0.2-0.1,0.4-0.2,0.6-0.4c0.2-0.2,0.3-0.4,0.4-0.7c0.1-0.3,0.2-0.5,0.2-0.8s0.1-0.5,0-0.7h-1.2v-3h2.4V339.6z"/>
		<path class="st1" d="M503.5,319.6v2.8h-1.8v-2.8H503.5z M503.5,325.1v14.4h-1.8v-14.4H503.5z"/>
		<path class="st1" d="M508.6,325.1v2.5h0.1c0.3-0.9,0.9-1.6,1.8-2.1c0.9-0.5,1.8-0.8,2.8-0.8c1,0,1.9,0.1,2.5,0.4s1.2,0.6,1.6,1.1
			c0.4,0.5,0.7,1.1,0.9,1.8c0.2,0.7,0.3,1.5,0.3,2.3v9.3h-1.8v-9c0-0.6-0.1-1.2-0.2-1.7c-0.1-0.5-0.3-1-0.6-1.4
			c-0.3-0.4-0.7-0.7-1.1-0.9c-0.5-0.2-1.1-0.3-1.8-0.3c-0.7,0-1.3,0.1-1.9,0.4s-1,0.6-1.4,1c-0.4,0.4-0.7,1-0.9,1.6s-0.3,1.3-0.3,2
			v8.4h-1.8v-14.4H508.6z"/>
		<path class="st1" d="M530.8,327.1c-0.7-0.6-1.6-0.9-2.7-0.9c-0.8,0-1.6,0.2-2.2,0.5c-0.6,0.4-1.2,0.8-1.6,1.4
			c-0.4,0.6-0.7,1.2-1,2c-0.2,0.7-0.3,1.5-0.3,2.3s0.1,1.5,0.3,2.3c0.2,0.7,0.5,1.4,1,2c0.4,0.6,0.9,1,1.6,1.4
			c0.6,0.4,1.4,0.5,2.2,0.5c0.5,0,1.1-0.1,1.5-0.3c0.5-0.2,0.9-0.5,1.3-0.9c0.4-0.4,0.7-0.8,0.9-1.3c0.2-0.5,0.4-1.1,0.4-1.7h1.8
			c-0.2,1.8-0.9,3.1-1.9,4.1c-1,1-2.4,1.5-4,1.5c-1.1,0-2.1-0.2-2.9-0.6c-0.8-0.4-1.6-0.9-2.1-1.6c-0.6-0.7-1-1.5-1.3-2.4
			c-0.3-0.9-0.4-1.9-0.4-3c0-1,0.1-2,0.4-3c0.3-0.9,0.7-1.7,1.3-2.4c0.6-0.7,1.3-1.2,2.1-1.7c0.8-0.4,1.8-0.6,2.9-0.6
			c1.5,0,2.9,0.4,3.9,1.2s1.7,2.1,1.9,3.7h-1.8C531.9,328.6,531.4,327.7,530.8,327.1z"/>
		<path class="st1" d="M538.3,319.6v20h-1.8v-20H538.3z"/>
		<path class="st1" d="M551.7,339.6V337h-0.1c-0.5,1-1.1,1.7-2,2.2c-0.9,0.5-1.9,0.8-3,0.8c-0.9,0-1.7-0.1-2.3-0.4
			c-0.6-0.3-1.2-0.6-1.6-1.1c-0.4-0.5-0.7-1-0.9-1.7s-0.3-1.4-0.3-2.3v-9.4h1.8v9.4c0,1.3,0.3,2.3,0.9,3c0.6,0.7,1.6,1,3,1
			c0.8,0,1.4-0.2,2-0.5c0.5-0.3,1-0.8,1.3-1.3s0.6-1.2,0.8-1.9s0.3-1.4,0.3-2.1v-7.6h1.8v14.4H551.7z"/>
		<path class="st1" d="M567.8,339.6v-2.7h-0.1c-0.2,0.5-0.5,0.9-0.8,1.3c-0.4,0.4-0.8,0.7-1.2,1s-1,0.5-1.5,0.6
			c-0.5,0.1-1.1,0.2-1.6,0.2c-1.1,0-2.1-0.2-2.9-0.6c-0.8-0.4-1.5-1-2-1.7c-0.5-0.7-0.9-1.5-1.2-2.4c-0.3-0.9-0.4-1.9-0.4-2.9
			s0.1-2,0.4-2.9c0.3-0.9,0.7-1.7,1.2-2.4c0.5-0.7,1.2-1.3,2-1.7c0.8-0.4,1.8-0.6,2.9-0.6c0.5,0,1.1,0.1,1.6,0.2
			c0.5,0.1,1,0.3,1.4,0.6s0.8,0.6,1.2,1c0.3,0.4,0.6,0.8,0.8,1.4h0.1v-8.3h1.8v20H567.8z M558.1,334.6c0.2,0.7,0.5,1.4,0.8,2
			c0.4,0.6,0.9,1,1.5,1.4c0.6,0.4,1.3,0.5,2.2,0.5c0.9,0,1.7-0.2,2.4-0.5c0.6-0.4,1.2-0.8,1.6-1.4c0.4-0.6,0.7-1.2,0.9-2
			c0.2-0.7,0.3-1.5,0.3-2.2c0-0.7-0.1-1.5-0.3-2.2c-0.2-0.7-0.5-1.4-0.9-2c-0.4-0.6-0.9-1-1.6-1.4c-0.6-0.4-1.4-0.5-2.4-0.5
			c-0.8,0-1.6,0.2-2.2,0.5c-0.6,0.4-1.1,0.8-1.5,1.4c-0.4,0.6-0.7,1.2-0.8,2c-0.2,0.7-0.3,1.5-0.3,2.2
			C557.8,333.1,557.9,333.9,558.1,334.6z"/>
		<path class="st1" d="M574.6,319.6v2.8h-1.8v-2.8H574.6z M574.6,325.1v14.4h-1.8v-14.4H574.6z"/>
		<path class="st1" d="M579.7,325.1v2.5h0.1c0.3-0.9,0.9-1.6,1.8-2.1c0.9-0.5,1.8-0.8,2.8-0.8c1,0,1.9,0.1,2.5,0.4s1.2,0.6,1.6,1.1
			c0.4,0.5,0.7,1.1,0.9,1.8c0.2,0.7,0.3,1.5,0.3,2.3v9.3h-1.8v-9c0-0.6-0.1-1.2-0.2-1.7c-0.1-0.5-0.3-1-0.6-1.4
			c-0.3-0.4-0.7-0.7-1.1-0.9c-0.5-0.2-1.1-0.3-1.8-0.3c-0.7,0-1.3,0.1-1.9,0.4s-1,0.6-1.4,1c-0.4,0.4-0.7,1-0.9,1.6s-0.3,1.3-0.3,2
			v8.4h-1.8v-14.4H579.7z"/>
		<path class="st1" d="M604.8,341.3c-0.2,0.9-0.6,1.6-1.1,2.2c-0.5,0.6-1.2,1.1-2,1.4c-0.8,0.3-1.8,0.5-3,0.5
			c-0.7,0-1.4-0.1-2.1-0.3s-1.3-0.4-1.9-0.8c-0.6-0.4-1-0.8-1.4-1.4c-0.4-0.6-0.6-1.2-0.6-2h1.8c0.1,0.5,0.3,1,0.5,1.4
			c0.3,0.4,0.6,0.7,1,0.9c0.4,0.2,0.8,0.4,1.3,0.5c0.5,0.1,0.9,0.2,1.4,0.2c1.6,0,2.8-0.5,3.6-1.4c0.7-0.9,1.1-2.3,1.1-4v-2h-0.1
			c-0.4,0.9-1,1.6-1.8,2.2s-1.7,0.8-2.8,0.8c-1.2,0-2.1-0.2-3-0.6c-0.8-0.4-1.5-0.9-2-1.6c-0.5-0.7-0.9-1.5-1.2-2.4
			c-0.2-0.9-0.4-1.9-0.4-2.9c0-1,0.1-1.9,0.4-2.8s0.7-1.7,1.3-2.3c0.6-0.7,1.2-1.2,2-1.6c0.8-0.4,1.7-0.6,2.8-0.6
			c0.5,0,1.1,0.1,1.5,0.2s0.9,0.4,1.3,0.6c0.4,0.3,0.7,0.6,1,0.9c0.3,0.4,0.5,0.7,0.7,1.1h0.1v-2.5h1.8v13.3
			C605.2,339.5,605.1,340.4,604.8,341.3z M600.8,337.5c0.6-0.3,1.1-0.8,1.5-1.3c0.4-0.5,0.7-1.1,0.9-1.8s0.3-1.4,0.3-2.1
			c0-0.7-0.1-1.4-0.3-2.1s-0.4-1.4-0.8-1.9c-0.4-0.6-0.9-1-1.4-1.4s-1.3-0.5-2.1-0.5c-0.8,0-1.6,0.2-2.2,0.5
			c-0.6,0.3-1.1,0.8-1.5,1.4c-0.4,0.6-0.7,1.2-0.9,1.9c-0.2,0.7-0.3,1.5-0.3,2.2c0,0.7,0.1,1.4,0.3,2.1s0.5,1.3,0.9,1.8
			c0.4,0.5,0.9,1,1.5,1.3c0.6,0.3,1.3,0.5,2.1,0.5C599.5,337.9,600.2,337.8,600.8,337.5z"/>
		<path class="st1" d="M70.1,361c0.3-0.6,0.7-1.1,1.2-1.5c0.5-0.4,1.1-0.7,1.8-0.9s1.5-0.3,2.3-0.3c0.6,0,1.3,0.1,1.9,0.2
			c0.6,0.1,1.2,0.4,1.7,0.7s0.9,0.8,1.2,1.4c0.3,0.6,0.5,1.4,0.5,2.4v7.7c0,0.7,0.3,1.1,1,1.1c0.2,0,0.4,0,0.6-0.1v1.5
			c-0.2,0-0.4,0.1-0.5,0.1s-0.4,0-0.6,0c-0.4,0-0.8-0.1-1.1-0.2c-0.3-0.1-0.5-0.3-0.6-0.5s-0.2-0.5-0.3-0.8c0-0.3-0.1-0.6-0.1-1H79
			c-0.3,0.5-0.6,0.9-1,1.2c-0.3,0.4-0.7,0.7-1.1,0.9c-0.4,0.2-0.9,0.4-1.4,0.6c-0.5,0.1-1.1,0.2-1.8,0.2c-0.7,0-1.3-0.1-1.9-0.2
			c-0.6-0.2-1.1-0.4-1.5-0.8c-0.4-0.3-0.8-0.8-1-1.3c-0.3-0.5-0.4-1.2-0.4-1.9c0-1,0.2-1.8,0.7-2.4c0.4-0.6,1-1,1.8-1.3
			c0.7-0.3,1.6-0.5,2.5-0.6c0.9-0.1,1.9-0.2,2.8-0.3c0.4,0,0.7-0.1,1-0.1c0.3-0.1,0.5-0.2,0.7-0.3c0.2-0.1,0.3-0.3,0.4-0.6
			c0.1-0.2,0.2-0.6,0.2-1c0-0.6-0.1-1.1-0.3-1.5c-0.2-0.4-0.5-0.7-0.8-0.9c-0.3-0.2-0.7-0.4-1.2-0.5c-0.5-0.1-0.9-0.1-1.5-0.1
			c-1.1,0-2,0.3-2.7,0.8c-0.7,0.5-1.1,1.4-1.1,2.6h-1.8C69.6,362.3,69.8,361.6,70.1,361z M78.9,365.3c-0.1,0.2-0.3,0.4-0.6,0.4
			c-0.3,0.1-0.6,0.2-0.8,0.2c-0.7,0.1-1.5,0.2-2.3,0.3c-0.8,0.1-1.5,0.3-2.2,0.5c-0.7,0.2-1.2,0.5-1.6,0.9c-0.4,0.4-0.6,0.9-0.6,1.6
			c0,0.4,0.1,0.8,0.3,1.2c0.2,0.3,0.4,0.6,0.7,0.9s0.6,0.4,1,0.6c0.4,0.1,0.8,0.2,1.2,0.2c0.7,0,1.3-0.1,1.9-0.3s1.2-0.5,1.6-0.9
			c0.5-0.4,0.8-0.9,1.1-1.4s0.4-1.2,0.4-1.9L78.9,365.3L78.9,365.3z"/>
		<path class="st1" d="M86,353.2v20h-1.8v-20H86z"/>
		<path class="st1" d="M91.2,353.2v20h-1.8v-20H91.2z"/>
		<path class="st1" d="M96.4,353.2v2.8h-1.8v-2.8H96.4z M96.4,358.7v14.4h-1.8v-14.4H96.4z"/>
		<path class="st1" d="M101.1,368.4c0.2,0.7,0.5,1.3,0.9,1.8c0.4,0.5,0.9,1,1.5,1.3c0.6,0.4,1.3,0.5,2.2,0.5c1.3,0,2.3-0.3,3-1
			c0.7-0.7,1.2-1.6,1.5-2.7h1.8c-0.4,1.6-1.1,2.9-2.1,3.8c-1,0.9-2.4,1.3-4.2,1.3c-1.1,0-2.1-0.2-3-0.6c-0.8-0.4-1.5-1-2-1.7
			s-0.9-1.5-1.2-2.4C99.2,368,99,367,99,366c0-1,0.1-1.9,0.4-2.8c0.3-0.9,0.6-1.7,1.2-2.5c0.5-0.7,1.2-1.3,2-1.7
			c0.8-0.4,1.8-0.7,3-0.7c1.2,0,2.1,0.2,3,0.7s1.5,1.1,2,1.8c0.5,0.8,0.9,1.6,1.1,2.6c0.2,1,0.3,2,0.3,3h-11.1
			C100.8,367.1,100.9,367.7,101.1,368.4z M109.8,363c-0.2-0.6-0.5-1.2-0.9-1.6c-0.4-0.5-0.9-0.9-1.4-1.1c-0.6-0.3-1.2-0.4-1.9-0.4
			c-0.7,0-1.4,0.1-1.9,0.4c-0.6,0.3-1,0.7-1.4,1.1c-0.4,0.5-0.7,1-0.9,1.7c-0.2,0.6-0.4,1.3-0.5,1.9h9.4
			C110.1,364.3,110,363.6,109.8,363z"/>
		<path class="st1" d="M122.6,361.6c-0.2-0.4-0.5-0.7-0.8-1c-0.3-0.3-0.7-0.5-1.2-0.6s-0.9-0.2-1.4-0.2c-0.4,0-0.8,0-1.2,0.1
			s-0.8,0.2-1.1,0.4c-0.3,0.2-0.6,0.5-0.8,0.8c-0.2,0.3-0.3,0.7-0.3,1.2c0,0.4,0.1,0.7,0.3,1c0.2,0.3,0.4,0.5,0.7,0.7
			c0.3,0.2,0.6,0.3,1,0.5s0.7,0.2,1,0.3l2.4,0.5c0.5,0.1,1,0.2,1.5,0.4c0.5,0.2,0.9,0.5,1.3,0.8c0.4,0.3,0.7,0.7,0.9,1.2
			c0.2,0.5,0.4,1,0.4,1.7c0,0.8-0.2,1.5-0.5,2s-0.8,1-1.4,1.3c-0.6,0.3-1.2,0.6-1.9,0.7s-1.4,0.2-2,0.2c-1.7,0-3.1-0.4-4.1-1.2
			c-1.1-0.8-1.7-2.1-1.8-3.9h1.8c0.1,1.2,0.5,2.1,1.3,2.7c0.8,0.6,1.8,0.9,3,0.9c0.4,0,0.9,0,1.3-0.1c0.5-0.1,0.9-0.3,1.3-0.5
			c0.4-0.2,0.7-0.5,1-0.9s0.4-0.8,0.4-1.3c0-0.4-0.1-0.8-0.3-1.1c-0.2-0.3-0.4-0.5-0.7-0.7s-0.6-0.4-1-0.5c-0.4-0.1-0.8-0.2-1.2-0.3
			l-2.3-0.5c-0.6-0.1-1.1-0.3-1.6-0.5c-0.5-0.2-0.9-0.4-1.3-0.7c-0.4-0.3-0.6-0.6-0.9-1.1s-0.3-0.9-0.3-1.6c0-0.7,0.2-1.4,0.5-1.9
			c0.3-0.5,0.8-0.9,1.3-1.3s1.1-0.5,1.8-0.7c0.6-0.1,1.3-0.2,1.9-0.2c0.7,0,1.4,0.1,2,0.3c0.6,0.2,1.2,0.5,1.7,0.9
			c0.5,0.4,0.9,0.9,1.1,1.5c0.3,0.6,0.4,1.3,0.5,2h-1.8C122.9,362.4,122.8,362,122.6,361.6z"/>
		<path class="st1" d="M128.8,370.2h2.4v3h-2.4V370.2z"/>
		<path class="st1" d="M145.7,353.2v20h-1.9v-20H145.7z"/>
		<path class="st1" d="M157.9,361.6c-0.2-0.4-0.5-0.7-0.8-1s-0.7-0.5-1.2-0.6c-0.4-0.1-0.9-0.2-1.4-0.2c-0.4,0-0.8,0-1.2,0.1
			s-0.8,0.2-1.1,0.4c-0.3,0.2-0.6,0.5-0.8,0.8c-0.2,0.3-0.3,0.7-0.3,1.2c0,0.4,0.1,0.7,0.3,1c0.2,0.3,0.4,0.5,0.7,0.7s0.6,0.3,1,0.5
			s0.7,0.2,1,0.3l2.4,0.5c0.5,0.1,1,0.2,1.5,0.4c0.5,0.2,0.9,0.5,1.3,0.8s0.7,0.7,0.9,1.2c0.2,0.5,0.4,1,0.4,1.7
			c0,0.8-0.2,1.5-0.5,2s-0.8,1-1.4,1.3c-0.6,0.3-1.2,0.6-1.9,0.7c-0.7,0.1-1.4,0.2-2,0.2c-1.7,0-3.1-0.4-4.1-1.2
			c-1.1-0.8-1.7-2.1-1.8-3.9h1.8c0.1,1.2,0.5,2.1,1.3,2.7c0.8,0.6,1.8,0.9,3,0.9c0.4,0,0.9,0,1.3-0.1c0.5-0.1,0.9-0.3,1.3-0.5
			c0.4-0.2,0.7-0.5,1-0.9s0.4-0.8,0.4-1.3c0-0.4-0.1-0.8-0.3-1.1c-0.2-0.3-0.4-0.5-0.7-0.7c-0.3-0.2-0.6-0.4-1-0.5
			c-0.4-0.1-0.8-0.2-1.2-0.3l-2.3-0.5c-0.6-0.1-1.1-0.3-1.6-0.5c-0.5-0.2-0.9-0.4-1.3-0.7c-0.4-0.3-0.6-0.6-0.9-1.1
			c-0.2-0.4-0.3-0.9-0.3-1.6c0-0.7,0.2-1.4,0.5-1.9c0.3-0.5,0.8-0.9,1.3-1.3c0.5-0.3,1.1-0.5,1.7-0.7c0.6-0.1,1.3-0.2,1.9-0.2
			c0.7,0,1.4,0.1,2,0.3s1.2,0.5,1.7,0.9c0.5,0.4,0.9,0.9,1.1,1.5c0.3,0.6,0.4,1.3,0.5,2h-1.8C158.2,362.4,158.1,362,157.9,361.6z"/>
		<path class="st1" d="M176.5,358.7v1.5h-2.9v9.7c0,0.6,0.1,1,0.2,1.4c0.2,0.3,0.6,0.5,1.2,0.5c0.5,0,1,0,1.5-0.1v1.5
			c-0.3,0-0.5,0-0.8,0c-0.3,0-0.5,0-0.8,0c-1.2,0-2-0.2-2.5-0.7c-0.5-0.5-0.7-1.3-0.7-2.5v-9.9h-2.5v-1.5h2.5v-4.3h1.8v4.3H176.5z"
			/>
		<path class="st1" d="M180.8,353.2v8h0.1c0.3-0.9,0.9-1.6,1.8-2.1s1.8-0.8,2.8-0.8c1,0,1.9,0.1,2.5,0.4c0.7,0.3,1.2,0.6,1.6,1.1
			c0.4,0.5,0.7,1.1,0.9,1.8s0.3,1.5,0.3,2.3v9.3H189v-9c0-0.6-0.1-1.2-0.2-1.7c-0.1-0.5-0.3-1-0.6-1.4c-0.3-0.4-0.7-0.7-1.1-0.9
			c-0.5-0.2-1.1-0.3-1.8-0.3c-0.7,0-1.3,0.1-1.9,0.4s-1,0.6-1.4,1c-0.4,0.4-0.7,1-0.9,1.6c-0.2,0.6-0.3,1.3-0.3,2v8.4h-1.8v-20
			H180.8z"/>
		<path class="st1" d="M195.9,353.2v2.8h-1.8v-2.8H195.9z M195.9,358.7v14.4h-1.8v-14.4H195.9z"/>
		<path class="st1" d="M207.6,361.6c-0.2-0.4-0.5-0.7-0.8-1s-0.7-0.5-1.2-0.6c-0.4-0.1-0.9-0.2-1.4-0.2c-0.4,0-0.8,0-1.2,0.1
			s-0.8,0.2-1.1,0.4c-0.3,0.2-0.6,0.5-0.8,0.8c-0.2,0.3-0.3,0.7-0.3,1.2c0,0.4,0.1,0.7,0.3,1c0.2,0.3,0.4,0.5,0.7,0.7s0.6,0.3,1,0.5
			s0.7,0.2,1,0.3l2.4,0.5c0.5,0.1,1,0.2,1.5,0.4c0.5,0.2,0.9,0.5,1.3,0.8s0.7,0.7,0.9,1.2c0.2,0.5,0.4,1,0.4,1.7
			c0,0.8-0.2,1.5-0.5,2s-0.8,1-1.4,1.3c-0.6,0.3-1.2,0.6-1.9,0.7c-0.7,0.1-1.4,0.2-2,0.2c-1.7,0-3.1-0.4-4.1-1.2
			c-1.1-0.8-1.7-2.1-1.8-3.9h1.8c0.1,1.2,0.5,2.1,1.3,2.7c0.8,0.6,1.8,0.9,3,0.9c0.4,0,0.9,0,1.3-0.1c0.5-0.1,0.9-0.3,1.3-0.5
			c0.4-0.2,0.7-0.5,1-0.9s0.4-0.8,0.4-1.3c0-0.4-0.1-0.8-0.3-1.1c-0.2-0.3-0.4-0.5-0.7-0.7c-0.3-0.2-0.6-0.4-1-0.5
			c-0.4-0.1-0.8-0.2-1.2-0.3l-2.3-0.5c-0.6-0.1-1.1-0.3-1.6-0.5c-0.5-0.2-0.9-0.4-1.3-0.7c-0.4-0.3-0.6-0.6-0.9-1.1
			c-0.2-0.4-0.3-0.9-0.3-1.6c0-0.7,0.2-1.4,0.5-1.9c0.3-0.5,0.8-0.9,1.3-1.3c0.5-0.3,1.1-0.5,1.7-0.7c0.6-0.1,1.3-0.2,1.9-0.2
			c0.7,0,1.4,0.1,2,0.3s1.2,0.5,1.7,0.9c0.5,0.4,0.9,0.9,1.1,1.5c0.3,0.6,0.4,1.3,0.5,2H208C207.9,362.4,207.8,362,207.6,361.6z"/>
		<path class="st1" d="M222.3,353.2v20h-1.8v-20H222.3z"/>
		<path class="st1" d="M226.1,361c0.3-0.6,0.7-1.1,1.2-1.5c0.5-0.4,1.1-0.7,1.8-0.9c0.7-0.2,1.5-0.3,2.3-0.3c0.6,0,1.3,0.1,1.9,0.2
			c0.6,0.1,1.2,0.4,1.7,0.7s0.9,0.8,1.2,1.4s0.5,1.4,0.5,2.4v7.7c0,0.7,0.3,1.1,1,1.1c0.2,0,0.4,0,0.6-0.1v1.5
			c-0.2,0-0.4,0.1-0.5,0.1c-0.2,0-0.4,0-0.6,0c-0.4,0-0.8-0.1-1.1-0.2c-0.3-0.1-0.5-0.3-0.6-0.5s-0.2-0.5-0.3-0.8
			c0-0.3-0.1-0.6-0.1-1h-0.1c-0.3,0.5-0.6,0.9-1,1.2c-0.3,0.4-0.7,0.7-1.1,0.9c-0.4,0.2-0.9,0.4-1.4,0.6c-0.5,0.1-1.1,0.2-1.8,0.2
			c-0.7,0-1.3-0.1-1.9-0.2c-0.6-0.2-1.1-0.4-1.5-0.8c-0.4-0.3-0.8-0.8-1-1.3c-0.3-0.5-0.4-1.2-0.4-1.9c0-1,0.2-1.8,0.7-2.4
			c0.4-0.6,1-1,1.8-1.3c0.7-0.3,1.6-0.5,2.5-0.6c0.9-0.1,1.9-0.2,2.8-0.3c0.4,0,0.7-0.1,1-0.1c0.3-0.1,0.5-0.2,0.7-0.3
			c0.2-0.1,0.3-0.3,0.4-0.6c0.1-0.2,0.2-0.6,0.2-1c0-0.6-0.1-1.1-0.3-1.5s-0.5-0.7-0.8-0.9c-0.3-0.2-0.7-0.4-1.2-0.5
			c-0.5-0.1-0.9-0.1-1.5-0.1c-1.1,0-2,0.3-2.7,0.8c-0.7,0.5-1.1,1.4-1.1,2.6h-1.8C225.6,362.3,225.8,361.6,226.1,361z M234.9,365.3
			c-0.1,0.2-0.3,0.4-0.6,0.4c-0.3,0.1-0.6,0.2-0.8,0.2c-0.7,0.1-1.5,0.2-2.3,0.3c-0.8,0.1-1.5,0.3-2.2,0.5c-0.7,0.2-1.2,0.5-1.6,0.9
			c-0.4,0.4-0.6,0.9-0.6,1.6c0,0.4,0.1,0.8,0.3,1.2c0.2,0.3,0.4,0.6,0.7,0.9s0.6,0.4,1,0.6c0.4,0.1,0.8,0.2,1.2,0.2
			c0.7,0,1.3-0.1,1.9-0.3c0.6-0.2,1.2-0.5,1.6-0.9c0.5-0.4,0.8-0.9,1.1-1.4s0.4-1.2,0.4-1.9L234.9,365.3L234.9,365.3z"/>
		<path class="st1" d="M240.7,358.7l3.7,12.4h0.1l3.5-12.4h2l3.5,12.4h0.1l3.7-12.4h1.9l-4.6,14.4h-1.9L249,361h-0.1l-3.5,12.2h-1.9
			l-4.6-14.4H240.7z"/>
		<path class="st1" d="M269.2,361c0.3-0.6,0.7-1.1,1.2-1.5c0.5-0.4,1.1-0.7,1.8-0.9c0.7-0.2,1.5-0.3,2.3-0.3c0.6,0,1.3,0.1,1.9,0.2
			c0.6,0.1,1.2,0.4,1.7,0.7s0.9,0.8,1.2,1.4s0.5,1.4,0.5,2.4v7.7c0,0.7,0.3,1.1,1,1.1c0.2,0,0.4,0,0.6-0.1v1.5
			c-0.2,0-0.4,0.1-0.5,0.1c-0.2,0-0.4,0-0.6,0c-0.4,0-0.8-0.1-1.1-0.2c-0.3-0.1-0.5-0.3-0.6-0.5s-0.2-0.5-0.3-0.8
			c0-0.3-0.1-0.6-0.1-1h-0.1c-0.3,0.5-0.6,0.9-1,1.2c-0.3,0.4-0.7,0.7-1.1,0.9c-0.4,0.2-0.9,0.4-1.4,0.6c-0.5,0.1-1.1,0.2-1.8,0.2
			c-0.7,0-1.3-0.1-1.9-0.2c-0.6-0.2-1.1-0.4-1.5-0.8c-0.4-0.3-0.8-0.8-1-1.3c-0.3-0.5-0.4-1.2-0.4-1.9c0-1,0.2-1.8,0.7-2.4
			c0.4-0.6,1-1,1.8-1.3c0.7-0.3,1.6-0.5,2.5-0.6c0.9-0.1,1.9-0.2,2.8-0.3c0.4,0,0.7-0.1,1-0.1c0.3-0.1,0.5-0.2,0.7-0.3
			c0.2-0.1,0.3-0.3,0.4-0.6c0.1-0.2,0.2-0.6,0.2-1c0-0.6-0.1-1.1-0.3-1.5s-0.5-0.7-0.8-0.9c-0.3-0.2-0.7-0.4-1.2-0.5
			c-0.5-0.1-0.9-0.1-1.5-0.1c-1.1,0-2,0.3-2.7,0.8c-0.7,0.5-1.1,1.4-1.1,2.6h-1.8C268.7,362.3,268.9,361.6,269.2,361z M278,365.3
			c-0.1,0.2-0.3,0.4-0.6,0.4c-0.3,0.1-0.6,0.2-0.8,0.2c-0.7,0.1-1.5,0.2-2.3,0.3c-0.8,0.1-1.5,0.3-2.2,0.5c-0.7,0.2-1.2,0.5-1.6,0.9
			c-0.4,0.4-0.6,0.9-0.6,1.6c0,0.4,0.1,0.8,0.3,1.2c0.2,0.3,0.4,0.6,0.7,0.9s0.6,0.4,1,0.6c0.4,0.1,0.8,0.2,1.2,0.2
			c0.7,0,1.3-0.1,1.9-0.3c0.6-0.2,1.2-0.5,1.6-0.9c0.5-0.4,0.8-0.9,1.1-1.4s0.4-1.2,0.4-1.9L278,365.3L278,365.3z"/>
		<path class="st1" d="M285.1,358.7v2.5h0.1c0.3-0.9,0.9-1.6,1.8-2.1s1.8-0.8,2.8-0.8c1,0,1.9,0.1,2.5,0.4c0.7,0.3,1.2,0.6,1.6,1.1
			c0.4,0.5,0.7,1.1,0.9,1.8s0.3,1.5,0.3,2.3v9.3h-1.8v-9c0-0.6-0.1-1.2-0.2-1.7c-0.1-0.5-0.3-1-0.6-1.4c-0.3-0.4-0.7-0.7-1.1-0.9
			c-0.5-0.2-1.1-0.3-1.8-0.3c-0.7,0-1.3,0.1-1.9,0.4s-1,0.6-1.4,1c-0.4,0.4-0.7,1-0.9,1.6c-0.2,0.6-0.3,1.3-0.3,2v8.4h-1.8v-14.4
			H285.1z"/>
		<path class="st1" d="M309.5,373.2v-2.7h-0.1c-0.2,0.5-0.5,0.9-0.8,1.3c-0.4,0.4-0.8,0.7-1.2,1s-1,0.5-1.5,0.6
			c-0.5,0.1-1.1,0.2-1.6,0.2c-1.1,0-2.1-0.2-2.9-0.6c-0.8-0.4-1.5-1-2-1.7c-0.5-0.7-0.9-1.5-1.2-2.4c-0.3-0.9-0.4-1.9-0.4-2.9
			c0-1,0.1-2,0.4-2.9c0.3-0.9,0.7-1.7,1.2-2.4c0.5-0.7,1.2-1.3,2-1.7c0.8-0.4,1.8-0.6,2.9-0.6c0.5,0,1.1,0.1,1.6,0.2s1,0.3,1.4,0.6
			s0.8,0.6,1.2,1c0.3,0.4,0.6,0.8,0.8,1.4h0.1v-8.3h1.8v20H309.5z M299.8,368.2c0.2,0.7,0.5,1.4,0.8,2c0.4,0.6,0.9,1,1.5,1.4
			c0.6,0.4,1.3,0.5,2.2,0.5c0.9,0,1.7-0.2,2.4-0.5c0.6-0.4,1.2-0.8,1.6-1.4c0.4-0.6,0.7-1.2,0.9-2c0.2-0.7,0.3-1.5,0.3-2.2
			c0-0.7-0.1-1.5-0.3-2.2c-0.2-0.7-0.5-1.4-0.9-2c-0.4-0.6-0.9-1.1-1.6-1.4c-0.6-0.4-1.4-0.5-2.4-0.5c-0.8,0-1.6,0.2-2.2,0.5
			c-0.6,0.4-1.1,0.8-1.5,1.4c-0.4,0.6-0.7,1.2-0.8,2s-0.3,1.5-0.3,2.2C299.5,366.7,299.6,367.5,299.8,368.2z"/>
		<path class="st1" d="M331.3,358.9c0.8,0.4,1.6,1,2.1,1.7c0.6,0.7,1,1.5,1.3,2.4c0.3,0.9,0.4,1.9,0.4,3c0,1-0.1,2-0.4,3
			s-0.7,1.7-1.3,2.4c-0.6,0.7-1.3,1.2-2.1,1.6s-1.8,0.6-2.9,0.6c-1.1,0-2.1-0.2-2.9-0.6c-0.8-0.4-1.6-0.9-2.1-1.6
			c-0.6-0.7-1-1.5-1.3-2.4c-0.3-0.9-0.4-1.9-0.4-3c0-1,0.1-2,0.4-3c0.3-0.9,0.7-1.7,1.3-2.4c0.6-0.7,1.3-1.2,2.1-1.7
			c0.8-0.4,1.8-0.6,2.9-0.6C329.4,358.3,330.4,358.5,331.3,358.9z M326.1,360.3c-0.6,0.4-1.2,0.8-1.6,1.4c-0.4,0.6-0.7,1.2-1,2
			c-0.2,0.7-0.3,1.5-0.3,2.3c0,0.8,0.1,1.5,0.3,2.3c0.2,0.7,0.5,1.4,1,2c0.4,0.6,0.9,1,1.6,1.4c0.6,0.4,1.4,0.5,2.2,0.5
			s1.6-0.2,2.2-0.5c0.6-0.4,1.2-0.8,1.6-1.4c0.4-0.6,0.7-1.2,1-2c0.2-0.7,0.3-1.5,0.3-2.3c0-0.8-0.1-1.5-0.3-2.3
			c-0.2-0.7-0.5-1.4-1-2c-0.4-0.6-0.9-1-1.6-1.4c-0.6-0.4-1.4-0.5-2.2-0.5S326.7,360,326.1,360.3z"/>
		<path class="st1" d="M339.4,358.7v3.4h0.1c0.4-1.2,1.1-2.1,2.1-2.7c0.9-0.6,2.1-0.9,3.4-0.9v1.8c-0.8,0-1.5,0.1-2.2,0.3
			s-1.2,0.6-1.7,1.1c-0.5,0.5-0.8,1-1.1,1.7c-0.3,0.6-0.4,1.3-0.4,2.1v7.7h-1.8v-14.4H339.4z"/>
		<path class="st1" d="M357.2,373.2v-2.7h-0.1c-0.2,0.5-0.5,0.9-0.8,1.3c-0.4,0.4-0.8,0.7-1.2,1s-1,0.5-1.5,0.6
			c-0.5,0.1-1.1,0.2-1.6,0.2c-1.1,0-2.1-0.2-2.9-0.6c-0.8-0.4-1.5-1-2-1.7c-0.5-0.7-0.9-1.5-1.2-2.4c-0.3-0.9-0.4-1.9-0.4-2.9
			c0-1,0.1-2,0.4-2.9c0.3-0.9,0.7-1.7,1.2-2.4c0.5-0.7,1.2-1.3,2-1.7c0.8-0.4,1.8-0.6,2.9-0.6c0.5,0,1.1,0.1,1.6,0.2s1,0.3,1.4,0.6
			s0.8,0.6,1.2,1c0.3,0.4,0.6,0.8,0.8,1.4h0.1v-8.3h1.8v20H357.2z M347.5,368.2c0.2,0.7,0.5,1.4,0.8,2c0.4,0.6,0.9,1,1.5,1.4
			c0.6,0.4,1.3,0.5,2.2,0.5c0.9,0,1.7-0.2,2.4-0.5c0.6-0.4,1.2-0.8,1.6-1.4c0.4-0.6,0.7-1.2,0.9-2c0.2-0.7,0.3-1.5,0.3-2.2
			c0-0.7-0.1-1.5-0.3-2.2c-0.2-0.7-0.5-1.4-0.9-2c-0.4-0.6-0.9-1.1-1.6-1.4c-0.6-0.4-1.4-0.5-2.4-0.5c-0.8,0-1.6,0.2-2.2,0.5
			c-0.6,0.4-1.1,0.8-1.5,1.4c-0.4,0.6-0.7,1.2-0.8,2s-0.3,1.5-0.3,2.2C347.3,366.7,347.3,367.5,347.5,368.2z"/>
		<path class="st1" d="M363.5,368.4c0.2,0.7,0.5,1.3,0.9,1.8c0.4,0.5,0.9,1,1.5,1.3c0.6,0.4,1.3,0.5,2.2,0.5c1.3,0,2.3-0.3,3-1
			c0.7-0.7,1.2-1.6,1.5-2.7h1.8c-0.4,1.6-1.1,2.9-2.1,3.8c-1,0.9-2.4,1.3-4.2,1.3c-1.1,0-2.1-0.2-3-0.6c-0.8-0.4-1.5-1-2-1.7
			c-0.5-0.7-0.9-1.5-1.2-2.4c-0.3-0.9-0.4-1.9-0.4-2.9c0-1,0.1-1.9,0.4-2.8c0.3-0.9,0.6-1.7,1.2-2.5c0.5-0.7,1.2-1.3,2-1.7
			c0.8-0.4,1.8-0.7,3-0.7c1.2,0,2.1,0.2,3,0.7c0.8,0.5,1.5,1.1,2,1.8c0.5,0.8,0.9,1.6,1.1,2.6c0.2,1,0.3,2,0.3,3h-11.1
			C363.2,367.1,363.3,367.7,363.5,368.4z M372.2,363c-0.2-0.6-0.5-1.2-0.9-1.6c-0.4-0.5-0.9-0.9-1.4-1.1c-0.6-0.3-1.2-0.4-1.9-0.4
			c-0.7,0-1.4,0.1-1.9,0.4c-0.6,0.3-1,0.7-1.4,1.1c-0.4,0.5-0.7,1-0.9,1.7c-0.2,0.6-0.4,1.3-0.5,1.9h9.4
			C372.5,364.3,372.4,363.6,372.2,363z"/>
		<path class="st1" d="M378.3,358.7v3.4h0.1c0.4-1.2,1.1-2.1,2.1-2.7c0.9-0.6,2.1-0.9,3.4-0.9v1.8c-0.8,0-1.5,0.1-2.2,0.3
			s-1.2,0.6-1.7,1.1c-0.5,0.5-0.8,1-1.1,1.7c-0.3,0.6-0.4,1.3-0.4,2.1v7.7h-1.8v-14.4H378.3z"/>
		<path class="st1" d="M385.8,356.7c0.3-0.8,0.7-1.5,1.2-2.1c0.6-0.6,1.2-1,2-1.3c0.8-0.3,1.7-0.5,2.7-0.5c0.8,0,1.5,0.1,2.2,0.3
			c0.7,0.2,1.3,0.6,1.8,1s0.9,1,1.2,1.6s0.4,1.4,0.4,2.2c0,1-0.2,1.9-0.7,2.7c-0.5,0.7-1,1.4-1.8,2.1c-0.6,0.6-1,1-1.4,1.4
			c-0.3,0.3-0.6,0.6-0.8,1s-0.3,0.7-0.3,1.2c-0.1,0.5-0.1,1.1-0.1,2h-1.8c0-0.9,0-1.6,0.1-2.2c0.1-0.6,0.3-1.1,0.5-1.6
			c0.3-0.5,0.6-0.9,1-1.3c0.4-0.4,0.9-0.9,1.5-1.5c0.5-0.5,1-1,1.3-1.6c0.3-0.6,0.5-1.3,0.5-2c0-0.6-0.1-1.1-0.3-1.5
			c-0.2-0.5-0.5-0.9-0.9-1.2c-0.4-0.3-0.8-0.6-1.3-0.8c-0.5-0.2-1-0.3-1.5-0.3c-0.7,0-1.4,0.1-2,0.4c-0.6,0.3-1.1,0.6-1.4,1.1
			c-0.4,0.5-0.7,1-0.8,1.6c-0.2,0.6-0.3,1.3-0.3,2h-1.8C385.4,358.4,385.5,357.5,385.8,356.7z M392.7,370.2v3h-2.4v-3H392.7z"/>
	</g>
	<g>
		<path class="st1" d="M74,400h1v8h1.8v0.9H75v3h-1v-3h-5.5v-1L74,400z M74,401.5L74,401.5l-4.5,6.5H74V401.5z"/>
		<path class="st1" d="M79.1,403.4h1.4v1.8h-1.4V403.4z M79.1,410.1h1.4v1.8h-1.4V410.1z"/>
		<path class="st1" d="M85.1,402.2c0.4,0,0.7-0.1,1-0.3c0.3-0.1,0.5-0.4,0.7-0.7c0.2-0.3,0.3-0.7,0.4-1.3h0.9v11.9H87V403h-3.1v-0.8
			C84.3,402.3,84.7,402.2,85.1,402.2z"/>
		<path class="st1" d="M100.2,400.1v1c-0.4,0.4-0.8,0.9-1.3,1.6c-0.5,0.7-1,1.4-1.5,2.3c-0.5,0.9-0.9,1.9-1.3,3.1
			c-0.4,1.2-0.6,2.4-0.7,3.8h-1.2c0.1-1,0.2-2,0.4-2.9c0.2-0.9,0.5-1.8,0.9-2.6c0.4-0.9,0.9-1.7,1.5-2.6c0.6-0.9,1.3-1.8,2.1-2.7
			h-6.6v-1H100.2z"/>
		<path class="st1" d="M112.4,399.7c0.5,0,1,0.1,1.5,0.2c0.4,0.2,0.8,0.4,1.1,0.7c0.3,0.3,0.6,0.7,0.7,1.1s0.3,0.9,0.3,1.5
			s-0.1,1-0.3,1.5s-0.4,0.8-0.7,1.1c-0.3,0.3-0.7,0.5-1.1,0.7s-0.9,0.2-1.5,0.2h-4.2v5.2H107v-12.1H112.4z M112.2,405.7
			c0.8,0,1.5-0.2,2-0.6s0.7-1,0.7-1.9s-0.2-1.5-0.7-1.9s-1.2-0.6-2-0.6h-4v5H112.2z"/>
		<path class="st1" d="M119.4,399.7l4,10.6l4.2-10.6h1.7v12.1h-1.2v-10.5h0l-4.1,10.5h-1.1l-4-10.5h0v10.5h-1.2v-12.1H119.4z"/>
		<path class="st1" d="M132.1,410.1h1.4v1.8h-1.4V410.1z"/>
		<path class="st1" d="M146,399.7l4.8,12.1h-1.2l-1.5-3.8h-5.5l-1.5,3.8h-1.2l4.9-12.1H146z M147.7,407.1l-2.3-6.2l-2.4,6.2H147.7z"
			/>
		<path class="st1" d="M157.8,411.9v-1.6h0c-0.3,0.6-0.7,1-1.2,1.4s-1.1,0.5-1.8,0.5c-0.6,0-1-0.1-1.4-0.2c-0.4-0.2-0.7-0.4-1-0.7
			c-0.2-0.3-0.4-0.6-0.5-1c-0.1-0.4-0.2-0.9-0.2-1.4v-5.7h1.1v5.7c0,0.8,0.2,1.4,0.6,1.8s0.9,0.6,1.8,0.6c0.5,0,0.9-0.1,1.2-0.3
			c0.3-0.2,0.6-0.5,0.8-0.8c0.2-0.3,0.4-0.7,0.5-1.1c0.1-0.4,0.2-0.9,0.2-1.3v-4.6h1.1v8.8H157.8z"/>
		<path class="st1" d="M168,412.9c-0.1,0.5-0.4,1-0.7,1.3c-0.3,0.4-0.7,0.6-1.2,0.8c-0.5,0.2-1.1,0.3-1.8,0.3
			c-0.4,0-0.9-0.1-1.3-0.2c-0.4-0.1-0.8-0.3-1.1-0.5c-0.3-0.2-0.6-0.5-0.8-0.8s-0.3-0.7-0.4-1.2h1.1c0.1,0.3,0.2,0.6,0.3,0.8
			c0.2,0.2,0.4,0.4,0.6,0.5c0.2,0.1,0.5,0.2,0.8,0.3s0.6,0.1,0.9,0.1c1,0,1.7-0.3,2.2-0.8c0.4-0.6,0.7-1.4,0.7-2.4V410h0
			c-0.2,0.5-0.6,1-1.1,1.3c-0.5,0.3-1,0.5-1.7,0.5c-0.7,0-1.3-0.1-1.8-0.3c-0.5-0.2-0.9-0.6-1.2-1c-0.3-0.4-0.6-0.9-0.7-1.4
			s-0.2-1.1-0.2-1.8c0-0.6,0.1-1.2,0.3-1.7s0.4-1,0.8-1.4c0.3-0.4,0.7-0.7,1.2-1c0.5-0.2,1.1-0.3,1.7-0.3c0.3,0,0.6,0,0.9,0.1
			s0.6,0.2,0.8,0.4c0.2,0.2,0.5,0.4,0.6,0.6c0.2,0.2,0.3,0.4,0.4,0.7h0v-1.5h1.1v8.1C168.2,411.8,168.1,412.4,168,412.9z
			 M165.5,410.6c0.4-0.2,0.6-0.5,0.9-0.8c0.2-0.3,0.4-0.7,0.5-1.1c0.1-0.4,0.2-0.8,0.2-1.3c0-0.4-0.1-0.9-0.2-1.3
			c-0.1-0.4-0.3-0.8-0.5-1.2c-0.2-0.4-0.5-0.6-0.9-0.8c-0.4-0.2-0.8-0.3-1.3-0.3c-0.5,0-0.9,0.1-1.3,0.3c-0.4,0.2-0.7,0.5-0.9,0.8
			c-0.2,0.3-0.4,0.7-0.5,1.2c-0.1,0.4-0.2,0.9-0.2,1.3c0,0.4,0.1,0.9,0.2,1.3c0.1,0.4,0.3,0.8,0.5,1.1c0.2,0.3,0.5,0.6,0.9,0.8
			c0.4,0.2,0.8,0.3,1.3,0.3C164.8,410.9,165.2,410.8,165.5,410.6z"/>
		<path class="st1" d="M176.9,402.2c0.4,0,0.7-0.1,1-0.3c0.3-0.1,0.5-0.4,0.7-0.7c0.2-0.3,0.3-0.7,0.4-1.3h0.9v11.9h-1.1V403h-3.1
			v-0.8C176.1,402.3,176.5,402.2,176.9,402.2z"/>
		<path class="st1" d="M189.4,400h1v8h1.8v0.9h-1.8v3h-1v-3h-5.5v-1L189.4,400z M189.4,401.5L189.4,401.5l-4.5,6.5h4.5V401.5z"/>
		<path class="st1" d="M195.9,411.9c0,0.2,0,0.5-0.1,0.7c-0.1,0.2-0.2,0.5-0.3,0.7c-0.1,0.2-0.3,0.4-0.5,0.6
			c-0.2,0.2-0.4,0.3-0.7,0.3v-0.7c0.1,0,0.3-0.1,0.4-0.3c0.1-0.1,0.2-0.3,0.3-0.4c0.1-0.2,0.1-0.3,0.1-0.5s0-0.3,0-0.4h-0.7v-1.8
			h1.4V411.9z"/>
		<path class="st1" d="M202.9,411.9c0-0.6,0.1-1.1,0.3-1.6c0.2-0.5,0.4-0.9,0.8-1.2c0.3-0.4,0.7-0.7,1.1-1c0.4-0.3,0.8-0.6,1.2-0.9
			c0.4-0.3,0.8-0.6,1.2-0.8c0.4-0.3,0.8-0.6,1.1-0.9c0.3-0.3,0.6-0.7,0.7-1c0.2-0.3,0.2-0.8,0.2-1.2c0-0.4-0.1-0.7-0.2-1
			c-0.1-0.3-0.3-0.6-0.6-0.8c-0.2-0.2-0.5-0.4-0.9-0.5s-0.7-0.2-1-0.2c-0.5,0-0.9,0.1-1.2,0.3c-0.3,0.2-0.6,0.4-0.8,0.7
			c-0.2,0.3-0.4,0.7-0.5,1.1s-0.1,0.8-0.1,1.3h-1.1c0-0.6,0.1-1.2,0.2-1.7c0.2-0.5,0.4-1,0.7-1.3c0.3-0.4,0.7-0.7,1.2-0.9
			s1-0.3,1.7-0.3c0.5,0,1,0.1,1.5,0.2c0.4,0.1,0.8,0.4,1.2,0.6c0.3,0.3,0.6,0.6,0.8,1c0.2,0.4,0.3,0.9,0.3,1.5c0,0.5-0.1,1-0.2,1.4
			s-0.4,0.8-0.7,1.1c-0.3,0.3-0.6,0.7-1,0.9c-0.4,0.3-0.7,0.6-1.1,0.8c-0.3,0.2-0.6,0.4-1,0.6c-0.4,0.2-0.8,0.5-1.1,0.8
			c-0.4,0.3-0.7,0.6-0.9,0.9c-0.3,0.3-0.4,0.7-0.5,1.1h6.6v1H202.9z"/>
		<path class="st1" d="M218.6,400.5c0.5,0.4,1,0.9,1.3,1.5c0.3,0.6,0.5,1.2,0.6,2c0.1,0.7,0.2,1.4,0.2,2.1c0,0.7-0.1,1.4-0.2,2.1
			c-0.1,0.7-0.3,1.4-0.6,2c-0.3,0.6-0.7,1.1-1.3,1.4s-1.2,0.6-2.1,0.6c-0.9,0-1.6-0.2-2.1-0.6s-1-0.9-1.3-1.4
			c-0.3-0.6-0.5-1.2-0.6-2c-0.1-0.7-0.2-1.4-0.2-2.1c0-0.7,0.1-1.4,0.2-2.1c0.1-0.7,0.3-1.4,0.6-2c0.3-0.6,0.7-1.1,1.3-1.5
			s1.2-0.6,2.1-0.6C217.4,399.9,218.1,400.1,218.6,400.5z M214.9,401.3c-0.4,0.4-0.7,0.8-0.9,1.3c-0.2,0.5-0.3,1.1-0.4,1.7
			c-0.1,0.6-0.1,1.2-0.1,1.7c0,0.5,0,1.1,0.1,1.7c0.1,0.6,0.2,1.2,0.4,1.7c0.2,0.5,0.5,1,0.9,1.3c0.4,0.4,1,0.5,1.6,0.5
			c0.7,0,1.2-0.2,1.6-0.5s0.7-0.8,0.9-1.3c0.2-0.5,0.3-1.1,0.4-1.7s0.1-1.2,0.1-1.7c0-0.5,0-1.1-0.1-1.7c-0.1-0.6-0.2-1.2-0.4-1.7
			c-0.2-0.5-0.5-1-0.9-1.3c-0.4-0.4-1-0.5-1.6-0.5C215.8,400.8,215.3,401,214.9,401.3z"/>
		<path class="st1" d="M224.1,402.2c0.4,0,0.7-0.1,1-0.3c0.3-0.1,0.5-0.4,0.7-0.7c0.2-0.3,0.3-0.7,0.4-1.3h0.9v11.9H226V403h-3.1
			v-0.8C223.3,402.3,223.8,402.2,224.1,402.2z"/>
		<path class="st1" d="M233.4,410.6c0.4,0.4,1,0.6,1.7,0.6c0.7,0,1.3-0.2,1.7-0.5s0.8-0.8,1-1.3c0.2-0.5,0.4-1.1,0.5-1.7
			c0.1-0.6,0.1-1.2,0.1-1.7h0c-0.3,0.6-0.7,1.1-1.3,1.4c-0.6,0.4-1.2,0.5-1.9,0.5c-0.6,0-1.1-0.1-1.6-0.3c-0.5-0.2-0.9-0.5-1.2-0.8
			c-0.3-0.4-0.6-0.8-0.8-1.3c-0.2-0.5-0.3-1-0.3-1.6s0.1-1.1,0.3-1.6c0.2-0.5,0.5-0.9,0.8-1.3c0.4-0.4,0.8-0.6,1.3-0.8
			s1-0.3,1.6-0.3c0.7,0,1.3,0.1,1.9,0.3c0.5,0.2,1,0.6,1.3,1.1c0.3,0.5,0.6,1.2,0.8,2s0.2,1.8,0.2,2.9c0,0.2,0,0.5,0,0.9
			c0,0.4-0.1,0.8-0.2,1.2c-0.1,0.4-0.2,0.9-0.4,1.3c-0.2,0.4-0.4,0.8-0.7,1.2s-0.7,0.6-1.2,0.9c-0.5,0.2-1,0.3-1.7,0.3
			c-1.1,0-1.9-0.3-2.5-0.8c-0.6-0.5-1-1.3-1.1-2.3h1.1C232.7,409.7,233,410.2,233.4,410.6z M236.4,406.7c0.4-0.2,0.7-0.4,0.9-0.7
			c0.3-0.3,0.4-0.6,0.6-1c0.1-0.4,0.2-0.8,0.2-1.2c0-0.4-0.1-0.8-0.2-1.2s-0.3-0.7-0.5-1c-0.2-0.3-0.6-0.5-0.9-0.7
			c-0.4-0.2-0.8-0.2-1.3-0.2c-0.4,0-0.8,0.1-1.2,0.2c-0.4,0.2-0.7,0.4-0.9,0.7s-0.5,0.6-0.6,1c-0.1,0.4-0.2,0.8-0.2,1.2
			c0,0.4,0.1,0.8,0.2,1.2c0.1,0.4,0.3,0.7,0.6,1c0.2,0.3,0.5,0.5,0.9,0.7c0.4,0.2,0.8,0.2,1.2,0.2
			C235.7,407,236.1,406.9,236.4,406.7z"/>
		<path class="st1" d="M241.8,410.1h1.4v1.8h-1.4V410.1z"/>
		<path class="st3" d="M259.1,399.7v1h-4.2v11.2h-1.2v-11.2h-4.2v-1H259.1z"/>
		<path class="st3" d="M258.4,403.1l2.2,7.5h0l2.1-7.5h1.2l2.1,7.5h0l2.2-7.5h1.1l-2.8,8.8h-1.2l-2.2-7.4h0l-2.1,7.4h-1.2l-2.8-8.8
			H258.4z"/>
		<path class="st3" d="M271.8,399.7v1.7h-1.1v-1.7H271.8z M271.8,403.1v8.8h-1.1v-8.8H271.8z"/>
		<path class="st3" d="M277.4,403.1v0.9h-1.8v5.9c0,0.4,0,0.6,0.1,0.8c0.1,0.2,0.3,0.3,0.7,0.3c0.3,0,0.6,0,0.9-0.1v0.9
			c-0.2,0-0.3,0-0.5,0c-0.2,0-0.3,0-0.5,0c-0.7,0-1.2-0.1-1.5-0.4c-0.3-0.3-0.4-0.8-0.4-1.5v-6H273v-0.9h1.5v-2.6h1.1v2.6H277.4z"/>
		<path class="st3" d="M282.4,403.1v0.9h-1.8v5.9c0,0.4,0,0.6,0.1,0.8c0.1,0.2,0.3,0.3,0.7,0.3c0.3,0,0.6,0,0.9-0.1v0.9
			c-0.2,0-0.3,0-0.5,0c-0.2,0-0.3,0-0.5,0c-0.7,0-1.2-0.1-1.5-0.4c-0.3-0.3-0.4-0.8-0.4-1.5v-6H278v-0.9h1.5v-2.6h1.1v2.6H282.4z"/>
		<path class="st3" d="M284.8,409c0.1,0.4,0.3,0.8,0.5,1.1c0.2,0.3,0.5,0.6,0.9,0.8c0.4,0.2,0.8,0.3,1.3,0.3c0.8,0,1.4-0.2,1.8-0.6
			s0.7-1,0.9-1.6h1.1c-0.2,1-0.6,1.8-1.2,2.3s-1.5,0.8-2.6,0.8c-0.7,0-1.3-0.1-1.8-0.4c-0.5-0.2-0.9-0.6-1.2-1
			c-0.3-0.4-0.6-0.9-0.7-1.5c-0.2-0.6-0.2-1.2-0.2-1.8c0-0.6,0.1-1.1,0.2-1.7s0.4-1.1,0.7-1.5s0.7-0.8,1.2-1.1
			c0.5-0.3,1.1-0.4,1.8-0.4c0.7,0,1.3,0.1,1.8,0.4s0.9,0.7,1.2,1.1s0.5,1,0.7,1.6c0.1,0.6,0.2,1.2,0.2,1.8h-6.7
			C284.6,408.2,284.6,408.6,284.8,409z M290.1,405.7c-0.1-0.4-0.3-0.7-0.6-1c-0.2-0.3-0.5-0.5-0.9-0.7s-0.7-0.3-1.2-0.3
			c-0.4,0-0.8,0.1-1.2,0.3s-0.6,0.4-0.9,0.7c-0.2,0.3-0.4,0.6-0.6,1s-0.2,0.8-0.3,1.2h5.7C290.3,406.5,290.2,406.1,290.1,405.7z"/>
		<path class="st3" d="M293.8,403.1v2.1h0c0.3-0.7,0.7-1.3,1.3-1.6c0.6-0.4,1.3-0.6,2-0.5v1.1c-0.5,0-0.9,0-1.3,0.2
			c-0.4,0.2-0.7,0.4-1,0.7c-0.3,0.3-0.5,0.6-0.7,1c-0.2,0.4-0.2,0.8-0.2,1.3v4.7h-1.1v-8.8H293.8z"/>
		<path class="st3" d="M304.5,404v7.9h-1.1V404h-1.5v-0.9h1.5v-0.8c0-0.4,0-0.7,0.1-1c0.1-0.3,0.2-0.6,0.3-0.8s0.4-0.4,0.7-0.5
			c0.3-0.1,0.6-0.2,1.1-0.2c0.2,0,0.3,0,0.4,0c0.1,0,0.3,0,0.5,0.1v0.9c-0.1,0-0.3,0-0.4-0.1c-0.1,0-0.2,0-0.4,0
			c-0.3,0-0.5,0-0.7,0.1c-0.2,0.1-0.3,0.2-0.3,0.4c-0.1,0.2-0.1,0.3-0.1,0.5c0,0.2,0,0.4,0,0.7v0.8h1.7v0.9H304.5z"/>
		<path class="st3" d="M312.8,403.2c0.5,0.2,0.9,0.6,1.3,1c0.4,0.4,0.6,0.9,0.8,1.5c0.2,0.6,0.3,1.2,0.3,1.8s-0.1,1.2-0.3,1.8
			c-0.2,0.6-0.4,1.1-0.8,1.5c-0.4,0.4-0.8,0.8-1.3,1c-0.5,0.2-1.1,0.4-1.8,0.4c-0.7,0-1.3-0.1-1.8-0.4c-0.5-0.2-0.9-0.6-1.3-1
			c-0.4-0.4-0.6-0.9-0.8-1.5c-0.2-0.6-0.3-1.2-0.3-1.8s0.1-1.2,0.3-1.8c0.2-0.6,0.4-1.1,0.8-1.5c0.4-0.4,0.8-0.8,1.3-1
			c0.5-0.2,1.1-0.4,1.8-0.4C311.6,402.9,312.2,403,312.8,403.2z M309.6,404.1c-0.4,0.2-0.7,0.5-1,0.8c-0.3,0.4-0.4,0.8-0.6,1.2
			c-0.1,0.4-0.2,0.9-0.2,1.4s0.1,0.9,0.2,1.4c0.1,0.4,0.3,0.8,0.6,1.2c0.3,0.4,0.6,0.6,1,0.9c0.4,0.2,0.8,0.3,1.3,0.3
			c0.5,0,1-0.1,1.3-0.3c0.4-0.2,0.7-0.5,1-0.9c0.3-0.4,0.4-0.8,0.6-1.2c0.1-0.4,0.2-0.9,0.2-1.4s-0.1-0.9-0.2-1.4
			c-0.1-0.4-0.3-0.8-0.6-1.2c-0.3-0.4-0.6-0.6-1-0.8c-0.4-0.2-0.8-0.3-1.3-0.3C310.5,403.8,310,403.9,309.6,404.1z"/>
		<path class="st3" d="M317.7,403.1v2.1h0c0.3-0.7,0.7-1.3,1.3-1.6c0.6-0.4,1.3-0.6,2-0.5v1.1c-0.5,0-0.9,0-1.3,0.2
			c-0.4,0.2-0.7,0.4-1,0.7c-0.3,0.3-0.5,0.6-0.7,1c-0.2,0.4-0.2,0.8-0.2,1.3v4.7h-1.1v-8.8H317.7z"/>
		<path class="st3" d="M331.9,399.7l4.8,12.1h-1.2l-1.5-3.8h-5.5l-1.5,3.8h-1.2l4.9-12.1H331.9z M333.5,407.1l-2.3-6.2l-2.4,6.2
			H333.5z"/>
		<path class="st3" d="M344.2,411.9v-1.7h0c-0.1,0.3-0.3,0.5-0.5,0.8c-0.2,0.2-0.5,0.4-0.8,0.6s-0.6,0.3-0.9,0.4
			c-0.3,0.1-0.6,0.1-1,0.1c-0.7,0-1.2-0.1-1.7-0.4c-0.5-0.2-0.9-0.6-1.2-1c-0.3-0.4-0.6-0.9-0.7-1.5c-0.2-0.6-0.2-1.2-0.2-1.8
			s0.1-1.2,0.2-1.8c0.2-0.6,0.4-1.1,0.7-1.5c0.3-0.4,0.7-0.8,1.2-1c0.5-0.2,1.1-0.4,1.7-0.4c0.3,0,0.6,0,1,0.1
			c0.3,0.1,0.6,0.2,0.9,0.4c0.3,0.2,0.5,0.4,0.7,0.6c0.2,0.2,0.4,0.5,0.5,0.8h0v-5h1.1v12.1H344.2z M338.4,408.8
			c0.1,0.4,0.3,0.8,0.5,1.2s0.5,0.6,0.9,0.9c0.4,0.2,0.8,0.3,1.3,0.3c0.6,0,1-0.1,1.4-0.3c0.4-0.2,0.7-0.5,1-0.9
			c0.2-0.4,0.4-0.8,0.5-1.2c0.1-0.4,0.2-0.9,0.2-1.4s-0.1-0.9-0.2-1.4c-0.1-0.4-0.3-0.8-0.5-1.2c-0.2-0.4-0.6-0.6-1-0.9
			c-0.4-0.2-0.9-0.3-1.4-0.3c-0.5,0-0.9,0.1-1.3,0.3c-0.4,0.2-0.7,0.5-0.9,0.9c-0.2,0.4-0.4,0.8-0.5,1.2c-0.1,0.4-0.2,0.9-0.2,1.4
			S338.3,408.4,338.4,408.8z"/>
		<path class="st3" d="M348.3,403.1v2.1h0c0.3-0.7,0.7-1.3,1.3-1.6c0.6-0.4,1.3-0.6,2-0.5v1.1c-0.5,0-0.9,0-1.3,0.2
			c-0.4,0.2-0.7,0.4-1,0.7c-0.3,0.3-0.5,0.6-0.7,1c-0.2,0.4-0.2,0.8-0.2,1.3v4.7h-1.1v-8.8H348.3z"/>
		<path class="st3" d="M357.8,403.2c0.5,0.2,0.9,0.6,1.3,1c0.4,0.4,0.6,0.9,0.8,1.5c0.2,0.6,0.3,1.2,0.3,1.8s-0.1,1.2-0.3,1.8
			c-0.2,0.6-0.4,1.1-0.8,1.5c-0.4,0.4-0.8,0.8-1.3,1c-0.5,0.2-1.1,0.4-1.8,0.4c-0.7,0-1.3-0.1-1.8-0.4c-0.5-0.2-0.9-0.6-1.3-1
			c-0.4-0.4-0.6-0.9-0.8-1.5c-0.2-0.6-0.3-1.2-0.3-1.8s0.1-1.2,0.3-1.8c0.2-0.6,0.4-1.1,0.8-1.5c0.4-0.4,0.8-0.8,1.3-1
			c0.5-0.2,1.1-0.4,1.8-0.4C356.7,402.9,357.3,403,357.8,403.2z M354.7,404.1c-0.4,0.2-0.7,0.5-1,0.8c-0.3,0.4-0.4,0.8-0.6,1.2
			c-0.1,0.4-0.2,0.9-0.2,1.4s0.1,0.9,0.2,1.4c0.1,0.4,0.3,0.8,0.6,1.2c0.3,0.4,0.6,0.6,1,0.9c0.4,0.2,0.8,0.3,1.3,0.3
			c0.5,0,1-0.1,1.3-0.3c0.4-0.2,0.7-0.5,1-0.9c0.3-0.4,0.4-0.8,0.6-1.2c0.1-0.4,0.2-0.9,0.2-1.4s-0.1-0.9-0.2-1.4
			c-0.1-0.4-0.3-0.8-0.6-1.2c-0.3-0.4-0.6-0.6-1-0.8c-0.4-0.2-0.8-0.3-1.3-0.3C355.5,403.8,355.1,403.9,354.7,404.1z"/>
		<path class="st3" d="M362.9,399.7v1.7h-1.1v-1.7H362.9z M362.9,403.1v8.8h-1.1v-8.8H362.9z"/>
		<path class="st3" d="M371.6,411.9v-1.7h0c-0.1,0.3-0.3,0.5-0.5,0.8c-0.2,0.2-0.5,0.4-0.8,0.6s-0.6,0.3-0.9,0.4
			c-0.3,0.1-0.6,0.1-1,0.1c-0.7,0-1.2-0.1-1.7-0.4c-0.5-0.2-0.9-0.6-1.2-1c-0.3-0.4-0.6-0.9-0.7-1.5c-0.2-0.6-0.2-1.2-0.2-1.8
			s0.1-1.2,0.2-1.8c0.2-0.6,0.4-1.1,0.7-1.5c0.3-0.4,0.7-0.8,1.2-1c0.5-0.2,1.1-0.4,1.7-0.4c0.3,0,0.6,0,1,0.1
			c0.3,0.1,0.6,0.2,0.9,0.4c0.3,0.2,0.5,0.4,0.7,0.6c0.2,0.2,0.4,0.5,0.5,0.8h0v-5h1.1v12.1H371.6z M365.8,408.8
			c0.1,0.4,0.3,0.8,0.5,1.2s0.5,0.6,0.9,0.9c0.4,0.2,0.8,0.3,1.3,0.3c0.6,0,1-0.1,1.4-0.3c0.4-0.2,0.7-0.5,1-0.9
			c0.2-0.4,0.4-0.8,0.5-1.2c0.1-0.4,0.2-0.9,0.2-1.4s-0.1-0.9-0.2-1.4c-0.1-0.4-0.3-0.8-0.5-1.2c-0.2-0.4-0.6-0.6-1-0.9
			c-0.4-0.2-0.9-0.3-1.4-0.3c-0.5,0-0.9,0.1-1.3,0.3c-0.4,0.2-0.7,0.5-0.9,0.9c-0.2,0.4-0.4,0.8-0.5,1.2c-0.1,0.4-0.2,0.9-0.2,1.4
			S365.7,408.4,365.8,408.8z"/>
	</g>
	<path class="st4" d="M204.5,283.9c-1,0.5-2.3-0.4-3.3-0.5c-1,0-2.4,0.7-3.3,0.2c-0.9-0.5-0.7-2.1-1.2-3.1c-0.5-1-1.8-1.8-1.8-2.8
		c0-1,1.5-1.7,2-2.6c0.5-0.9,0.5-2.4,1.5-2.9c1-0.5,2.3,0.4,3.3,0.5c1,0,2.4-0.7,3.3-0.2c0.9,0.5,0.7,2.1,1.2,3.1
		c0.5,1,1.8,1.8,1.8,2.8c0,1-1.5,1.7-2,2.6C205.5,281.8,205.5,283.4,204.5,283.9z"/>
	<g>
		<path class="st5" d="M203.5,276c-0.2,0.2-1.1,1.4-1.4,1.8c-0.5,0.8-1,1.6-1.5,2.4c-0.1,0.1-0.1,0.1-0.3,0.1h-0.4
			c-0.2,0-0.6-1.2-0.6-1.5c0,0,0-0.1,0.1-0.2l0.4-0.2c0.1,0,0.1,0,0.2,0c0.2,0,0.3,0.6,0.4,0.8l1.5-2.3c0.2-0.2,0.6-0.8,0.8-0.9
			c0.2-0.1,0.5-0.2,0.9-0.2l0,0.1L203.5,276z"/>
	</g>
</g>
</svg>
