<?xml version="1.0" encoding="utf-8"?>
<!-- Generator: Adobe Illustrator 26.5.0, SVG Export Plug-In . SVG Version: 6.00 Build 0)  -->
<svg version="1.1" id="Layer_3" xmlns="http://www.w3.org/2000/svg" xmlns:xlink="http://www.w3.org/1999/xlink" x="0px" y="0px"
	 viewBox="0 0 219.1 170.4" style="enable-background:new 0 0 219.1 170.4;" xml:space="preserve">
<style type="text/css">
	.st0{fill:#FFFFFF;stroke:#5E6062;stroke-width:2;stroke-miterlimit:10;}
	.st1{fill:#5E6062;}
</style>
<path class="st0" d="M218.1,1v160.4c0,4.4-3.6,8-8,8H9c-4.4,0-8-3.6-8-8V1H218.1z"/>
<g>
	<path class="st1" d="M22,30.3c-0.5-0.4-1.2-0.6-1.9-0.6c-0.3,0-0.6,0-0.9,0.1c-0.3,0.1-0.6,0.2-0.8,0.3c-0.2,0.1-0.4,0.3-0.6,0.6
		s-0.2,0.6-0.2,0.9c0,0.4,0.1,0.6,0.3,0.9s0.5,0.4,0.8,0.5s0.7,0.3,1.2,0.3c0.4,0.1,0.9,0.2,1.3,0.3c0.5,0.1,0.9,0.2,1.3,0.4
		c0.4,0.1,0.8,0.3,1.2,0.6c0.3,0.2,0.6,0.6,0.8,0.9s0.3,0.8,0.3,1.4c0,0.6-0.1,1.1-0.4,1.6c-0.3,0.4-0.6,0.8-1,1.1s-0.9,0.5-1.4,0.6
		c-0.5,0.1-1.1,0.2-1.6,0.2c-0.6,0-1.2-0.1-1.8-0.2c-0.6-0.2-1.1-0.4-1.5-0.7c-0.4-0.3-0.8-0.7-1-1.2c-0.3-0.5-0.4-1.1-0.4-1.8h1.4
		c0,0.5,0.1,0.9,0.3,1.2s0.4,0.6,0.7,0.9c0.3,0.2,0.7,0.4,1.1,0.5c0.4,0.1,0.8,0.2,1.2,0.2c0.3,0,0.7,0,1-0.1
		c0.3-0.1,0.7-0.2,0.9-0.3c0.3-0.2,0.5-0.4,0.7-0.6c0.2-0.3,0.3-0.6,0.3-1c0-0.4-0.1-0.7-0.3-1c-0.2-0.2-0.5-0.4-0.8-0.6
		s-0.7-0.3-1.2-0.4c-0.4-0.1-0.9-0.2-1.3-0.3c-0.5-0.1-0.9-0.2-1.3-0.4c-0.4-0.1-0.8-0.3-1.2-0.5c-0.3-0.2-0.6-0.5-0.8-0.8
		S16,32.4,16,31.9c0-0.6,0.1-1.1,0.4-1.5c0.2-0.4,0.5-0.8,0.9-1c0.4-0.3,0.8-0.5,1.3-0.6c0.5-0.1,1-0.2,1.5-0.2
		c0.6,0,1.1,0.1,1.6,0.2c0.5,0.1,0.9,0.4,1.3,0.7c0.4,0.3,0.7,0.7,0.9,1.1c0.2,0.5,0.3,1,0.4,1.6h-1.4C22.8,31.3,22.5,30.7,22,30.3z
		"/>
	<path class="st1" d="M33.5,30.4c-0.6-0.4-1.3-0.6-2.1-0.6c-0.7,0-1.3,0.1-1.8,0.4c-0.5,0.3-0.9,0.6-1.2,1s-0.5,0.9-0.7,1.5
		c-0.1,0.6-0.2,1.1-0.2,1.7c0,0.7,0.1,1.3,0.2,1.8c0.1,0.6,0.4,1.1,0.7,1.5c0.3,0.4,0.7,0.8,1.2,1s1.1,0.4,1.8,0.4
		c0.5,0,0.9-0.1,1.3-0.2c0.4-0.2,0.7-0.4,1-0.7s0.5-0.6,0.7-1c0.2-0.4,0.3-0.8,0.3-1.3h1.5c-0.1,1.4-0.6,2.6-1.5,3.4
		c-0.8,0.8-2,1.2-3.5,1.2c-0.9,0-1.7-0.2-2.3-0.5c-0.7-0.3-1.2-0.7-1.6-1.3c-0.4-0.5-0.8-1.2-1-1.9c-0.2-0.7-0.3-1.5-0.3-2.3
		s0.1-1.6,0.4-2.3c0.2-0.7,0.6-1.4,1-1.9c0.5-0.5,1-1,1.7-1.3c0.7-0.3,1.5-0.5,2.3-0.5c0.6,0,1.2,0.1,1.7,0.2c0.5,0.2,1,0.4,1.4,0.7
		c0.4,0.3,0.8,0.7,1,1.2c0.3,0.5,0.5,1,0.5,1.6h-1.5C34.5,31.4,34.1,30.8,33.5,30.4z"/>
	<path class="st1" d="M37.9,32.2c0.2-0.7,0.6-1.4,1-1.9c0.5-0.6,1-1,1.7-1.3c0.7-0.3,1.5-0.5,2.4-0.5c0.9,0,1.7,0.2,2.4,0.5
		c0.7,0.3,1.3,0.8,1.7,1.3c0.5,0.6,0.8,1.2,1,1.9c0.2,0.7,0.3,1.5,0.3,2.2s-0.1,1.5-0.3,2.2c-0.2,0.7-0.6,1.4-1,1.9s-1,1-1.7,1.3
		s-1.5,0.5-2.4,0.5c-0.9,0-1.7-0.2-2.4-0.5s-1.3-0.8-1.7-1.3s-0.8-1.2-1-1.9c-0.2-0.7-0.3-1.5-0.3-2.2S37.7,33,37.9,32.2z
		 M39.3,36.2c0.1,0.6,0.4,1.1,0.7,1.5c0.3,0.4,0.7,0.8,1.2,1.1c0.5,0.3,1.1,0.4,1.8,0.4s1.3-0.1,1.8-0.4c0.5-0.3,0.9-0.6,1.2-1.1
		c0.3-0.4,0.6-1,0.7-1.5c0.1-0.6,0.2-1.1,0.2-1.7c0-0.6-0.1-1.1-0.2-1.7c-0.1-0.6-0.4-1.1-0.7-1.5c-0.3-0.4-0.7-0.8-1.2-1.1
		c-0.5-0.3-1.1-0.4-1.8-0.4s-1.3,0.1-1.8,0.4c-0.5,0.3-0.9,0.6-1.2,1.1c-0.3,0.4-0.6,1-0.7,1.5s-0.2,1.1-0.2,1.7
		C39.1,35.1,39.1,35.6,39.3,36.2z"/>
	<path class="st1" d="M49.1,30.1v-1.3h9.1v1.3h-3.8v10.1h-1.5V30.1H49.1z"/>
	<path class="st1" d="M67.5,39.4c-0.8,0.7-1.9,1.1-3.3,1.1c-1.5,0-2.6-0.3-3.4-1s-1.2-1.8-1.2-3.3v-7.3H61v7.3c0,1,0.3,1.8,0.8,2.3
		c0.5,0.5,1.3,0.8,2.4,0.8c1,0,1.7-0.3,2.2-0.8c0.5-0.5,0.8-1.3,0.8-2.3v-7.3h1.5v7.3C68.7,37.5,68.3,38.6,67.5,39.4z"/>
	<path class="st1" d="M76.8,30.3c-0.5-0.4-1.2-0.6-1.9-0.6c-0.3,0-0.6,0-0.9,0.1c-0.3,0.1-0.6,0.2-0.8,0.3c-0.2,0.1-0.4,0.3-0.6,0.6
		s-0.2,0.6-0.2,0.9c0,0.4,0.1,0.6,0.3,0.9s0.5,0.4,0.8,0.5s0.7,0.3,1.2,0.3c0.4,0.1,0.9,0.2,1.3,0.3c0.5,0.1,0.9,0.2,1.3,0.4
		c0.4,0.1,0.8,0.3,1.2,0.6c0.3,0.2,0.6,0.6,0.8,0.9s0.3,0.8,0.3,1.4c0,0.6-0.1,1.1-0.4,1.6c-0.3,0.4-0.6,0.8-1,1.1s-0.9,0.5-1.4,0.6
		c-0.5,0.1-1.1,0.2-1.6,0.2c-0.6,0-1.2-0.1-1.8-0.2c-0.6-0.2-1.1-0.4-1.5-0.7c-0.4-0.3-0.8-0.7-1-1.2c-0.3-0.5-0.4-1.1-0.4-1.8h1.4
		c0,0.5,0.1,0.9,0.3,1.2s0.4,0.6,0.7,0.9c0.3,0.2,0.7,0.4,1.1,0.5c0.4,0.1,0.8,0.2,1.2,0.2c0.3,0,0.7,0,1-0.1
		c0.3-0.1,0.7-0.2,0.9-0.3c0.3-0.2,0.5-0.4,0.7-0.6c0.2-0.3,0.3-0.6,0.3-1c0-0.4-0.1-0.7-0.3-1c-0.2-0.2-0.5-0.4-0.8-0.6
		s-0.7-0.3-1.2-0.4c-0.4-0.1-0.9-0.2-1.3-0.3c-0.5-0.1-0.9-0.2-1.3-0.4c-0.4-0.1-0.8-0.3-1.2-0.5c-0.3-0.2-0.6-0.5-0.8-0.8
		s-0.3-0.8-0.3-1.3c0-0.6,0.1-1.1,0.4-1.5c0.2-0.4,0.5-0.8,0.9-1c0.4-0.3,0.8-0.5,1.3-0.6c0.5-0.1,1-0.2,1.5-0.2
		c0.6,0,1.1,0.1,1.6,0.2c0.5,0.1,0.9,0.4,1.3,0.7c0.4,0.3,0.7,0.7,0.9,1.1c0.2,0.5,0.3,1,0.4,1.6h-1.4
		C77.6,31.3,77.3,30.7,76.8,30.3z"/>
	<path class="st1" d="M86.9,31.9v1.7h0c0.3-0.7,0.7-1.2,1.2-1.5c0.5-0.3,1.1-0.5,1.8-0.4v1.4c-0.5,0-1,0.1-1.4,0.2
		c-0.4,0.1-0.7,0.4-0.9,0.7c-0.2,0.3-0.4,0.6-0.5,1C87,35.5,87,36,87,36.5v3.7h-1.4v-8.3H86.9z"/>
	<path class="st1" d="M96.6,40.2v-1.3h0c-0.3,0.5-0.7,0.9-1.1,1.1c-0.4,0.2-1,0.4-1.6,0.4c-0.5,0-1-0.1-1.4-0.2
		c-0.4-0.1-0.7-0.3-0.9-0.6c-0.2-0.3-0.4-0.6-0.5-1c-0.1-0.4-0.1-0.8-0.1-1.2v-5.4h1.4v5.6c0,0.5,0.1,0.9,0.4,1.2
		c0.3,0.3,0.7,0.4,1.2,0.4c0.4,0,0.8-0.1,1.1-0.2c0.3-0.1,0.6-0.3,0.8-0.5c0.2-0.2,0.4-0.5,0.5-0.8s0.2-0.7,0.2-1v-4.7h1.4v8.3H96.6
		z"/>
	<path class="st1" d="M101.3,28.8v11.4H100V28.8H101.3z"/>
	<path class="st1" d="M103.5,30.4v-1.7h1.4v1.7H103.5z M104.9,31.9v8.3h-1.4v-8.3H104.9z"/>
	<path class="st1" d="M108.3,31.9v1.3h0c0.6-1,1.5-1.5,2.7-1.5c0.5,0,1,0.1,1.4,0.2c0.4,0.1,0.7,0.4,0.9,0.6c0.2,0.3,0.4,0.6,0.5,1
		c0.1,0.4,0.1,0.8,0.1,1.2v5.4h-1.4v-5.6c0-0.5-0.1-0.9-0.4-1.2c-0.3-0.3-0.7-0.4-1.2-0.4c-0.4,0-0.8,0.1-1.1,0.2
		c-0.3,0.1-0.6,0.3-0.8,0.5c-0.2,0.2-0.4,0.5-0.5,0.8c-0.1,0.3-0.2,0.7-0.2,1v4.7H107v-8.3H108.3z"/>
	<path class="st1" d="M122.1,42.5c-0.6,0.7-1.6,1-2.9,1c-0.4,0-0.8,0-1.2-0.1c-0.4-0.1-0.8-0.2-1.1-0.4c-0.3-0.2-0.6-0.4-0.8-0.8
		c-0.2-0.3-0.3-0.7-0.4-1.1h1.4c0,0.2,0.1,0.5,0.2,0.6c0.1,0.2,0.3,0.3,0.5,0.4c0.2,0.1,0.4,0.2,0.7,0.2c0.2,0,0.5,0.1,0.7,0.1
		c0.4,0,0.8-0.1,1.1-0.2s0.6-0.4,0.8-0.6c0.2-0.3,0.3-0.6,0.4-1c0.1-0.4,0.1-0.8,0.1-1.3v-0.5h0c-0.2,0.5-0.6,0.9-1.1,1.1
		c-0.5,0.2-1,0.4-1.5,0.4c-0.6,0-1.2-0.1-1.6-0.3c-0.5-0.2-0.8-0.5-1.2-0.9c-0.3-0.4-0.5-0.8-0.7-1.3c-0.2-0.5-0.2-1-0.2-1.6
		c0-0.5,0.1-1,0.2-1.5c0.1-0.5,0.3-1,0.6-1.4c0.3-0.4,0.7-0.8,1.2-1s1.1-0.4,1.8-0.4c0.5,0,1,0.1,1.4,0.3c0.4,0.2,0.8,0.6,1,1h0
		v-1.2h1.3v7.6C123,40.9,122.7,41.9,122.1,42.5z M120.4,38.8c0.3-0.2,0.6-0.4,0.8-0.7c0.2-0.3,0.3-0.6,0.4-1
		c0.1-0.4,0.1-0.8,0.1-1.2c0-0.4,0-0.7-0.1-1.1c-0.1-0.4-0.2-0.7-0.4-1c-0.2-0.3-0.4-0.5-0.7-0.7c-0.3-0.2-0.7-0.3-1.1-0.3
		c-0.4,0-0.8,0.1-1.1,0.2c-0.3,0.2-0.6,0.4-0.8,0.7s-0.3,0.6-0.4,1c-0.1,0.4-0.1,0.7-0.1,1.1c0,0.4,0,0.7,0.1,1.1
		c0.1,0.4,0.2,0.7,0.4,1c0.2,0.3,0.4,0.5,0.7,0.7c0.3,0.2,0.7,0.3,1.1,0.3C119.7,39.1,120.1,39,120.4,38.8z"/>
	<path class="st1" d="M129.6,30.4v-1.7h1.4v1.7H129.6z M131,31.9v8.3h-1.4v-8.3H131z"/>
	<path class="st1" d="M134.4,31.9v1.3h0c0.6-1,1.5-1.5,2.7-1.5c0.5,0,1,0.1,1.4,0.2c0.4,0.1,0.7,0.4,0.9,0.6c0.2,0.3,0.4,0.6,0.5,1
		c0.1,0.4,0.1,0.8,0.1,1.2v5.4h-1.4v-5.6c0-0.5-0.1-0.9-0.4-1.2c-0.3-0.3-0.7-0.4-1.2-0.4c-0.4,0-0.8,0.1-1.1,0.2
		c-0.3,0.1-0.6,0.3-0.8,0.5c-0.2,0.2-0.4,0.5-0.5,0.8c-0.1,0.3-0.2,0.7-0.2,1v4.7h-1.4v-8.3H134.4z"/>
	<path class="st1" d="M155.8,28.8l-0.3,1.3h-6.4l-0.8,3.6h5.9l-0.3,1.3h-5.9l-0.8,4h6.4l-0.3,1.3h-8l2.4-11.4H155.8z"/>
	<path class="st1" d="M156.2,31.9h1.6l1.2,3l2.5-3h1.6l-3.6,4l2.1,4.3h-1.6l-1.5-3.4l-2.8,3.4h-1.6l3.9-4.4L156.2,31.9z"/>
	<path class="st1" d="M170.2,31.9l-0.3,1.2h0c0.4-0.5,0.8-0.9,1.3-1.1c0.4-0.2,0.9-0.3,1.5-0.3c0.5,0,1,0.1,1.4,0.2s0.7,0.4,1,0.7
		c0.3,0.3,0.5,0.7,0.6,1.1c0.1,0.4,0.2,0.9,0.2,1.4c0,0.6-0.1,1.3-0.3,1.9s-0.5,1.2-0.9,1.7c-0.4,0.5-0.9,0.9-1.4,1.2
		c-0.6,0.3-1.2,0.5-1.9,0.5c-0.2,0-0.5,0-0.8-0.1c-0.3,0-0.5-0.1-0.8-0.2c-0.2-0.1-0.5-0.3-0.6-0.4s-0.3-0.4-0.4-0.7h0l-0.9,4.4
		h-1.3l2.4-11.4H170.2z M174.1,33.5c-0.3-0.4-0.9-0.6-1.6-0.6c-0.5,0-1,0.1-1.4,0.4c-0.4,0.3-0.7,0.6-1,1c-0.3,0.4-0.5,0.8-0.6,1.3
		c-0.1,0.5-0.2,0.9-0.2,1.4c0,0.6,0.2,1.1,0.5,1.5c0.4,0.4,0.9,0.6,1.5,0.6c0.5,0,1-0.1,1.4-0.4s0.7-0.6,1-1
		c0.3-0.4,0.5-0.8,0.6-1.3s0.2-0.9,0.2-1.4C174.6,34.5,174.4,33.9,174.1,33.5z"/>
	<path class="st1" d="M178.1,33.2c0.2-0.3,0.5-0.6,0.8-0.8s0.7-0.4,1.1-0.5c0.4-0.1,0.8-0.2,1.3-0.2c0.4,0,0.8,0,1.2,0.1
		s0.7,0.2,1,0.3c0.3,0.2,0.5,0.4,0.7,0.6s0.2,0.6,0.2,1c0,0.2,0,0.5-0.1,0.8s-0.1,0.5-0.2,0.7l-0.5,2.3c0,0.2-0.1,0.4-0.1,0.6
		s-0.1,0.4-0.1,0.6c0,0.2,0,0.3,0.1,0.4c0.1,0.1,0.2,0.1,0.3,0.1c0.1,0,0.1,0,0.2,0c0.1,0,0.2-0.1,0.2-0.1l-0.2,1
		c-0.1,0-0.2,0.1-0.4,0.1c-0.2,0-0.3,0.1-0.4,0.1c-0.4,0-0.7-0.1-0.8-0.3c-0.2-0.2-0.3-0.5-0.2-0.8l0,0c-0.3,0.4-0.6,0.7-1.1,0.9
		c-0.4,0.2-1,0.3-1.7,0.3c-0.4,0-0.7,0-1-0.1c-0.3-0.1-0.6-0.2-0.8-0.4c-0.2-0.2-0.4-0.4-0.5-0.7c-0.1-0.3-0.2-0.7-0.2-1.1
		c0-0.6,0.1-1.1,0.4-1.4c0.3-0.3,0.6-0.6,1-0.8c0.4-0.2,0.9-0.3,1.3-0.4s1-0.1,1.4-0.2c0.4,0,0.7-0.1,0.9-0.1c0.3,0,0.5-0.1,0.6-0.2
		c0.2-0.1,0.3-0.2,0.4-0.4c0.1-0.2,0.1-0.4,0.1-0.7c0-0.2-0.1-0.4-0.2-0.5c-0.1-0.1-0.2-0.2-0.4-0.3S182,33,181.8,33
		c-0.2,0-0.4,0-0.6,0c-0.3,0-0.5,0-0.8,0.1c-0.3,0.1-0.5,0.1-0.7,0.3c-0.2,0.1-0.4,0.3-0.5,0.5c-0.1,0.2-0.2,0.4-0.3,0.7h-1.4
		C177.7,34,177.9,33.6,178.1,33.2z M178.5,38.9c0.3,0.2,0.6,0.3,1,0.3c1.1,0,1.8-0.4,2.3-1.1c0.2-0.3,0.4-0.6,0.5-1
		c0.1-0.4,0.2-0.7,0.3-1.1h0c-0.2,0.1-0.4,0.2-0.7,0.3c-0.3,0.1-0.6,0.1-0.9,0.1c-0.3,0-0.7,0.1-1,0.1c-0.3,0-0.6,0.1-0.9,0.2
		c-0.3,0.1-0.5,0.3-0.7,0.5S178,37.7,178,38C178,38.4,178.2,38.7,178.5,38.9z"/>
	<path class="st1" d="M188,31.9l-0.4,1.8h0c0.3-0.6,0.7-1,1.2-1.4s1.1-0.6,1.8-0.6c0.1,0,0.2,0,0.2,0c0.1,0,0.2,0,0.2,0l-0.3,1.5
		c0,0-0.1,0-0.2,0h-0.2c-0.2,0-0.3,0-0.4,0s-0.2,0-0.4,0.1c-0.4,0.1-0.7,0.3-1,0.5c-0.3,0.2-0.5,0.5-0.8,0.8
		c-0.2,0.3-0.3,0.6-0.4,0.9c-0.1,0.4-0.2,0.7-0.3,1l-0.8,3.7h-1.3l1.7-8.3H188z"/>
	<path class="st1" d="M195.6,31.9l-0.3,1.2h-1.6l-1,4.9c0,0.1,0,0.2,0,0.3s0,0.2,0,0.3c0,0.2,0.1,0.4,0.2,0.4
		c0.2,0.1,0.4,0.1,0.6,0.1c0.1,0,0.3,0,0.4,0c0.1,0,0.3-0.1,0.4-0.1l-0.2,1.2c-0.2,0-0.3,0-0.5,0.1c-0.2,0-0.3,0-0.5,0
		c-0.3,0-0.5,0-0.7-0.1c-0.2,0-0.4-0.1-0.6-0.2c-0.2-0.1-0.3-0.2-0.4-0.4c-0.1-0.2-0.2-0.4-0.2-0.7c0-0.1,0-0.2,0-0.3
		c0-0.1,0-0.2,0.1-0.4l1.1-5.1H191l0.3-1.2h1.4l0.5-2.4h1.4l-0.5,2.4H195.6z"/>
	<path class="st1" d="M200.7,33.3c-0.3-0.2-0.8-0.4-1.2-0.4c-0.2,0-0.4,0-0.6,0c-0.2,0-0.4,0.1-0.6,0.2c-0.2,0.1-0.3,0.2-0.4,0.3
		s-0.2,0.3-0.2,0.5c0,0.2,0.1,0.4,0.2,0.5c0.1,0.1,0.3,0.3,0.5,0.4c0.2,0.1,0.4,0.2,0.7,0.3c0.3,0.1,0.5,0.2,0.8,0.3
		c0.3,0.1,0.5,0.2,0.8,0.4c0.3,0.1,0.5,0.3,0.7,0.5c0.2,0.2,0.4,0.4,0.5,0.6s0.2,0.5,0.2,0.8c0,0.5-0.1,0.9-0.3,1.2
		c-0.2,0.3-0.5,0.6-0.8,0.8c-0.3,0.2-0.7,0.3-1.1,0.4c-0.4,0.1-0.8,0.1-1.2,0.1c-0.5,0-0.9,0-1.3-0.1s-0.8-0.2-1-0.5
		c-0.3-0.2-0.5-0.5-0.7-0.9s-0.3-0.8-0.3-1.3h1.3c0,0.3,0,0.6,0.1,0.8c0.1,0.2,0.3,0.4,0.5,0.5c0.2,0.1,0.4,0.2,0.7,0.3
		s0.5,0.1,0.8,0.1c0.2,0,0.4,0,0.7-0.1s0.4-0.1,0.6-0.2c0.2-0.1,0.3-0.2,0.4-0.4c0.1-0.2,0.2-0.4,0.2-0.6c0-0.2-0.1-0.4-0.2-0.5
		s-0.3-0.3-0.5-0.4c-0.2-0.1-0.4-0.2-0.7-0.3c-0.3-0.1-0.5-0.2-0.8-0.3c-0.3-0.1-0.5-0.2-0.8-0.4c-0.3-0.1-0.5-0.3-0.7-0.5
		c-0.2-0.2-0.4-0.4-0.5-0.6c-0.1-0.2-0.2-0.5-0.2-0.8c0-0.4,0.1-0.7,0.3-1c0.2-0.3,0.4-0.5,0.7-0.7c0.3-0.2,0.6-0.3,1-0.5
		c0.4-0.1,0.7-0.2,1.1-0.2s0.8,0,1.1,0.1c0.4,0.1,0.7,0.2,1,0.4c0.3,0.2,0.5,0.5,0.7,0.8c0.2,0.3,0.3,0.7,0.3,1.2h-1.4
		C201.2,33.9,201,33.5,200.7,33.3z"/>
	<path class="st1" d="M22.4,59.3c-0.6,0.2-1.2,0.3-1.8,0.3c-1.6,0-2.8-0.4-3.6-1.3c-0.8-0.9-1.3-2.1-1.3-3.7c0-0.9,0.1-1.8,0.4-2.6
		c0.3-0.8,0.7-1.6,1.2-2.2s1.2-1.1,2-1.5c0.8-0.4,1.7-0.6,2.6-0.6c0.6,0,1.2,0.1,1.8,0.2c0.6,0.1,1,0.4,1.5,0.7s0.7,0.7,1,1.2
		c0.2,0.5,0.4,1.1,0.4,1.7H25c0-0.4-0.1-0.8-0.2-1.1c-0.2-0.3-0.4-0.6-0.7-0.8s-0.6-0.4-1-0.5C22.7,49,22.3,49,21.9,49
		c-0.8,0-1.5,0.2-2.1,0.5s-1.1,0.8-1.5,1.3s-0.7,1.1-0.9,1.8c-0.2,0.7-0.3,1.4-0.3,2.1c0,0.6,0.1,1.1,0.2,1.5s0.3,0.9,0.6,1.2
		c0.3,0.3,0.6,0.6,1,0.8c0.4,0.2,0.9,0.3,1.5,0.3c0.6,0,1.1-0.1,1.6-0.3c0.5-0.2,0.8-0.4,1.2-0.8c0.3-0.3,0.6-0.7,0.8-1.2
		c0.2-0.5,0.4-1,0.5-1.5H21l0.3-1.3h5l-1.2,6h-1l-0.1-1.1C23.5,58.8,23,59.1,22.4,59.3z"/>
	<path class="st1" d="M30.1,51.1l-0.4,1.8h0c0.3-0.6,0.7-1,1.2-1.4c0.5-0.4,1.1-0.6,1.8-0.6c0.1,0,0.2,0,0.2,0c0.1,0,0.2,0,0.2,0
		l-0.3,1.5c0,0-0.1,0-0.2,0h-0.2c-0.2,0-0.3,0-0.4,0c-0.1,0-0.2,0-0.4,0.1c-0.4,0.1-0.7,0.3-1,0.5c-0.3,0.2-0.5,0.5-0.8,0.8
		c-0.2,0.3-0.3,0.6-0.4,0.9s-0.2,0.7-0.3,1l-0.8,3.7h-1.3l1.7-8.3H30.1z"/>
	<path class="st1" d="M32.8,54.2c0.2-0.6,0.5-1.2,0.9-1.7s0.9-0.9,1.5-1.2c0.6-0.3,1.2-0.4,1.9-0.4c1.1,0,2,0.3,2.6,0.9
		c0.6,0.6,0.9,1.4,0.9,2.6c0,0.7-0.1,1.3-0.3,2c-0.2,0.6-0.5,1.2-0.9,1.7c-0.4,0.5-0.9,0.9-1.4,1.2s-1.2,0.4-1.9,0.4
		c-0.5,0-1-0.1-1.5-0.3s-0.8-0.4-1.1-0.7c-0.3-0.3-0.5-0.7-0.7-1.1c-0.2-0.4-0.2-0.9-0.2-1.4C32.5,55.5,32.6,54.8,32.8,54.2z
		 M34.4,57.8c0.4,0.4,0.9,0.6,1.7,0.6c0.5,0,0.9-0.1,1.3-0.4c0.4-0.3,0.7-0.6,1-1c0.3-0.4,0.5-0.8,0.6-1.3s0.2-0.9,0.2-1.3
		c0-0.3,0-0.6-0.1-0.9c-0.1-0.3-0.2-0.5-0.4-0.7c-0.2-0.2-0.4-0.4-0.7-0.5c-0.3-0.1-0.6-0.2-1-0.2c-0.5,0-1,0.1-1.4,0.4
		c-0.4,0.3-0.7,0.6-1,1c-0.3,0.4-0.5,0.8-0.6,1.3c-0.1,0.5-0.2,0.9-0.2,1.3C33.8,56.8,34,57.4,34.4,57.8z"/>
	<path class="st1" d="M46.6,52.5c-0.3-0.2-0.8-0.4-1.2-0.4c-0.2,0-0.4,0-0.6,0c-0.2,0-0.4,0.1-0.6,0.2s-0.3,0.2-0.4,0.3
		c-0.1,0.1-0.2,0.3-0.2,0.5c0,0.2,0.1,0.4,0.2,0.5c0.1,0.1,0.3,0.3,0.5,0.4c0.2,0.1,0.4,0.2,0.7,0.3c0.3,0.1,0.5,0.2,0.8,0.3
		c0.3,0.1,0.5,0.2,0.8,0.4c0.3,0.1,0.5,0.3,0.7,0.5c0.2,0.2,0.4,0.4,0.5,0.6c0.1,0.2,0.2,0.5,0.2,0.8c0,0.5-0.1,0.9-0.3,1.2
		s-0.5,0.6-0.8,0.8c-0.3,0.2-0.7,0.3-1.1,0.4c-0.4,0.1-0.8,0.1-1.2,0.1c-0.5,0-0.9,0-1.3-0.1c-0.4-0.1-0.8-0.2-1-0.5
		c-0.3-0.2-0.5-0.5-0.7-0.9s-0.3-0.8-0.3-1.3h1.3c0,0.3,0,0.6,0.1,0.8s0.3,0.4,0.5,0.5s0.4,0.2,0.7,0.3s0.5,0.1,0.8,0.1
		c0.2,0,0.4,0,0.7-0.1s0.4-0.1,0.6-0.2c0.2-0.1,0.3-0.2,0.4-0.4c0.1-0.2,0.2-0.4,0.2-0.6c0-0.2-0.1-0.4-0.2-0.5s-0.3-0.3-0.5-0.4
		c-0.2-0.1-0.4-0.2-0.7-0.3c-0.3-0.1-0.5-0.2-0.8-0.3c-0.3-0.1-0.5-0.2-0.8-0.4s-0.5-0.3-0.7-0.5c-0.2-0.2-0.4-0.4-0.5-0.6
		c-0.1-0.2-0.2-0.5-0.2-0.8c0-0.4,0.1-0.7,0.3-1c0.2-0.3,0.4-0.5,0.7-0.7c0.3-0.2,0.6-0.3,1-0.5c0.4-0.1,0.7-0.2,1.1-0.2
		c0.4,0,0.8,0,1.1,0.1c0.4,0.1,0.7,0.2,1,0.4c0.3,0.2,0.5,0.5,0.7,0.8c0.2,0.3,0.3,0.7,0.3,1.2h-1.4C47.1,53.1,46.9,52.7,46.6,52.5z
		"/>
	<path class="st1" d="M54.3,52.5c-0.3-0.2-0.8-0.4-1.2-0.4c-0.2,0-0.4,0-0.6,0c-0.2,0-0.4,0.1-0.6,0.2s-0.3,0.2-0.4,0.3
		c-0.1,0.1-0.2,0.3-0.2,0.5c0,0.2,0.1,0.4,0.2,0.5c0.1,0.1,0.3,0.3,0.5,0.4c0.2,0.1,0.4,0.2,0.7,0.3c0.3,0.1,0.5,0.2,0.8,0.3
		c0.3,0.1,0.5,0.2,0.8,0.4c0.3,0.1,0.5,0.3,0.7,0.5c0.2,0.2,0.4,0.4,0.5,0.6c0.1,0.2,0.2,0.5,0.2,0.8c0,0.5-0.1,0.9-0.3,1.2
		s-0.5,0.6-0.8,0.8c-0.3,0.2-0.7,0.3-1.1,0.4c-0.4,0.1-0.8,0.1-1.2,0.1c-0.5,0-0.9,0-1.3-0.1c-0.4-0.1-0.8-0.2-1-0.5
		c-0.3-0.2-0.5-0.5-0.7-0.9S49,57.3,49,56.8h1.3c0,0.3,0,0.6,0.1,0.8s0.3,0.4,0.5,0.5s0.4,0.2,0.7,0.3s0.5,0.1,0.8,0.1
		c0.2,0,0.4,0,0.7-0.1s0.4-0.1,0.6-0.2c0.2-0.1,0.3-0.2,0.4-0.4c0.1-0.2,0.2-0.4,0.2-0.6c0-0.2-0.1-0.4-0.2-0.5s-0.3-0.3-0.5-0.4
		c-0.2-0.1-0.4-0.2-0.7-0.3c-0.3-0.1-0.5-0.2-0.8-0.3c-0.3-0.1-0.5-0.2-0.8-0.4s-0.5-0.3-0.7-0.5c-0.2-0.2-0.4-0.4-0.5-0.6
		c-0.1-0.2-0.2-0.5-0.2-0.8c0-0.4,0.1-0.7,0.3-1c0.2-0.3,0.4-0.5,0.7-0.7c0.3-0.2,0.6-0.3,1-0.5c0.4-0.1,0.7-0.2,1.1-0.2
		c0.4,0,0.8,0,1.1,0.1c0.4,0.1,0.7,0.2,1,0.4c0.3,0.2,0.5,0.5,0.7,0.8c0.2,0.3,0.3,0.7,0.3,1.2h-1.4C54.8,53.1,54.6,52.7,54.3,52.5z
		"/>
	<path class="st1" d="M59.7,51.1l-0.3,1.2l0,0c0.4-0.4,0.8-0.8,1.3-1.1c0.5-0.3,1-0.4,1.6-0.4c0.5,0,1,0.1,1.3,0.3
		c0.4,0.2,0.6,0.6,0.7,1.2c0.3-0.4,0.7-0.8,1.2-1.1c0.5-0.3,1-0.4,1.6-0.4c0.3,0,0.6,0,0.8,0.1s0.5,0.2,0.7,0.3
		c0.2,0.1,0.4,0.3,0.5,0.6c0.1,0.2,0.2,0.5,0.2,0.9c0,0.2,0,0.5-0.1,0.8c-0.1,0.3-0.1,0.6-0.2,0.8l-1,5h-1.4l1.2-5.2
		c0-0.1,0.1-0.3,0.1-0.5c0-0.2,0-0.3,0-0.4c0-0.3-0.1-0.6-0.4-0.8c-0.2-0.2-0.5-0.3-0.9-0.3c-0.2,0-0.4,0-0.6,0.1
		c-0.2,0.1-0.4,0.1-0.6,0.2c-0.2,0.1-0.4,0.2-0.5,0.4s-0.3,0.3-0.4,0.4c-0.2,0.2-0.4,0.5-0.5,0.8c-0.1,0.3-0.2,0.7-0.3,1l-0.9,4.3
		h-1.4l1-4.7c0.1-0.3,0.1-0.6,0.2-0.9c0-0.3,0.1-0.5,0.1-0.6c0-0.3-0.1-0.6-0.3-0.8c-0.2-0.2-0.5-0.3-0.9-0.3
		c-0.4,0-0.7,0.1-1.1,0.3c-0.4,0.2-0.7,0.5-0.9,0.7c-0.3,0.3-0.5,0.6-0.6,0.8c-0.1,0.3-0.2,0.6-0.3,1l-0.9,4.3h-1.3l1.7-8.3H59.7z"
		/>
	<path class="st1" d="M71.7,52.4c0.2-0.3,0.5-0.6,0.8-0.8c0.3-0.2,0.7-0.4,1.1-0.5c0.4-0.1,0.8-0.2,1.3-0.2c0.4,0,0.8,0,1.2,0.1
		c0.4,0.1,0.7,0.2,1,0.3c0.3,0.2,0.5,0.4,0.7,0.6c0.2,0.3,0.2,0.6,0.2,1c0,0.2,0,0.5-0.1,0.8c-0.1,0.3-0.1,0.5-0.2,0.7l-0.5,2.3
		c0,0.2-0.1,0.4-0.1,0.6c-0.1,0.2-0.1,0.4-0.1,0.6c0,0.2,0,0.3,0.1,0.4c0.1,0.1,0.2,0.1,0.3,0.1c0.1,0,0.1,0,0.2,0
		c0.1,0,0.2-0.1,0.2-0.1l-0.2,1c-0.1,0-0.2,0.1-0.4,0.1c-0.2,0-0.3,0.1-0.4,0.1c-0.4,0-0.7-0.1-0.8-0.3s-0.3-0.5-0.2-0.8l0,0
		c-0.3,0.4-0.6,0.7-1.1,0.9s-1,0.3-1.7,0.3c-0.4,0-0.7,0-1-0.1c-0.3-0.1-0.6-0.2-0.8-0.4c-0.2-0.2-0.4-0.4-0.5-0.7s-0.2-0.7-0.2-1.1
		c0-0.6,0.1-1.1,0.4-1.4s0.6-0.6,1-0.8c0.4-0.2,0.9-0.3,1.3-0.4s1-0.1,1.4-0.2c0.4,0,0.7-0.1,0.9-0.1c0.3,0,0.5-0.1,0.6-0.2
		c0.2-0.1,0.3-0.2,0.4-0.4s0.1-0.4,0.1-0.7c0-0.2-0.1-0.4-0.2-0.5c-0.1-0.1-0.2-0.2-0.4-0.3c-0.2-0.1-0.3-0.1-0.5-0.2
		c-0.2,0-0.4,0-0.6,0c-0.3,0-0.5,0-0.8,0.1c-0.3,0.1-0.5,0.1-0.7,0.3c-0.2,0.1-0.4,0.3-0.5,0.5c-0.1,0.2-0.2,0.4-0.3,0.7h-1.4
		C71.3,53.2,71.5,52.8,71.7,52.4z M72.1,58.1c0.3,0.2,0.6,0.3,1,0.3c1.1,0,1.9-0.4,2.3-1.1c0.2-0.3,0.4-0.6,0.5-1
		c0.1-0.4,0.2-0.7,0.3-1.1h0c-0.2,0.1-0.4,0.2-0.7,0.3c-0.3,0.1-0.6,0.1-0.9,0.1c-0.3,0-0.7,0.1-1,0.1c-0.3,0-0.6,0.1-0.9,0.2
		c-0.3,0.1-0.5,0.3-0.7,0.5c-0.2,0.2-0.3,0.5-0.3,0.8C71.6,57.6,71.8,57.9,72.1,58.1z"/>
	<path class="st1" d="M81.7,51.1l-0.3,1.2h0c0.3-0.5,0.8-0.8,1.3-1.1s1.1-0.4,1.6-0.4c0.8,0,1.4,0.2,1.7,0.5
		c0.4,0.3,0.6,0.9,0.6,1.6c0,0.2,0,0.4-0.1,0.7c0,0.3-0.1,0.6-0.2,0.9l-1,4.7h-1.4l1.1-4.8c0-0.1,0-0.2,0-0.3c0-0.1,0-0.2,0.1-0.4
		c0-0.1,0-0.2,0.1-0.4c0-0.1,0-0.2,0-0.3c0-0.4-0.1-0.7-0.4-0.9c-0.3-0.2-0.6-0.3-1-0.3c-0.4,0-0.7,0.1-1.1,0.3
		c-0.4,0.2-0.7,0.4-0.9,0.7c-0.2,0.2-0.4,0.5-0.6,0.8c-0.1,0.3-0.3,0.6-0.3,1l-1,4.6h-1.3l1.7-8.3H81.7z"/>
	<path class="st1" d="M94.4,51.1v1.2h0c0.6-0.9,1.5-1.4,2.7-1.4c0.5,0,1,0.1,1.4,0.3c0.4,0.2,0.7,0.6,0.9,1.1c0.3-0.4,0.6-0.8,1.1-1
		c0.5-0.2,1-0.4,1.5-0.4c0.4,0,0.8,0,1.1,0.1c0.3,0.1,0.6,0.2,0.9,0.4c0.2,0.2,0.4,0.4,0.6,0.7c0.1,0.3,0.2,0.7,0.2,1.1v6.1h-1.4V54
		c0-0.3,0-0.5-0.1-0.7c0-0.2-0.1-0.4-0.2-0.6c-0.1-0.2-0.3-0.3-0.5-0.4c-0.2-0.1-0.5-0.1-0.8-0.1c-0.7,0-1.2,0.2-1.6,0.6
		s-0.6,0.9-0.6,1.5v5.2h-1.4V54c0-0.3,0-0.5-0.1-0.7c0-0.2-0.1-0.4-0.2-0.6c-0.1-0.2-0.3-0.3-0.5-0.4c-0.2-0.1-0.5-0.1-0.8-0.1
		c-0.4,0-0.7,0.1-1,0.2c-0.3,0.2-0.5,0.4-0.7,0.6c-0.2,0.2-0.3,0.5-0.4,0.7c-0.1,0.2-0.1,0.4-0.1,0.6v5.2h-1.4v-8.3H94.4z"/>
	<path class="st1" d="M112.6,58.9c-0.6,0.5-1.4,0.7-2.3,0.7c-0.7,0-1.2-0.1-1.7-0.3s-0.9-0.5-1.2-0.9c-0.3-0.4-0.6-0.8-0.7-1.4
		c-0.2-0.5-0.3-1.1-0.3-1.7c0-0.6,0.1-1.2,0.3-1.7c0.2-0.5,0.5-1,0.8-1.4c0.3-0.4,0.8-0.7,1.2-0.9s1-0.3,1.6-0.3
		c0.7,0,1.3,0.2,1.8,0.5c0.5,0.3,0.9,0.7,1.2,1.2c0.3,0.5,0.5,1,0.6,1.5c0.1,0.6,0.2,1.1,0.1,1.6h-6.2c0,0.4,0,0.7,0.1,1
		c0.1,0.3,0.3,0.6,0.5,0.9c0.2,0.3,0.5,0.5,0.8,0.6s0.7,0.2,1.2,0.2c0.6,0,1-0.1,1.4-0.4c0.4-0.3,0.6-0.7,0.7-1.2h1.3
		C113.6,57.7,113.2,58.4,112.6,58.9z M112.3,53.6c-0.1-0.3-0.3-0.5-0.5-0.7s-0.5-0.4-0.7-0.5c-0.3-0.1-0.6-0.2-0.9-0.2
		c-0.4,0-0.7,0.1-1,0.2c-0.3,0.1-0.5,0.3-0.7,0.5c-0.2,0.2-0.4,0.5-0.5,0.7c-0.1,0.3-0.2,0.6-0.2,0.9h4.8
		C112.5,54.2,112.4,53.9,112.3,53.6z"/>
	<path class="st1" d="M122.7,59.4c-0.2,0.1-0.6,0.2-1,0.2c-0.4,0-0.6-0.1-0.8-0.3s-0.3-0.5-0.3-1c-0.4,0.4-0.8,0.8-1.3,1
		s-1,0.3-1.6,0.3c-0.4,0-0.7,0-1.1-0.1c-0.3-0.1-0.6-0.2-0.9-0.4c-0.2-0.2-0.4-0.4-0.6-0.7s-0.2-0.6-0.2-1.1c0-0.5,0.1-0.9,0.2-1.2
		c0.2-0.3,0.4-0.5,0.6-0.7c0.3-0.2,0.6-0.3,0.9-0.4c0.3-0.1,0.7-0.2,1-0.2c0.4-0.1,0.7-0.1,1.1-0.2c0.3,0,0.6-0.1,0.9-0.2
		s0.5-0.2,0.6-0.3c0.1-0.1,0.2-0.3,0.2-0.6c0-0.3-0.1-0.5-0.2-0.7c-0.1-0.2-0.3-0.3-0.4-0.4c-0.2-0.1-0.4-0.2-0.6-0.2
		c-0.2,0-0.4,0-0.6,0c-0.6,0-1.1,0.1-1.4,0.3c-0.4,0.2-0.6,0.6-0.6,1.2h-1.4c0-0.5,0.1-0.9,0.3-1.3c0.2-0.4,0.4-0.6,0.8-0.9
		c0.3-0.2,0.7-0.4,1.1-0.5c0.4-0.1,0.9-0.1,1.3-0.1c0.4,0,0.7,0,1.1,0.1s0.7,0.2,1,0.3s0.5,0.4,0.7,0.7c0.2,0.3,0.3,0.7,0.3,1.2v4.2
		c0,0.3,0,0.6,0.1,0.7c0,0.1,0.2,0.2,0.4,0.2c0.1,0,0.3,0,0.4-0.1V59.4z M120.4,55.1c-0.2,0.1-0.4,0.2-0.7,0.3s-0.6,0.1-0.9,0.1
		c-0.3,0-0.6,0.1-0.9,0.1c-0.3,0-0.6,0.1-0.8,0.2s-0.4,0.3-0.6,0.5c-0.2,0.2-0.2,0.5-0.2,0.8c0,0.2,0,0.4,0.1,0.6
		c0.1,0.2,0.2,0.3,0.4,0.4c0.1,0.1,0.3,0.2,0.5,0.2c0.2,0,0.4,0.1,0.6,0.1c0.4,0,0.8-0.1,1.2-0.2c0.3-0.1,0.6-0.3,0.8-0.5
		c0.2-0.2,0.4-0.4,0.4-0.6s0.1-0.4,0.1-0.6V55.1z"/>
	<path class="st1" d="M125.2,51.1v1.3h0c0.6-1,1.5-1.5,2.7-1.5c0.5,0,1,0.1,1.4,0.2c0.4,0.1,0.7,0.4,0.9,0.6c0.2,0.3,0.4,0.6,0.5,1
		c0.1,0.4,0.1,0.8,0.1,1.2v5.4h-1.4v-5.6c0-0.5-0.1-0.9-0.4-1.2c-0.3-0.3-0.7-0.4-1.2-0.4c-0.4,0-0.8,0.1-1.1,0.2
		c-0.3,0.1-0.6,0.3-0.8,0.5c-0.2,0.2-0.4,0.5-0.5,0.8c-0.1,0.3-0.2,0.7-0.2,1v4.7h-1.4v-8.3H125.2z"/>
	<path class="st1" d="M133.9,57.6c0.1,0.2,0.3,0.4,0.5,0.5s0.4,0.2,0.7,0.3c0.3,0.1,0.5,0.1,0.8,0.1c0.2,0,0.4,0,0.7,0
		c0.2,0,0.5-0.1,0.6-0.2c0.2-0.1,0.4-0.2,0.5-0.4s0.2-0.4,0.2-0.6c0-0.4-0.1-0.6-0.4-0.8c-0.3-0.2-0.6-0.3-1-0.4
		c-0.4-0.1-0.8-0.2-1.3-0.3c-0.5-0.1-0.9-0.2-1.3-0.4c-0.4-0.2-0.7-0.4-1-0.7c-0.3-0.3-0.4-0.7-0.4-1.2c0-0.4,0.1-0.8,0.3-1.1
		c0.2-0.3,0.4-0.5,0.7-0.7c0.3-0.2,0.6-0.3,1-0.4c0.4-0.1,0.7-0.1,1.1-0.1c0.5,0,0.9,0,1.3,0.1c0.4,0.1,0.7,0.2,1,0.4
		c0.3,0.2,0.5,0.5,0.7,0.8s0.3,0.8,0.3,1.3h-1.4c0-0.3-0.1-0.5-0.2-0.7c-0.1-0.2-0.3-0.3-0.4-0.4c-0.2-0.1-0.4-0.2-0.6-0.2
		c-0.2,0-0.4-0.1-0.7-0.1c-0.2,0-0.4,0-0.6,0c-0.2,0-0.4,0.1-0.6,0.2c-0.2,0.1-0.3,0.2-0.4,0.3c-0.1,0.1-0.2,0.3-0.2,0.5
		c0,0.2,0.1,0.4,0.2,0.6c0.2,0.2,0.4,0.3,0.6,0.4c0.3,0.1,0.5,0.2,0.9,0.3c0.3,0.1,0.6,0.1,1,0.2c0.3,0.1,0.7,0.2,1,0.3
		c0.3,0.1,0.6,0.2,0.9,0.4c0.3,0.2,0.5,0.4,0.6,0.7c0.2,0.3,0.2,0.6,0.2,1c0,0.5-0.1,0.9-0.3,1.2s-0.5,0.6-0.8,0.8
		c-0.3,0.2-0.7,0.3-1.1,0.4c-0.4,0.1-0.8,0.1-1.3,0.1c-0.5,0-0.9,0-1.3-0.1c-0.4-0.1-0.8-0.3-1.1-0.5s-0.6-0.5-0.8-0.9
		c-0.2-0.4-0.3-0.8-0.3-1.3h1.4C133.7,57.1,133.7,57.4,133.9,57.6z"/>
	<path class="st1" d="M150.5,48c1.2,0,2,0.3,2.6,0.9c0.6,0.6,0.9,1.4,0.9,2.5s-0.3,1.9-0.9,2.5c-0.6,0.6-1.5,0.9-2.6,0.9H147v4.7
		h-1.5V48H150.5z M150,53.5c0.9,0,1.5-0.2,1.9-0.5c0.4-0.4,0.6-0.9,0.6-1.6s-0.2-1.2-0.6-1.6c-0.4-0.4-1-0.5-1.9-0.5h-3v4.2H150z"/>
	<path class="st1" d="M155.6,51.4c0.2-0.7,0.6-1.4,1-1.9c0.5-0.6,1-1,1.7-1.3c0.7-0.3,1.5-0.5,2.4-0.5c0.9,0,1.7,0.2,2.4,0.5
		c0.7,0.3,1.3,0.8,1.7,1.3c0.5,0.6,0.8,1.2,1,1.9c0.2,0.7,0.3,1.5,0.3,2.2s-0.1,1.5-0.3,2.2c-0.2,0.7-0.6,1.4-1,1.9s-1,1-1.7,1.3
		s-1.5,0.5-2.4,0.5c-0.9,0-1.7-0.2-2.4-0.5s-1.3-0.8-1.7-1.3c-0.5-0.6-0.8-1.2-1-1.9c-0.2-0.7-0.3-1.5-0.3-2.2
		S155.3,52.2,155.6,51.4z M157,55.4c0.1,0.6,0.4,1.1,0.7,1.5c0.3,0.4,0.7,0.8,1.2,1.1c0.5,0.3,1.1,0.4,1.8,0.4s1.3-0.1,1.8-0.4
		c0.5-0.3,0.9-0.6,1.2-1.1c0.3-0.4,0.6-1,0.7-1.5c0.1-0.6,0.2-1.1,0.2-1.7c0-0.6-0.1-1.1-0.2-1.7s-0.4-1.1-0.7-1.5
		c-0.3-0.4-0.7-0.8-1.2-1.1c-0.5-0.3-1.1-0.4-1.8-0.4s-1.3,0.1-1.8,0.4c-0.5,0.3-0.9,0.6-1.2,1.1c-0.3,0.4-0.6,1-0.7,1.5
		s-0.2,1.1-0.2,1.7C156.7,54.3,156.8,54.8,157,55.4z"/>
	<path class="st1" d="M166.8,49.3V48h9.1v1.3h-3.8v10.1h-1.5V49.3H166.8z"/>
	<path class="st1" d="M185.2,58.6c-0.8,0.7-1.9,1.1-3.3,1.1c-1.5,0-2.6-0.3-3.4-1c-0.8-0.7-1.2-1.8-1.2-3.3V48h1.5v7.3
		c0,1,0.3,1.8,0.8,2.3c0.5,0.5,1.3,0.8,2.4,0.8c1,0,1.7-0.3,2.2-0.8c0.5-0.5,0.8-1.3,0.8-2.3V48h1.5v7.3
		C186.3,56.7,185.9,57.8,185.2,58.6z"/>
	<path class="st1" d="M194.5,49.5c-0.5-0.4-1.2-0.6-1.9-0.6c-0.3,0-0.6,0-0.9,0.1s-0.6,0.2-0.8,0.3s-0.4,0.3-0.6,0.6
		c-0.1,0.3-0.2,0.6-0.2,0.9c0,0.4,0.1,0.6,0.3,0.9s0.5,0.4,0.8,0.5c0.3,0.1,0.7,0.3,1.2,0.3c0.4,0.1,0.9,0.2,1.3,0.3
		c0.5,0.1,0.9,0.2,1.3,0.4s0.8,0.3,1.2,0.6c0.3,0.2,0.6,0.6,0.8,0.9s0.3,0.8,0.3,1.4c0,0.6-0.1,1.1-0.4,1.6c-0.3,0.4-0.6,0.8-1,1.1
		c-0.4,0.3-0.9,0.5-1.4,0.6c-0.5,0.1-1.1,0.2-1.6,0.2c-0.6,0-1.2-0.1-1.8-0.2c-0.6-0.2-1.1-0.4-1.5-0.7c-0.4-0.3-0.8-0.7-1-1.2
		c-0.3-0.5-0.4-1.1-0.4-1.8h1.4c0,0.5,0.1,0.9,0.3,1.2s0.4,0.6,0.7,0.9s0.7,0.4,1.1,0.5c0.4,0.1,0.8,0.2,1.2,0.2c0.3,0,0.7,0,1-0.1
		s0.7-0.2,0.9-0.3c0.3-0.2,0.5-0.4,0.7-0.6s0.3-0.6,0.3-1c0-0.4-0.1-0.7-0.3-1c-0.2-0.2-0.5-0.4-0.8-0.6s-0.7-0.3-1.2-0.4
		c-0.4-0.1-0.9-0.2-1.3-0.3c-0.5-0.1-0.9-0.2-1.3-0.4s-0.8-0.3-1.2-0.5c-0.3-0.2-0.6-0.5-0.8-0.8s-0.3-0.8-0.3-1.3
		c0-0.6,0.1-1.1,0.4-1.5c0.2-0.4,0.5-0.8,0.9-1c0.4-0.3,0.8-0.5,1.3-0.6c0.5-0.1,1-0.2,1.5-0.2c0.6,0,1.1,0.1,1.6,0.2
		c0.5,0.1,0.9,0.4,1.3,0.7c0.4,0.3,0.7,0.7,0.9,1.1c0.2,0.5,0.3,1,0.4,1.6h-1.4C195.3,50.5,195,49.9,194.5,49.5z"/>
	<path class="st1" d="M21,71.8c-0.3-0.3-0.8-0.4-1.4-0.4c-0.5,0-0.9,0.1-1.2,0.3c-0.3,0.2-0.6,0.4-0.8,0.7c-0.2,0.3-0.3,0.6-0.4,1
		c-0.1,0.4-0.1,0.8-0.1,1.2c0,0.4,0,0.8,0.1,1.1c0.1,0.4,0.2,0.7,0.4,1c0.2,0.3,0.4,0.5,0.8,0.7c0.3,0.2,0.7,0.3,1.1,0.3
		c0.7,0,1.2-0.2,1.6-0.5c0.4-0.4,0.6-0.8,0.7-1.5h1.4c-0.1,1-0.5,1.8-1.1,2.4c-0.6,0.6-1.4,0.8-2.5,0.8c-0.6,0-1.2-0.1-1.7-0.3
		s-0.9-0.5-1.2-0.9c-0.3-0.4-0.6-0.8-0.7-1.3c-0.2-0.5-0.2-1.1-0.2-1.7c0-0.6,0.1-1.2,0.2-1.7s0.4-1,0.7-1.4
		c0.3-0.4,0.7-0.7,1.2-0.9c0.5-0.2,1.1-0.3,1.7-0.3c0.5,0,0.9,0.1,1.3,0.2c0.4,0.1,0.8,0.3,1.1,0.5c0.3,0.2,0.6,0.5,0.8,0.9
		c0.2,0.4,0.3,0.8,0.4,1.3h-1.4C21.6,72.5,21.3,72.1,21,71.8z"/>
	<path class="st1" d="M32,78.6c-0.2,0.1-0.6,0.2-1,0.2c-0.4,0-0.6-0.1-0.8-0.3s-0.3-0.5-0.3-1c-0.4,0.4-0.8,0.8-1.3,1
		s-1,0.3-1.6,0.3c-0.4,0-0.7,0-1.1-0.1c-0.3-0.1-0.6-0.2-0.9-0.4c-0.2-0.2-0.4-0.4-0.6-0.7s-0.2-0.6-0.2-1.1c0-0.5,0.1-0.9,0.2-1.2
		c0.2-0.3,0.4-0.5,0.6-0.7c0.3-0.2,0.6-0.3,0.9-0.4c0.3-0.1,0.7-0.2,1-0.2c0.4-0.1,0.7-0.1,1.1-0.2c0.3,0,0.6-0.1,0.9-0.2
		c0.3-0.1,0.5-0.2,0.6-0.3c0.1-0.1,0.2-0.3,0.2-0.6c0-0.3-0.1-0.5-0.2-0.7c-0.1-0.2-0.3-0.3-0.4-0.4c-0.2-0.1-0.4-0.2-0.6-0.2
		c-0.2,0-0.4,0-0.6,0c-0.6,0-1.1,0.1-1.4,0.3c-0.4,0.2-0.6,0.6-0.6,1.2h-1.4c0-0.5,0.1-0.9,0.3-1.3c0.2-0.4,0.4-0.6,0.8-0.9
		c0.3-0.2,0.7-0.4,1.1-0.5c0.4-0.1,0.9-0.1,1.3-0.1c0.4,0,0.7,0,1.1,0.1c0.4,0.1,0.7,0.2,1,0.3c0.3,0.2,0.5,0.4,0.7,0.7
		c0.2,0.3,0.3,0.7,0.3,1.2v4.2c0,0.3,0,0.6,0.1,0.7c0,0.1,0.2,0.2,0.4,0.2c0.1,0,0.3,0,0.4-0.1V78.6z M29.8,74.3
		c-0.2,0.1-0.4,0.2-0.7,0.3c-0.3,0.1-0.6,0.1-0.9,0.1c-0.3,0-0.6,0.1-0.9,0.1c-0.3,0-0.6,0.1-0.8,0.2c-0.2,0.1-0.4,0.3-0.6,0.5
		c-0.2,0.2-0.2,0.5-0.2,0.8c0,0.2,0,0.4,0.1,0.6s0.2,0.3,0.4,0.4c0.1,0.1,0.3,0.2,0.5,0.2c0.2,0,0.4,0.1,0.6,0.1
		c0.4,0,0.8-0.1,1.2-0.2s0.6-0.3,0.8-0.5s0.4-0.4,0.4-0.6s0.1-0.4,0.1-0.6V74.3z"/>
	<path class="st1" d="M34.5,70.3v1.3h0c0.6-1,1.5-1.5,2.7-1.5c0.5,0,1,0.1,1.4,0.2c0.4,0.1,0.7,0.4,0.9,0.6c0.2,0.3,0.4,0.6,0.5,1
		s0.1,0.8,0.1,1.2v5.4h-1.4V73c0-0.5-0.1-0.9-0.4-1.2c-0.3-0.3-0.7-0.4-1.2-0.4c-0.4,0-0.8,0.1-1.1,0.2c-0.3,0.1-0.6,0.3-0.8,0.5
		c-0.2,0.2-0.4,0.5-0.5,0.8c-0.1,0.3-0.2,0.7-0.2,1v4.7h-1.4v-8.3H34.5z"/>
	<path class="st1" d="M48,70.3v1.1h0c0.2-0.5,0.6-0.8,1.1-1s1-0.3,1.6-0.3c0.6,0,1.2,0.1,1.7,0.4c0.5,0.2,0.9,0.6,1.2,1
		c0.3,0.4,0.6,0.9,0.7,1.4c0.2,0.5,0.2,1.1,0.2,1.7c0,0.6-0.1,1.1-0.2,1.7c-0.2,0.5-0.4,1-0.7,1.4c-0.3,0.4-0.7,0.7-1.2,0.9
		c-0.5,0.2-1,0.3-1.7,0.3c-0.2,0-0.4,0-0.7-0.1c-0.3,0-0.5-0.1-0.7-0.2c-0.2-0.1-0.5-0.2-0.7-0.4c-0.2-0.2-0.4-0.4-0.6-0.6h0v4.3
		h-1.4V70.3H48z M52.9,73.3c-0.1-0.4-0.3-0.7-0.5-1c-0.2-0.3-0.5-0.5-0.8-0.7c-0.3-0.2-0.7-0.3-1.1-0.3c-0.5,0-0.8,0.1-1.2,0.3
		c-0.3,0.2-0.6,0.4-0.8,0.7s-0.3,0.6-0.4,1c-0.1,0.4-0.1,0.8-0.1,1.1c0,0.4,0,0.8,0.1,1.2c0.1,0.4,0.2,0.7,0.5,1
		c0.2,0.3,0.5,0.5,0.8,0.7c0.3,0.2,0.7,0.3,1.2,0.3c0.5,0,0.9-0.1,1.2-0.3c0.3-0.2,0.6-0.4,0.8-0.7c0.2-0.3,0.3-0.6,0.4-1
		c0.1-0.4,0.1-0.8,0.1-1.2C53,74,53,73.6,52.9,73.3z"/>
	<path class="st1" d="M63.4,78.6c-0.2,0.1-0.6,0.2-1,0.2c-0.4,0-0.6-0.1-0.8-0.3s-0.3-0.5-0.3-1c-0.4,0.4-0.8,0.8-1.3,1
		s-1,0.3-1.6,0.3c-0.4,0-0.7,0-1.1-0.1c-0.3-0.1-0.6-0.2-0.9-0.4c-0.2-0.2-0.4-0.4-0.6-0.7s-0.2-0.6-0.2-1.1c0-0.5,0.1-0.9,0.2-1.2
		c0.2-0.3,0.4-0.5,0.6-0.7c0.3-0.2,0.6-0.3,0.9-0.4c0.3-0.1,0.7-0.2,1-0.2c0.4-0.1,0.7-0.1,1.1-0.2c0.3,0,0.6-0.1,0.9-0.2
		c0.3-0.1,0.5-0.2,0.6-0.3c0.1-0.1,0.2-0.3,0.2-0.6c0-0.3-0.1-0.5-0.2-0.7c-0.1-0.2-0.3-0.3-0.4-0.4c-0.2-0.1-0.4-0.2-0.6-0.2
		c-0.2,0-0.4,0-0.6,0c-0.6,0-1.1,0.1-1.4,0.3c-0.4,0.2-0.6,0.6-0.6,1.2h-1.4c0-0.5,0.1-0.9,0.3-1.3c0.2-0.4,0.4-0.6,0.8-0.9
		c0.3-0.2,0.7-0.4,1.1-0.5c0.4-0.1,0.9-0.1,1.3-0.1c0.4,0,0.7,0,1.1,0.1c0.4,0.1,0.7,0.2,1,0.3c0.3,0.2,0.5,0.4,0.7,0.7
		c0.2,0.3,0.3,0.7,0.3,1.2v4.2c0,0.3,0,0.6,0.1,0.7c0,0.1,0.2,0.2,0.4,0.2c0.1,0,0.3,0,0.4-0.1V78.6z M61.2,74.3
		c-0.2,0.1-0.4,0.2-0.7,0.3c-0.3,0.1-0.6,0.1-0.9,0.1c-0.3,0-0.6,0.1-0.9,0.1c-0.3,0-0.6,0.1-0.8,0.2c-0.2,0.1-0.4,0.3-0.6,0.5
		c-0.2,0.2-0.2,0.5-0.2,0.8c0,0.2,0,0.4,0.1,0.6s0.2,0.3,0.4,0.4c0.1,0.1,0.3,0.2,0.5,0.2c0.2,0,0.4,0.1,0.6,0.1
		c0.4,0,0.8-0.1,1.2-0.2s0.6-0.3,0.8-0.5s0.4-0.4,0.4-0.6s0.1-0.4,0.1-0.6V74.3z"/>
	<path class="st1" d="M65.9,70.3v1.7h0c0.3-0.7,0.7-1.2,1.2-1.5c0.5-0.3,1.1-0.5,1.8-0.4v1.4c-0.5,0-1,0.1-1.4,0.2
		c-0.4,0.1-0.7,0.4-0.9,0.7c-0.2,0.3-0.4,0.6-0.5,1C66,73.9,66,74.4,66,74.9v3.7h-1.4v-8.3H65.9z"/>
	<path class="st1" d="M75.7,78.6v-1.1h0c-0.2,0.5-0.6,0.8-1.1,1c-0.5,0.2-1,0.3-1.6,0.3c-0.6,0-1.2-0.1-1.7-0.4
		c-0.5-0.2-0.9-0.5-1.2-0.9c-0.3-0.4-0.6-0.9-0.7-1.4c-0.2-0.5-0.2-1.1-0.2-1.7c0-0.6,0.1-1.1,0.2-1.7c0.2-0.5,0.4-1,0.7-1.4
		c0.3-0.4,0.7-0.7,1.2-0.9c0.5-0.2,1-0.3,1.7-0.3c0.2,0,0.4,0,0.7,0.1c0.2,0,0.5,0.1,0.7,0.2c0.2,0.1,0.5,0.2,0.7,0.4
		c0.2,0.2,0.4,0.4,0.6,0.6h0v-4.3h1.4v11.4H75.7z M70.8,75.7c0.1,0.4,0.3,0.7,0.5,1s0.5,0.5,0.8,0.7c0.3,0.2,0.7,0.3,1.1,0.3
		c0.5,0,0.8-0.1,1.2-0.3c0.3-0.2,0.6-0.4,0.8-0.7c0.2-0.3,0.3-0.6,0.4-1c0.1-0.4,0.1-0.8,0.1-1.1c0-0.4,0-0.8-0.1-1.2
		c-0.1-0.4-0.2-0.7-0.5-1c-0.2-0.3-0.5-0.5-0.8-0.7s-0.7-0.3-1.2-0.3c-0.5,0-0.8,0.1-1.2,0.3c-0.3,0.2-0.6,0.4-0.8,0.7
		c-0.2,0.3-0.3,0.6-0.4,1c-0.1,0.4-0.1,0.8-0.1,1.2C70.7,74.9,70.7,75.3,70.8,75.7z"/>
	<path class="st1" d="M79,72.8c0.2-0.5,0.4-1,0.8-1.4c0.3-0.4,0.8-0.7,1.3-0.9s1.1-0.3,1.7-0.3c0.7,0,1.2,0.1,1.7,0.3
		s0.9,0.5,1.3,0.9c0.3,0.4,0.6,0.8,0.8,1.4c0.2,0.5,0.3,1.1,0.3,1.7s-0.1,1.2-0.3,1.7c-0.2,0.5-0.4,1-0.8,1.4
		c-0.3,0.4-0.8,0.7-1.3,0.9c-0.5,0.2-1.1,0.3-1.7,0.3c-0.7,0-1.2-0.1-1.7-0.3c-0.5-0.2-0.9-0.5-1.3-0.9c-0.3-0.4-0.6-0.8-0.8-1.4
		c-0.2-0.5-0.3-1.1-0.3-1.7S78.8,73.3,79,72.8z M80.4,75.8c0.1,0.4,0.3,0.7,0.6,1c0.2,0.3,0.5,0.5,0.8,0.6c0.3,0.1,0.6,0.2,1,0.2
		c0.4,0,0.7-0.1,1-0.2c0.3-0.1,0.6-0.3,0.8-0.6c0.2-0.3,0.4-0.6,0.6-1c0.1-0.4,0.2-0.8,0.2-1.3s-0.1-0.9-0.2-1.3s-0.3-0.7-0.6-1
		c-0.2-0.3-0.5-0.5-0.8-0.6c-0.3-0.1-0.6-0.2-1-0.2c-0.4,0-0.7,0.1-1,0.2c-0.3,0.1-0.6,0.3-0.8,0.6c-0.2,0.3-0.4,0.6-0.6,1
		s-0.2,0.8-0.2,1.3S80.2,75.4,80.4,75.8z"/>
	<path class="st1" d="M89.6,70.3v1.3h0c0.6-1,1.5-1.5,2.7-1.5c0.5,0,1,0.1,1.4,0.2c0.4,0.1,0.7,0.4,0.9,0.6c0.2,0.3,0.4,0.6,0.5,1
		s0.1,0.8,0.1,1.2v5.4h-1.4V73c0-0.5-0.1-0.9-0.4-1.2c-0.3-0.3-0.7-0.4-1.2-0.4c-0.4,0-0.8,0.1-1.1,0.2c-0.3,0.1-0.6,0.3-0.8,0.5
		c-0.2,0.2-0.4,0.5-0.5,0.8c-0.1,0.3-0.2,0.7-0.2,1v4.7h-1.4v-8.3H89.6z"/>
	<path class="st1" d="M100.9,71.5v-1.2h1.4v-1.2c0-0.7,0.2-1.2,0.6-1.5c0.4-0.3,1-0.5,1.7-0.5c0.1,0,0.3,0,0.4,0
		c0.2,0,0.3,0.1,0.4,0.1v1.2c-0.1,0-0.2-0.1-0.4-0.1s-0.3,0-0.4,0c-0.3,0-0.6,0.1-0.8,0.2s-0.3,0.4-0.3,0.7v1.2h1.6v1.2h-1.6v7.1
		h-1.4v-7.1H100.9z"/>
	<path class="st1" d="M107.7,70.3v1.7h0c0.3-0.7,0.7-1.2,1.2-1.5c0.5-0.3,1.1-0.5,1.8-0.4v1.4c-0.5,0-1,0.1-1.4,0.2
		c-0.4,0.1-0.7,0.4-0.9,0.7s-0.4,0.6-0.5,1c-0.1,0.4-0.2,0.9-0.2,1.4v3.7h-1.4v-8.3H107.7z"/>
	<path class="st1" d="M111.9,68.8v-1.7h1.4v1.7H111.9z M113.2,70.3v8.3h-1.4v-8.3H113.2z"/>
	<path class="st1" d="M121.2,78.1c-0.6,0.5-1.4,0.7-2.3,0.7c-0.7,0-1.2-0.1-1.7-0.3s-0.9-0.5-1.2-0.9c-0.3-0.4-0.6-0.8-0.7-1.4
		c-0.2-0.5-0.3-1.1-0.3-1.7c0-0.6,0.1-1.2,0.3-1.7c0.2-0.5,0.5-1,0.8-1.4c0.3-0.4,0.8-0.7,1.2-0.9s1-0.3,1.6-0.3
		c0.7,0,1.3,0.2,1.8,0.5c0.5,0.3,0.9,0.7,1.2,1.2c0.3,0.5,0.5,1,0.6,1.5c0.1,0.6,0.2,1.1,0.1,1.6h-6.2c0,0.4,0,0.7,0.1,1
		c0.1,0.3,0.3,0.6,0.5,0.9c0.2,0.3,0.5,0.5,0.8,0.6s0.7,0.2,1.2,0.2c0.6,0,1-0.1,1.4-0.4c0.4-0.3,0.6-0.7,0.7-1.2h1.3
		C122.2,76.9,121.8,77.6,121.2,78.1z M120.9,72.8c-0.1-0.3-0.3-0.5-0.5-0.7s-0.5-0.4-0.7-0.5c-0.3-0.1-0.6-0.2-0.9-0.2
		c-0.4,0-0.7,0.1-1,0.2c-0.3,0.1-0.5,0.3-0.7,0.5c-0.2,0.2-0.4,0.5-0.5,0.7c-0.1,0.3-0.2,0.6-0.2,0.9h4.8
		C121,73.4,121,73.1,120.9,72.8z"/>
	<path class="st1" d="M125.2,70.3v1.3h0c0.6-1,1.5-1.5,2.7-1.5c0.5,0,1,0.1,1.4,0.2c0.4,0.1,0.7,0.4,0.9,0.6c0.2,0.3,0.4,0.6,0.5,1
		c0.1,0.4,0.1,0.8,0.1,1.2v5.4h-1.4V73c0-0.5-0.1-0.9-0.4-1.2c-0.3-0.3-0.7-0.4-1.2-0.4c-0.4,0-0.8,0.1-1.1,0.2
		c-0.3,0.1-0.6,0.3-0.8,0.5c-0.2,0.2-0.4,0.5-0.5,0.8c-0.1,0.3-0.2,0.7-0.2,1v4.7h-1.4v-8.3H125.2z"/>
	<path class="st1" d="M138.8,78.6v-1.1h0c-0.2,0.5-0.6,0.8-1.1,1c-0.5,0.2-1,0.3-1.6,0.3c-0.6,0-1.2-0.1-1.7-0.4
		c-0.5-0.2-0.9-0.5-1.2-0.9c-0.3-0.4-0.6-0.9-0.7-1.4c-0.2-0.5-0.2-1.1-0.2-1.7c0-0.6,0.1-1.1,0.2-1.7c0.2-0.5,0.4-1,0.7-1.4
		s0.7-0.7,1.2-0.9c0.5-0.2,1-0.3,1.7-0.3c0.2,0,0.4,0,0.7,0.1s0.5,0.1,0.7,0.2c0.2,0.1,0.5,0.2,0.7,0.4c0.2,0.2,0.4,0.4,0.6,0.6h0
		v-4.3h1.4v11.4H138.8z M134,75.7c0.1,0.4,0.3,0.7,0.5,1s0.5,0.5,0.8,0.7c0.3,0.2,0.7,0.3,1.1,0.3c0.5,0,0.8-0.1,1.2-0.3
		c0.3-0.2,0.6-0.4,0.8-0.7c0.2-0.3,0.3-0.6,0.4-1c0.1-0.4,0.1-0.8,0.1-1.1c0-0.4,0-0.8-0.1-1.2c-0.1-0.4-0.2-0.7-0.5-1
		c-0.2-0.3-0.5-0.5-0.8-0.7c-0.3-0.2-0.7-0.3-1.2-0.3c-0.5,0-0.8,0.1-1.2,0.3c-0.3,0.2-0.6,0.4-0.8,0.7c-0.2,0.3-0.3,0.6-0.4,1
		c-0.1,0.4-0.1,0.8-0.1,1.2C133.8,74.9,133.9,75.3,134,75.7z"/>
	<path class="st1" d="M143.3,76.8c0.1,0.2,0.3,0.4,0.5,0.5s0.4,0.2,0.7,0.3c0.3,0.1,0.5,0.1,0.8,0.1c0.2,0,0.4,0,0.7,0
		c0.2,0,0.5-0.1,0.6-0.2c0.2-0.1,0.4-0.2,0.5-0.4s0.2-0.4,0.2-0.6c0-0.4-0.1-0.6-0.4-0.8c-0.3-0.2-0.6-0.3-1-0.4
		c-0.4-0.1-0.8-0.2-1.3-0.3c-0.5-0.1-0.9-0.2-1.3-0.4c-0.4-0.2-0.7-0.4-1-0.7c-0.3-0.3-0.4-0.7-0.4-1.2c0-0.4,0.1-0.8,0.3-1.1
		c0.2-0.3,0.4-0.5,0.7-0.7c0.3-0.2,0.6-0.3,1-0.4c0.4-0.1,0.7-0.1,1.1-0.1c0.5,0,0.9,0,1.3,0.1c0.4,0.1,0.7,0.2,1,0.4
		c0.3,0.2,0.5,0.5,0.7,0.8s0.3,0.8,0.3,1.3h-1.4c0-0.3-0.1-0.5-0.2-0.7c-0.1-0.2-0.3-0.3-0.4-0.4c-0.2-0.1-0.4-0.2-0.6-0.2
		c-0.2,0-0.4-0.1-0.7-0.1c-0.2,0-0.4,0-0.6,0c-0.2,0-0.4,0.1-0.6,0.2c-0.2,0.1-0.3,0.2-0.4,0.3c-0.1,0.1-0.2,0.3-0.2,0.5
		c0,0.2,0.1,0.4,0.2,0.6c0.2,0.2,0.4,0.3,0.6,0.4c0.3,0.1,0.5,0.2,0.9,0.3c0.3,0.1,0.6,0.1,1,0.2c0.3,0.1,0.7,0.2,1,0.3
		c0.3,0.1,0.6,0.2,0.9,0.4c0.3,0.2,0.5,0.4,0.6,0.7c0.2,0.3,0.2,0.6,0.2,1c0,0.5-0.1,0.9-0.3,1.2s-0.5,0.6-0.8,0.8
		c-0.3,0.2-0.7,0.3-1.1,0.4c-0.4,0.1-0.8,0.1-1.3,0.1c-0.5,0-0.9,0-1.3-0.1c-0.4-0.1-0.8-0.3-1.1-0.5s-0.6-0.5-0.8-0.9
		c-0.2-0.4-0.3-0.8-0.3-1.3h1.4C143.1,76.3,143.2,76.6,143.3,76.8z"/>
	<path class="st1" d="M162.1,78.6c-0.2,0.1-0.6,0.2-1,0.2c-0.4,0-0.6-0.1-0.8-0.3s-0.3-0.5-0.3-1c-0.4,0.4-0.8,0.8-1.3,1
		s-1,0.3-1.6,0.3c-0.4,0-0.7,0-1.1-0.1c-0.3-0.1-0.6-0.2-0.9-0.4c-0.2-0.2-0.4-0.4-0.6-0.7s-0.2-0.6-0.2-1.1c0-0.5,0.1-0.9,0.2-1.2
		c0.2-0.3,0.4-0.5,0.6-0.7c0.3-0.2,0.6-0.3,0.9-0.4c0.3-0.1,0.7-0.2,1-0.2c0.4-0.1,0.7-0.1,1.1-0.2c0.3,0,0.6-0.1,0.9-0.2
		s0.5-0.2,0.6-0.3c0.1-0.1,0.2-0.3,0.2-0.6c0-0.3-0.1-0.5-0.2-0.7c-0.1-0.2-0.3-0.3-0.4-0.4c-0.2-0.1-0.4-0.2-0.6-0.2
		c-0.2,0-0.4,0-0.6,0c-0.6,0-1.1,0.1-1.4,0.3c-0.4,0.2-0.6,0.6-0.6,1.2h-1.4c0-0.5,0.1-0.9,0.3-1.3c0.2-0.4,0.4-0.6,0.8-0.9
		c0.3-0.2,0.7-0.4,1.1-0.5c0.4-0.1,0.9-0.1,1.3-0.1c0.4,0,0.7,0,1.1,0.1s0.7,0.2,1,0.3s0.5,0.4,0.7,0.7c0.2,0.3,0.3,0.7,0.3,1.2v4.2
		c0,0.3,0,0.6,0.1,0.7c0,0.1,0.2,0.2,0.4,0.2c0.1,0,0.3,0,0.4-0.1V78.6z M159.9,74.3c-0.2,0.1-0.4,0.2-0.7,0.3s-0.6,0.1-0.9,0.1
		c-0.3,0-0.6,0.1-0.9,0.1c-0.3,0-0.6,0.1-0.8,0.2s-0.4,0.3-0.6,0.5c-0.2,0.2-0.2,0.5-0.2,0.8c0,0.2,0,0.4,0.1,0.6
		c0.1,0.2,0.2,0.3,0.4,0.4c0.1,0.1,0.3,0.2,0.5,0.2c0.2,0,0.4,0.1,0.6,0.1c0.4,0,0.8-0.1,1.2-0.2c0.3-0.1,0.6-0.3,0.8-0.5
		c0.2-0.2,0.4-0.4,0.4-0.6s0.1-0.4,0.1-0.6V74.3z"/>
	<path class="st1" d="M164.6,70.3v1.3h0c0.6-1,1.5-1.5,2.7-1.5c0.5,0,1,0.1,1.4,0.2c0.4,0.1,0.7,0.4,0.9,0.6c0.2,0.3,0.4,0.6,0.5,1
		c0.1,0.4,0.1,0.8,0.1,1.2v5.4h-1.4V73c0-0.5-0.1-0.9-0.4-1.2c-0.3-0.3-0.7-0.4-1.2-0.4c-0.4,0-0.8,0.1-1.1,0.2
		c-0.3,0.1-0.6,0.3-0.8,0.5c-0.2,0.2-0.4,0.5-0.5,0.8c-0.1,0.3-0.2,0.7-0.2,1v4.7h-1.4v-8.3H164.6z"/>
	<path class="st1" d="M178.3,78.6v-1.1h0c-0.2,0.5-0.6,0.8-1.1,1c-0.5,0.2-1,0.3-1.6,0.3c-0.6,0-1.2-0.1-1.7-0.4
		c-0.5-0.2-0.9-0.5-1.2-0.9c-0.3-0.4-0.6-0.9-0.7-1.4c-0.2-0.5-0.2-1.1-0.2-1.7c0-0.6,0.1-1.1,0.2-1.7c0.2-0.5,0.4-1,0.7-1.4
		s0.7-0.7,1.2-0.9c0.5-0.2,1-0.3,1.7-0.3c0.2,0,0.4,0,0.7,0.1s0.5,0.1,0.7,0.2c0.2,0.1,0.5,0.2,0.7,0.4c0.2,0.2,0.4,0.4,0.6,0.6h0
		v-4.3h1.4v11.4H178.3z M173.4,75.7c0.1,0.4,0.3,0.7,0.5,1s0.5,0.5,0.8,0.7c0.3,0.2,0.7,0.3,1.1,0.3c0.5,0,0.8-0.1,1.2-0.3
		c0.3-0.2,0.6-0.4,0.8-0.7c0.2-0.3,0.3-0.6,0.4-1c0.1-0.4,0.1-0.8,0.1-1.1c0-0.4,0-0.8-0.1-1.2c-0.1-0.4-0.2-0.7-0.5-1
		c-0.2-0.3-0.5-0.5-0.8-0.7c-0.3-0.2-0.7-0.3-1.2-0.3c-0.5,0-0.8,0.1-1.2,0.3c-0.3,0.2-0.6,0.4-0.8,0.7c-0.2,0.3-0.3,0.6-0.4,1
		c-0.1,0.4-0.1,0.8-0.1,1.2C173.2,74.9,173.3,75.3,173.4,75.7z"/>
	<path class="st1" d="M15.2,90.7v-1.2h1.4v-1.2c0-0.7,0.2-1.2,0.6-1.5c0.4-0.3,1-0.5,1.7-0.5c0.1,0,0.3,0,0.4,0
		c0.2,0,0.3,0.1,0.4,0.1v1.2c-0.1,0-0.2-0.1-0.4-0.1c-0.1,0-0.3,0-0.4,0c-0.3,0-0.6,0.1-0.8,0.2C18.1,87.8,18,88,18,88.4v1.2h1.6
		v1.2H18v7.1h-1.4v-7.1H15.2z"/>
	<path class="st1" d="M28.1,97.8c-0.2,0.1-0.6,0.2-1,0.2c-0.4,0-0.6-0.1-0.8-0.3s-0.3-0.5-0.3-1c-0.4,0.4-0.8,0.8-1.3,1
		s-1,0.3-1.6,0.3c-0.4,0-0.7,0-1.1-0.1c-0.3-0.1-0.6-0.2-0.9-0.4c-0.2-0.2-0.4-0.4-0.6-0.7s-0.2-0.6-0.2-1.1c0-0.5,0.1-0.9,0.2-1.2
		c0.2-0.3,0.4-0.5,0.6-0.7c0.3-0.2,0.6-0.3,0.9-0.4c0.3-0.1,0.7-0.2,1-0.2c0.4-0.1,0.7-0.1,1.1-0.2c0.3,0,0.6-0.1,0.9-0.2
		c0.3-0.1,0.5-0.2,0.6-0.3c0.1-0.1,0.2-0.3,0.2-0.6c0-0.3-0.1-0.5-0.2-0.7c-0.1-0.2-0.3-0.3-0.4-0.4c-0.2-0.1-0.4-0.2-0.6-0.2
		c-0.2,0-0.4,0-0.6,0c-0.6,0-1.1,0.1-1.4,0.3c-0.4,0.2-0.6,0.6-0.6,1.2h-1.4c0-0.5,0.1-0.9,0.3-1.3c0.2-0.4,0.4-0.6,0.8-0.9
		c0.3-0.2,0.7-0.4,1.1-0.5c0.4-0.1,0.9-0.1,1.3-0.1c0.4,0,0.7,0,1.1,0.1c0.4,0.1,0.7,0.2,1,0.3c0.3,0.2,0.5,0.4,0.7,0.7
		c0.2,0.3,0.3,0.7,0.3,1.2v4.2c0,0.3,0,0.6,0.1,0.7c0,0.1,0.2,0.2,0.4,0.2c0.1,0,0.3,0,0.4-0.1V97.8z M25.9,93.5
		c-0.2,0.1-0.4,0.2-0.7,0.3c-0.3,0.1-0.6,0.1-0.9,0.1c-0.3,0-0.6,0.1-0.9,0.1c-0.3,0-0.6,0.1-0.8,0.2c-0.2,0.1-0.4,0.3-0.6,0.5
		c-0.2,0.2-0.2,0.5-0.2,0.8c0,0.2,0,0.4,0.1,0.6s0.2,0.3,0.4,0.4c0.1,0.1,0.3,0.2,0.5,0.2c0.2,0,0.4,0.1,0.6,0.1
		c0.4,0,0.8-0.1,1.2-0.2s0.6-0.3,0.8-0.5s0.4-0.4,0.4-0.6s0.1-0.4,0.1-0.6V93.5z"/>
	<path class="st1" d="M30.7,89.5v1.2h0c0.6-0.9,1.5-1.4,2.7-1.4c0.5,0,1,0.1,1.4,0.3s0.7,0.6,0.9,1.1c0.3-0.4,0.6-0.8,1.1-1
		c0.5-0.2,1-0.4,1.5-0.4c0.4,0,0.8,0,1.1,0.1c0.3,0.1,0.6,0.2,0.9,0.4c0.2,0.2,0.4,0.4,0.6,0.7c0.1,0.3,0.2,0.7,0.2,1.1v6.1h-1.4
		v-5.4c0-0.3,0-0.5-0.1-0.7c0-0.2-0.1-0.4-0.2-0.6c-0.1-0.2-0.3-0.3-0.5-0.4c-0.2-0.1-0.5-0.1-0.8-0.1c-0.7,0-1.2,0.2-1.6,0.6
		c-0.4,0.4-0.6,0.9-0.6,1.5v5.2h-1.4v-5.4c0-0.3,0-0.5-0.1-0.7c0-0.2-0.1-0.4-0.2-0.6c-0.1-0.2-0.3-0.3-0.5-0.4
		c-0.2-0.1-0.5-0.1-0.8-0.1c-0.4,0-0.7,0.1-1,0.2c-0.3,0.2-0.5,0.4-0.7,0.6c-0.2,0.2-0.3,0.5-0.4,0.7c-0.1,0.2-0.1,0.4-0.1,0.6v5.2
		h-1.4v-8.3H30.7z"/>
	<path class="st1" d="M43.1,88v-1.7h1.4V88H43.1z M44.5,89.5v8.3h-1.4v-8.3H44.5z"/>
	<path class="st1" d="M48,86.4v11.4h-1.4V86.4H48z"/>
	<path class="st1" d="M53.4,98.9c-0.2,0.4-0.3,0.7-0.5,1s-0.3,0.5-0.5,0.7c-0.2,0.2-0.4,0.3-0.6,0.4c-0.2,0.1-0.5,0.1-0.8,0.1
		c-0.2,0-0.3,0-0.5,0c-0.2,0-0.3-0.1-0.5-0.1v-1.2c0.1,0.1,0.3,0.1,0.4,0.1c0.2,0,0.3,0.1,0.4,0.1c0.3,0,0.5-0.1,0.7-0.2
		c0.2-0.1,0.3-0.3,0.4-0.6l0.6-1.4l-3.3-8.2h1.5l2.4,6.8h0l2.3-6.8H57L53.4,98.9z"/>
	<path class="st1" d="M63.9,89.5v1.2h0c0.6-0.9,1.5-1.4,2.7-1.4c0.5,0,1,0.1,1.4,0.3s0.7,0.6,0.9,1.1c0.3-0.4,0.6-0.8,1.1-1
		c0.5-0.2,1-0.4,1.5-0.4c0.4,0,0.8,0,1.1,0.1c0.3,0.1,0.6,0.2,0.9,0.4c0.2,0.2,0.4,0.4,0.6,0.7c0.1,0.3,0.2,0.7,0.2,1.1v6.1h-1.4
		v-5.4c0-0.3,0-0.5-0.1-0.7c0-0.2-0.1-0.4-0.2-0.6c-0.1-0.2-0.3-0.3-0.5-0.4c-0.2-0.1-0.5-0.1-0.8-0.1c-0.7,0-1.2,0.2-1.6,0.6
		c-0.4,0.4-0.6,0.9-0.6,1.5v5.2h-1.4v-5.4c0-0.3,0-0.5-0.1-0.7c0-0.2-0.1-0.4-0.2-0.6c-0.1-0.2-0.3-0.3-0.5-0.4
		c-0.2-0.1-0.5-0.1-0.8-0.1c-0.4,0-0.7,0.1-1,0.2c-0.3,0.2-0.5,0.4-0.7,0.6c-0.2,0.2-0.3,0.5-0.4,0.7c-0.1,0.2-0.1,0.4-0.1,0.6v5.2
		h-1.4v-8.3H63.9z"/>
	<path class="st1" d="M82.1,97.3c-0.6,0.5-1.4,0.7-2.3,0.7c-0.7,0-1.2-0.1-1.7-0.3c-0.5-0.2-0.9-0.5-1.2-0.9
		c-0.3-0.4-0.6-0.8-0.7-1.4c-0.2-0.5-0.3-1.1-0.3-1.7c0-0.6,0.1-1.2,0.3-1.7c0.2-0.5,0.5-1,0.8-1.4c0.3-0.4,0.8-0.7,1.2-0.9
		s1-0.3,1.6-0.3c0.7,0,1.3,0.2,1.8,0.5c0.5,0.3,0.9,0.7,1.2,1.2c0.3,0.5,0.5,1,0.6,1.5c0.1,0.6,0.2,1.1,0.1,1.6h-6.2
		c0,0.4,0,0.7,0.1,1c0.1,0.3,0.3,0.6,0.5,0.9c0.2,0.3,0.5,0.5,0.8,0.6s0.7,0.2,1.2,0.2c0.6,0,1-0.1,1.4-0.4c0.4-0.3,0.6-0.7,0.7-1.2
		h1.3C83.1,96.1,82.7,96.8,82.1,97.3z M81.8,92c-0.1-0.3-0.3-0.5-0.5-0.7s-0.5-0.4-0.7-0.5c-0.3-0.1-0.6-0.2-0.9-0.2
		c-0.4,0-0.7,0.1-1,0.2c-0.3,0.1-0.5,0.3-0.7,0.5c-0.2,0.2-0.4,0.5-0.5,0.7c-0.1,0.3-0.2,0.6-0.2,0.9H82
		C81.9,92.6,81.9,92.3,81.8,92z"/>
	<path class="st1" d="M86.1,89.5v1.2h0c0.6-0.9,1.5-1.4,2.7-1.4c0.5,0,1,0.1,1.4,0.3s0.7,0.6,0.9,1.1c0.3-0.4,0.6-0.8,1.1-1
		c0.5-0.2,1-0.4,1.5-0.4c0.4,0,0.8,0,1.1,0.1c0.3,0.1,0.6,0.2,0.9,0.4c0.2,0.2,0.4,0.4,0.6,0.7c0.1,0.3,0.2,0.7,0.2,1.1v6.1h-1.4
		v-5.4c0-0.3,0-0.5-0.1-0.7c0-0.2-0.1-0.4-0.2-0.6c-0.1-0.2-0.3-0.3-0.5-0.4c-0.2-0.1-0.5-0.1-0.8-0.1c-0.7,0-1.2,0.2-1.6,0.6
		c-0.4,0.4-0.6,0.9-0.6,1.5v5.2h-1.4v-5.4c0-0.3,0-0.5-0.1-0.7c0-0.2-0.1-0.4-0.2-0.6c-0.1-0.2-0.3-0.3-0.5-0.4
		c-0.2-0.1-0.5-0.1-0.8-0.1c-0.4,0-0.7,0.1-1,0.2c-0.3,0.2-0.5,0.4-0.7,0.6c-0.2,0.2-0.3,0.5-0.4,0.7c-0.1,0.2-0.1,0.4-0.1,0.6v5.2
		h-1.4v-8.3H86.1z"/>
	<path class="st1" d="M99.9,86.4v4.3h0c0.2-0.5,0.6-0.8,1.1-1c0.5-0.2,1-0.3,1.6-0.3c0.6,0,1.2,0.1,1.7,0.4c0.5,0.2,0.9,0.6,1.2,1
		c0.3,0.4,0.6,0.9,0.7,1.4s0.2,1.1,0.2,1.7c0,0.6-0.1,1.1-0.2,1.7c-0.2,0.5-0.4,1-0.7,1.4c-0.3,0.4-0.7,0.7-1.2,0.9
		c-0.5,0.2-1,0.3-1.7,0.3c-0.2,0-0.4,0-0.7-0.1c-0.3,0-0.5-0.1-0.7-0.2c-0.2-0.1-0.5-0.2-0.7-0.4s-0.4-0.4-0.6-0.6h0v1.1h-1.4V86.4
		H99.9z M104.8,92.5c-0.1-0.4-0.3-0.7-0.5-1c-0.2-0.3-0.5-0.5-0.8-0.7c-0.3-0.2-0.7-0.3-1.1-0.3c-0.5,0-0.8,0.1-1.2,0.3
		c-0.3,0.2-0.6,0.4-0.8,0.7c-0.2,0.3-0.3,0.6-0.4,1c-0.1,0.4-0.1,0.8-0.1,1.1c0,0.4,0,0.8,0.1,1.2c0.1,0.4,0.2,0.7,0.5,1
		c0.2,0.3,0.5,0.5,0.8,0.7c0.3,0.2,0.7,0.3,1.2,0.3c0.5,0,0.9-0.1,1.2-0.3c0.3-0.2,0.6-0.4,0.8-0.7c0.2-0.3,0.3-0.6,0.4-1
		c0.1-0.4,0.1-0.8,0.1-1.2C104.9,93.2,104.9,92.8,104.8,92.5z"/>
	<path class="st1" d="M113.8,97.3c-0.6,0.5-1.4,0.7-2.3,0.7c-0.7,0-1.2-0.1-1.7-0.3s-0.9-0.5-1.2-0.9c-0.3-0.4-0.6-0.8-0.7-1.4
		c-0.2-0.5-0.3-1.1-0.3-1.7c0-0.6,0.1-1.2,0.3-1.7c0.2-0.5,0.5-1,0.8-1.4c0.3-0.4,0.8-0.7,1.2-0.9s1-0.3,1.6-0.3
		c0.7,0,1.3,0.2,1.8,0.5c0.5,0.3,0.9,0.7,1.2,1.2c0.3,0.5,0.5,1,0.6,1.5c0.1,0.6,0.2,1.1,0.1,1.6h-6.2c0,0.4,0,0.7,0.1,1
		c0.1,0.3,0.3,0.6,0.5,0.9c0.2,0.3,0.5,0.5,0.8,0.6s0.7,0.2,1.2,0.2c0.6,0,1-0.1,1.4-0.4c0.4-0.3,0.6-0.7,0.7-1.2h1.3
		C114.8,96.1,114.4,96.8,113.8,97.3z M113.5,92c-0.1-0.3-0.3-0.5-0.5-0.7s-0.5-0.4-0.7-0.5c-0.3-0.1-0.6-0.2-0.9-0.2
		c-0.4,0-0.7,0.1-1,0.2c-0.3,0.1-0.5,0.3-0.7,0.5c-0.2,0.2-0.4,0.5-0.5,0.7c-0.1,0.3-0.2,0.6-0.2,0.9h4.8
		C113.7,92.6,113.6,92.3,113.5,92z"/>
	<path class="st1" d="M117.8,89.5v1.7h0c0.3-0.7,0.7-1.2,1.2-1.5c0.5-0.3,1.1-0.5,1.8-0.4v1.4c-0.5,0-1,0.1-1.4,0.2
		c-0.4,0.1-0.7,0.4-0.9,0.7s-0.4,0.6-0.5,1c-0.1,0.4-0.2,0.9-0.2,1.4v3.7h-1.4v-8.3H117.8z"/>
	<path class="st1" d="M122.9,96c0.1,0.2,0.3,0.4,0.5,0.5s0.4,0.2,0.7,0.3c0.3,0.1,0.5,0.1,0.8,0.1c0.2,0,0.4,0,0.7,0
		c0.2,0,0.5-0.1,0.6-0.2c0.2-0.1,0.4-0.2,0.5-0.4s0.2-0.4,0.2-0.6c0-0.4-0.1-0.6-0.4-0.8c-0.3-0.2-0.6-0.3-1-0.4
		c-0.4-0.1-0.8-0.2-1.3-0.3c-0.5-0.1-0.9-0.2-1.3-0.4c-0.4-0.2-0.7-0.4-1-0.7c-0.3-0.3-0.4-0.7-0.4-1.2c0-0.4,0.1-0.8,0.3-1.1
		c0.2-0.3,0.4-0.5,0.7-0.7c0.3-0.2,0.6-0.3,1-0.4c0.4-0.1,0.7-0.1,1.1-0.1c0.5,0,0.9,0,1.3,0.1c0.4,0.1,0.7,0.2,1,0.4
		c0.3,0.2,0.5,0.5,0.7,0.8s0.3,0.8,0.3,1.3h-1.4c0-0.3-0.1-0.5-0.2-0.7c-0.1-0.2-0.3-0.3-0.4-0.4c-0.2-0.1-0.4-0.2-0.6-0.2
		c-0.2,0-0.4-0.1-0.7-0.1c-0.2,0-0.4,0-0.6,0c-0.2,0-0.4,0.1-0.6,0.2c-0.2,0.1-0.3,0.2-0.4,0.3c-0.1,0.1-0.2,0.3-0.2,0.5
		c0,0.2,0.1,0.4,0.2,0.6c0.2,0.2,0.4,0.3,0.6,0.4c0.3,0.1,0.5,0.2,0.9,0.3c0.3,0.1,0.6,0.1,1,0.2c0.3,0.1,0.7,0.2,1,0.3
		c0.3,0.1,0.6,0.2,0.9,0.4c0.3,0.2,0.5,0.4,0.6,0.7c0.2,0.3,0.2,0.6,0.2,1c0,0.5-0.1,0.9-0.3,1.2c-0.2,0.3-0.5,0.6-0.8,0.8
		c-0.3,0.2-0.7,0.3-1.1,0.4c-0.4,0.1-0.8,0.1-1.3,0.1c-0.5,0-0.9,0-1.3-0.1c-0.4-0.1-0.8-0.3-1.1-0.5s-0.6-0.5-0.8-0.9
		c-0.2-0.4-0.3-0.8-0.3-1.3h1.4C122.7,95.5,122.8,95.8,122.9,96z"/>
	<path class="st1" d="M141.1,97.8l-1.7-6.6h0l-1.7,6.6h-1.5l-2.7-8.3h1.5l1.9,6.8h0l1.7-6.8h1.5l1.7,6.8h0l1.9-6.8h1.4l-2.6,8.3
		H141.1z"/>
	<path class="st1" d="M146.5,88v-1.7h1.4V88H146.5z M147.9,89.5v8.3h-1.4v-8.3H147.9z"/>
	<path class="st1" d="M153.5,89.5v1.2h-1.6v5.1c0,0.2,0,0.3,0,0.4c0,0.1,0.1,0.2,0.2,0.2c0.1,0.1,0.2,0.1,0.3,0.1c0.1,0,0.3,0,0.5,0
		h0.6v1.2h-1c-0.4,0-0.7,0-0.9-0.1c-0.3,0-0.5-0.1-0.6-0.3s-0.3-0.3-0.3-0.5c-0.1-0.2-0.1-0.5-0.1-0.9v-5.3h-1.4v-1.2h1.4v-2.5h1.4
		v2.5H153.5z"/>
	<path class="st1" d="M156.4,86.4v4.4h0c0.1-0.3,0.3-0.5,0.4-0.6c0.2-0.2,0.4-0.3,0.6-0.4c0.2-0.1,0.5-0.2,0.8-0.2
		c0.3-0.1,0.5-0.1,0.8-0.1c0.5,0,1,0.1,1.4,0.2c0.4,0.1,0.7,0.4,0.9,0.6c0.2,0.3,0.4,0.6,0.5,1c0.1,0.4,0.1,0.8,0.1,1.2v5.4h-1.4
		v-5.6c0-0.5-0.1-0.9-0.4-1.2c-0.3-0.3-0.7-0.4-1.2-0.4c-0.4,0-0.8,0.1-1.1,0.2c-0.3,0.1-0.6,0.3-0.8,0.5c-0.2,0.2-0.4,0.5-0.5,0.8
		c-0.1,0.3-0.2,0.7-0.2,1v4.7H155V86.4H156.4z"/>
	<path class="st1" d="M163.7,92c0.2-0.5,0.4-1,0.8-1.4c0.3-0.4,0.8-0.7,1.3-0.9c0.5-0.2,1.1-0.3,1.7-0.3c0.7,0,1.2,0.1,1.7,0.3
		s0.9,0.5,1.3,0.9c0.3,0.4,0.6,0.8,0.8,1.4c0.2,0.5,0.3,1.1,0.3,1.7s-0.1,1.2-0.3,1.7c-0.2,0.5-0.4,1-0.8,1.4
		c-0.3,0.4-0.8,0.7-1.3,0.9c-0.5,0.2-1.1,0.3-1.7,0.3c-0.7,0-1.2-0.1-1.7-0.3c-0.5-0.2-0.9-0.5-1.3-0.9c-0.3-0.4-0.6-0.8-0.8-1.4
		c-0.2-0.5-0.3-1.1-0.3-1.7S163.6,92.5,163.7,92z M165.1,95c0.1,0.4,0.3,0.7,0.6,1c0.2,0.3,0.5,0.5,0.8,0.6s0.6,0.2,1,0.2
		c0.4,0,0.7-0.1,1-0.2s0.6-0.3,0.8-0.6s0.4-0.6,0.6-1c0.1-0.4,0.2-0.8,0.2-1.3s-0.1-0.9-0.2-1.3c-0.1-0.4-0.3-0.7-0.6-1
		c-0.2-0.3-0.5-0.5-0.8-0.6c-0.3-0.1-0.6-0.2-1-0.2c-0.4,0-0.7,0.1-1,0.2c-0.3,0.1-0.6,0.3-0.8,0.6c-0.2,0.3-0.4,0.6-0.6,1
		s-0.2,0.8-0.2,1.3S165,94.6,165.1,95z"/>
	<path class="st1" d="M178.7,97.8v-1.3h0c-0.3,0.5-0.7,0.9-1.1,1.1c-0.4,0.2-1,0.4-1.6,0.4c-0.5,0-1-0.1-1.4-0.2s-0.7-0.3-0.9-0.6
		c-0.2-0.3-0.4-0.6-0.5-1c-0.1-0.4-0.1-0.8-0.1-1.2v-5.4h1.4v5.6c0,0.5,0.1,0.9,0.4,1.2c0.3,0.3,0.7,0.4,1.2,0.4
		c0.4,0,0.8-0.1,1.1-0.2c0.3-0.1,0.6-0.3,0.8-0.5c0.2-0.2,0.4-0.5,0.5-0.8c0.1-0.3,0.2-0.7,0.2-1v-4.7h1.4v8.3H178.7z"/>
	<path class="st1" d="M185.6,89.5v1.2h-1.6v5.1c0,0.2,0,0.3,0,0.4c0,0.1,0.1,0.2,0.2,0.2c0.1,0.1,0.2,0.1,0.3,0.1c0.1,0,0.3,0,0.5,0
		h0.6v1.2h-1c-0.4,0-0.7,0-0.9-0.1c-0.3,0-0.5-0.1-0.6-0.3s-0.3-0.3-0.3-0.5c-0.1-0.2-0.1-0.5-0.1-0.9v-5.3h-1.4v-1.2h1.4v-2.5h1.4
		v2.5H185.6z"/>
	<path class="st1" d="M21,110.2c-0.3-0.3-0.8-0.4-1.4-0.4c-0.5,0-0.9,0.1-1.2,0.3c-0.3,0.2-0.6,0.4-0.8,0.7c-0.2,0.3-0.3,0.6-0.4,1
		c-0.1,0.4-0.1,0.8-0.1,1.2c0,0.4,0,0.8,0.1,1.1c0.1,0.4,0.2,0.7,0.4,1c0.2,0.3,0.4,0.5,0.8,0.7c0.3,0.2,0.7,0.3,1.1,0.3
		c0.7,0,1.2-0.2,1.6-0.5c0.4-0.4,0.6-0.8,0.7-1.5h1.4c-0.1,1-0.5,1.8-1.1,2.4c-0.6,0.6-1.4,0.8-2.5,0.8c-0.6,0-1.2-0.1-1.7-0.3
		s-0.9-0.5-1.2-0.9c-0.3-0.4-0.6-0.8-0.7-1.3c-0.2-0.5-0.2-1.1-0.2-1.7c0-0.6,0.1-1.2,0.2-1.7c0.2-0.5,0.4-1,0.7-1.4
		c0.3-0.4,0.7-0.7,1.2-0.9c0.5-0.2,1.1-0.3,1.7-0.3c0.5,0,0.9,0.1,1.3,0.2s0.8,0.3,1.1,0.5c0.3,0.2,0.6,0.5,0.8,0.9s0.3,0.8,0.4,1.3
		h-1.4C21.6,110.9,21.3,110.5,21,110.2z"/>
	<path class="st1" d="M24.4,111.2c0.2-0.5,0.4-1,0.8-1.4c0.3-0.4,0.8-0.7,1.3-0.9s1.1-0.3,1.7-0.3c0.7,0,1.2,0.1,1.7,0.3
		s0.9,0.5,1.3,0.9s0.6,0.8,0.8,1.4c0.2,0.5,0.3,1.1,0.3,1.7s-0.1,1.2-0.3,1.7c-0.2,0.5-0.4,1-0.8,1.4c-0.3,0.4-0.8,0.7-1.3,0.9
		c-0.5,0.2-1.1,0.3-1.7,0.3c-0.7,0-1.2-0.1-1.7-0.3c-0.5-0.2-0.9-0.5-1.3-0.9c-0.3-0.4-0.6-0.8-0.8-1.4c-0.2-0.5-0.3-1.1-0.3-1.7
		S24.3,111.7,24.4,111.2z M25.8,114.2c0.1,0.4,0.3,0.7,0.6,1c0.2,0.3,0.5,0.5,0.8,0.6c0.3,0.1,0.6,0.2,1,0.2c0.4,0,0.7-0.1,1-0.2
		c0.3-0.1,0.6-0.3,0.8-0.6c0.2-0.3,0.4-0.6,0.6-1s0.2-0.8,0.2-1.3s-0.1-0.9-0.2-1.3s-0.3-0.7-0.6-1c-0.2-0.3-0.5-0.5-0.8-0.6
		c-0.3-0.1-0.6-0.2-1-0.2c-0.4,0-0.7,0.1-1,0.2c-0.3,0.1-0.6,0.3-0.8,0.6c-0.2,0.3-0.4,0.6-0.6,1s-0.2,0.8-0.2,1.3
		S25.7,113.8,25.8,114.2z"/>
	<path class="st1" d="M35.1,108.7v1.3h0c0.6-1,1.5-1.5,2.7-1.5c0.5,0,1,0.1,1.4,0.2c0.4,0.1,0.7,0.4,0.9,0.6c0.2,0.3,0.4,0.6,0.5,1
		s0.1,0.8,0.1,1.2v5.4h-1.4v-5.6c0-0.5-0.1-0.9-0.4-1.2c-0.3-0.3-0.7-0.4-1.2-0.4c-0.4,0-0.8,0.1-1.1,0.2c-0.3,0.1-0.6,0.3-0.8,0.5
		c-0.2,0.2-0.4,0.5-0.5,0.8c-0.1,0.3-0.2,0.7-0.2,1v4.7h-1.4v-8.3H35.1z"/>
	<path class="st1" d="M47.7,110.2c-0.3-0.3-0.8-0.4-1.4-0.4c-0.5,0-0.9,0.1-1.2,0.3c-0.3,0.2-0.6,0.4-0.8,0.7
		c-0.2,0.3-0.3,0.6-0.4,1c-0.1,0.4-0.1,0.8-0.1,1.2c0,0.4,0,0.8,0.1,1.1c0.1,0.4,0.2,0.7,0.4,1c0.2,0.3,0.4,0.5,0.8,0.7
		c0.3,0.2,0.7,0.3,1.1,0.3c0.7,0,1.2-0.2,1.6-0.5c0.4-0.4,0.6-0.8,0.7-1.5h1.4c-0.1,1-0.5,1.8-1.1,2.4c-0.6,0.6-1.4,0.8-2.5,0.8
		c-0.6,0-1.2-0.1-1.7-0.3s-0.9-0.5-1.2-0.9c-0.3-0.4-0.6-0.8-0.7-1.3c-0.2-0.5-0.2-1.1-0.2-1.7c0-0.6,0.1-1.2,0.2-1.7
		c0.2-0.5,0.4-1,0.7-1.4c0.3-0.4,0.7-0.7,1.2-0.9c0.5-0.2,1.1-0.3,1.7-0.3c0.5,0,0.9,0.1,1.3,0.2s0.8,0.3,1.1,0.5
		c0.3,0.2,0.6,0.5,0.8,0.9s0.3,0.8,0.4,1.3h-1.4C48.2,110.9,48,110.5,47.7,110.2z"/>
	<path class="st1" d="M57.2,116.5c-0.6,0.5-1.4,0.7-2.3,0.7c-0.7,0-1.2-0.1-1.7-0.3c-0.5-0.2-0.9-0.5-1.2-0.9
		c-0.3-0.4-0.6-0.8-0.7-1.4s-0.3-1.1-0.3-1.7c0-0.6,0.1-1.2,0.3-1.7c0.2-0.5,0.5-1,0.8-1.4s0.8-0.7,1.2-0.9c0.5-0.2,1-0.3,1.6-0.3
		c0.7,0,1.3,0.2,1.8,0.5s0.9,0.7,1.2,1.2c0.3,0.5,0.5,1,0.6,1.5c0.1,0.6,0.2,1.1,0.1,1.6h-6.2c0,0.4,0,0.7,0.1,1
		c0.1,0.3,0.3,0.6,0.5,0.9c0.2,0.3,0.5,0.5,0.8,0.6c0.3,0.2,0.7,0.2,1.2,0.2c0.6,0,1-0.1,1.4-0.4c0.4-0.3,0.6-0.7,0.7-1.2h1.3
		C58.2,115.3,57.8,116,57.2,116.5z M56.8,111.2c-0.1-0.3-0.3-0.5-0.5-0.7s-0.5-0.4-0.7-0.5c-0.3-0.1-0.6-0.2-0.9-0.2
		c-0.4,0-0.7,0.1-1,0.2c-0.3,0.1-0.5,0.3-0.7,0.5c-0.2,0.2-0.4,0.5-0.5,0.7c-0.1,0.3-0.2,0.6-0.2,0.9h4.8
		C57,111.8,57,111.5,56.8,111.2z"/>
	<path class="st1" d="M61.1,108.7v1.7h0c0.3-0.7,0.7-1.2,1.2-1.5c0.5-0.3,1.1-0.5,1.8-0.4v1.4c-0.5,0-1,0.1-1.4,0.2
		c-0.4,0.1-0.7,0.4-0.9,0.7c-0.2,0.3-0.4,0.6-0.5,1c-0.1,0.4-0.2,0.9-0.2,1.4v3.7h-1.4v-8.3H61.1z"/>
	<path class="st1" d="M66.8,108.7v1.3h0c0.6-1,1.5-1.5,2.7-1.5c0.5,0,1,0.1,1.4,0.2c0.4,0.1,0.7,0.4,0.9,0.6c0.2,0.3,0.4,0.6,0.5,1
		s0.1,0.8,0.1,1.2v5.4H71v-5.6c0-0.5-0.1-0.9-0.4-1.2c-0.3-0.3-0.7-0.4-1.2-0.4c-0.4,0-0.8,0.1-1.1,0.2c-0.3,0.1-0.6,0.3-0.8,0.5
		c-0.2,0.2-0.4,0.5-0.5,0.8c-0.1,0.3-0.2,0.7-0.2,1v4.7h-1.4v-8.3H66.8z"/>
	<path class="st1" d="M82.4,108.7v1.2h-1.6v5.1c0,0.2,0,0.3,0,0.4c0,0.1,0.1,0.2,0.2,0.2c0.1,0.1,0.2,0.1,0.3,0.1c0.1,0,0.3,0,0.5,0
		h0.6v1.2h-1c-0.4,0-0.7,0-0.9-0.1c-0.3,0-0.5-0.1-0.6-0.3s-0.3-0.3-0.3-0.5c-0.1-0.2-0.1-0.5-0.1-0.9v-5.3H78v-1.2h1.4v-2.5h1.4
		v2.5H82.4z"/>
	<path class="st1" d="M85.3,105.6v4.4h0c0.1-0.3,0.3-0.5,0.4-0.6c0.2-0.2,0.4-0.3,0.6-0.4c0.2-0.1,0.5-0.2,0.8-0.2
		c0.3-0.1,0.5-0.1,0.8-0.1c0.5,0,1,0.1,1.4,0.2c0.4,0.1,0.7,0.4,0.9,0.6c0.2,0.3,0.4,0.6,0.5,1s0.1,0.8,0.1,1.2v5.4h-1.4v-5.6
		c0-0.5-0.1-0.9-0.4-1.2c-0.3-0.3-0.7-0.4-1.2-0.4c-0.4,0-0.8,0.1-1.1,0.2c-0.3,0.1-0.6,0.3-0.8,0.5c-0.2,0.2-0.4,0.5-0.5,0.8
		c-0.1,0.3-0.2,0.7-0.2,1v4.7h-1.4v-11.4H85.3z"/>
	<path class="st1" d="M98.7,116.5c-0.6,0.5-1.4,0.7-2.3,0.7c-0.7,0-1.2-0.1-1.7-0.3c-0.5-0.2-0.9-0.5-1.2-0.9
		c-0.3-0.4-0.6-0.8-0.7-1.4s-0.3-1.1-0.3-1.7c0-0.6,0.1-1.2,0.3-1.7c0.2-0.5,0.5-1,0.8-1.4s0.8-0.7,1.2-0.9c0.5-0.2,1-0.3,1.6-0.3
		c0.7,0,1.3,0.2,1.8,0.5s0.9,0.7,1.2,1.2c0.3,0.5,0.5,1,0.6,1.5c0.1,0.6,0.2,1.1,0.1,1.6h-6.2c0,0.4,0,0.7,0.1,1
		c0.1,0.3,0.3,0.6,0.5,0.9c0.2,0.3,0.5,0.5,0.8,0.6c0.3,0.2,0.7,0.2,1.2,0.2c0.6,0,1-0.1,1.4-0.4c0.4-0.3,0.6-0.7,0.7-1.2h1.3
		C99.7,115.3,99.3,116,98.7,116.5z M98.3,111.2c-0.1-0.3-0.3-0.5-0.5-0.7c-0.2-0.2-0.5-0.4-0.7-0.5c-0.3-0.1-0.6-0.2-0.9-0.2
		c-0.4,0-0.7,0.1-1,0.2c-0.3,0.1-0.5,0.3-0.7,0.5c-0.2,0.2-0.4,0.5-0.5,0.7c-0.1,0.3-0.2,0.6-0.2,0.9h4.8
		C98.5,111.8,98.4,111.5,98.3,111.2z"/>
	<path class="st1" d="M107.2,108.7v1.1h0c0.2-0.5,0.6-0.8,1.1-1c0.5-0.2,1-0.3,1.6-0.3c0.6,0,1.2,0.1,1.7,0.4c0.5,0.2,0.9,0.6,1.2,1
		c0.3,0.4,0.6,0.9,0.7,1.4c0.2,0.5,0.2,1.1,0.2,1.7c0,0.6-0.1,1.1-0.2,1.7c-0.2,0.5-0.4,1-0.7,1.4s-0.7,0.7-1.2,0.9
		c-0.5,0.2-1,0.3-1.7,0.3c-0.2,0-0.4,0-0.7-0.1c-0.3,0-0.5-0.1-0.7-0.2c-0.2-0.1-0.5-0.2-0.7-0.4c-0.2-0.2-0.4-0.4-0.6-0.6h0v4.3
		h-1.4v-11.4H107.2z M112.1,111.7c-0.1-0.4-0.3-0.7-0.5-1s-0.5-0.5-0.8-0.7s-0.7-0.3-1.1-0.3c-0.5,0-0.8,0.1-1.2,0.3
		c-0.3,0.2-0.6,0.4-0.8,0.7c-0.2,0.3-0.3,0.6-0.4,1c-0.1,0.4-0.1,0.8-0.1,1.1c0,0.4,0,0.8,0.1,1.2c0.1,0.4,0.2,0.7,0.5,1
		s0.5,0.5,0.8,0.7c0.3,0.2,0.7,0.3,1.2,0.3c0.5,0,0.9-0.1,1.2-0.3c0.3-0.2,0.6-0.4,0.8-0.7c0.2-0.3,0.3-0.6,0.4-1
		c0.1-0.4,0.1-0.8,0.1-1.2C112.3,112.4,112.2,112,112.1,111.7z"/>
	<path class="st1" d="M122.7,117c-0.2,0.1-0.6,0.2-1,0.2c-0.4,0-0.6-0.1-0.8-0.3s-0.3-0.5-0.3-1c-0.4,0.4-0.8,0.8-1.3,1
		s-1,0.3-1.6,0.3c-0.4,0-0.7,0-1.1-0.1s-0.6-0.2-0.9-0.4c-0.2-0.2-0.4-0.4-0.6-0.7c-0.1-0.3-0.2-0.6-0.2-1.1c0-0.5,0.1-0.9,0.2-1.2
		c0.2-0.3,0.4-0.5,0.6-0.7c0.3-0.2,0.6-0.3,0.9-0.4c0.3-0.1,0.7-0.2,1-0.2c0.4-0.1,0.7-0.1,1.1-0.2c0.3,0,0.6-0.1,0.9-0.2
		s0.5-0.2,0.6-0.3c0.1-0.1,0.2-0.3,0.2-0.6c0-0.3-0.1-0.5-0.2-0.7c-0.1-0.2-0.3-0.3-0.4-0.4c-0.2-0.1-0.4-0.2-0.6-0.2s-0.4,0-0.6,0
		c-0.6,0-1.1,0.1-1.4,0.3s-0.6,0.6-0.6,1.2h-1.4c0-0.5,0.1-0.9,0.3-1.3c0.2-0.4,0.4-0.6,0.8-0.9c0.3-0.2,0.7-0.4,1.1-0.5
		c0.4-0.1,0.9-0.1,1.3-0.1c0.4,0,0.7,0,1.1,0.1c0.4,0.1,0.7,0.2,1,0.3s0.5,0.4,0.7,0.7c0.2,0.3,0.3,0.7,0.3,1.2v4.2
		c0,0.3,0,0.6,0.1,0.7c0,0.1,0.2,0.2,0.4,0.2c0.1,0,0.3,0,0.4-0.1V117z M120.4,112.7c-0.2,0.1-0.4,0.2-0.7,0.3s-0.6,0.1-0.9,0.1
		c-0.3,0-0.6,0.1-0.9,0.1s-0.6,0.1-0.8,0.2s-0.4,0.3-0.6,0.5c-0.2,0.2-0.2,0.5-0.2,0.8c0,0.2,0,0.4,0.1,0.6c0.1,0.2,0.2,0.3,0.4,0.4
		c0.1,0.1,0.3,0.2,0.5,0.2c0.2,0,0.4,0.1,0.6,0.1c0.4,0,0.8-0.1,1.2-0.2c0.3-0.1,0.6-0.3,0.8-0.5c0.2-0.2,0.4-0.4,0.4-0.6
		c0.1-0.2,0.1-0.4,0.1-0.6V112.7z"/>
	<path class="st1" d="M125.2,108.7v1.7h0c0.3-0.7,0.7-1.2,1.2-1.5c0.5-0.3,1.1-0.5,1.8-0.4v1.4c-0.5,0-1,0.1-1.4,0.2
		c-0.4,0.1-0.7,0.4-0.9,0.7c-0.2,0.3-0.4,0.6-0.5,1c-0.1,0.4-0.2,0.9-0.2,1.4v3.7h-1.4v-8.3H125.2z"/>
	<path class="st1" d="M135,117v-1.1h0c-0.2,0.5-0.6,0.8-1.1,1c-0.5,0.2-1,0.3-1.6,0.3c-0.6,0-1.2-0.1-1.7-0.4s-0.9-0.5-1.2-0.9
		c-0.3-0.4-0.6-0.9-0.7-1.4c-0.2-0.5-0.2-1.1-0.2-1.7c0-0.6,0.1-1.1,0.2-1.7c0.2-0.5,0.4-1,0.7-1.4c0.3-0.4,0.7-0.7,1.2-0.9
		s1-0.3,1.7-0.3c0.2,0,0.4,0,0.7,0.1c0.2,0,0.5,0.1,0.7,0.2c0.2,0.1,0.5,0.2,0.7,0.4c0.2,0.2,0.4,0.4,0.6,0.6h0v-4.3h1.4V117H135z
		 M130.1,114.1c0.1,0.4,0.3,0.7,0.5,1s0.5,0.5,0.8,0.7s0.7,0.3,1.1,0.3c0.5,0,0.8-0.1,1.2-0.3c0.3-0.2,0.6-0.4,0.8-0.7
		c0.2-0.3,0.3-0.6,0.4-1c0.1-0.4,0.1-0.8,0.1-1.1c0-0.4,0-0.8-0.1-1.2s-0.2-0.7-0.5-1s-0.5-0.5-0.8-0.7c-0.3-0.2-0.7-0.3-1.2-0.3
		c-0.5,0-0.8,0.1-1.2,0.3c-0.3,0.2-0.6,0.4-0.8,0.7c-0.2,0.3-0.3,0.6-0.4,1c-0.1,0.4-0.1,0.8-0.1,1.2
		C129.9,113.3,130,113.7,130.1,114.1z"/>
	<path class="st1" d="M138.3,111.2c0.2-0.5,0.4-1,0.8-1.4c0.3-0.4,0.8-0.7,1.3-0.9c0.5-0.2,1.1-0.3,1.7-0.3c0.7,0,1.2,0.1,1.7,0.3
		s0.9,0.5,1.3,0.9c0.3,0.4,0.6,0.8,0.8,1.4c0.2,0.5,0.3,1.1,0.3,1.7s-0.1,1.2-0.3,1.7c-0.2,0.5-0.4,1-0.8,1.4
		c-0.3,0.4-0.8,0.7-1.3,0.9c-0.5,0.2-1.1,0.3-1.7,0.3c-0.7,0-1.2-0.1-1.7-0.3c-0.5-0.2-0.9-0.5-1.3-0.9c-0.3-0.4-0.6-0.8-0.8-1.4
		s-0.3-1.1-0.3-1.7S138.1,111.7,138.3,111.2z M139.6,114.2c0.1,0.4,0.3,0.7,0.6,1c0.2,0.3,0.5,0.5,0.8,0.6s0.6,0.2,1,0.2
		c0.4,0,0.7-0.1,1-0.2s0.6-0.3,0.8-0.6c0.2-0.3,0.4-0.6,0.6-1c0.1-0.4,0.2-0.8,0.2-1.3s-0.1-0.9-0.2-1.3c-0.1-0.4-0.3-0.7-0.6-1
		s-0.5-0.5-0.8-0.6s-0.6-0.2-1-0.2c-0.4,0-0.7,0.1-1,0.2s-0.6,0.3-0.8,0.6c-0.2,0.3-0.4,0.6-0.6,1s-0.2,0.8-0.2,1.3
		S139.5,113.8,139.6,114.2z"/>
	<path class="st1" d="M148.9,108.7v1.3h0c0.6-1,1.5-1.5,2.7-1.5c0.5,0,1,0.1,1.4,0.2s0.7,0.4,0.9,0.6c0.2,0.3,0.4,0.6,0.5,1
		c0.1,0.4,0.1,0.8,0.1,1.2v5.4h-1.4v-5.6c0-0.5-0.1-0.9-0.4-1.2c-0.3-0.3-0.7-0.4-1.2-0.4c-0.4,0-0.8,0.1-1.1,0.2s-0.6,0.3-0.8,0.5
		c-0.2,0.2-0.4,0.5-0.5,0.8s-0.2,0.7-0.2,1v4.7h-1.4v-8.3H148.9z"/>
	<path class="st1" d="M157.6,115.2c0.1,0.2,0.3,0.4,0.5,0.5c0.2,0.1,0.4,0.2,0.7,0.3c0.3,0.1,0.5,0.1,0.8,0.1c0.2,0,0.4,0,0.7,0
		c0.2,0,0.5-0.1,0.6-0.2c0.2-0.1,0.4-0.2,0.5-0.4c0.1-0.2,0.2-0.4,0.2-0.6c0-0.4-0.1-0.6-0.4-0.8s-0.6-0.3-1-0.4
		c-0.4-0.1-0.8-0.2-1.3-0.3c-0.5-0.1-0.9-0.2-1.3-0.4c-0.4-0.2-0.7-0.4-1-0.7c-0.3-0.3-0.4-0.7-0.4-1.2c0-0.4,0.1-0.8,0.3-1.1
		s0.4-0.5,0.7-0.7s0.6-0.3,1-0.4s0.7-0.1,1.1-0.1c0.5,0,0.9,0,1.3,0.1s0.7,0.2,1,0.4c0.3,0.2,0.5,0.5,0.7,0.8s0.3,0.8,0.3,1.3h-1.4
		c0-0.3-0.1-0.5-0.2-0.7s-0.3-0.3-0.4-0.4s-0.4-0.2-0.6-0.2c-0.2,0-0.4-0.1-0.7-0.1c-0.2,0-0.4,0-0.6,0s-0.4,0.1-0.6,0.2
		c-0.2,0.1-0.3,0.2-0.4,0.3c-0.1,0.1-0.2,0.3-0.2,0.5c0,0.2,0.1,0.4,0.2,0.6c0.2,0.2,0.4,0.3,0.6,0.4c0.3,0.1,0.5,0.2,0.9,0.3
		c0.3,0.1,0.6,0.1,1,0.2c0.3,0.1,0.7,0.2,1,0.3c0.3,0.1,0.6,0.2,0.9,0.4c0.3,0.2,0.5,0.4,0.6,0.7c0.2,0.3,0.2,0.6,0.2,1
		c0,0.5-0.1,0.9-0.3,1.2c-0.2,0.3-0.5,0.6-0.8,0.8c-0.3,0.2-0.7,0.3-1.1,0.4c-0.4,0.1-0.8,0.1-1.3,0.1c-0.5,0-0.9,0-1.3-0.1
		c-0.4-0.1-0.8-0.3-1.1-0.5c-0.3-0.2-0.6-0.5-0.8-0.9c-0.2-0.4-0.3-0.8-0.3-1.3h1.4C157.4,114.7,157.4,115,157.6,115.2z"/>
	<path class="st1" d="M175.7,117l-1.7-6.6h0l-1.7,6.6h-1.5l-2.7-8.3h1.5l1.9,6.8h0l1.7-6.8h1.5l1.7,6.8h0l1.9-6.8h1.4l-2.6,8.3
		H175.7z"/>
	<path class="st1" d="M181.2,107.2v-1.7h1.4v1.7H181.2z M182.5,108.7v8.3h-1.4v-8.3H182.5z"/>
	<path class="st1" d="M186.1,105.6V117h-1.4v-11.4H186.1z"/>
	<path class="st1" d="M189.6,105.6V117h-1.4v-11.4H189.6z"/>
	<path class="st1" d="M17.5,124.8v4.3h0c0.2-0.5,0.6-0.8,1.1-1s1-0.3,1.6-0.3c0.6,0,1.2,0.1,1.7,0.4c0.5,0.2,0.9,0.6,1.2,1
		c0.3,0.4,0.6,0.9,0.7,1.4c0.2,0.5,0.2,1.1,0.2,1.7c0,0.6-0.1,1.1-0.2,1.7c-0.2,0.5-0.4,1-0.7,1.4c-0.3,0.4-0.7,0.7-1.2,0.9
		c-0.5,0.2-1,0.3-1.7,0.3c-0.2,0-0.4,0-0.7-0.1c-0.3,0-0.5-0.1-0.7-0.2c-0.2-0.1-0.5-0.2-0.7-0.4c-0.2-0.2-0.4-0.4-0.6-0.6h0v1.1
		h-1.4v-11.4H17.5z M22.3,130.9c-0.1-0.4-0.3-0.7-0.5-1s-0.5-0.5-0.8-0.7c-0.3-0.2-0.7-0.3-1.1-0.3c-0.5,0-0.8,0.1-1.2,0.3
		c-0.3,0.2-0.6,0.4-0.8,0.7c-0.2,0.3-0.3,0.6-0.4,1c-0.1,0.4-0.1,0.8-0.1,1.1c0,0.4,0,0.8,0.1,1.2c0.1,0.4,0.2,0.7,0.5,1
		s0.5,0.5,0.8,0.7c0.3,0.2,0.7,0.3,1.2,0.3c0.5,0,0.9-0.1,1.2-0.3c0.3-0.2,0.6-0.4,0.8-0.7c0.2-0.3,0.3-0.6,0.4-1
		c0.1-0.4,0.1-0.8,0.1-1.2C22.5,131.6,22.4,131.2,22.3,130.9z"/>
	<path class="st1" d="M31.4,135.7c-0.6,0.5-1.4,0.7-2.3,0.7c-0.7,0-1.2-0.1-1.7-0.3c-0.5-0.2-0.9-0.5-1.2-0.9
		c-0.3-0.4-0.6-0.8-0.7-1.4s-0.3-1.1-0.3-1.7c0-0.6,0.1-1.2,0.3-1.7c0.2-0.5,0.5-1,0.8-1.4s0.8-0.7,1.2-0.9c0.5-0.2,1-0.3,1.6-0.3
		c0.7,0,1.3,0.2,1.8,0.5s0.9,0.7,1.2,1.2c0.3,0.5,0.5,1,0.6,1.5c0.1,0.6,0.2,1.1,0.1,1.6h-6.2c0,0.4,0,0.7,0.1,1
		c0.1,0.3,0.3,0.6,0.5,0.9c0.2,0.3,0.5,0.5,0.8,0.6c0.3,0.2,0.7,0.2,1.2,0.2c0.6,0,1-0.1,1.4-0.4c0.4-0.3,0.6-0.7,0.7-1.2h1.3
		C32.4,134.5,32,135.2,31.4,135.7z M31.1,130.4c-0.1-0.3-0.3-0.5-0.5-0.7s-0.5-0.4-0.7-0.5c-0.3-0.1-0.6-0.2-0.9-0.2
		c-0.4,0-0.7,0.1-1,0.2c-0.3,0.1-0.5,0.3-0.7,0.5c-0.2,0.2-0.4,0.5-0.5,0.7c-0.1,0.3-0.2,0.6-0.2,0.9h4.8
		C31.3,131,31.2,130.7,31.1,130.4z"/>
	<path class="st1" d="M38.4,130.4c0.2-0.5,0.4-1,0.8-1.4c0.3-0.4,0.8-0.7,1.3-0.9s1.1-0.3,1.7-0.3c0.7,0,1.2,0.1,1.7,0.3
		s0.9,0.5,1.3,0.9s0.6,0.8,0.8,1.4c0.2,0.5,0.3,1.1,0.3,1.7s-0.1,1.2-0.3,1.7c-0.2,0.5-0.4,1-0.8,1.4c-0.3,0.4-0.8,0.7-1.3,0.9
		c-0.5,0.2-1.1,0.3-1.7,0.3c-0.7,0-1.2-0.1-1.7-0.3c-0.5-0.2-0.9-0.5-1.3-0.9c-0.3-0.4-0.6-0.8-0.8-1.4c-0.2-0.5-0.3-1.1-0.3-1.7
		S38.2,130.9,38.4,130.4z M39.8,133.4c0.1,0.4,0.3,0.7,0.6,1c0.2,0.3,0.5,0.5,0.8,0.6c0.3,0.1,0.6,0.2,1,0.2c0.4,0,0.7-0.1,1-0.2
		c0.3-0.1,0.6-0.3,0.8-0.6c0.2-0.3,0.4-0.6,0.6-1s0.2-0.8,0.2-1.3s-0.1-0.9-0.2-1.3s-0.3-0.7-0.6-1c-0.2-0.3-0.5-0.5-0.8-0.6
		c-0.3-0.1-0.6-0.2-1-0.2c-0.4,0-0.7,0.1-1,0.2c-0.3,0.1-0.6,0.3-0.8,0.6c-0.2,0.3-0.4,0.6-0.6,1s-0.2,0.8-0.2,1.3
		S39.6,133,39.8,133.4z"/>
	<path class="st1" d="M50,136.2l-3.1-8.3h1.5l2.3,6.9h0l2.3-6.9h1.4l-3,8.3H50z"/>
	<path class="st1" d="M61.6,135.7c-0.6,0.5-1.4,0.7-2.3,0.7c-0.7,0-1.2-0.1-1.7-0.3c-0.5-0.2-0.9-0.5-1.2-0.9
		c-0.3-0.4-0.6-0.8-0.7-1.4s-0.3-1.1-0.3-1.7c0-0.6,0.1-1.2,0.3-1.7c0.2-0.5,0.5-1,0.8-1.4s0.8-0.7,1.2-0.9c0.5-0.2,1-0.3,1.6-0.3
		c0.7,0,1.3,0.2,1.8,0.5s0.9,0.7,1.2,1.2c0.3,0.5,0.5,1,0.6,1.5c0.1,0.6,0.2,1.1,0.1,1.6h-6.2c0,0.4,0,0.7,0.1,1
		c0.1,0.3,0.3,0.6,0.5,0.9c0.2,0.3,0.5,0.5,0.8,0.6c0.3,0.2,0.7,0.2,1.2,0.2c0.6,0,1-0.1,1.4-0.4c0.4-0.3,0.6-0.7,0.7-1.2h1.3
		C62.6,134.5,62.2,135.2,61.6,135.7z M61.3,130.4c-0.1-0.3-0.3-0.5-0.5-0.7s-0.5-0.4-0.7-0.5c-0.3-0.1-0.6-0.2-0.9-0.2
		c-0.4,0-0.7,0.1-1,0.2c-0.3,0.1-0.5,0.3-0.7,0.5c-0.2,0.2-0.4,0.5-0.5,0.7c-0.1,0.3-0.2,0.6-0.2,0.9h4.8
		C61.5,131,61.4,130.7,61.3,130.4z"/>
	<path class="st1" d="M65.6,127.9v1.7h0c0.3-0.7,0.7-1.2,1.2-1.5c0.5-0.3,1.1-0.5,1.8-0.4v1.4c-0.5,0-1,0.1-1.4,0.2
		c-0.4,0.1-0.7,0.4-0.9,0.7c-0.2,0.3-0.4,0.6-0.5,1c-0.1,0.4-0.2,0.9-0.2,1.4v3.7h-1.4v-8.3H65.6z"/>
	<path class="st1" d="M73.2,127.9v1.2h-1.6v5.1c0,0.2,0,0.3,0,0.4c0,0.1,0.1,0.2,0.2,0.2c0.1,0.1,0.2,0.1,0.3,0.1c0.1,0,0.3,0,0.5,0
		h0.6v1.2h-1c-0.4,0-0.7,0-0.9-0.1c-0.3,0-0.5-0.1-0.6-0.3s-0.3-0.3-0.3-0.5c-0.1-0.2-0.1-0.5-0.1-0.9v-5.3h-1.4v-1.2h1.4v-2.5h1.4
		v2.5H73.2z"/>
	<path class="st1" d="M80.3,136.2v-1.3h0c-0.3,0.5-0.7,0.9-1.1,1.1c-0.4,0.2-1,0.4-1.6,0.4c-0.5,0-1-0.1-1.4-0.2
		c-0.4-0.1-0.7-0.3-0.9-0.6c-0.2-0.3-0.4-0.6-0.5-1c-0.1-0.4-0.1-0.8-0.1-1.2v-5.4h1.4v5.6c0,0.5,0.1,0.9,0.4,1.2
		c0.3,0.3,0.7,0.4,1.2,0.4c0.4,0,0.8-0.1,1.1-0.2s0.6-0.3,0.8-0.5c0.2-0.2,0.4-0.5,0.5-0.8c0.1-0.3,0.2-0.7,0.2-1v-4.7h1.4v8.3H80.3
		z"/>
	<path class="st1" d="M84.8,127.9v1.7h0c0.3-0.7,0.7-1.2,1.2-1.5c0.5-0.3,1.1-0.5,1.8-0.4v1.4c-0.5,0-1,0.1-1.4,0.2
		c-0.4,0.1-0.7,0.4-0.9,0.7c-0.2,0.3-0.4,0.6-0.5,1c-0.1,0.4-0.2,0.9-0.2,1.4v3.7h-1.4v-8.3H84.8z"/>
	<path class="st1" d="M90.5,127.9v1.3h0c0.6-1,1.5-1.5,2.7-1.5c0.5,0,1,0.1,1.4,0.2c0.4,0.1,0.7,0.4,0.9,0.6c0.2,0.3,0.4,0.6,0.5,1
		s0.1,0.8,0.1,1.2v5.4h-1.4v-5.6c0-0.5-0.1-0.9-0.4-1.2c-0.3-0.3-0.7-0.4-1.2-0.4c-0.4,0-0.8,0.1-1.1,0.2c-0.3,0.1-0.6,0.3-0.8,0.5
		c-0.2,0.2-0.4,0.5-0.5,0.8c-0.1,0.3-0.2,0.7-0.2,1v4.7h-1.4v-8.3H90.5z"/>
	<path class="st1" d="M104,135.7c-0.6,0.5-1.4,0.7-2.3,0.7c-0.7,0-1.2-0.1-1.7-0.3c-0.5-0.2-0.9-0.5-1.2-0.9
		c-0.3-0.4-0.6-0.8-0.7-1.4c-0.2-0.5-0.3-1.1-0.3-1.7c0-0.6,0.1-1.2,0.3-1.7c0.2-0.5,0.5-1,0.8-1.4s0.8-0.7,1.2-0.9
		c0.5-0.2,1-0.3,1.6-0.3c0.7,0,1.3,0.2,1.8,0.5s0.9,0.7,1.2,1.2c0.3,0.5,0.5,1,0.6,1.5c0.1,0.6,0.2,1.1,0.1,1.6h-6.2
		c0,0.4,0,0.7,0.1,1c0.1,0.3,0.3,0.6,0.5,0.9c0.2,0.3,0.5,0.5,0.8,0.6c0.3,0.2,0.7,0.2,1.2,0.2c0.6,0,1-0.1,1.4-0.4s0.6-0.7,0.7-1.2
		h1.3C105,134.5,104.6,135.2,104,135.7z M103.7,130.4c-0.1-0.3-0.3-0.5-0.5-0.7s-0.5-0.4-0.7-0.5c-0.3-0.1-0.6-0.2-0.9-0.2
		c-0.4,0-0.7,0.1-1,0.2c-0.3,0.1-0.5,0.3-0.7,0.5c-0.2,0.2-0.4,0.5-0.5,0.7c-0.1,0.3-0.2,0.6-0.2,0.9h4.8
		C103.8,131,103.8,130.7,103.7,130.4z"/>
	<path class="st1" d="M112.8,136.2v-1.1h0c-0.2,0.5-0.6,0.8-1.1,1c-0.5,0.2-1,0.3-1.6,0.3c-0.6,0-1.2-0.1-1.7-0.4s-0.9-0.5-1.2-0.9
		c-0.3-0.4-0.6-0.9-0.7-1.4c-0.2-0.5-0.2-1.1-0.2-1.7c0-0.6,0.1-1.1,0.2-1.7c0.2-0.5,0.4-1,0.7-1.4c0.3-0.4,0.7-0.7,1.2-0.9
		s1-0.3,1.7-0.3c0.2,0,0.4,0,0.7,0.1c0.2,0,0.5,0.1,0.7,0.2c0.2,0.1,0.5,0.2,0.7,0.4c0.2,0.2,0.4,0.4,0.6,0.6h0v-4.3h1.4v11.4H112.8
		z M107.9,133.3c0.1,0.4,0.3,0.7,0.5,1s0.5,0.5,0.8,0.7s0.7,0.3,1.1,0.3c0.5,0,0.8-0.1,1.2-0.3c0.3-0.2,0.6-0.4,0.8-0.7
		c0.2-0.3,0.3-0.6,0.4-1c0.1-0.4,0.1-0.8,0.1-1.1c0-0.4,0-0.8-0.1-1.2s-0.2-0.7-0.5-1s-0.5-0.5-0.8-0.7c-0.3-0.2-0.7-0.3-1.2-0.3
		c-0.5,0-0.8,0.1-1.2,0.3c-0.3,0.2-0.6,0.4-0.8,0.7c-0.2,0.3-0.3,0.6-0.4,1c-0.1,0.4-0.1,0.8-0.1,1.2
		C107.7,132.5,107.8,132.9,107.9,133.3z"/>
	<path class="st1" d="M118.3,134.4v1.8h-1.8v-1.8H118.3z"/>
</g>
</svg>
